<?plantuml 1.2026.2?><svg xmlns="http://www.w3.org/2000/svg" xmlns:xlink="http://www.w3.org/1999/xlink" contentStyleType="text/css" data-diagram-type="ACTIVITY" height="1242px" preserveAspectRatio="none" style="width:1121px;height:1242px;background:#F9F9F9;" version="1.1" viewBox="0 0 1121 1242" width="1121px" zoomAndPan="magnify"><title>(ACD-07) Pembayaran Tagihan - Payment Gateway</title><defs/><g><rect fill="#F9F9F9" height="1242" style="stroke:none;stroke-width:1;" width="1121" x="0" y="0"/><g class="title" data-source-line="4"><text fill="#000000" font-family="sans-serif" font-size="24" font-weight="bold" lengthAdjust="spacing" textLength="687.6211" x="215.5005" y="42.2773">(ACD-07) Pembayaran Tagihan - Payment Gateway</text></g><rect fill="none" height="20.9531" style="stroke:none;stroke-width:1;" width="1088.6221" x="15" y="61.6826"/><ellipse cx="152.0488" cy="97.6357" fill="#222222" rx="10" ry="10" style="stroke:#222222;stroke-width:1;"/><rect fill="#F1F1F1" height="33.9688" rx="3.5" ry="3.5" style="stroke:#181818;stroke-width:0.5;" width="162.541" x="70.7783" y="127.6357"/><text fill="#000000" font-family="sans-serif" font-size="12" lengthAdjust="spacing" textLength="142.541" x="80.7783" y="148.7744">Masuk ke Detail Invoice</text><rect fill="#F1F1F1" height="47.9375" rx="3.5" ry="3.5" style="stroke:#181818;stroke-width:0.5;" width="173.2168" x="65.4404" y="225.6045"/><text fill="#000000" font-family="sans-serif" font-size="12" lengthAdjust="spacing" textLength="153.2168" x="75.4404" y="246.7432">Pilih bayar menggunakan</text><text fill="#000000" font-family="sans-serif" font-size="12" lengthAdjust="spacing" textLength="108.5977" x="75.4404" y="260.7119">payment gateway</text><rect fill="#F1F1F1" height="33.9688" rx="3.5" ry="3.5" style="stroke:#181818;stroke-width:0.5;" width="140.8262" x="81.6357" y="293.542"/><text fill="#000000" font-family="sans-serif" font-size="12" lengthAdjust="spacing" textLength="120.8262" x="91.6357" y="314.6807">Inisiasi pembayaran</text><rect fill="#F1F1F1" height="33.9688" rx="3.5" ry="3.5" style="stroke:#181818;stroke-width:0.5;" width="262.0977" x="21" y="635.5029"/><text fill="#000000" font-family="sans-serif" font-size="12" lengthAdjust="spacing" textLength="242.0977" x="31" y="656.6416">Menyelesaikan pembayaran melalui link</text><polygon fill="#F1F1F1" points="152.0488,181.6045,164.0488,193.6045,152.0488,205.6045,140.0488,193.6045,152.0488,181.6045" style="stroke:#181818;stroke-width:0.5;"/><rect fill="#F1F1F1" height="33.9688" rx="3.5" ry="3.5" style="stroke:#181818;stroke-width:0.5;" width="163.7656" x="70.166" y="1132.6519"/><text fill="#000000" font-family="sans-serif" font-size="12" lengthAdjust="spacing" textLength="143.7656" x="80.166" y="1153.7905">Lihat Bukti Pembayaran</text><ellipse cx="152.0488" cy="1197.6206" fill="none" rx="11" ry="11" style="stroke:#222222;stroke-width:1;"/><ellipse cx="152.0488" cy="1197.6206" fill="#222222" rx="6" ry="6" style="stroke:#222222;stroke-width:1;"/><line style="stroke:#000000;stroke-width:1.5;" x1="15" x2="15" y1="61.6826" y2="1208.6206"/><rect fill="#F1F1F1" height="33.9688" rx="3.5" ry="3.5" style="stroke:#181818;stroke-width:0.5;" width="265.1387" x="456.9531" y="347.5107"/><text fill="#000000" font-family="sans-serif" font-size="12" lengthAdjust="spacing" textLength="245.1387" x="466.9531" y="368.6494">Melakukan request ke payment gateway</text><path d="M679.4434,506.2686 L679.4434,522.4014 L659.4434,526.4014 L679.4434,530.4014 L679.4434,546.5342 A0,0 0 0 0 679.4434,546.5342 L872.0015,546.5342 A0,0 0 0 0 872.0015,546.5342 L872.0015,516.2686 L862.0015,506.2686 L679.4434,506.2686 A0,0 0 0 0 679.4434,506.2686" fill="#E5E5E5" style="stroke:#191919;stroke-width:1.5;"/><path d="M862.0015,506.2686 L862.0015,516.2686 L872.0015,516.2686 L862.0015,506.2686" fill="#E5E5E5" style="stroke:#191919;stroke-width:1.5;"/><text fill="#191919" font-family="sans-serif" font-size="13" font-weight="bold" lengthAdjust="spacing" textLength="32.5825" x="685.4434" y="523.3354">(DB)</text><text fill="#191919" font-family="sans-serif" font-size="13" lengthAdjust="spacing" textLength="134.8433" x="722.1582" y="523.3354">rental_invoices table</text><text fill="#191919" font-family="sans-serif" font-size="13" lengthAdjust="spacing" textLength="53.2568" x="685.4434" y="538.4683">order_id</text><rect fill="#F1F1F1" height="33.9688" rx="3.5" ry="3.5" style="stroke:#181818;stroke-width:0.5;" width="139.8418" x="519.6016" y="509.417"/><text fill="#000000" font-family="sans-serif" font-size="12" lengthAdjust="spacing" textLength="119.8418" x="529.6016" y="530.5557">update data Invoice</text><rect fill="#F1F1F1" height="33.9688" rx="3.5" ry="3.5" style="stroke:#181818;stroke-width:0.5;" width="264.3359" x="457.3545" y="566.5342"/><text fill="#000000" font-family="sans-serif" font-size="12" lengthAdjust="spacing" textLength="244.3359" x="467.3545" y="587.6729">Mengirimkan link pembayaran ke tenant</text><rect fill="#F1F1F1" height="33.9688" rx="3.5" ry="3.5" style="stroke:#181818;stroke-width:0.5;" width="275.8086" x="451.6182" y="743.4404"/><text fill="#000000" font-family="sans-serif" font-size="12" lengthAdjust="spacing" textLength="255.8086" x="461.6182" y="764.5791">Menunggu callback dari payment gateway</text><rect fill="#F1F1F1" height="33.9688" rx="3.5" ry="3.5" style="stroke:#181818;stroke-width:0.5;" width="121.6426" x="528.7012" y="851.3779"/><text fill="#000000" font-family="sans-serif" font-size="12" lengthAdjust="spacing" textLength="101.6426" x="538.7012" y="872.5166">Terima Notifikasi</text><path d="M301.5327,909.7646 L301.5327,934.8975 A0,0 0 0 0 301.5327,934.8975 L494.0908,934.8975 A0,0 0 0 0 494.0908,934.8975 L494.0908,927.7646 L514.0908,922.3311 L494.0908,919.7646 L494.0908,919.7646 L484.0908,909.7646 L301.5327,909.7646 A0,0 0 0 0 301.5327,909.7646" fill="#E5E5E5" style="stroke:#191919;stroke-width:1.5;"/><path d="M484.0908,909.7646 L484.0908,919.7646 L494.0908,919.7646 L484.0908,909.7646" fill="#E5E5E5" style="stroke:#191919;stroke-width:1.5;"/><text fill="#191919" font-family="sans-serif" font-size="13" font-weight="bold" lengthAdjust="spacing" textLength="32.5825" x="307.5327" y="926.8315">(DB)</text><text fill="#191919" font-family="sans-serif" font-size="13" lengthAdjust="spacing" textLength="134.8433" x="344.2476" y="926.8315">rental_invoices table</text><rect fill="#F1F1F1" height="33.9688" rx="3.5" ry="3.5" style="stroke:#181818;stroke-width:0.5;" width="150.8633" x="514.0908" y="905.3467"/><text fill="#000000" font-family="sans-serif" font-size="12" lengthAdjust="spacing" textLength="130.8633" x="524.0908" y="926.4854">Update status Invoice</text><path d="M292.0977,963.7334 L292.0977,988.8662 A0,0 0 0 0 292.0977,988.8662 L467.0791,988.8662 A0,0 0 0 0 467.0791,988.8662 L467.0791,981.7334 L487.0791,976.2998 L467.0791,973.7334 L467.0791,973.7334 L457.0791,963.7334 L292.0977,963.7334 A0,0 0 0 0 292.0977,963.7334" fill="#E5E5E5" style="stroke:#191919;stroke-width:1.5;"/><path d="M457.0791,963.7334 L457.0791,973.7334 L467.0791,973.7334 L457.0791,963.7334" fill="#E5E5E5" style="stroke:#191919;stroke-width:1.5;"/><text fill="#191919" font-family="sans-serif" font-size="13" font-weight="bold" lengthAdjust="spacing" textLength="32.5825" x="298.0977" y="980.8003">(DB)</text><text fill="#191919" font-family="sans-serif" font-size="13" lengthAdjust="spacing" textLength="117.2666" x="334.8125" y="980.8003">transactions table</text><rect fill="#F1F1F1" height="33.9688" rx="3.5" ry="3.5" style="stroke:#181818;stroke-width:0.5;" width="204.8867" x="487.0791" y="959.3154"/><text fill="#000000" font-family="sans-serif" font-size="12" lengthAdjust="spacing" textLength="184.8867" x="497.0791" y="980.4541">Buat/update data pembayaran</text><polygon fill="#F1F1F1" points="528.104,1013.2842,650.9409,1013.2842,662.9409,1025.2842,650.9409,1037.2842,528.104,1037.2842,516.104,1025.2842,528.104,1013.2842" style="stroke:#181818;stroke-width:0.5;"/><text fill="#000000" font-family="sans-serif" font-size="11" lengthAdjust="spacing" textLength="122.8369" x="528.104" y="1029.0923">pembayaran berhasil?</text><text fill="#000000" font-family="sans-serif" font-size="11" lengthAdjust="spacing" textLength="29.8687" x="662.9409" y="1022.6899">Tidak</text><rect fill="#F1F1F1" height="33.9688" rx="3.5" ry="3.5" style="stroke:#181818;stroke-width:0.5;" width="240.8574" x="469.0938" y="1078.6831"/><text fill="#000000" font-family="sans-serif" font-size="12" lengthAdjust="spacing" textLength="220.8574" x="479.0938" y="1099.8218">Kirim notifikasi pembayaran berhasil</text><line style="stroke:#000000;stroke-width:1.5;" x1="287.0977" x2="287.0977" y1="61.6826" y2="1208.6206"/><rect fill="#F1F1F1" height="33.9688" rx="3.5" ry="3.5" style="stroke:#181818;stroke-width:0.5;" width="169.0273" x="905.8677" y="401.4795"/><text fill="#000000" font-family="sans-serif" font-size="12" lengthAdjust="spacing" textLength="149.0273" x="915.8677" y="422.6182">Memproses pembayaran</text><rect fill="#F1F1F1" height="33.9688" rx="3.5" ry="3.5" style="stroke:#181818;stroke-width:0.5;" width="214.7598" x="883.0015" y="455.4482"/><text fill="#000000" font-family="sans-serif" font-size="12" lengthAdjust="spacing" textLength="194.7598" x="893.0015" y="476.5869">Memberikan response ke sistem</text><rect fill="#F1F1F1" height="33.9688" rx="3.5" ry="3.5" style="stroke:#181818;stroke-width:0.5;" width="169.0273" x="905.8677" y="689.4717"/><text fill="#000000" font-family="sans-serif" font-size="12" lengthAdjust="spacing" textLength="149.0273" x="915.8677" y="710.6104">Memproses pembayaran</text><rect fill="#F1F1F1" height="33.9688" rx="3.5" ry="3.5" style="stroke:#181818;stroke-width:0.5;" width="214.4258" x="883.1685" y="797.4092"/><text fill="#000000" font-family="sans-serif" font-size="12" lengthAdjust="spacing" textLength="194.4258" x="893.1685" y="818.5479">Memberikan notifikasi ke sistem</text><line style="stroke:#000000;stroke-width:1.5;" x1="877.0015" x2="877.0015" y1="61.6826" y2="1208.6206"/><line style="stroke:#000000;stroke-width:1.5;" x1="1101.7612" x2="1101.7612" y1="61.6826" y2="1208.6206"/><line style="stroke:#191919;stroke-width:1;" x1="152.0488" x2="152.0488" y1="107.6357" y2="127.6357"/><polygon fill="#191919" points="148.0488,117.6357,152.0488,127.6357,156.0488,117.6357,152.0488,121.6357" style="stroke:#191919;stroke-width:1;"/><line style="stroke:#191919;stroke-width:1;" x1="152.0488" x2="152.0488" y1="273.542" y2="293.542"/><polygon fill="#191919" points="148.0488,283.542,152.0488,293.542,156.0488,283.542,152.0488,287.542" style="stroke:#191919;stroke-width:1;"/><line style="stroke:#191919;stroke-width:1;" x1="152.0488" x2="152.0488" y1="205.6045" y2="225.6045"/><polygon fill="#191919" points="148.0488,215.6045,152.0488,225.6045,156.0488,215.6045,152.0488,219.6045" style="stroke:#191919;stroke-width:1;"/><line style="stroke:#191919;stroke-width:1;" x1="152.0488" x2="152.0488" y1="161.6045" y2="181.6045"/><polygon fill="#191919" points="148.0488,171.6045,152.0488,181.6045,156.0488,171.6045,152.0488,175.6045" style="stroke:#191919;stroke-width:1;"/><line style="stroke:#191919;stroke-width:1;" x1="152.0488" x2="152.0488" y1="1166.6206" y2="1186.6206"/><polygon fill="#191919" points="148.0488,1176.6206,152.0488,1186.6206,156.0488,1176.6206,152.0488,1180.6206" style="stroke:#191919;stroke-width:1;"/><line style="stroke:#191919;stroke-width:1;" x1="589.5225" x2="589.5225" y1="543.3857" y2="566.5342"/><polygon fill="#191919" points="585.5225,556.5342,589.5225,566.5342,593.5225,556.5342,589.5225,560.5342" style="stroke:#191919;stroke-width:1;"/><line style="stroke:#191919;stroke-width:1;" x1="589.5225" x2="589.5225" y1="885.3467" y2="905.3467"/><polygon fill="#191919" points="585.5225,895.3467,589.5225,905.3467,593.5225,895.3467,589.5225,899.3467" style="stroke:#191919;stroke-width:1;"/><line style="stroke:#191919;stroke-width:1;" x1="589.5225" x2="589.5225" y1="939.3154" y2="959.3154"/><polygon fill="#191919" points="585.5225,949.3154,589.5225,959.3154,593.5225,949.3154,589.5225,953.3154" style="stroke:#191919;stroke-width:1;"/><line style="stroke:#191919;stroke-width:1;" x1="589.5225" x2="589.5225" y1="993.2842" y2="1013.2842"/><polygon fill="#191919" points="585.5225,1003.2842,589.5225,1013.2842,593.5225,1003.2842,589.5225,1007.2842" style="stroke:#191919;stroke-width:1;"/><line style="stroke:#191919;stroke-width:1;" x1="589.5225" x2="589.5225" y1="1037.2842" y2="1078.6831"/><polygon fill="#191919" points="585.5225,1068.6831,589.5225,1078.6831,593.5225,1068.6831,589.5225,1072.6831" style="stroke:#191919;stroke-width:1;"/><text fill="#000000" font-family="sans-serif" font-size="11" lengthAdjust="spacing" textLength="13.46" x="593.5225" y="1058.5889">Ya</text><line style="stroke:#191919;stroke-width:1;" x1="990.3813" x2="990.3813" y1="435.4482" y2="455.4482"/><polygon fill="#191919" points="986.3813,445.4482,990.3813,455.4482,994.3813,445.4482,990.3813,449.4482" style="stroke:#191919;stroke-width:1;"/><line style="stroke:#191919;stroke-width:1;" x1="152.0488" x2="152.0488" y1="327.5107" y2="332.5107"/><line style="stroke:#191919;stroke-width:1;" x1="152.0488" x2="589.5225" y1="332.5107" y2="332.5107"/><line style="stroke:#191919;stroke-width:1;" x1="589.5225" x2="589.5225" y1="332.5107" y2="347.5107"/><polygon fill="#191919" points="585.5225,337.5107,589.5225,347.5107,593.5225,337.5107,589.5225,341.5107" style="stroke:#191919;stroke-width:1;"/><line style="stroke:#191919;stroke-width:1;" x1="589.5225" x2="589.5225" y1="381.4795" y2="386.4795"/><line style="stroke:#191919;stroke-width:1;" x1="589.5225" x2="990.3813" y1="386.4795" y2="386.4795"/><line style="stroke:#191919;stroke-width:1;" x1="990.3813" x2="990.3813" y1="386.4795" y2="401.4795"/><polygon fill="#191919" points="986.3813,391.4795,990.3813,401.4795,994.3813,391.4795,990.3813,395.4795" style="stroke:#191919;stroke-width:1;"/><line style="stroke:#191919;stroke-width:1;" x1="990.3813" x2="990.3813" y1="489.417" y2="494.417"/><line style="stroke:#191919;stroke-width:1;" x1="990.3813" x2="589.5225" y1="494.417" y2="494.417"/><line style="stroke:#191919;stroke-width:1;" x1="589.5225" x2="589.5225" y1="494.417" y2="509.417"/><polygon fill="#191919" points="585.5225,499.417,589.5225,509.417,593.5225,499.417,589.5225,503.417" style="stroke:#191919;stroke-width:1;"/><line style="stroke:#191919;stroke-width:1;" x1="589.5225" x2="589.5225" y1="600.5029" y2="618.0029"/><line style="stroke:#191919;stroke-width:1;" x1="589.5225" x2="152.0488" y1="618.0029" y2="618.0029"/><line style="stroke:#191919;stroke-width:1;" x1="152.0488" x2="152.0488" y1="618.0029" y2="635.5029"/><polygon fill="#191919" points="148.0488,625.5029,152.0488,635.5029,156.0488,625.5029,152.0488,629.5029" style="stroke:#191919;stroke-width:1;"/><line style="stroke:#191919;stroke-width:1;" x1="152.0488" x2="152.0488" y1="669.4717" y2="674.4717"/><line style="stroke:#191919;stroke-width:1;" x1="152.0488" x2="990.3813" y1="674.4717" y2="674.4717"/><line style="stroke:#191919;stroke-width:1;" x1="990.3813" x2="990.3813" y1="674.4717" y2="689.4717"/><polygon fill="#191919" points="986.3813,679.4717,990.3813,689.4717,994.3813,679.4717,990.3813,683.4717" style="stroke:#191919;stroke-width:1;"/><line style="stroke:#191919;stroke-width:1;" x1="990.3813" x2="990.3813" y1="723.4404" y2="728.4404"/><line style="stroke:#191919;stroke-width:1;" x1="990.3813" x2="589.5225" y1="728.4404" y2="728.4404"/><line style="stroke:#191919;stroke-width:1;" x1="589.5225" x2="589.5225" y1="728.4404" y2="743.4404"/><polygon fill="#191919" points="585.5225,733.4404,589.5225,743.4404,593.5225,733.4404,589.5225,737.4404" style="stroke:#191919;stroke-width:1;"/><line style="stroke:#191919;stroke-width:1;" x1="589.5225" x2="589.5225" y1="777.4092" y2="782.4092"/><line style="stroke:#191919;stroke-width:1;" x1="589.5225" x2="990.3813" y1="782.4092" y2="782.4092"/><line style="stroke:#191919;stroke-width:1;" x1="990.3813" x2="990.3813" y1="782.4092" y2="797.4092"/><polygon fill="#191919" points="986.3813,787.4092,990.3813,797.4092,994.3813,787.4092,990.3813,791.4092" style="stroke:#191919;stroke-width:1;"/><line style="stroke:#191919;stroke-width:1;" x1="990.3813" x2="990.3813" y1="831.3779" y2="836.3779"/><line style="stroke:#191919;stroke-width:1;" x1="990.3813" x2="589.5225" y1="836.3779" y2="836.3779"/><line style="stroke:#191919;stroke-width:1;" x1="589.5225" x2="589.5225" y1="836.3779" y2="851.3779"/><polygon fill="#191919" points="585.5225,841.3779,589.5225,851.3779,593.5225,841.3779,589.5225,845.3779" style="stroke:#191919;stroke-width:1;"/><line style="stroke:#191919;stroke-width:1;" x1="662.9409" x2="891.4744" y1="1025.2842" y2="1025.2842"/><polygon fill="#191919" points="887.4744,617.8701,891.4744,607.8701,895.4744,617.8701,891.4744,613.8701" style="stroke:#191919;stroke-width:1;"/><line style="stroke:#191919;stroke-width:1;" x1="891.4744" x2="891.4744" y1="193.6045" y2="1025.2842"/><line style="stroke:#191919;stroke-width:1;" x1="891.4744" x2="164.0488" y1="193.6045" y2="193.6045"/><polygon fill="#191919" points="174.0488,189.6045,164.0488,193.6045,174.0488,197.6045,170.0488,193.6045" style="stroke:#191919;stroke-width:1;"/><line style="stroke:#191919;stroke-width:1;" x1="589.5225" x2="589.5225" y1="1112.6519" y2="1117.6519"/><line style="stroke:#191919;stroke-width:1;" x1="589.5225" x2="152.0488" y1="1117.6519" y2="1117.6519"/><line style="stroke:#191919;stroke-width:1;" x1="152.0488" x2="152.0488" y1="1117.6519" y2="1132.6519"/><polygon fill="#191919" points="148.0488,1122.6519,152.0488,1132.6519,156.0488,1122.6519,152.0488,1126.6519" style="stroke:#191919;stroke-width:1;"/><text fill="#000000" font-family="sans-serif" font-size="18" lengthAdjust="spacing" textLength="62.9736" x="119.562" y="78.3906">Tenant</text><text fill="#000000" font-family="sans-serif" font-size="18" lengthAdjust="spacing" textLength="61.4707" x="551.3142" y="78.3906">Sistem</text><text fill="#000000" font-family="sans-serif" font-size="18" lengthAdjust="spacing" textLength="164.8477" x="906.9575" y="78.3906">Payment Gateway</text><g class="footer" data-source-line="5"><text fill="#888888" font-family="sans-serif" font-size="18" lengthAdjust="spacing" textLength="100.2744" x="509.1738" y="1225.3286">version 1.0</text></g><?plantuml-src bLFHQjj047o_hzZwoJQuJKgXnOAMkYObj2c6k0-5G5XRQsdHwQJUhH9S_F7PawYbnWcaUf0EtSxSpEnjADZLwB44OR5qKJcvvZy4Rz-PSDowg2eXVzmx_s1UIKubGOa-c1O8e_7dBylPsVi9hAZSu5w13jQOSQxV6QnmNv8J-8f2zxWVcLtB2QCxye4h1-UlpqR67DRaqCd17Auv29MwU8Gyz3L1q8kPNs5e2YW8bYJ85YxTNSLRIeodcb0BLcmvXrOJA5MMDGuBT3VghgFEEkh4p2yT1yR0K1zD9BsM-HLPB1h5WgVV3GM9nvwmd4fMO5dxAb3uXpZ-tf3dZZ3KbGiK6KDxtl3WfawL2_I5lJ-d2OBdB1S3-aodu-LYCfqgbHEqjzpL1H3SM6fBAf-Il-NKa4iXmgC4bx7dCcgmx8g1m2X5sgoJFlG8s9EbWAtiGNMfuTY6MvR_266OhcjYTs2BrcvmMwXVpo_Dzs-GQejtkj8cFXdbMkjAX1_7Ckt3povUlL3IX4S1MzgzADy-qaM3ycROiQ7TPpX5DmDkHKVXXB2xnt2ViyxPU92uMixLWFqq0GumNdEAnSJCFlv2zVGjTdMOnXF0OL-_wwGAB9f2U332YKvPLJy0?></g></svg>