<?plantuml 1.2026.2?><svg xmlns="http://www.w3.org/2000/svg" xmlns:xlink="http://www.w3.org/1999/xlink" contentStyleType="text/css" data-diagram-type="ACTIVITY" height="1208px" preserveAspectRatio="none" style="width:1133px;height:1208px;background:#F9F9F9;" version="1.1" viewBox="0 0 1133 1208" width="1133px" zoomAndPan="magnify"><title>(ACD-11) Tambah Kuota Properti</title><defs/><g><rect fill="#F9F9F9" height="1208" style="stroke:none;stroke-width:1;" width="1133" x="0" y="0"/><g class="title" data-source-line="4"><text fill="#000000" font-family="sans-serif" font-size="24" font-weight="bold" lengthAdjust="spacing" textLength="445.2539" x="342.4702" y="42.2773">(ACD-11) Tambah Kuota Properti</text></g><rect fill="none" height="20.9531" style="stroke:none;stroke-width:1;" width="1100.1943" x="15" y="61.6826"/><ellipse cx="201.4111" cy="97.6357" fill="#222222" rx="10" ry="10" style="stroke:#222222;stroke-width:1;"/><rect fill="#F1F1F1" height="33.9688" rx="3.5" ry="3.5" style="stroke:#181818;stroke-width:0.5;" width="167.9609" x="117.4307" y="127.6357"/><text fill="#000000" font-family="sans-serif" font-size="12" lengthAdjust="spacing" textLength="147.9609" x="127.4307" y="148.7744">Masuk ke daftar Properti</text><rect fill="#F1F1F1" height="33.9688" rx="3.5" ry="3.5" style="stroke:#181818;stroke-width:0.5;" width="222.5293" x="90.1465" y="181.6045"/><text fill="#000000" font-family="sans-serif" font-size="12" lengthAdjust="spacing" textLength="202.5293" x="100.1465" y="202.7432">Pilih menu tambah kuota properti</text><rect fill="#F1F1F1" height="33.9688" rx="3.5" ry="3.5" style="stroke:#181818;stroke-width:0.5;" width="226.0566" x="88.3828" y="235.5732"/><text fill="#000000" font-family="sans-serif" font-size="12" lengthAdjust="spacing" textLength="206.0566" x="98.3828" y="256.7119">Pilih paket upgrade kuota properti</text><rect fill="#F1F1F1" height="33.9688" rx="3.5" ry="3.5" style="stroke:#181818;stroke-width:0.5;" width="332.2813" x="35.2705" y="289.542"/><text fill="#000000" font-family="sans-serif" font-size="12" lengthAdjust="spacing" textLength="312.2813" x="45.2705" y="310.6807">Konfirmasi pembelian paket upgrade kuota properti</text><rect fill="#F1F1F1" height="33.9688" rx="3.5" ry="3.5" style="stroke:#181818;stroke-width:0.5;" width="262.0977" x="70.3623" y="667.3232"/><text fill="#000000" font-family="sans-serif" font-size="12" lengthAdjust="spacing" textLength="242.0977" x="80.3623" y="688.4619">Menyelesaikan pembayaran melalui link</text><rect fill="#F1F1F1" height="33.9688" rx="3.5" ry="3.5" style="stroke:#181818;stroke-width:0.5;" width="251.7207" x="75.5508" y="1045.1045"/><text fill="#000000" font-family="sans-serif" font-size="12" lengthAdjust="spacing" textLength="231.7207" x="85.5508" y="1066.2432">Terima notifikasi pembayaran berhasil</text><rect fill="#F1F1F1" height="33.9688" rx="3.5" ry="3.5" style="stroke:#181818;stroke-width:0.5;" width="360.8223" x="21" y="1099.0732"/><text fill="#000000" font-family="sans-serif" font-size="12" lengthAdjust="spacing" textLength="340.8223" x="31" y="1120.2119">Melihat riwayat pembelian paket upgrade kuota properti</text><ellipse cx="201.4111" cy="1164.042" fill="none" rx="11" ry="11" style="stroke:#222222;stroke-width:1;"/><ellipse cx="201.4111" cy="1164.042" fill="#222222" rx="6" ry="6" style="stroke:#222222;stroke-width:1;"/><line style="stroke:#000000;stroke-width:1.5;" x1="15" x2="15" y1="61.6826" y2="1175.042"/><path d="M628.5713,347.9287 L628.5713,356.4951 L608.5713,360.4951 L628.5713,364.4951 L628.5713,373.0615 A0,0 0 0 0 628.5713,373.0615 L874.8813,373.0615 A0,0 0 0 0 874.8813,373.0615 L874.8813,357.9287 L864.8813,347.9287 L628.5713,347.9287 A0,0 0 0 0 628.5713,347.9287" fill="#E5E5E5" style="stroke:#191919;stroke-width:1.5;"/><path d="M864.8813,347.9287 L864.8813,357.9287 L874.8813,357.9287 L864.8813,347.9287" fill="#E5E5E5" style="stroke:#191919;stroke-width:1.5;"/><text fill="#191919" font-family="sans-serif" font-size="13" font-weight="bold" lengthAdjust="spacing" textLength="32.5825" x="634.5713" y="364.9956">(DB)</text><text fill="#191919" font-family="sans-serif" font-size="13" lengthAdjust="spacing" textLength="188.5952" x="671.2861" y="364.9956">order_slot_transactions table</text><rect fill="#F1F1F1" height="33.9688" rx="3.5" ry="3.5" style="stroke:#181818;stroke-width:0.5;" width="153.834" x="454.7373" y="343.5107"/><text fill="#000000" font-family="sans-serif" font-size="12" lengthAdjust="spacing" textLength="133.834" x="464.7373" y="364.6494">Menyiapkan Transaksi</text><rect fill="#F1F1F1" height="33.9688" rx="3.5" ry="3.5" style="stroke:#181818;stroke-width:0.5;" width="279.6641" x="391.8223" y="397.4795"/><text fill="#000000" font-family="sans-serif" font-size="12" lengthAdjust="spacing" textLength="259.6641" x="401.8223" y="418.6182">Request pembayaran ke payment gateway</text><path d="M629.3945,563.8037 L629.3945,572.3701 L609.3945,576.3701 L629.3945,580.3701 L629.3945,588.9365 A0,0 0 0 0 629.3945,588.9365 L875.7046,588.9365 A0,0 0 0 0 875.7046,588.9365 L875.7046,573.8037 L865.7046,563.8037 L629.3945,563.8037 A0,0 0 0 0 629.3945,563.8037" fill="#E5E5E5" style="stroke:#191919;stroke-width:1.5;"/><path d="M865.7046,563.8037 L865.7046,573.8037 L875.7046,573.8037 L865.7046,563.8037" fill="#E5E5E5" style="stroke:#191919;stroke-width:1.5;"/><text fill="#191919" font-family="sans-serif" font-size="13" font-weight="bold" lengthAdjust="spacing" textLength="32.5825" x="635.3945" y="580.8706">(DB)</text><text fill="#191919" font-family="sans-serif" font-size="13" lengthAdjust="spacing" textLength="188.5952" x="672.1094" y="580.8706">order_slot_transactions table</text><rect fill="#F1F1F1" height="33.9688" rx="3.5" ry="3.5" style="stroke:#181818;stroke-width:0.5;" width="155.4805" x="453.9141" y="559.3857"/><text fill="#000000" font-family="sans-serif" font-size="12" lengthAdjust="spacing" textLength="135.4805" x="463.9141" y="580.5244">Update data Transaksi</text><rect fill="#F1F1F1" height="33.9688" rx="3.5" ry="3.5" style="stroke:#181818;stroke-width:0.5;" width="262.0566" x="400.626" y="613.3545"/><text fill="#000000" font-family="sans-serif" font-size="12" lengthAdjust="spacing" textLength="242.0566" x="410.626" y="634.4932">Mengirimkan link pembayaran ke owner</text><rect fill="#F1F1F1" height="33.9688" rx="3.5" ry="3.5" style="stroke:#181818;stroke-width:0.5;" width="275.8086" x="393.75" y="775.2607"/><text fill="#000000" font-family="sans-serif" font-size="12" lengthAdjust="spacing" textLength="255.8086" x="403.75" y="796.3994">Menunggu callback dari payment gateway</text><path d="M634.3164,887.6162 L634.3164,896.1826 L614.3164,900.1826 L634.3164,904.1826 L634.3164,912.749 A0,0 0 0 0 634.3164,912.749 L880.6265,912.749 A0,0 0 0 0 880.6265,912.749 L880.6265,897.6162 L870.6265,887.6162 L634.3164,887.6162 A0,0 0 0 0 634.3164,887.6162" fill="#E5E5E5" style="stroke:#191919;stroke-width:1.5;"/><path d="M870.6265,887.6162 L870.6265,897.6162 L880.6265,897.6162 L870.6265,887.6162" fill="#E5E5E5" style="stroke:#191919;stroke-width:1.5;"/><text fill="#191919" font-family="sans-serif" font-size="13" font-weight="bold" lengthAdjust="spacing" textLength="32.5825" x="640.3164" y="904.6831">(DB)</text><text fill="#191919" font-family="sans-serif" font-size="13" lengthAdjust="spacing" textLength="188.5952" x="677.0313" y="904.6831">order_slot_transactions table</text><rect fill="#F1F1F1" height="33.9688" rx="3.5" ry="3.5" style="stroke:#181818;stroke-width:0.5;" width="165.3242" x="448.9922" y="883.1982"/><text fill="#000000" font-family="sans-serif" font-size="12" lengthAdjust="spacing" textLength="145.3242" x="458.9922" y="904.3369">Update status Transaksi</text><path d="M628.1084,941.585 L628.1084,950.1514 L608.1084,954.1514 L628.1084,958.1514 L628.1084,966.7178 A0,0 0 0 0 628.1084,966.7178 L799.7573,966.7178 A0,0 0 0 0 799.7573,966.7178 L799.7573,951.585 L789.7573,941.585 L628.1084,941.585 A0,0 0 0 0 628.1084,941.585" fill="#E5E5E5" style="stroke:#191919;stroke-width:1.5;"/><path d="M789.7573,941.585 L789.7573,951.585 L799.7573,951.585 L789.7573,941.585" fill="#E5E5E5" style="stroke:#191919;stroke-width:1.5;"/><text fill="#191919" font-family="sans-serif" font-size="13" font-weight="bold" lengthAdjust="spacing" textLength="32.5825" x="634.1084" y="958.6519">(DB)</text><text fill="#191919" font-family="sans-serif" font-size="13" lengthAdjust="spacing" textLength="113.9341" x="670.8232" y="958.6519">owner_slots table</text><rect fill="#F1F1F1" height="33.9688" rx="3.5" ry="3.5" style="stroke:#181818;stroke-width:0.5;" width="152.9082" x="455.2002" y="937.167"/><text fill="#000000" font-family="sans-serif" font-size="12" lengthAdjust="spacing" textLength="132.9082" x="465.2002" y="958.3057">Update kuota properti</text><rect fill="#F1F1F1" height="33.9688" rx="3.5" ry="3.5" style="stroke:#181818;stroke-width:0.5;" width="240.8574" x="411.2256" y="991.1357"/><text fill="#000000" font-family="sans-serif" font-size="12" lengthAdjust="spacing" textLength="220.8574" x="421.2256" y="1012.2744">Kirim notifikasi pembayaran berhasil</text><line style="stroke:#000000;stroke-width:1.5;" x1="385.8223" x2="385.8223" y1="61.6826" y2="1175.042"/><rect fill="#F1F1F1" height="33.9688" rx="3.5" ry="3.5" style="stroke:#181818;stroke-width:0.5;" width="217.707" x="891.6265" y="451.4482"/><text fill="#000000" font-family="sans-serif" font-size="12" lengthAdjust="spacing" textLength="197.707" x="901.6265" y="472.5869">Membuat Transaksi pembayaran</text><rect fill="#F1F1F1" height="33.9688" rx="3.5" ry="3.5" style="stroke:#181818;stroke-width:0.5;" width="214.7598" x="893.1001" y="505.417"/><text fill="#000000" font-family="sans-serif" font-size="12" lengthAdjust="spacing" textLength="194.7598" x="903.1001" y="526.5557">Memberikan response ke sistem</text><rect fill="#F1F1F1" height="33.9688" rx="3.5" ry="3.5" style="stroke:#181818;stroke-width:0.5;" width="169.0273" x="915.9663" y="721.292"/><text fill="#000000" font-family="sans-serif" font-size="12" lengthAdjust="spacing" textLength="149.0273" x="925.9663" y="742.4307">Memproses pembayaran</text><rect fill="#F1F1F1" height="33.9688" rx="3.5" ry="3.5" style="stroke:#181818;stroke-width:0.5;" width="214.4258" x="893.2671" y="829.2295"/><text fill="#000000" font-family="sans-serif" font-size="12" lengthAdjust="spacing" textLength="194.4258" x="903.2671" y="850.3682">Memberikan notifikasi ke sistem</text><line style="stroke:#000000;stroke-width:1.5;" x1="885.6265" x2="885.6265" y1="61.6826" y2="1175.042"/><line style="stroke:#000000;stroke-width:1.5;" x1="1113.3335" x2="1113.3335" y1="61.6826" y2="1175.042"/><line style="stroke:#191919;stroke-width:1;" x1="201.4111" x2="201.4111" y1="107.6357" y2="127.6357"/><polygon fill="#191919" points="197.4111,117.6357,201.4111,127.6357,205.4111,117.6357,201.4111,121.6357" style="stroke:#191919;stroke-width:1;"/><line style="stroke:#191919;stroke-width:1;" x1="201.4111" x2="201.4111" y1="161.6045" y2="181.6045"/><polygon fill="#191919" points="197.4111,171.6045,201.4111,181.6045,205.4111,171.6045,201.4111,175.6045" style="stroke:#191919;stroke-width:1;"/><line style="stroke:#191919;stroke-width:1;" x1="201.4111" x2="201.4111" y1="215.5732" y2="235.5732"/><polygon fill="#191919" points="197.4111,225.5732,201.4111,235.5732,205.4111,225.5732,201.4111,229.5732" style="stroke:#191919;stroke-width:1;"/><line style="stroke:#191919;stroke-width:1;" x1="201.4111" x2="201.4111" y1="269.542" y2="289.542"/><polygon fill="#191919" points="197.4111,279.542,201.4111,289.542,205.4111,279.542,201.4111,283.542" style="stroke:#191919;stroke-width:1;"/><line style="stroke:#191919;stroke-width:1;" x1="201.4111" x2="201.4111" y1="1079.0732" y2="1099.0732"/><polygon fill="#191919" points="197.4111,1089.0732,201.4111,1099.0732,205.4111,1089.0732,201.4111,1093.0732" style="stroke:#191919;stroke-width:1;"/><line style="stroke:#191919;stroke-width:1;" x1="201.4111" x2="201.4111" y1="1133.042" y2="1153.042"/><polygon fill="#191919" points="197.4111,1143.042,201.4111,1153.042,205.4111,1143.042,201.4111,1147.042" style="stroke:#191919;stroke-width:1;"/><line style="stroke:#191919;stroke-width:1;" x1="531.6543" x2="531.6543" y1="377.4795" y2="397.4795"/><polygon fill="#191919" points="527.6543,387.4795,531.6543,397.4795,535.6543,387.4795,531.6543,391.4795" style="stroke:#191919;stroke-width:1;"/><line style="stroke:#191919;stroke-width:1;" x1="531.6543" x2="531.6543" y1="593.3545" y2="613.3545"/><polygon fill="#191919" points="527.6543,603.3545,531.6543,613.3545,535.6543,603.3545,531.6543,607.3545" style="stroke:#191919;stroke-width:1;"/><line style="stroke:#191919;stroke-width:1;" x1="531.6543" x2="531.6543" y1="917.167" y2="937.167"/><polygon fill="#191919" points="527.6543,927.167,531.6543,937.167,535.6543,927.167,531.6543,931.167" style="stroke:#191919;stroke-width:1;"/><line style="stroke:#191919;stroke-width:1;" x1="531.6543" x2="531.6543" y1="971.1357" y2="991.1357"/><polygon fill="#191919" points="527.6543,981.1357,531.6543,991.1357,535.6543,981.1357,531.6543,985.1357" style="stroke:#191919;stroke-width:1;"/><line style="stroke:#191919;stroke-width:1;" x1="1000.48" x2="1000.48" y1="485.417" y2="505.417"/><polygon fill="#191919" points="996.48,495.417,1000.48,505.417,1004.48,495.417,1000.48,499.417" style="stroke:#191919;stroke-width:1;"/><line style="stroke:#191919;stroke-width:1;" x1="201.4111" x2="201.4111" y1="323.5107" y2="328.5107"/><line style="stroke:#191919;stroke-width:1;" x1="201.4111" x2="531.6543" y1="328.5107" y2="328.5107"/><line style="stroke:#191919;stroke-width:1;" x1="531.6543" x2="531.6543" y1="328.5107" y2="343.5107"/><polygon fill="#191919" points="527.6543,333.5107,531.6543,343.5107,535.6543,333.5107,531.6543,337.5107" style="stroke:#191919;stroke-width:1;"/><line style="stroke:#191919;stroke-width:1;" x1="531.6543" x2="531.6543" y1="431.4482" y2="436.4482"/><line style="stroke:#191919;stroke-width:1;" x1="531.6543" x2="1000.48" y1="436.4482" y2="436.4482"/><line style="stroke:#191919;stroke-width:1;" x1="1000.48" x2="1000.48" y1="436.4482" y2="451.4482"/><polygon fill="#191919" points="996.48,441.4482,1000.48,451.4482,1004.48,441.4482,1000.48,445.4482" style="stroke:#191919;stroke-width:1;"/><line style="stroke:#191919;stroke-width:1;" x1="1000.48" x2="1000.48" y1="539.3857" y2="544.3857"/><line style="stroke:#191919;stroke-width:1;" x1="1000.48" x2="531.6543" y1="544.3857" y2="544.3857"/><line style="stroke:#191919;stroke-width:1;" x1="531.6543" x2="531.6543" y1="544.3857" y2="559.3857"/><polygon fill="#191919" points="527.6543,549.3857,531.6543,559.3857,535.6543,549.3857,531.6543,553.3857" style="stroke:#191919;stroke-width:1;"/><line style="stroke:#191919;stroke-width:1;" x1="531.6543" x2="531.6543" y1="647.3232" y2="652.3232"/><line style="stroke:#191919;stroke-width:1;" x1="531.6543" x2="201.4111" y1="652.3232" y2="652.3232"/><line style="stroke:#191919;stroke-width:1;" x1="201.4111" x2="201.4111" y1="652.3232" y2="667.3232"/><polygon fill="#191919" points="197.4111,657.3232,201.4111,667.3232,205.4111,657.3232,201.4111,661.3232" style="stroke:#191919;stroke-width:1;"/><line style="stroke:#191919;stroke-width:1;" x1="201.4111" x2="201.4111" y1="701.292" y2="706.292"/><line style="stroke:#191919;stroke-width:1;" x1="201.4111" x2="1000.48" y1="706.292" y2="706.292"/><line style="stroke:#191919;stroke-width:1;" x1="1000.48" x2="1000.48" y1="706.292" y2="721.292"/><polygon fill="#191919" points="996.48,711.292,1000.48,721.292,1004.48,711.292,1000.48,715.292" style="stroke:#191919;stroke-width:1;"/><line style="stroke:#191919;stroke-width:1;" x1="1000.48" x2="1000.48" y1="755.2607" y2="760.2607"/><line style="stroke:#191919;stroke-width:1;" x1="1000.48" x2="531.6543" y1="760.2607" y2="760.2607"/><line style="stroke:#191919;stroke-width:1;" x1="531.6543" x2="531.6543" y1="760.2607" y2="775.2607"/><polygon fill="#191919" points="527.6543,765.2607,531.6543,775.2607,535.6543,765.2607,531.6543,769.2607" style="stroke:#191919;stroke-width:1;"/><line style="stroke:#191919;stroke-width:1;" x1="531.6543" x2="531.6543" y1="809.2295" y2="814.2295"/><line style="stroke:#191919;stroke-width:1;" x1="531.6543" x2="1000.48" y1="814.2295" y2="814.2295"/><line style="stroke:#191919;stroke-width:1;" x1="1000.48" x2="1000.48" y1="814.2295" y2="829.2295"/><polygon fill="#191919" points="996.48,819.2295,1000.48,829.2295,1004.48,819.2295,1000.48,823.2295" style="stroke:#191919;stroke-width:1;"/><line style="stroke:#191919;stroke-width:1;" x1="1000.48" x2="1000.48" y1="863.1982" y2="868.1982"/><line style="stroke:#191919;stroke-width:1;" x1="1000.48" x2="531.6543" y1="868.1982" y2="868.1982"/><line style="stroke:#191919;stroke-width:1;" x1="531.6543" x2="531.6543" y1="868.1982" y2="883.1982"/><polygon fill="#191919" points="527.6543,873.1982,531.6543,883.1982,535.6543,873.1982,531.6543,877.1982" style="stroke:#191919;stroke-width:1;"/><line style="stroke:#191919;stroke-width:1;" x1="531.6543" x2="531.6543" y1="1025.1045" y2="1030.1045"/><line style="stroke:#191919;stroke-width:1;" x1="531.6543" x2="201.4111" y1="1030.1045" y2="1030.1045"/><line style="stroke:#191919;stroke-width:1;" x1="201.4111" x2="201.4111" y1="1030.1045" y2="1045.1045"/><polygon fill="#191919" points="197.4111,1035.1045,201.4111,1045.1045,205.4111,1035.1045,201.4111,1039.1045" style="stroke:#191919;stroke-width:1;"/><text fill="#000000" font-family="sans-serif" font-size="18" lengthAdjust="spacing" textLength="58.7725" x="171.0249" y="78.3906">Owner</text><text fill="#000000" font-family="sans-serif" font-size="18" lengthAdjust="spacing" textLength="61.4707" x="604.989" y="78.3906">Sistem</text><text fill="#000000" font-family="sans-serif" font-size="18" lengthAdjust="spacing" textLength="164.8477" x="917.0562" y="78.3906">Payment Gateway</text><g class="footer" data-source-line="5"><text fill="#888888" font-family="sans-serif" font-size="18" lengthAdjust="spacing" textLength="100.2744" x="514.96" y="1191.75">version 1.0</text></g><?plantuml-src hPDFRzD04CNl-oc6dDf8HGHnGCcfK9L3L17HSAx6ySGUUV-nEwOAoeTdx4Ikcr9Q2NnQUMVUllURtTomZvZGWR1OkWvURlaNmViF9WzRro48fM5lzj6yaPeSWSEKJTy8axFBprSNizavhD4LMCEo3OAmIY5I4fwORIy2av-KCWSFixVl9iRilzvxIdkpl-Kiv7InmfqZB_05XUvnjnzAic0ICx_1t3RG49IurJ_32GipNx7b6hIx1JcOQ7eJyRGaOaC2RQmIblIqQ1dybfF3p1395MGP_GizW__v3VaTOsoqPPtGPsooxdiD3uchMWpeDvsUNNqwdquXf9BINRP1xgIlteZ2oUg_i6J8bz1rclat-j5IbjuFxdGglaCGZwog0wl57-Yf7rUqA0zcHXgBmpObxkmcob7Ffauvzt76kRx7KZMLkkR-Zy4KLyM9NMV0iczE4ePkzelX3lHqoLB6tl6erf55stAlyHm77LUc_2Z_excrlgfQsA2r1MuQZPhurOYF33KKRtMbcFz6KU-oj7dCyPz17fLFB-QpiXtGNlQfrB8Ro3ZAYBC6hVMN7SrahTaTlbYlcFJjwKrChDXGNlssieJu6m00?></g></svg>