<?plantuml 1.2026.2?><svg xmlns="http://www.w3.org/2000/svg" xmlns:xlink="http://www.w3.org/1999/xlink" contentStyleType="text/css" data-diagram-type="ACTIVITY" height="930px" preserveAspectRatio="none" style="width:1194px;height:930px;background:#F9F9F9;" version="1.1" viewBox="0 0 1194 930" width="1194px" zoomAndPan="magnify"><title>Mengajukan Sewa</title><defs/><g><rect fill="#F9F9F9" height="930" style="stroke:none;stroke-width:1;" width="1194" x="0" y="0"/><g class="title" data-source-line="4"><text fill="#000000" font-family="sans-serif" font-size="24" font-weight="bold" lengthAdjust="spacing" textLength="245.4609" x="472.8721" y="42.2773">Mengajukan Sewa</text></g><rect fill="none" height="20.9531" style="stroke:none;stroke-width:1;" width="1161.2051" x="15" y="61.6826"/><ellipse cx="128.1572" cy="97.6357" fill="#222222" rx="10" ry="10" style="stroke:#222222;stroke-width:1;"/><rect fill="#F1F1F1" height="33.9688" rx="3.5" ry="3.5" style="stroke:#181818;stroke-width:0.5;" width="214.3145" x="21" y="127.6357"/><text fill="#000000" font-family="sans-serif" font-size="12" lengthAdjust="spacing" textLength="194.3145" x="31" y="148.7744">Pilih Properti yang Akan di Sewa</text><path d="M226.6006,215.6045 L226.6006,239.3037 L206.6006,243.3037 L226.6006,247.3037 L226.6006,271.0029 A0,0 0 0 0 226.6006,271.0029 L428.5278,271.0029 A0,0 0 0 0 428.5278,271.0029 L428.5278,225.6045 L418.5278,215.6045 L226.6006,215.6045 A0,0 0 0 0 226.6006,215.6045" fill="#E5E5E5" style="stroke:#191919;stroke-width:1.5;"/><path d="M418.5278,215.6045 L418.5278,225.6045 L428.5278,225.6045 L418.5278,215.6045" fill="#E5E5E5" style="stroke:#191919;stroke-width:1.5;"/><text fill="#191919" font-family="sans-serif" font-size="13" font-weight="bold" lengthAdjust="spacing" textLength="34.5503" x="232.6006" y="232.6714">Data</text><text fill="#191919" font-family="sans-serif" font-size="13" lengthAdjust="spacing" textLength="4.3799" x="267.1509" y="232.6714">:</text><text fill="#191919" font-family="sans-serif" font-size="13" lengthAdjust="spacing" textLength="180.9272" x="232.6006" y="247.8042">Durasi/Skema Pembayaran,</text><text fill="#191919" font-family="sans-serif" font-size="13" lengthAdjust="spacing" textLength="91.0063" x="232.6006" y="262.937">Tanggal Mulai</text><rect fill="#F1F1F1" height="33.9688" rx="3.5" ry="3.5" style="stroke:#181818;stroke-width:0.5;" width="156.8867" x="49.7139" y="226.3193"/><text fill="#000000" font-family="sans-serif" font-size="12" lengthAdjust="spacing" textLength="136.8867" x="59.7139" y="247.458">Isi Form Request Sewa</text><rect fill="#F1F1F1" height="33.9688" rx="3.5" ry="3.5" style="stroke:#181818;stroke-width:0.5;" width="104.2578" x="76.0283" y="298.7021"/><text fill="#000000" font-family="sans-serif" font-size="12" lengthAdjust="spacing" textLength="84.2578" x="86.0283" y="319.8408">Kirim Request</text><polygon fill="#F1F1F1" points="128.1572,181.6045,140.1572,193.6045,128.1572,205.6045,116.1572,193.6045,128.1572,181.6045" style="stroke:#181818;stroke-width:0.5;"/><line style="stroke:#000000;stroke-width:1.5;" x1="15" x2="15" y1="61.6826" y2="896.6123"/><rect fill="#F1F1F1" height="33.9688" rx="3.5" ry="3.5" style="stroke:#181818;stroke-width:0.5;" width="99.2539" x="618.812" y="358.9404"/><text fill="#000000" font-family="sans-serif" font-size="12" lengthAdjust="spacing" textLength="79.2539" x="628.812" y="380.0791">Validasi Data</text><polygon fill="#F1F1F1" points="636.959,412.9092,699.9189,412.9092,711.9189,424.9092,699.9189,436.9092,636.959,436.9092,624.959,424.9092,636.959,412.9092" style="stroke:#181818;stroke-width:0.5;"/><text fill="#000000" font-family="sans-serif" font-size="11" lengthAdjust="spacing" textLength="62.96" x="636.959" y="428.7173">Data Valid?</text><text fill="#000000" font-family="sans-serif" font-size="11" lengthAdjust="spacing" textLength="29.8687" x="711.9189" y="422.3149">Tidak</text><rect fill="#F1F1F1" height="47.9375" rx="3.5" ry="3.5" style="stroke:#181818;stroke-width:0.5;" width="89.3691" x="914.9849" y="281.0029"/><text fill="#000000" font-family="sans-serif" font-size="12" lengthAdjust="spacing" textLength="62.5664" x="924.9849" y="302.1416">Tampilkan</text><text fill="#000000" font-family="sans-serif" font-size="12" lengthAdjust="spacing" textLength="69.3691" x="924.9849" y="316.1104">Pesan Error</text><path d="M438.5278,476.5654 L438.5278,516.8311 A0,0 0 0 0 438.5278,516.8311 L578.3306,516.8311 A0,0 0 0 0 578.3306,516.8311 L578.3306,500.6982 L598.3306,496.6982 L578.3306,492.6982 L578.3306,486.5654 L568.3306,476.5654 L438.5278,476.5654 A0,0 0 0 0 438.5278,476.5654" fill="#E5E5E5" style="stroke:#191919;stroke-width:1.5;"/><path d="M568.3306,476.5654 L568.3306,486.5654 L578.3306,486.5654 L568.3306,476.5654" fill="#E5E5E5" style="stroke:#191919;stroke-width:1.5;"/><text fill="#191919" font-family="sans-serif" font-size="13" font-weight="bold" lengthAdjust="spacing" textLength="32.5825" x="444.5278" y="493.6323">(DB)</text><text fill="#191919" font-family="sans-serif" font-size="13" lengthAdjust="spacing" textLength="82.0879" x="481.2427" y="493.6323">rentals table</text><text fill="#191919" font-family="sans-serif" font-size="13" lengthAdjust="spacing" textLength="114.4102" x="444.5278" y="508.7651">status: requested</text><rect fill="#F1F1F1" height="33.9688" rx="3.5" ry="3.5" style="stroke:#181818;stroke-width:0.5;" width="140.2168" x="598.3306" y="479.7139"/><text fill="#000000" font-family="sans-serif" font-size="12" lengthAdjust="spacing" textLength="120.2168" x="608.3306" y="500.8525">Simpan Data Rental</text><rect fill="#F1F1F1" height="47.9375" rx="3.5" ry="3.5" style="stroke:#181818;stroke-width:0.5;" width="165.1953" x="585.8413" y="536.8311"/><text fill="#000000" font-family="sans-serif" font-size="12" lengthAdjust="spacing" textLength="116.6016" x="595.8413" y="557.9697">Kirim Tenant Pesan</text><text fill="#000000" font-family="sans-serif" font-size="12" lengthAdjust="spacing" textLength="145.1953" x="595.8413" y="571.9385">Request Berhasil Dibuat</text><rect fill="#F1F1F1" height="33.9688" rx="3.5" ry="3.5" style="stroke:#181818;stroke-width:0.5;" width="153.7754" x="591.5513" y="604.7686"/><text fill="#000000" font-family="sans-serif" font-size="12" lengthAdjust="spacing" textLength="133.7754" x="601.5513" y="625.9072">Kirim Owner Notifikasi</text><polygon fill="#F1F1F1" points="617.4189,780.6436,719.459,780.6436,731.459,792.6436,719.459,804.6436,617.4189,804.6436,605.4189,792.6436,617.4189,780.6436" style="stroke:#181818;stroke-width:0.5;"/><text fill="#000000" font-family="sans-serif" font-size="11" lengthAdjust="spacing" textLength="102.04" x="617.4189" y="796.4517">request accepted?</text><text fill="#000000" font-family="sans-serif" font-size="11" lengthAdjust="spacing" textLength="13.46" x="591.959" y="790.0493">Ya</text><text fill="#000000" font-family="sans-serif" font-size="11" lengthAdjust="spacing" textLength="29.8687" x="731.459" y="790.0493">Tidak</text><rect fill="#F1F1F1" height="33.9688" rx="3.5" ry="3.5" style="stroke:#181818;stroke-width:0.5;" width="210.5938" x="442.5278" y="814.6436"/><text fill="#000000" font-family="sans-serif" font-size="12" lengthAdjust="spacing" textLength="190.5938" x="452.5278" y="835.7822">Lanjut Tahap Negosiasi Kontrak</text><ellipse cx="547.8247" cy="879.6123" fill="none" rx="11" ry="11" style="stroke:#222222;stroke-width:1;"/><ellipse cx="547.8247" cy="879.6123" fill="#222222" rx="6" ry="6" style="stroke:#222222;stroke-width:1;"/><rect fill="#F1F1F1" height="33.9688" rx="3.5" ry="3.5" style="stroke:#181818;stroke-width:0.5;" width="231.8633" x="673.1216" y="814.6436"/><text fill="#000000" font-family="sans-serif" font-size="12" lengthAdjust="spacing" textLength="211.8633" x="683.1216" y="835.7822">Tampilkan Pesan Request Rejected</text><ellipse cx="789.0532" cy="879.6123" fill="none" rx="11" ry="11" style="stroke:#222222;stroke-width:1;"/><ellipse cx="789.0532" cy="879.6123" fill="#222222" rx="6" ry="6" style="stroke:#222222;stroke-width:1;"/><line style="stroke:#000000;stroke-width:1.5;" x1="433.5278" x2="433.5278" y1="61.6826" y2="896.6123"/><rect fill="#F1F1F1" height="47.9375" rx="3.5" ry="3.5" style="stroke:#181818;stroke-width:0.5;" width="121.6426" x="1031.5278" y="658.7373"/><text fill="#000000" font-family="sans-serif" font-size="12" lengthAdjust="spacing" textLength="101.6426" x="1041.5278" y="679.876">Terima Notifikasi</text><text fill="#000000" font-family="sans-serif" font-size="12" lengthAdjust="spacing" textLength="85.2656" x="1041.5278" y="693.8447">Request Sewa</text><rect fill="#F1F1F1" height="33.9688" rx="3.5" ry="3.5" style="stroke:#181818;stroke-width:0.5;" width="155.9902" x="1014.354" y="726.6748"/><text fill="#000000" font-family="sans-serif" font-size="12" lengthAdjust="spacing" textLength="135.9902" x="1024.354" y="747.8135">Accept/Reject Request</text><line style="stroke:#000000;stroke-width:1.5;" x1="1008.354" x2="1008.354" y1="61.6826" y2="896.6123"/><line style="stroke:#000000;stroke-width:1.5;" x1="1174.3442" x2="1174.3442" y1="61.6826" y2="896.6123"/><line style="stroke:#191919;stroke-width:1;" x1="128.1572" x2="128.1572" y1="107.6357" y2="127.6357"/><polygon fill="#191919" points="124.1572,117.6357,128.1572,127.6357,132.1572,117.6357,128.1572,121.6357" style="stroke:#191919;stroke-width:1;"/><line style="stroke:#191919;stroke-width:1;" x1="128.1572" x2="128.1572" y1="260.2881" y2="298.7021"/><polygon fill="#191919" points="124.1572,288.7021,128.1572,298.7021,132.1572,288.7021,128.1572,292.7021" style="stroke:#191919;stroke-width:1;"/><line style="stroke:#191919;stroke-width:1;" x1="128.1572" x2="128.1572" y1="205.6045" y2="226.3193"/><polygon fill="#191919" points="124.1572,216.3193,128.1572,226.3193,132.1572,216.3193,128.1572,220.3193" style="stroke:#191919;stroke-width:1;"/><line style="stroke:#191919;stroke-width:1;" x1="128.1572" x2="128.1572" y1="161.6045" y2="181.6045"/><polygon fill="#191919" points="124.1572,171.6045,128.1572,181.6045,132.1572,171.6045,128.1572,175.6045" style="stroke:#191919;stroke-width:1;"/><line style="stroke:#191919;stroke-width:1;" x1="711.9189" x2="959.6694" y1="424.9092" y2="424.9092"/><line style="stroke:#191919;stroke-width:1;" x1="959.6694" x2="959.6694" y1="328.9404" y2="424.9092"/><polygon fill="#191919" points="955.6694,338.9404,959.6694,328.9404,963.6694,338.9404,959.6694,334.9404" style="stroke:#191919;stroke-width:1;"/><line style="stroke:#191919;stroke-width:1;" x1="668.439" x2="668.439" y1="392.9092" y2="412.9092"/><polygon fill="#191919" points="664.439,402.9092,668.439,412.9092,672.439,402.9092,668.439,406.9092" style="stroke:#191919;stroke-width:1;"/><line style="stroke:#191919;stroke-width:1;" x1="668.439" x2="668.439" y1="436.9092" y2="479.7139"/><polygon fill="#191919" points="664.439,469.7139,668.439,479.7139,672.439,469.7139,668.439,473.7139" style="stroke:#191919;stroke-width:1;"/><text fill="#000000" font-family="sans-serif" font-size="11" lengthAdjust="spacing" textLength="13.46" x="672.439" y="458.2139">Ya</text><line style="stroke:#191919;stroke-width:1;" x1="668.439" x2="668.439" y1="513.6826" y2="536.8311"/><polygon fill="#191919" points="664.439,526.8311,668.439,536.8311,672.439,526.8311,668.439,530.8311" style="stroke:#191919;stroke-width:1;"/><line style="stroke:#191919;stroke-width:1;" x1="668.439" x2="668.439" y1="584.7686" y2="604.7686"/><polygon fill="#191919" points="664.439,594.7686,668.439,604.7686,672.439,594.7686,668.439,598.7686" style="stroke:#191919;stroke-width:1;"/><line style="stroke:#191919;stroke-width:1;" x1="547.8247" x2="547.8247" y1="848.6123" y2="868.6123"/><polygon fill="#191919" points="543.8247,858.6123,547.8247,868.6123,551.8247,858.6123,547.8247,862.6123" style="stroke:#191919;stroke-width:1;"/><line style="stroke:#191919;stroke-width:1;" x1="789.0532" x2="789.0532" y1="848.6123" y2="868.6123"/><polygon fill="#191919" points="785.0532,858.6123,789.0532,868.6123,793.0532,858.6123,789.0532,862.6123" style="stroke:#191919;stroke-width:1;"/><line style="stroke:#191919;stroke-width:1;" x1="605.4189" x2="547.8247" y1="792.6436" y2="792.6436"/><line style="stroke:#191919;stroke-width:1;" x1="547.8247" x2="547.8247" y1="792.6436" y2="814.6436"/><polygon fill="#191919" points="543.8247,804.6436,547.8247,814.6436,551.8247,804.6436,547.8247,808.6436" style="stroke:#191919;stroke-width:1;"/><line style="stroke:#191919;stroke-width:1;" x1="731.459" x2="789.0532" y1="792.6436" y2="792.6436"/><line style="stroke:#191919;stroke-width:1;" x1="789.0532" x2="789.0532" y1="792.6436" y2="814.6436"/><polygon fill="#191919" points="785.0532,804.6436,789.0532,814.6436,793.0532,804.6436,789.0532,808.6436" style="stroke:#191919;stroke-width:1;"/><line style="stroke:#191919;stroke-width:1;" x1="1092.3491" x2="1092.3491" y1="706.6748" y2="726.6748"/><polygon fill="#191919" points="1088.3491,716.6748,1092.3491,726.6748,1096.3491,716.6748,1092.3491,720.6748" style="stroke:#191919;stroke-width:1;"/><line style="stroke:#191919;stroke-width:1;" x1="128.1572" x2="128.1572" y1="332.6709" y2="343.9404"/><line style="stroke:#191919;stroke-width:1;" x1="128.1572" x2="668.439" y1="343.9404" y2="343.9404"/><line style="stroke:#191919;stroke-width:1;" x1="668.439" x2="668.439" y1="343.9404" y2="358.9404"/><polygon fill="#191919" points="664.439,348.9404,668.439,358.9404,672.439,348.9404,668.439,352.9404" style="stroke:#191919;stroke-width:1;"/><line style="stroke:#191919;stroke-width:1;" x1="959.6694" x2="959.6694" y1="193.6045" y2="281.0029"/><line style="stroke:#191919;stroke-width:1;" x1="959.6694" x2="140.1572" y1="193.6045" y2="193.6045"/><polygon fill="#191919" points="150.1572,189.6045,140.1572,193.6045,150.1572,197.6045,146.1572,193.6045" style="stroke:#191919;stroke-width:1;"/><line style="stroke:#191919;stroke-width:1;" x1="668.439" x2="668.439" y1="638.7373" y2="643.7373"/><line style="stroke:#191919;stroke-width:1;" x1="668.439" x2="1092.3491" y1="643.7373" y2="643.7373"/><line style="stroke:#191919;stroke-width:1;" x1="1092.3491" x2="1092.3491" y1="643.7373" y2="658.7373"/><polygon fill="#191919" points="1088.3491,648.7373,1092.3491,658.7373,1096.3491,648.7373,1092.3491,652.7373" style="stroke:#191919;stroke-width:1;"/><line style="stroke:#191919;stroke-width:1;" x1="1092.3491" x2="1092.3491" y1="760.6436" y2="765.6436"/><line style="stroke:#191919;stroke-width:1;" x1="1092.3491" x2="668.439" y1="765.6436" y2="765.6436"/><line style="stroke:#191919;stroke-width:1;" x1="668.439" x2="668.439" y1="765.6436" y2="780.6436"/><polygon fill="#191919" points="664.439,770.6436,668.439,780.6436,672.439,770.6436,668.439,774.6436" style="stroke:#191919;stroke-width:1;"/><text fill="#000000" font-family="sans-serif" font-size="18" lengthAdjust="spacing" textLength="62.9736" x="192.7771" y="78.3906">Tenant</text><text fill="#000000" font-family="sans-serif" font-size="18" lengthAdjust="spacing" textLength="61.4707" x="690.2056" y="78.3906">Sistem</text><text fill="#000000" font-family="sans-serif" font-size="18" lengthAdjust="spacing" textLength="58.7725" x="1061.9629" y="78.3906">Owner</text><g class="footer" data-source-line="5"><text fill="#888888" font-family="sans-serif" font-size="18" lengthAdjust="spacing" textLength="100.2744" x="545.4653" y="913.3203">version 1.0</text></g><?plantuml-src JP9DRzim38Rl-XLSJewnhUkmm-006rfa1OQkNP040mhqmiIqpLYMFKbUqC4_lhJakjMHVFdnl9IhsNHeiG7FNjDDQ_oE_nDy_gBSdBffMqzspbr-LUzyHGr1WzQfK0YBEp8bdleQ3UpeZ0jLX2fO_2Fhk3Lm-V7JGgbXJmQD7vJpQBtADgovWerjExAUuGbD2LTZavn3dvMor15w1VAoduvb6zl0blxsvFma6ND6fe7biehIyQNf6ZscQJP7rhr5nnUxcXg43JK7V192ytuMx6L-YHhkUeqSecJoq3ikSCkMv-bnyB1ZvwaPek0FQivb1eoZe-20n_gCDeTiZqt7MkWUpOQSGFwmjhKlY72kM9nCnae8VRulWHqaU-bOBzM7Rm_ICTjnqqbfK6t9UDGh5U0r5P4zJPFrzJ9DmOQq0uy77G74TT-xJ3A1W78ryqriyJuGzdiqBpvVaws4IiEQ3pqA-QJ-VJPou_lMSy6r25Pg2A51PNiI0Rx9lNQBLykkZaVg_CMMJdJqhwREXd81oRGeOD3IQ8dyFGF90owZux_Gd7elbwkmWtigMyUZ_xVoNItMgmcxxHHfHxEPeNI-HyITVrNSYFAtnIRduXa0?></g></svg>