<?plantuml 1.2026.2?><svg xmlns="http://www.w3.org/2000/svg" xmlns:xlink="http://www.w3.org/1999/xlink" contentStyleType="text/css" data-diagram-type="ACTIVITY" height="1339px" preserveAspectRatio="none" style="width:1203px;height:1339px;background:#F9F9F9;" version="1.1" viewBox="0 0 1203 1339" width="1203px" zoomAndPan="magnify"><title>(ACD-10) Sign Kontrak - Manual</title><defs/><g><rect fill="#F9F9F9" height="1339" style="stroke:none;stroke-width:1;" width="1203" x="0" y="0"/><g class="title" data-source-line="4"><text fill="#000000" font-family="sans-serif" font-size="24" font-weight="bold" lengthAdjust="spacing" textLength="430.875" x="384.8074" y="42.2773">(ACD-10) Sign Kontrak - Manual</text></g><rect fill="none" height="20.9531" style="stroke:none;stroke-width:1;" width="1170.4897" x="15" y="61.6826"/><ellipse cx="194.749" cy="97.6357" fill="#222222" rx="10" ry="10" style="stroke:#222222;stroke-width:1;"/><rect fill="#F1F1F1" height="33.9688" rx="3.5" ry="3.5" style="stroke:#181818;stroke-width:0.5;" width="166.3965" x="111.5508" y="127.6357"/><text fill="#000000" font-family="sans-serif" font-size="12" lengthAdjust="spacing" textLength="146.3965" x="121.5508" y="148.7744">Masuk ke Detail Kontrak</text><rect fill="#F1F1F1" height="33.9688" rx="3.5" ry="3.5" style="stroke:#181818;stroke-width:0.5;" width="331.2207" x="29.1387" y="181.6045"/><text fill="#000000" font-family="sans-serif" font-size="12" lengthAdjust="spacing" textLength="311.2207" x="39.1387" y="202.7432">Pilih untuk menandatangani kontrak secara manual</text><rect fill="#F1F1F1" height="33.9688" rx="3.5" ry="3.5" style="stroke:#181818;stroke-width:0.5;" width="171.418" x="109.04" y="235.5732"/><text fill="#000000" font-family="sans-serif" font-size="12" lengthAdjust="spacing" textLength="151.418" x="119.04" y="256.7119">Unduh Dokumen Kontrak</text><rect fill="#F1F1F1" height="33.9688" rx="3.5" ry="3.5" style="stroke:#181818;stroke-width:0.5;" width="248.7441" x="70.377" y="333.542"/><text fill="#000000" font-family="sans-serif" font-size="12" lengthAdjust="spacing" textLength="228.7441" x="80.377" y="354.6807">Tanda tangani kontrak secara manual</text><rect fill="#F1F1F1" height="33.9688" rx="3.5" ry="3.5" style="stroke:#181818;stroke-width:0.5;" width="347.498" x="21" y="387.5107"/><text fill="#000000" font-family="sans-serif" font-size="12" lengthAdjust="spacing" textLength="327.498" x="31" y="408.6494">Unggah Dokumen Kontrak yang sudah ditandatangani</text><polygon fill="#F1F1F1" points="194.749,289.542,206.749,301.542,194.749,313.542,182.749,301.542,194.749,289.542" style="stroke:#181818;stroke-width:0.5;"/><rect fill="#F1F1F1" height="33.9688" rx="3.5" ry="3.5" style="stroke:#181818;stroke-width:0.5;" width="305.6328" x="41.9326" y="1175.9648"/><text fill="#000000" font-family="sans-serif" font-size="12" lengthAdjust="spacing" textLength="285.6328" x="51.9326" y="1197.1035">Terima Notifikasi Kontrak Telah Ditandatangani</text><rect fill="#F1F1F1" height="33.9688" rx="3.5" ry="3.5" style="stroke:#181818;stroke-width:0.5;" width="195.9512" x="96.7734" y="1229.9336"/><text fill="#000000" font-family="sans-serif" font-size="12" lengthAdjust="spacing" textLength="175.9512" x="106.7734" y="1251.0723">Lanjut ke Tahap Pembayaran</text><ellipse cx="194.749" cy="1294.9023" fill="none" rx="11" ry="11" style="stroke:#222222;stroke-width:1;"/><ellipse cx="194.749" cy="1294.9023" fill="#222222" rx="6" ry="6" style="stroke:#222222;stroke-width:1;"/><line style="stroke:#000000;stroke-width:1.5;" x1="15" x2="15" y1="61.6826" y2="1305.9023"/><rect fill="#F1F1F1" height="33.9688" rx="3.5" ry="3.5" style="stroke:#181818;stroke-width:0.5;" width="272.6504" x="378.498" y="451.4795"/><text fill="#000000" font-family="sans-serif" font-size="12" lengthAdjust="spacing" textLength="252.6504" x="388.498" y="472.6182">Validasi Dokumen Kontrak yang diunggah</text><polygon fill="#F1F1F1" points="469.9773,505.4482,559.6692,505.4482,571.6692,517.4482,559.6692,529.4482,469.9773,529.4482,457.9773,517.4482,469.9773,505.4482" style="stroke:#181818;stroke-width:0.5;"/><text fill="#000000" font-family="sans-serif" font-size="11" lengthAdjust="spacing" textLength="89.6919" x="469.9773" y="521.2563">Dokumen Valid?</text><text fill="#000000" font-family="sans-serif" font-size="11" lengthAdjust="spacing" textLength="29.8687" x="571.6692" y="514.854">Tidak</text><rect fill="#F1F1F1" height="33.9688" rx="3.5" ry="3.5" style="stroke:#181818;stroke-width:0.5;" width="160.9824" x="661.1484" y="387.5107"/><text fill="#000000" font-family="sans-serif" font-size="12" lengthAdjust="spacing" textLength="140.9824" x="671.1484" y="408.6494">Tampilkan Pesan Gagal</text><rect fill="#F1F1F1" height="33.9688" rx="3.5" ry="3.5" style="stroke:#181818;stroke-width:0.5;" width="156.084" x="436.7813" y="570.8472"/><text fill="#000000" font-family="sans-serif" font-size="12" lengthAdjust="spacing" textLength="136.084" x="446.7813" y="591.9858">Update Status Kontrak</text><rect fill="#F1F1F1" height="33.9688" rx="3.5" ry="3.5" style="stroke:#181818;stroke-width:0.5;" width="174.4531" x="427.5967" y="624.8159"/><text fill="#000000" font-family="sans-serif" font-size="12" lengthAdjust="spacing" textLength="154.4531" x="437.5967" y="645.9546">Tampilkan Pesan Berhasil</text><rect fill="#F1F1F1" height="33.9688" rx="3.5" ry="3.5" style="stroke:#181818;stroke-width:0.5;" width="272.6504" x="378.498" y="948.6597"/><text fill="#000000" font-family="sans-serif" font-size="12" lengthAdjust="spacing" textLength="252.6504" x="388.498" y="969.7983">Validasi Dokumen Kontrak yang diunggah</text><polygon fill="#F1F1F1" points="469.9773,1002.6284,559.6692,1002.6284,571.6692,1014.6284,559.6692,1026.6284,469.9773,1026.6284,457.9773,1014.6284,469.9773,1002.6284" style="stroke:#181818;stroke-width:0.5;"/><text fill="#000000" font-family="sans-serif" font-size="11" lengthAdjust="spacing" textLength="89.6919" x="469.9773" y="1018.4365">Dokumen Valid?</text><text fill="#000000" font-family="sans-serif" font-size="11" lengthAdjust="spacing" textLength="29.8687" x="571.6692" y="1012.0342">Tidak</text><rect fill="#F1F1F1" height="33.9688" rx="3.5" ry="3.5" style="stroke:#181818;stroke-width:0.5;" width="160.9824" x="661.1484" y="884.6909"/><text fill="#000000" font-family="sans-serif" font-size="12" lengthAdjust="spacing" textLength="140.9824" x="671.1484" y="905.8296">Tampilkan Pesan Gagal</text><rect fill="#F1F1F1" height="33.9688" rx="3.5" ry="3.5" style="stroke:#181818;stroke-width:0.5;" width="156.084" x="436.7813" y="1068.0273"/><text fill="#000000" font-family="sans-serif" font-size="12" lengthAdjust="spacing" textLength="136.084" x="446.7813" y="1089.166">Update Status Kontrak</text><rect fill="#F1F1F1" height="33.9688" rx="3.5" ry="3.5" style="stroke:#181818;stroke-width:0.5;" width="174.4531" x="427.5967" y="1121.9961"/><text fill="#000000" font-family="sans-serif" font-size="12" lengthAdjust="spacing" textLength="154.4531" x="437.5967" y="1143.1348">Tampilkan Pesan Berhasil</text><line style="stroke:#000000;stroke-width:1.5;" x1="372.498" x2="372.498" y1="61.6826" y2="1305.9023"/><rect fill="#F1F1F1" height="33.9688" rx="3.5" ry="3.5" style="stroke:#181818;stroke-width:0.5;" width="305.6328" x="853.0635" y="678.7847"/><text fill="#000000" font-family="sans-serif" font-size="12" lengthAdjust="spacing" textLength="285.6328" x="863.0635" y="699.9233">Terima Notifikasi Kontrak Telah Ditandatangani</text><rect fill="#F1F1F1" height="33.9688" rx="3.5" ry="3.5" style="stroke:#181818;stroke-width:0.5;" width="171.418" x="920.1709" y="732.7534"/><text fill="#000000" font-family="sans-serif" font-size="12" lengthAdjust="spacing" textLength="151.418" x="930.1709" y="753.8921">Unduh Dokumen Kontrak</text><rect fill="#F1F1F1" height="33.9688" rx="3.5" ry="3.5" style="stroke:#181818;stroke-width:0.5;" width="248.7441" x="881.5078" y="830.7222"/><text fill="#000000" font-family="sans-serif" font-size="12" lengthAdjust="spacing" textLength="228.7441" x="891.5078" y="851.8608">Tanda tangani kontrak secara manual</text><rect fill="#F1F1F1" height="33.9688" rx="3.5" ry="3.5" style="stroke:#181818;stroke-width:0.5;" width="347.498" x="832.1309" y="884.6909"/><text fill="#000000" font-family="sans-serif" font-size="12" lengthAdjust="spacing" textLength="327.498" x="842.1309" y="905.8296">Unggah Dokumen Kontrak yang sudah ditandatangani</text><polygon fill="#F1F1F1" points="1005.8799,786.7222,1017.8799,798.7222,1005.8799,810.7222,993.8799,798.7222,1005.8799,786.7222" style="stroke:#181818;stroke-width:0.5;"/><line style="stroke:#000000;stroke-width:1.5;" x1="826.1309" x2="826.1309" y1="61.6826" y2="1305.9023"/><line style="stroke:#000000;stroke-width:1.5;" x1="1183.6289" x2="1183.6289" y1="61.6826" y2="1305.9023"/><line style="stroke:#191919;stroke-width:1;" x1="194.749" x2="194.749" y1="107.6357" y2="127.6357"/><polygon fill="#191919" points="190.749,117.6357,194.749,127.6357,198.749,117.6357,194.749,121.6357" style="stroke:#191919;stroke-width:1;"/><line style="stroke:#191919;stroke-width:1;" x1="194.749" x2="194.749" y1="161.6045" y2="181.6045"/><polygon fill="#191919" points="190.749,171.6045,194.749,181.6045,198.749,171.6045,194.749,175.6045" style="stroke:#191919;stroke-width:1;"/><line style="stroke:#191919;stroke-width:1;" x1="194.749" x2="194.749" y1="215.5732" y2="235.5732"/><polygon fill="#191919" points="190.749,225.5732,194.749,235.5732,198.749,225.5732,194.749,229.5732" style="stroke:#191919;stroke-width:1;"/><line style="stroke:#191919;stroke-width:1;" x1="194.749" x2="194.749" y1="367.5107" y2="387.5107"/><polygon fill="#191919" points="190.749,377.5107,194.749,387.5107,198.749,377.5107,194.749,381.5107" style="stroke:#191919;stroke-width:1;"/><line style="stroke:#191919;stroke-width:1;" x1="194.749" x2="194.749" y1="313.542" y2="333.542"/><polygon fill="#191919" points="190.749,323.542,194.749,333.542,198.749,323.542,194.749,327.542" style="stroke:#191919;stroke-width:1;"/><line style="stroke:#191919;stroke-width:1;" x1="194.749" x2="194.749" y1="269.542" y2="289.542"/><polygon fill="#191919" points="190.749,279.542,194.749,289.542,198.749,279.542,194.749,283.542" style="stroke:#191919;stroke-width:1;"/><line style="stroke:#191919;stroke-width:1;" x1="194.749" x2="194.749" y1="1209.9336" y2="1229.9336"/><polygon fill="#191919" points="190.749,1219.9336,194.749,1229.9336,198.749,1219.9336,194.749,1223.9336" style="stroke:#191919;stroke-width:1;"/><line style="stroke:#191919;stroke-width:1;" x1="194.749" x2="194.749" y1="1263.9023" y2="1283.9023"/><polygon fill="#191919" points="190.749,1273.9023,194.749,1283.9023,198.749,1273.9023,194.749,1277.9023" style="stroke:#191919;stroke-width:1;"/><line style="stroke:#191919;stroke-width:1;" x1="571.6692" x2="741.6396" y1="517.4482" y2="517.4482"/><line style="stroke:#191919;stroke-width:1;" x1="741.6396" x2="741.6396" y1="421.4795" y2="517.4482"/><polygon fill="#191919" points="737.6396,431.4795,741.6396,421.4795,745.6396,431.4795,741.6396,427.4795" style="stroke:#191919;stroke-width:1;"/><line style="stroke:#191919;stroke-width:1;" x1="514.8232" x2="514.8232" y1="485.4482" y2="505.4482"/><polygon fill="#191919" points="510.8232,495.4482,514.8232,505.4482,518.8232,495.4482,514.8232,499.4482" style="stroke:#191919;stroke-width:1;"/><line style="stroke:#191919;stroke-width:1;" x1="514.8232" x2="514.8232" y1="529.4482" y2="570.8472"/><polygon fill="#191919" points="510.8232,560.8472,514.8232,570.8472,518.8232,560.8472,514.8232,564.8472" style="stroke:#191919;stroke-width:1;"/><text fill="#000000" font-family="sans-serif" font-size="11" lengthAdjust="spacing" textLength="13.46" x="518.8232" y="550.7529">Ya</text><line style="stroke:#191919;stroke-width:1;" x1="514.8232" x2="514.8232" y1="604.8159" y2="624.8159"/><polygon fill="#191919" points="510.8232,614.8159,514.8232,624.8159,518.8232,614.8159,514.8232,618.8159" style="stroke:#191919;stroke-width:1;"/><line style="stroke:#191919;stroke-width:1;" x1="571.6692" x2="741.6396" y1="1014.6284" y2="1014.6284"/><line style="stroke:#191919;stroke-width:1;" x1="741.6396" x2="741.6396" y1="918.6597" y2="1014.6284"/><polygon fill="#191919" points="737.6396,928.6597,741.6396,918.6597,745.6396,928.6597,741.6396,924.6597" style="stroke:#191919;stroke-width:1;"/><line style="stroke:#191919;stroke-width:1;" x1="514.8232" x2="514.8232" y1="982.6284" y2="1002.6284"/><polygon fill="#191919" points="510.8232,992.6284,514.8232,1002.6284,518.8232,992.6284,514.8232,996.6284" style="stroke:#191919;stroke-width:1;"/><line style="stroke:#191919;stroke-width:1;" x1="514.8232" x2="514.8232" y1="1026.6284" y2="1068.0273"/><polygon fill="#191919" points="510.8232,1058.0273,514.8232,1068.0273,518.8232,1058.0273,514.8232,1062.0273" style="stroke:#191919;stroke-width:1;"/><text fill="#000000" font-family="sans-serif" font-size="11" lengthAdjust="spacing" textLength="13.46" x="518.8232" y="1047.9331">Ya</text><line style="stroke:#191919;stroke-width:1;" x1="514.8232" x2="514.8232" y1="1101.9961" y2="1121.9961"/><polygon fill="#191919" points="510.8232,1111.9961,514.8232,1121.9961,518.8232,1111.9961,514.8232,1115.9961" style="stroke:#191919;stroke-width:1;"/><line style="stroke:#191919;stroke-width:1;" x1="1005.8799" x2="1005.8799" y1="712.7534" y2="732.7534"/><polygon fill="#191919" points="1001.8799,722.7534,1005.8799,732.7534,1009.8799,722.7534,1005.8799,726.7534" style="stroke:#191919;stroke-width:1;"/><line style="stroke:#191919;stroke-width:1;" x1="1005.8799" x2="1005.8799" y1="864.6909" y2="884.6909"/><polygon fill="#191919" points="1001.8799,874.6909,1005.8799,884.6909,1009.8799,874.6909,1005.8799,878.6909" style="stroke:#191919;stroke-width:1;"/><line style="stroke:#191919;stroke-width:1;" x1="1005.8799" x2="1005.8799" y1="810.7222" y2="830.7222"/><polygon fill="#191919" points="1001.8799,820.7222,1005.8799,830.7222,1009.8799,820.7222,1005.8799,824.7222" style="stroke:#191919;stroke-width:1;"/><line style="stroke:#191919;stroke-width:1;" x1="1005.8799" x2="1005.8799" y1="766.7222" y2="786.7222"/><polygon fill="#191919" points="1001.8799,776.7222,1005.8799,786.7222,1009.8799,776.7222,1005.8799,780.7222" style="stroke:#191919;stroke-width:1;"/><line style="stroke:#191919;stroke-width:1;" x1="194.749" x2="194.749" y1="421.4795" y2="436.4795"/><line style="stroke:#191919;stroke-width:1;" x1="194.749" x2="514.8232" y1="436.4795" y2="436.4795"/><line style="stroke:#191919;stroke-width:1;" x1="514.8232" x2="514.8232" y1="436.4795" y2="451.4795"/><polygon fill="#191919" points="510.8232,441.4795,514.8232,451.4795,518.8232,441.4795,514.8232,445.4795" style="stroke:#191919;stroke-width:1;"/><line style="stroke:#191919;stroke-width:1;" x1="741.6396" x2="741.6396" y1="301.542" y2="387.5107"/><line style="stroke:#191919;stroke-width:1;" x1="741.6396" x2="206.749" y1="301.542" y2="301.542"/><polygon fill="#191919" points="216.749,297.542,206.749,301.542,216.749,305.542,212.749,301.542" style="stroke:#191919;stroke-width:1;"/><line style="stroke:#191919;stroke-width:1;" x1="514.8232" x2="514.8232" y1="658.7847" y2="663.7847"/><line style="stroke:#191919;stroke-width:1;" x1="514.8232" x2="1005.8799" y1="663.7847" y2="663.7847"/><line style="stroke:#191919;stroke-width:1;" x1="1005.8799" x2="1005.8799" y1="663.7847" y2="678.7847"/><polygon fill="#191919" points="1001.8799,668.7847,1005.8799,678.7847,1009.8799,668.7847,1005.8799,672.7847" style="stroke:#191919;stroke-width:1;"/><line style="stroke:#191919;stroke-width:1;" x1="1005.8799" x2="1005.8799" y1="918.6597" y2="933.6597"/><line style="stroke:#191919;stroke-width:1;" x1="1005.8799" x2="514.8232" y1="933.6597" y2="933.6597"/><line style="stroke:#191919;stroke-width:1;" x1="514.8232" x2="514.8232" y1="933.6597" y2="948.6597"/><polygon fill="#191919" points="510.8232,938.6597,514.8232,948.6597,518.8232,938.6597,514.8232,942.6597" style="stroke:#191919;stroke-width:1;"/><line style="stroke:#191919;stroke-width:1;" x1="741.6396" x2="741.6396" y1="798.7222" y2="884.6909"/><line style="stroke:#191919;stroke-width:1;" x1="741.6396" x2="993.8799" y1="798.7222" y2="798.7222"/><polygon fill="#191919" points="983.8799,794.7222,993.8799,798.7222,983.8799,802.7222,987.8799,798.7222" style="stroke:#191919;stroke-width:1;"/><line style="stroke:#191919;stroke-width:1;" x1="514.8232" x2="514.8232" y1="1155.9648" y2="1160.9648"/><line style="stroke:#191919;stroke-width:1;" x1="514.8232" x2="194.749" y1="1160.9648" y2="1160.9648"/><line style="stroke:#191919;stroke-width:1;" x1="194.749" x2="194.749" y1="1160.9648" y2="1175.9648"/><polygon fill="#191919" points="190.749,1165.9648,194.749,1175.9648,198.749,1165.9648,194.749,1169.9648" style="stroke:#191919;stroke-width:1;"/><text fill="#000000" font-family="sans-serif" font-size="18" lengthAdjust="spacing" textLength="62.9736" x="162.2622" y="78.3906">Tenant</text><text fill="#000000" font-family="sans-serif" font-size="18" lengthAdjust="spacing" textLength="61.4707" x="568.5791" y="78.3906">Sistem</text><text fill="#000000" font-family="sans-serif" font-size="18" lengthAdjust="spacing" textLength="58.7725" x="975.4937" y="78.3906">Owner</text><g class="footer" data-source-line="5"><text fill="#888888" font-family="sans-serif" font-size="18" lengthAdjust="spacing" textLength="100.2744" x="550.1077" y="1322.6104">version 1.0</text></g><?plantuml-src pPD1Qzj048Nl-oicFja7XxZaK6n8Q6FIGvlMO2NGuyGQIvELLc9tDYR5FpwpSkIOj12tf-gm26RVcpVVCi6oQz5Z3S9IqNNZPCc_23wScx0lNJUDaD_N9X_DYPHK4zJeW-c4C1X-kfgF9sSZM7BXuAjUzcXX33Ve8bO3i-vCOF18Fd3ZO79wDZ1ccv539rkpNN8GglNdnyQHtxvMWg0NCxt142rOWZa9SjLtc9dfWYik8JhHUfr4EGgw0Xs3VOaHQAMJQDwKHIMtBeybp1iRLV1gvQab50FwJRFa0-yOTJTlNL7WRsxmf588CTTIpdAGQYVR3znvt675EGR-iqlEiUknKzxZocxGvobZtN9bqS62WfvVi4YfTcF0fcHzc67lsBMu704766RQp8xC-E8d9XgjPYDO2aeC1s3VsdycNsf6xT0_qZGZppN2zqPupJODq0VFg4fGtap-3ldZgFy3yJtjeqd_3vJx5VXxpD_GFKH9wv9XYQrQr_Vuf13TJ1UgQPy1?></g></svg>