<?plantuml 1.2026.2?><svg xmlns="http://www.w3.org/2000/svg" xmlns:xlink="http://www.w3.org/1999/xlink" contentStyleType="text/css" data-diagram-type="ACTIVITY" height="993px" preserveAspectRatio="none" style="width:796px;height:993px;background:#F9F9F9;" version="1.1" viewBox="0 0 796 993" width="796px" zoomAndPan="magnify"><title>(ACD-16) Pemulihan Akun</title><defs/><g><rect fill="#F9F9F9" height="993" style="stroke:none;stroke-width:1;" width="796" x="0" y="0"/><g class="title" data-source-line="4"><text fill="#000000" font-family="sans-serif" font-size="24" font-weight="bold" lengthAdjust="spacing" textLength="349.6055" x="221.9717" y="42.2773">(ACD-16) Pemulihan Akun</text></g><rect fill="none" height="20.9531" style="stroke:none;stroke-width:1;" width="763.5488" x="15" y="61.6826"/><ellipse cx="151.8027" cy="97.6357" fill="#222222" rx="10" ry="10" style="stroke:#222222;stroke-width:1;"/><rect fill="#F1F1F1" height="33.9688" rx="3.5" ry="3.5" style="stroke:#181818;stroke-width:0.5;" width="224.1172" x="39.7441" y="127.6357"/><text fill="#000000" font-family="sans-serif" font-size="12" lengthAdjust="spacing" textLength="204.1172" x="49.7441" y="148.7744">Gagal login karena lupa password</text><rect fill="#F1F1F1" height="33.9688" rx="3.5" ry="3.5" style="stroke:#181818;stroke-width:0.5;" width="189.3594" x="57.123" y="181.6045"/><text fill="#000000" font-family="sans-serif" font-size="12" lengthAdjust="spacing" textLength="169.3594" x="67.123" y="202.7432">Klik tautan "Lupa Password"</text><rect fill="#F1F1F1" height="33.9688" rx="3.5" ry="3.5" style="stroke:#181818;stroke-width:0.5;" width="228.0605" x="37.7725" y="235.5732"/><text fill="#000000" font-family="sans-serif" font-size="12" lengthAdjust="spacing" textLength="208.0605" x="47.7725" y="256.7119">Isikan alamat email yang terdaftar</text><rect fill="#F1F1F1" height="33.9688" rx="3.5" ry="3.5" style="stroke:#181818;stroke-width:0.5;" width="121.3848" x="91.1104" y="289.542"/><text fill="#000000" font-family="sans-serif" font-size="12" lengthAdjust="spacing" textLength="101.3848" x="101.1104" y="310.6807">Klik tombol kirim</text><rect fill="#F1F1F1" height="33.9688" rx="3.5" ry="3.5" style="stroke:#181818;stroke-width:0.5;" width="261.6055" x="21" y="505.417"/><text fill="#000000" font-family="sans-serif" font-size="12" lengthAdjust="spacing" textLength="241.6055" x="31" y="526.5557">Periksa email dan klik tautan pemulihan</text><rect fill="#F1F1F1" height="33.9688" rx="3.5" ry="3.5" style="stroke:#181818;stroke-width:0.5;" width="125.4453" x="89.0801" y="559.3857"/><text fill="#000000" font-family="sans-serif" font-size="12" lengthAdjust="spacing" textLength="105.4453" x="99.0801" y="580.5244">Isi password baru</text><rect fill="#F1F1F1" height="33.9688" rx="3.5" ry="3.5" style="stroke:#181818;stroke-width:0.5;" width="176.2578" x="63.6738" y="613.3545"/><text fill="#000000" font-family="sans-serif" font-size="12" lengthAdjust="spacing" textLength="156.2578" x="73.6738" y="634.4932">Konfirmasi password baru</text><rect fill="#F1F1F1" height="33.9688" rx="3.5" ry="3.5" style="stroke:#181818;stroke-width:0.5;" width="134.9961" x="84.3047" y="667.3232"/><text fill="#000000" font-family="sans-serif" font-size="12" lengthAdjust="spacing" textLength="114.9961" x="94.3047" y="688.4619">Klik tombol simpan</text><rect fill="#F1F1F1" height="33.9688" rx="3.5" ry="3.5" style="stroke:#181818;stroke-width:0.5;" width="177.5938" x="63.0059" y="883.1982"/><text fill="#000000" font-family="sans-serif" font-size="12" lengthAdjust="spacing" textLength="157.5938" x="73.0059" y="904.3369">Redirect ke halaman login</text><ellipse cx="151.8027" cy="948.167" fill="none" rx="11" ry="11" style="stroke:#222222;stroke-width:1;"/><ellipse cx="151.8027" cy="948.167" fill="#222222" rx="6" ry="6" style="stroke:#222222;stroke-width:1;"/><line style="stroke:#000000;stroke-width:1.5;" x1="15" x2="15" y1="61.6826" y2="959.167"/><rect fill="#F1F1F1" height="33.9688" rx="3.5" ry="3.5" style="stroke:#181818;stroke-width:0.5;" width="149.2988" x="385.9336" y="343.5107"/><text fill="#000000" font-family="sans-serif" font-size="12" lengthAdjust="spacing" textLength="129.2988" x="395.9336" y="364.6494">Validasi alamat email</text><path d="M648.5605,401.8975 L648.5605,410.4639 L628.5605,414.4639 L648.5605,418.4639 L648.5605,427.0303 A0,0 0 0 0 648.5605,427.0303 L771.688,427.0303 A0,0 0 0 0 771.688,427.0303 L771.688,411.8975 L761.688,401.8975 L648.5605,401.8975 A0,0 0 0 0 648.5605,401.8975" fill="#E5E5E5" style="stroke:#191919;stroke-width:1.5;"/><path d="M761.688,401.8975 L761.688,411.8975 L771.688,411.8975 L761.688,401.8975" fill="#E5E5E5" style="stroke:#191919;stroke-width:1.5;"/><text fill="#191919" font-family="sans-serif" font-size="13" font-weight="bold" lengthAdjust="spacing" textLength="32.5825" x="654.5605" y="418.9644">(DB)</text><text fill="#191919" font-family="sans-serif" font-size="13" lengthAdjust="spacing" textLength="65.4126" x="691.2754" y="418.9644">user table</text><rect fill="#F1F1F1" height="33.9688" rx="3.5" ry="3.5" style="stroke:#181818;stroke-width:0.5;" width="335.9551" x="292.6055" y="397.4795"/><text fill="#000000" font-family="sans-serif" font-size="12" lengthAdjust="spacing" textLength="315.9551" x="302.6055" y="418.6182">Jika email valid, kirimkan tautan pemulihan ke email</text><rect fill="#F1F1F1" height="33.9688" rx="3.5" ry="3.5" style="stroke:#181818;stroke-width:0.5;" width="277.918" x="321.624" y="451.4482"/><text fill="#000000" font-family="sans-serif" font-size="12" lengthAdjust="spacing" textLength="257.918" x="331.624" y="472.5869">Tampilkan pesan email pemulihan terkirim</text><rect fill="#F1F1F1" height="33.9688" rx="3.5" ry="3.5" style="stroke:#181818;stroke-width:0.5;" width="207.6465" x="356.7598" y="721.292"/><text fill="#000000" font-family="sans-serif" font-size="12" lengthAdjust="spacing" textLength="187.6465" x="366.7598" y="742.4307">Validasi data yang dimasukkan</text><path d="M578.3887,779.6787 L578.3887,788.2451 L558.3887,792.2451 L578.3887,796.2451 L578.3887,804.8115 A0,0 0 0 0 578.3887,804.8115 L701.5161,804.8115 A0,0 0 0 0 701.5161,804.8115 L701.5161,789.6787 L691.5161,779.6787 L578.3887,779.6787 A0,0 0 0 0 578.3887,779.6787" fill="#E5E5E5" style="stroke:#191919;stroke-width:1.5;"/><path d="M691.5161,779.6787 L691.5161,789.6787 L701.5161,789.6787 L691.5161,779.6787" fill="#E5E5E5" style="stroke:#191919;stroke-width:1.5;"/><text fill="#191919" font-family="sans-serif" font-size="13" font-weight="bold" lengthAdjust="spacing" textLength="32.5825" x="584.3887" y="796.7456">(DB)</text><text fill="#191919" font-family="sans-serif" font-size="13" lengthAdjust="spacing" textLength="65.4126" x="621.1035" y="796.7456">user table</text><rect fill="#F1F1F1" height="33.9688" rx="3.5" ry="3.5" style="stroke:#181818;stroke-width:0.5;" width="195.6113" x="362.7773" y="775.2607"/><text fill="#000000" font-family="sans-serif" font-size="12" lengthAdjust="spacing" textLength="175.6113" x="372.7773" y="796.3994">Perbarui password pengguna</text><rect fill="#F1F1F1" height="33.9688" rx="3.5" ry="3.5" style="stroke:#181818;stroke-width:0.5;" width="300.7578" x="310.2041" y="829.2295"/><text fill="#000000" font-family="sans-serif" font-size="12" lengthAdjust="spacing" textLength="280.7578" x="320.2041" y="850.3682">Tampilkan pesan password berhasil diperbarui</text><line style="stroke:#000000;stroke-width:1.5;" x1="286.6055" x2="286.6055" y1="61.6826" y2="959.167"/><line style="stroke:#000000;stroke-width:1.5;" x1="776.688" x2="776.688" y1="61.6826" y2="959.167"/><line style="stroke:#191919;stroke-width:1;" x1="151.8027" x2="151.8027" y1="107.6357" y2="127.6357"/><polygon fill="#191919" points="147.8027,117.6357,151.8027,127.6357,155.8027,117.6357,151.8027,121.6357" style="stroke:#191919;stroke-width:1;"/><line style="stroke:#191919;stroke-width:1;" x1="151.8027" x2="151.8027" y1="161.6045" y2="181.6045"/><polygon fill="#191919" points="147.8027,171.6045,151.8027,181.6045,155.8027,171.6045,151.8027,175.6045" style="stroke:#191919;stroke-width:1;"/><line style="stroke:#191919;stroke-width:1;" x1="151.8027" x2="151.8027" y1="215.5732" y2="235.5732"/><polygon fill="#191919" points="147.8027,225.5732,151.8027,235.5732,155.8027,225.5732,151.8027,229.5732" style="stroke:#191919;stroke-width:1;"/><line style="stroke:#191919;stroke-width:1;" x1="151.8027" x2="151.8027" y1="269.542" y2="289.542"/><polygon fill="#191919" points="147.8027,279.542,151.8027,289.542,155.8027,279.542,151.8027,283.542" style="stroke:#191919;stroke-width:1;"/><line style="stroke:#191919;stroke-width:1;" x1="151.8027" x2="151.8027" y1="539.3857" y2="559.3857"/><polygon fill="#191919" points="147.8027,549.3857,151.8027,559.3857,155.8027,549.3857,151.8027,553.3857" style="stroke:#191919;stroke-width:1;"/><line style="stroke:#191919;stroke-width:1;" x1="151.8027" x2="151.8027" y1="593.3545" y2="613.3545"/><polygon fill="#191919" points="147.8027,603.3545,151.8027,613.3545,155.8027,603.3545,151.8027,607.3545" style="stroke:#191919;stroke-width:1;"/><line style="stroke:#191919;stroke-width:1;" x1="151.8027" x2="151.8027" y1="647.3232" y2="667.3232"/><polygon fill="#191919" points="147.8027,657.3232,151.8027,667.3232,155.8027,657.3232,151.8027,661.3232" style="stroke:#191919;stroke-width:1;"/><line style="stroke:#191919;stroke-width:1;" x1="151.8027" x2="151.8027" y1="917.167" y2="937.167"/><polygon fill="#191919" points="147.8027,927.167,151.8027,937.167,155.8027,927.167,151.8027,931.167" style="stroke:#191919;stroke-width:1;"/><line style="stroke:#191919;stroke-width:1;" x1="460.583" x2="460.583" y1="377.4795" y2="397.4795"/><polygon fill="#191919" points="456.583,387.4795,460.583,397.4795,464.583,387.4795,460.583,391.4795" style="stroke:#191919;stroke-width:1;"/><line style="stroke:#191919;stroke-width:1;" x1="460.583" x2="460.583" y1="431.4482" y2="451.4482"/><polygon fill="#191919" points="456.583,441.4482,460.583,451.4482,464.583,441.4482,460.583,445.4482" style="stroke:#191919;stroke-width:1;"/><line style="stroke:#191919;stroke-width:1;" x1="460.583" x2="460.583" y1="755.2607" y2="775.2607"/><polygon fill="#191919" points="456.583,765.2607,460.583,775.2607,464.583,765.2607,460.583,769.2607" style="stroke:#191919;stroke-width:1;"/><line style="stroke:#191919;stroke-width:1;" x1="460.583" x2="460.583" y1="809.2295" y2="829.2295"/><polygon fill="#191919" points="456.583,819.2295,460.583,829.2295,464.583,819.2295,460.583,823.2295" style="stroke:#191919;stroke-width:1;"/><line style="stroke:#191919;stroke-width:1;" x1="151.8027" x2="151.8027" y1="323.5107" y2="328.5107"/><line style="stroke:#191919;stroke-width:1;" x1="151.8027" x2="460.583" y1="328.5107" y2="328.5107"/><line style="stroke:#191919;stroke-width:1;" x1="460.583" x2="460.583" y1="328.5107" y2="343.5107"/><polygon fill="#191919" points="456.583,333.5107,460.583,343.5107,464.583,333.5107,460.583,337.5107" style="stroke:#191919;stroke-width:1;"/><line style="stroke:#191919;stroke-width:1;" x1="460.583" x2="460.583" y1="485.417" y2="490.417"/><line style="stroke:#191919;stroke-width:1;" x1="460.583" x2="151.8027" y1="490.417" y2="490.417"/><line style="stroke:#191919;stroke-width:1;" x1="151.8027" x2="151.8027" y1="490.417" y2="505.417"/><polygon fill="#191919" points="147.8027,495.417,151.8027,505.417,155.8027,495.417,151.8027,499.417" style="stroke:#191919;stroke-width:1;"/><line style="stroke:#191919;stroke-width:1;" x1="151.8027" x2="151.8027" y1="701.292" y2="706.292"/><line style="stroke:#191919;stroke-width:1;" x1="151.8027" x2="460.583" y1="706.292" y2="706.292"/><line style="stroke:#191919;stroke-width:1;" x1="460.583" x2="460.583" y1="706.292" y2="721.292"/><polygon fill="#191919" points="456.583,711.292,460.583,721.292,464.583,711.292,460.583,715.292" style="stroke:#191919;stroke-width:1;"/><line style="stroke:#191919;stroke-width:1;" x1="460.583" x2="460.583" y1="863.1982" y2="868.1982"/><line style="stroke:#191919;stroke-width:1;" x1="460.583" x2="151.8027" y1="868.1982" y2="868.1982"/><line style="stroke:#191919;stroke-width:1;" x1="151.8027" x2="151.8027" y1="868.1982" y2="883.1982"/><polygon fill="#191919" points="147.8027,873.1982,151.8027,883.1982,155.8027,873.1982,151.8027,877.1982" style="stroke:#191919;stroke-width:1;"/><text fill="#000000" font-family="sans-serif" font-size="18" lengthAdjust="spacing" textLength="90.0352" x="105.7852" y="78.3906">Pengguna</text><text fill="#000000" font-family="sans-serif" font-size="18" lengthAdjust="spacing" textLength="61.4707" x="500.9114" y="78.3906">Sistem</text><g class="footer" data-source-line="5"><text fill="#888888" font-family="sans-serif" font-size="18" lengthAdjust="spacing" textLength="100.2744" x="346.6372" y="975.875">version 1.0</text></g><?plantuml-src fP9BJ-D048JlyoiQdo1Q45aXX9mJ3x7Qno42nBs3EtPhdfePizfLVlpss8uJ96xhWoyr_LLrpIJDBc142vcpeKVlyZF_9VXwfT8iFNgVASxQyaQTv8uiWSMOr308rUdj_SFvyleCrcHxmnqwkDMzgzHsc8RgdM9Yxs1vSLafjLkJQzlUuKwbZ36h-XksQC3ubXreZEGGJ1yG0gRqsyTcfUgVXZLaxBF0grz5N4zY9Uhtn5e4D6Wn0rba0t_GjI3s3Mx5PKPuk_46D4UsAxLxvfJ9xbJzYeORJFo18KC_13m1tykHB-DeSPlIX7bfJVin9tj3vBRB2kHRB4uVxiuM2-YJr95nOqYHQw0SK_KBsi163wWa_z7jW9KTzd4FpTLhYgpJFbjJx8ygcgV7SkOcOOEnBrruj-LeyJFfgAR4DXJ69pqrc77ik67Xz5eFPXAhS8wmOShydwqSObBi983ip64o-zZC4pKSwIsN--Y6wtJZsrh9U_FX7m00?></g></svg>