<?plantuml 1.2026.2?><svg xmlns="http://www.w3.org/2000/svg" xmlns:xlink="http://www.w3.org/1999/xlink" contentStyleType="text/css" data-diagram-type="ACTIVITY" height="977px" preserveAspectRatio="none" style="width:1420px;height:977px;background:#F9F9F9;" version="1.1" viewBox="0 0 1420 977" width="1420px" zoomAndPan="magnify"><title>Listing Properti</title><defs/><g><rect fill="#F9F9F9" height="977" style="stroke:none;stroke-width:1;" width="1420" x="0" y="0"/><g class="title" data-source-line="4"><text fill="#000000" font-family="sans-serif" font-size="24" font-weight="bold" lengthAdjust="spacing" textLength="211.0313" x="603.2927" y="42.2773">Listing Properti</text></g><rect fill="none" height="20.9531" style="stroke:none;stroke-width:1;" width="1387.6167" x="15" y="61.6826"/><ellipse cx="306.604" cy="97.6357" fill="#222222" rx="10" ry="10" style="stroke:#222222;stroke-width:1;"/><rect fill="#F1F1F1" height="33.9688" rx="3.5" ry="3.5" style="stroke:#181818;stroke-width:0.5;" width="225.916" x="193.646" y="127.6357"/><text fill="#000000" font-family="sans-serif" font-size="12" lengthAdjust="spacing" textLength="205.916" x="203.646" y="148.7744">Masuk ke Halaman Kelola Properti</text><rect fill="#F1F1F1" height="33.9688" rx="3.5" ry="3.5" style="stroke:#181818;stroke-width:0.5;" width="185.668" x="213.77" y="181.6045"/><text fill="#000000" font-family="sans-serif" font-size="12" lengthAdjust="spacing" textLength="165.668" x="223.77" y="202.7432">Pilih Menu Tambah Properti</text><path d="M20,269.5732 L20,324.9717 A0,0 0 0 0 20,324.9717 L200.8657,324.9717 A0,0 0 0 0 200.8657,324.9717 L200.8657,301.2725 L220.8657,297.2725 L200.8657,293.2725 L200.8657,279.5732 L190.8657,269.5732 L20,269.5732 A0,0 0 0 0 20,269.5732" fill="#E5E5E5" style="stroke:#191919;stroke-width:1.5;"/><path d="M190.8657,269.5732 L190.8657,279.5732 L200.8657,279.5732 L190.8657,269.5732" fill="#E5E5E5" style="stroke:#191919;stroke-width:1.5;"/><text fill="#191919" font-family="sans-serif" font-size="13" font-weight="bold" lengthAdjust="spacing" textLength="34.5503" x="26" y="286.6401">Data</text><text fill="#191919" font-family="sans-serif" font-size="13" lengthAdjust="spacing" textLength="4.3799" x="60.5503" y="286.6401">:</text><text fill="#191919" font-family="sans-serif" font-size="13" lengthAdjust="spacing" textLength="98.0269" x="26" y="301.7729">Nama Properti,</text><text fill="#191919" font-family="sans-serif" font-size="13" lengthAdjust="spacing" textLength="159.8657" x="26" y="316.9058">Deskripsi, Status Rumah</text><rect fill="#F1F1F1" height="33.9688" rx="3.5" ry="3.5" style="stroke:#181818;stroke-width:0.5;" width="171.4766" x="220.8657" y="280.2881"/><text fill="#000000" font-family="sans-serif" font-size="12" lengthAdjust="spacing" textLength="151.4766" x="230.8657" y="301.4268">Isi Form Informasi Umum</text><path d="M381.3726,334.9717 L381.3726,366.2373 L361.3726,370.2373 L381.3726,374.2373 L381.3726,405.5029 A0,0 0 0 0 381.3726,405.5029 L594.1479,405.5029 A0,0 0 0 0 594.1479,405.5029 L594.1479,344.9717 L584.1479,334.9717 L381.3726,334.9717 A0,0 0 0 0 381.3726,334.9717" fill="#E5E5E5" style="stroke:#191919;stroke-width:1.5;"/><path d="M584.1479,334.9717 L584.1479,344.9717 L594.1479,344.9717 L584.1479,334.9717" fill="#E5E5E5" style="stroke:#191919;stroke-width:1.5;"/><text fill="#191919" font-family="sans-serif" font-size="13" font-weight="bold" lengthAdjust="spacing" textLength="34.5503" x="387.3726" y="352.0386">Data</text><text fill="#191919" font-family="sans-serif" font-size="13" lengthAdjust="spacing" textLength="4.3799" x="421.9229" y="352.0386">:</text><text fill="#191919" font-family="sans-serif" font-size="13" lengthAdjust="spacing" textLength="167.9209" x="387.3726" y="367.1714">Provinsi, Kota/Kabupaten,</text><text fill="#191919" font-family="sans-serif" font-size="13" lengthAdjust="spacing" textLength="191.7754" x="387.3726" y="382.3042">Kecamatan, Alamat Lengkap,</text><text fill="#191919" font-family="sans-serif" font-size="13" lengthAdjust="spacing" textLength="107.123" x="387.3726" y="397.437">Link/URL Alamat</text><rect fill="#F1F1F1" height="33.9688" rx="3.5" ry="3.5" style="stroke:#181818;stroke-width:0.5;" width="109.5371" x="251.8354" y="353.2529"/><text fill="#000000" font-family="sans-serif" font-size="12" lengthAdjust="spacing" textLength="89.5371" x="261.8354" y="374.3916">Isi Form Lokasi</text><path d="M29.0244,423.0693 L29.0244,463.335 A0,0 0 0 0 29.0244,463.335 L232.6528,463.335 A0,0 0 0 0 232.6528,463.335 L232.6528,447.2021 L252.6528,443.2021 L232.6528,439.2021 L232.6528,433.0693 L222.6528,423.0693 L29.0244,423.0693 A0,0 0 0 0 29.0244,423.0693" fill="#E5E5E5" style="stroke:#191919;stroke-width:1.5;"/><path d="M222.6528,423.0693 L222.6528,433.0693 L232.6528,433.0693 L222.6528,423.0693" fill="#E5E5E5" style="stroke:#191919;stroke-width:1.5;"/><text fill="#191919" font-family="sans-serif" font-size="13" font-weight="bold" lengthAdjust="spacing" textLength="34.5503" x="35.0244" y="440.1362">Data</text><text fill="#191919" font-family="sans-serif" font-size="13" lengthAdjust="spacing" textLength="4.3799" x="69.5747" y="440.1362">:</text><text fill="#191919" font-family="sans-serif" font-size="13" lengthAdjust="spacing" textLength="182.6284" x="35.0244" y="455.269">Periode Pembayaran, Harga</text><rect fill="#F1F1F1" height="33.9688" rx="3.5" ry="3.5" style="stroke:#181818;stroke-width:0.5;" width="107.9023" x="252.6528" y="426.2178"/><text fill="#000000" font-family="sans-serif" font-size="12" lengthAdjust="spacing" textLength="87.9023" x="262.6528" y="447.3564">Isi Form Harga</text><path d="M405.7388,473.335 L405.7388,504.6006 L385.7388,508.6006 L405.7388,512.6006 L405.7388,543.8662 A0,0 0 0 0 405.7388,543.8662 L676.7983,543.8662 A0,0 0 0 0 676.7983,543.8662 L676.7983,483.335 L666.7983,473.335 L405.7388,473.335 A0,0 0 0 0 405.7388,473.335" fill="#E5E5E5" style="stroke:#191919;stroke-width:1.5;"/><path d="M666.7983,473.335 L666.7983,483.335 L676.7983,483.335 L666.7983,473.335" fill="#E5E5E5" style="stroke:#191919;stroke-width:1.5;"/><text fill="#191919" font-family="sans-serif" font-size="13" font-weight="bold" lengthAdjust="spacing" textLength="34.5503" x="411.7388" y="490.4019">Data</text><text fill="#191919" font-family="sans-serif" font-size="13" lengthAdjust="spacing" textLength="4.3799" x="446.2891" y="490.4019">:</text><text fill="#191919" font-family="sans-serif" font-size="13" lengthAdjust="spacing" textLength="139.9912" x="411.7388" y="505.5347">Fasilitas, Luas Tanah,</text><text fill="#191919" font-family="sans-serif" font-size="13" lengthAdjust="spacing" textLength="203.9629" x="411.7388" y="520.6675">Luas Bangunan, Jumlah Kamar,</text><text fill="#191919" font-family="sans-serif" font-size="13" lengthAdjust="spacing" textLength="245.9272" x="411.7388" y="535.8003">Jumlah Kamar Mandi, Daya Listrik, Air</text><rect fill="#F1F1F1" height="33.9688" rx="3.5" ry="3.5" style="stroke:#181818;stroke-width:0.5;" width="158.2695" x="227.4692" y="491.6162"/><text fill="#000000" font-family="sans-serif" font-size="12" lengthAdjust="spacing" textLength="138.2695" x="237.4692" y="512.7549">Isi Form Detail Properti</text><path d="M68.5151,568.2842 L68.5151,593.417 A0,0 0 0 0 68.5151,593.417 L204.1411,593.417 A0,0 0 0 0 204.1411,593.417 L204.1411,586.2842 L224.1411,580.8506 L204.1411,578.2842 L204.1411,578.2842 L194.1411,568.2842 L68.5151,568.2842 A0,0 0 0 0 68.5151,568.2842" fill="#E5E5E5" style="stroke:#191919;stroke-width:1.5;"/><path d="M194.1411,568.2842 L194.1411,578.2842 L204.1411,578.2842 L194.1411,568.2842" fill="#E5E5E5" style="stroke:#191919;stroke-width:1.5;"/><text fill="#191919" font-family="sans-serif" font-size="13" lengthAdjust="spacing" textLength="114.626" x="74.5151" y="585.3511">Maksimal 15 Foto</text><rect fill="#F1F1F1" height="33.9688" rx="3.5" ry="3.5" style="stroke:#181818;stroke-width:0.5;" width="164.9258" x="224.1411" y="563.8662"/><text fill="#000000" font-family="sans-serif" font-size="12" lengthAdjust="spacing" textLength="144.9258" x="234.1411" y="585.0049">Lampirkan Foto Properti</text><polygon fill="#F1F1F1" points="306.604,235.5732,318.604,247.5732,306.604,259.5732,294.604,247.5732,306.604,235.5732" style="stroke:#181818;stroke-width:0.5;"/><line style="stroke:#000000;stroke-width:1.5;" x1="15" x2="15" y1="61.6826" y2="943.9995"/><polygon fill="#F1F1F1" points="815.3315,617.835,878.2915,617.835,890.2915,629.835,878.2915,641.835,815.3315,641.835,803.3315,629.835,815.3315,617.835" style="stroke:#181818;stroke-width:0.5;"/><text fill="#000000" font-family="sans-serif" font-size="11" lengthAdjust="spacing" textLength="62.96" x="815.3315" y="633.6431">Data Valid?</text><text fill="#000000" font-family="sans-serif" font-size="11" lengthAdjust="spacing" textLength="29.8687" x="890.2915" y="627.2407">Tidak</text><rect fill="#F1F1F1" height="33.9688" rx="3.5" ry="3.5" style="stroke:#181818;stroke-width:0.5;" width="155.75" x="1241.0059" y="415.5029"/><text fill="#000000" font-family="sans-serif" font-size="12" lengthAdjust="spacing" textLength="135.75" x="1251.0059" y="436.6416">Tampilkan Pesan Error</text><polygon fill="#F1F1F1" points="804.96,683.2339,888.6631,683.2339,900.6631,695.2339,888.6631,707.2339,804.96,707.2339,792.96,695.2339,804.96,683.2339" style="stroke:#181818;stroke-width:0.5;"/><text fill="#000000" font-family="sans-serif" font-size="11" lengthAdjust="spacing" textLength="83.7031" x="804.96" y="699.042">Owner Slot &gt; 0</text><text fill="#000000" font-family="sans-serif" font-size="11" lengthAdjust="spacing" textLength="29.8687" x="763.0913" y="692.6396">Tidak</text><text fill="#000000" font-family="sans-serif" font-size="11" lengthAdjust="spacing" textLength="13.46" x="900.6631" y="692.6396">Ya</text><rect fill="#F1F1F1" height="47.9375" rx="3.5" ry="3.5" style="stroke:#181818;stroke-width:0.5;" width="149.0234" x="687.7983" y="717.2339"/><text fill="#000000" font-family="sans-serif" font-size="12" lengthAdjust="spacing" textLength="129.0234" x="697.7983" y="738.3726">Tampilkan Pesan Slot</text><text fill="#000000" font-family="sans-serif" font-size="12" lengthAdjust="spacing" textLength="127.875" x="697.7983" y="752.3413">Properti Owner Habis</text><ellipse cx="762.3101" cy="796.1714" fill="none" rx="11" ry="11" style="stroke:#222222;stroke-width:1;"/><ellipse cx="762.3101" cy="796.1714" fill="#222222" rx="6" ry="6" style="stroke:#222222;stroke-width:1;"/><path d="M1024.6235,717.2339 L1024.6235,733.3667 L1004.6235,737.3667 L1024.6235,741.3667 L1024.6235,757.4995 A0,0 0 0 0 1024.6235,757.4995 L1188.6108,757.4995 A0,0 0 0 0 1188.6108,757.4995 L1188.6108,727.2339 L1178.6108,717.2339 L1024.6235,717.2339 A0,0 0 0 0 1024.6235,717.2339" fill="#E5E5E5" style="stroke:#191919;stroke-width:1.5;"/><path d="M1178.6108,717.2339 L1178.6108,727.2339 L1188.6108,727.2339 L1178.6108,717.2339" fill="#E5E5E5" style="stroke:#191919;stroke-width:1.5;"/><text fill="#191919" font-family="sans-serif" font-size="13" font-weight="bold" lengthAdjust="spacing" textLength="121.7734" x="1030.6235" y="734.3008">(Object Storage)</text><text fill="#191919" font-family="sans-serif" font-size="13" lengthAdjust="spacing" textLength="142.9873" x="1030.6235" y="749.4336">property-image folder</text><rect fill="#F1F1F1" height="33.9688" rx="3.5" ry="3.5" style="stroke:#181818;stroke-width:0.5;" width="146.6211" x="858.0024" y="720.3823"/><text fill="#000000" font-family="sans-serif" font-size="12" lengthAdjust="spacing" textLength="126.6211" x="868.0024" y="741.521">Simpan Foto Properti</text><path d="M1025.8042,777.4995 L1025.8042,808.7651 L1005.8042,812.7651 L1025.8042,816.7651 L1025.8042,848.0308 A0,0 0 0 0 1025.8042,848.0308 L1369.7793,848.0308 A0,0 0 0 0 1369.7793,848.0308 L1369.7793,787.4995 L1359.7793,777.4995 L1025.8042,777.4995 A0,0 0 0 0 1025.8042,777.4995" fill="#E5E5E5" style="stroke:#191919;stroke-width:1.5;"/><path d="M1359.7793,777.4995 L1359.7793,787.4995 L1369.7793,787.4995 L1359.7793,777.4995" fill="#E5E5E5" style="stroke:#191919;stroke-width:1.5;"/><text fill="#191919" font-family="sans-serif" font-size="13" font-weight="bold" lengthAdjust="spacing" textLength="32.5825" x="1031.8042" y="794.5664">(DB)</text><text fill="#191919" font-family="sans-serif" font-size="13" lengthAdjust="spacing" textLength="206.1528" x="1031.8042" y="809.6992">properties, properties_facilities,</text><text fill="#191919" font-family="sans-serif" font-size="13" lengthAdjust="spacing" textLength="259.9048" x="1031.8042" y="824.832">properties_features, properties_images,</text><text fill="#191919" font-family="sans-serif" font-size="13" lengthAdjust="spacing" textLength="322.9751" x="1031.8042" y="839.9648">properties_location, and properties_pricing tables</text><rect fill="#F1F1F1" height="33.9688" rx="3.5" ry="3.5" style="stroke:#181818;stroke-width:0.5;" width="148.9824" x="856.8218" y="795.7808"/><text fill="#000000" font-family="sans-serif" font-size="12" lengthAdjust="spacing" textLength="128.9824" x="866.8218" y="816.9194">Simpan Data Properti</text><rect fill="#F1F1F1" height="33.9688" rx="3.5" ry="3.5" style="stroke:#181818;stroke-width:0.5;" width="174.4531" x="759.585" y="868.0308"/><text fill="#000000" font-family="sans-serif" font-size="12" lengthAdjust="spacing" textLength="154.4531" x="769.585" y="889.1694">Tampilkan Pesan Berhasil</text><ellipse cx="846.8115" cy="932.9995" fill="none" rx="11" ry="11" style="stroke:#222222;stroke-width:1;"/><ellipse cx="846.8115" cy="932.9995" fill="#222222" rx="6" ry="6" style="stroke:#222222;stroke-width:1;"/><line style="stroke:#000000;stroke-width:1.5;" x1="681.7983" x2="681.7983" y1="61.6826" y2="943.9995"/><line style="stroke:#000000;stroke-width:1.5;" x1="1400.7559" x2="1400.7559" y1="61.6826" y2="943.9995"/><line style="stroke:#191919;stroke-width:1;" x1="306.604" x2="306.604" y1="107.6357" y2="127.6357"/><polygon fill="#191919" points="302.604,117.6357,306.604,127.6357,310.604,117.6357,306.604,121.6357" style="stroke:#191919;stroke-width:1;"/><line style="stroke:#191919;stroke-width:1;" x1="306.604" x2="306.604" y1="161.6045" y2="181.6045"/><polygon fill="#191919" points="302.604,171.6045,306.604,181.6045,310.604,171.6045,306.604,175.6045" style="stroke:#191919;stroke-width:1;"/><line style="stroke:#191919;stroke-width:1;" x1="306.604" x2="306.604" y1="314.2568" y2="353.2529"/><polygon fill="#191919" points="302.604,343.2529,306.604,353.2529,310.604,343.2529,306.604,347.2529" style="stroke:#191919;stroke-width:1;"/><line style="stroke:#191919;stroke-width:1;" x1="306.604" x2="306.604" y1="387.2217" y2="426.2178"/><polygon fill="#191919" points="302.604,416.2178,306.604,426.2178,310.604,416.2178,306.604,420.2178" style="stroke:#191919;stroke-width:1;"/><line style="stroke:#191919;stroke-width:1;" x1="306.604" x2="306.604" y1="460.1865" y2="491.6162"/><polygon fill="#191919" points="302.604,481.6162,306.604,491.6162,310.604,481.6162,306.604,485.6162" style="stroke:#191919;stroke-width:1;"/><line style="stroke:#191919;stroke-width:1;" x1="306.604" x2="306.604" y1="525.585" y2="563.8662"/><polygon fill="#191919" points="302.604,553.8662,306.604,563.8662,310.604,553.8662,306.604,557.8662" style="stroke:#191919;stroke-width:1;"/><line style="stroke:#191919;stroke-width:1;" x1="306.604" x2="306.604" y1="259.5732" y2="280.2881"/><polygon fill="#191919" points="302.604,270.2881,306.604,280.2881,310.604,270.2881,306.604,274.2881" style="stroke:#191919;stroke-width:1;"/><line style="stroke:#191919;stroke-width:1;" x1="306.604" x2="306.604" y1="215.5732" y2="235.5732"/><polygon fill="#191919" points="302.604,225.5732,306.604,235.5732,310.604,225.5732,306.604,229.5732" style="stroke:#191919;stroke-width:1;"/><line style="stroke:#191919;stroke-width:1;" x1="890.2915" x2="1318.8809" y1="629.835" y2="629.835"/><line style="stroke:#191919;stroke-width:1;" x1="1318.8809" x2="1318.8809" y1="449.4717" y2="629.835"/><polygon fill="#191919" points="1314.8809,459.4717,1318.8809,449.4717,1322.8809,459.4717,1318.8809,455.4717" style="stroke:#191919;stroke-width:1;"/><line style="stroke:#191919;stroke-width:1;" x1="762.3101" x2="762.3101" y1="765.1714" y2="785.1714"/><polygon fill="#191919" points="758.3101,775.1714,762.3101,785.1714,766.3101,775.1714,762.3101,779.1714" style="stroke:#191919;stroke-width:1;"/><line style="stroke:#191919;stroke-width:1;" x1="931.313" x2="931.313" y1="754.3511" y2="795.7808"/><polygon fill="#191919" points="927.313,785.7808,931.313,795.7808,935.313,785.7808,931.313,789.7808" style="stroke:#191919;stroke-width:1;"/><line style="stroke:#191919;stroke-width:1;" x1="792.96" x2="762.3101" y1="695.2339" y2="695.2339"/><line style="stroke:#191919;stroke-width:1;" x1="762.3101" x2="762.3101" y1="695.2339" y2="717.2339"/><polygon fill="#191919" points="758.3101,707.2339,762.3101,717.2339,766.3101,707.2339,762.3101,711.2339" style="stroke:#191919;stroke-width:1;"/><line style="stroke:#191919;stroke-width:1;" x1="900.6631" x2="931.313" y1="695.2339" y2="695.2339"/><line style="stroke:#191919;stroke-width:1;" x1="931.313" x2="931.313" y1="695.2339" y2="720.3823"/><polygon fill="#191919" points="927.313,710.3823,931.313,720.3823,935.313,710.3823,931.313,714.3823" style="stroke:#191919;stroke-width:1;"/><line style="stroke:#191919;stroke-width:1;" x1="931.313" x2="931.313" y1="829.7495" y2="853.0308"/><line style="stroke:#191919;stroke-width:1;" x1="931.313" x2="846.8115" y1="853.0308" y2="853.0308"/><line style="stroke:#191919;stroke-width:1;" x1="846.8115" x2="846.8115" y1="853.0308" y2="868.0308"/><polygon fill="#191919" points="842.8115,858.0308,846.8115,868.0308,850.8115,858.0308,846.8115,862.0308" style="stroke:#191919;stroke-width:1;"/><line style="stroke:#191919;stroke-width:1;" x1="846.8115" x2="846.8115" y1="641.835" y2="683.2339"/><polygon fill="#191919" points="842.8115,673.2339,846.8115,683.2339,850.8115,673.2339,846.8115,677.2339" style="stroke:#191919;stroke-width:1;"/><text fill="#000000" font-family="sans-serif" font-size="11" lengthAdjust="spacing" textLength="13.46" x="850.8115" y="663.1396">Ya</text><line style="stroke:#191919;stroke-width:1;" x1="846.8115" x2="846.8115" y1="901.9995" y2="921.9995"/><polygon fill="#191919" points="842.8115,911.9995,846.8115,921.9995,850.8115,911.9995,846.8115,915.9995" style="stroke:#191919;stroke-width:1;"/><line style="stroke:#191919;stroke-width:1;" x1="1318.8809" x2="1318.8809" y1="247.5732" y2="415.5029"/><line style="stroke:#191919;stroke-width:1;" x1="1318.8809" x2="318.604" y1="247.5732" y2="247.5732"/><polygon fill="#191919" points="328.604,243.5732,318.604,247.5732,328.604,251.5732,324.604,247.5732" style="stroke:#191919;stroke-width:1;"/><line style="stroke:#191919;stroke-width:1;" x1="306.604" x2="306.604" y1="597.835" y2="602.835"/><line style="stroke:#191919;stroke-width:1;" x1="306.604" x2="846.8115" y1="602.835" y2="602.835"/><line style="stroke:#191919;stroke-width:1;" x1="846.8115" x2="846.8115" y1="602.835" y2="617.835"/><polygon fill="#191919" points="842.8115,607.835,846.8115,617.835,850.8115,607.835,846.8115,611.835" style="stroke:#191919;stroke-width:1;"/><text fill="#000000" font-family="sans-serif" font-size="18" lengthAdjust="spacing" textLength="58.7725" x="319.0129" y="78.3906">Owner</text><text fill="#000000" font-family="sans-serif" font-size="18" lengthAdjust="spacing" textLength="61.4707" x="1010.5417" y="78.3906">Sistem</text><g class="footer" data-source-line="5"><text fill="#888888" font-family="sans-serif" font-size="18" lengthAdjust="spacing" textLength="100.2744" x="658.6711" y="960.7075">version 1.0</text></g><?plantuml-src ZLHHQzj037xthz3ob8HqRSS68u6EbIoqIxA6fXqK1aM9PLlp-SxSdHiwykEdSr8tJKleFTW-IQVlqoUTNSwwH8i5UFQAHaRxEVyZ-FGvSerhP8mds_XElqOVV4O5GO7MHVL1Q4tOUTOfpAmfoNfkHKbz35eFP1qR3QSVJrfHjBvQQRBhQExH-gW_HLVba1DSeC82DOn96OLDca7Kdx7Y3AQaAxZ1Oe7PZjDIIUWZaDM_T2nKRG6NEf4NolQsg8f1xTN21HGbczYmkjqXUkns-utbbn1eSlUWiG_9vPPB9pPXxIi7rrM1MUqd7TUvzoXCJ2xuEz2Mq-mGji0-i0uGO-FnU8oBgaHFkjT4Z6af_3pg7dmFKdcOa4vpB9z39gppuzlhoJRW4C4Bj2c-NvePMJOnoLiQy2XJ8Ipg58SmXkIHrKwttgt6ICHJxD7rO5AXaxvhp7Rg3BPpr6cb0v6VLQ5aAiPIitqEshN257KisWw5EuH9jPoBZ6pX3VuJB4gskSpYo7Zp5lqNOaqnTroWWjClzO7N6TTpGQHYNMyMkCnNQ6FetmGS5N1cvEJvmrfZ1x2TQLXbBFUg7QI1twWu_jO1Tj2-uHZpJdHqTYVzumJQzOM2kJ8Upk2a0t8tTHDMLxIF56B_wAV2O9FW0XViDaKwRyg8b1FuEzpcc7DH7f1alwFjgyLVMdgvCCPYIfrkjt6MczEFHw9QIf0O5PDzemzRn5g0WuY2DZn_GjXcPvBPUVw-Jt0P9YgOzyBk4r6xidlnDRVNiSeiqSlFh0SoKBkEql8o_FuyBXIvbzN81oVHgowSayt2d0-YeFT_?></g></svg>