<?plantuml 1.2026.2?><svg xmlns="http://www.w3.org/2000/svg" xmlns:xlink="http://www.w3.org/1999/xlink" contentStyleType="text/css" data-diagram-type="ACTIVITY" height="818px" preserveAspectRatio="none" style="width:1063px;height:818px;background:#F9F9F9;" version="1.1" viewBox="0 0 1063 818" width="1063px" zoomAndPan="magnify"><title>(ACD-05) Membuat Kontrak</title><defs/><g><rect fill="#F9F9F9" height="818" style="stroke:none;stroke-width:1;" width="1063" x="0" y="0"/><g class="title" data-source-line="4"><text fill="#000000" font-family="sans-serif" font-size="24" font-weight="bold" lengthAdjust="spacing" textLength="372.8555" x="343.8921" y="42.2773">(ACD-05) Membuat Kontrak</text></g><rect fill="none" height="20.9531" style="stroke:none;stroke-width:1;" width="1030.6396" x="15" y="61.6826"/><ellipse cx="247.7168" cy="97.6357" fill="#222222" rx="10" ry="10" style="stroke:#222222;stroke-width:1;"/><rect fill="#F1F1F1" height="33.9688" rx="3.5" ry="3.5" style="stroke:#181818;stroke-width:0.5;" width="189.3008" x="153.0664" y="127.6357"/><text fill="#000000" font-family="sans-serif" font-size="12" lengthAdjust="spacing" textLength="169.3008" x="163.0664" y="148.7744">Menyetujui Pengajuan Sewa</text><rect fill="#F1F1F1" height="33.9688" rx="3.5" ry="3.5" style="stroke:#181818;stroke-width:0.5;" width="127.2793" x="184.0771" y="249.542"/><text fill="#000000" font-family="sans-serif" font-size="12" lengthAdjust="spacing" textLength="107.2793" x="194.0771" y="270.6807">Membuat Kontrak</text><polygon fill="#F1F1F1" points="168.8208,303.5107,326.6128,303.5107,338.6128,315.5107,326.6128,327.5107,168.8208,327.5107,156.8208,315.5107,168.8208,303.5107" style="stroke:#181818;stroke-width:0.5;"/><text fill="#000000" font-family="sans-serif" font-size="11" lengthAdjust="spacing" textLength="157.792" x="168.8208" y="319.3188">Pilih Buat Kontrak Otomatis?</text><text fill="#000000" font-family="sans-serif" font-size="11" lengthAdjust="spacing" textLength="29.8687" x="126.9521" y="312.9165">Tidak</text><text fill="#000000" font-family="sans-serif" font-size="11" lengthAdjust="spacing" textLength="13.46" x="338.6128" y="312.9165">Ya</text><rect fill="#F1F1F1" height="33.9688" rx="3.5" ry="3.5" style="stroke:#181818;stroke-width:0.5;" width="170.3984" x="46.585" y="347.5107"/><text fill="#000000" font-family="sans-serif" font-size="12" lengthAdjust="spacing" textLength="150.3984" x="56.585" y="368.6494">Unduh Template Kontrak</text><rect fill="#F1F1F1" height="33.9688" rx="3.5" ry="3.5" style="stroke:#181818;stroke-width:0.5;" width="184.5313" x="39.5186" y="401.4795"/><text fill="#000000" font-family="sans-serif" font-size="12" lengthAdjust="spacing" textLength="164.5313" x="49.5186" y="422.6182">Edit &amp; Isi Template Kontrak</text><rect fill="#F1F1F1" height="33.9688" rx="3.5" ry="3.5" style="stroke:#181818;stroke-width:0.5;" width="221.5684" x="21" y="455.4482"/><text fill="#000000" font-family="sans-serif" font-size="12" lengthAdjust="spacing" textLength="201.5684" x="31" y="476.5869">Unggah Kontrak yang Sudah Diisi</text><polygon fill="#F1F1F1" points="247.7168,499.417,259.7168,511.417,247.7168,523.417,235.7168,511.417,247.7168,499.417" style="stroke:#181818;stroke-width:0.5;"/><line style="stroke:#000000;stroke-width:1.5;" x1="15" x2="15" y1="61.6826" y2="784.4404"/><rect fill="#F1F1F1" height="33.9688" rx="3.5" ry="3.5" style="stroke:#181818;stroke-width:0.5;" width="202.1621" x="521.2778" y="347.5107"/><text fill="#000000" font-family="sans-serif" font-size="12" lengthAdjust="spacing" textLength="182.1621" x="531.2778" y="368.6494">Buat Kontrak Secara Otomatis</text><path d="M604.4683,540.2686 L604.4683,556.4014 L584.4683,560.4014 L604.4683,564.4014 L604.4683,580.5342 A0,0 0 0 0 604.4683,580.5342 L853.0952,580.5342 A0,0 0 0 0 853.0952,580.5342 L853.0952,550.2686 L843.0952,540.2686 L604.4683,540.2686 A0,0 0 0 0 604.4683,540.2686" fill="#E5E5E5" style="stroke:#191919;stroke-width:1.5;"/><path d="M843.0952,540.2686 L843.0952,550.2686 L853.0952,550.2686 L843.0952,540.2686" fill="#E5E5E5" style="stroke:#191919;stroke-width:1.5;"/><text fill="#191919" font-family="sans-serif" font-size="13" font-weight="bold" lengthAdjust="spacing" textLength="32.5825" x="610.4683" y="557.3354">(DB)</text><text fill="#191919" font-family="sans-serif" font-size="13" lengthAdjust="spacing" textLength="82.0879" x="647.1831" y="557.3354">rentals table</text><text fill="#191919" font-family="sans-serif" font-size="13" lengthAdjust="spacing" textLength="227.627" x="610.4683" y="572.4683">rentals_status: contract_generated</text><rect fill="#F1F1F1" height="33.9688" rx="3.5" ry="3.5" style="stroke:#181818;stroke-width:0.5;" width="156.084" x="428.3843" y="543.417"/><text fill="#000000" font-family="sans-serif" font-size="12" lengthAdjust="spacing" textLength="136.084" x="438.3843" y="564.5557">Update Status Kontrak</text><path d="M600.5542,604.9521 L600.5542,613.5186 L580.5542,617.5186 L600.5542,621.5186 L600.5542,630.085 A0,0 0 0 0 600.5542,630.085 L798.8569,630.085 A0,0 0 0 0 798.8569,630.085 L798.8569,614.9521 L788.8569,604.9521 L600.5542,604.9521 A0,0 0 0 0 600.5542,604.9521" fill="#E5E5E5" style="stroke:#191919;stroke-width:1.5;"/><path d="M788.8569,604.9521 L788.8569,614.9521 L798.8569,614.9521 L788.8569,604.9521" fill="#E5E5E5" style="stroke:#191919;stroke-width:1.5;"/><text fill="#191919" font-family="sans-serif" font-size="13" font-weight="bold" lengthAdjust="spacing" textLength="32.5825" x="606.5542" y="622.019">(DB)</text><text fill="#191919" font-family="sans-serif" font-size="13" lengthAdjust="spacing" textLength="140.5879" x="643.269" y="622.019">legal_document table</text><rect fill="#F1F1F1" height="33.9688" rx="3.5" ry="3.5" style="stroke:#181818;stroke-width:0.5;" width="148.2559" x="432.2983" y="600.5342"/><text fill="#000000" font-family="sans-serif" font-size="12" lengthAdjust="spacing" textLength="128.2559" x="442.2983" y="621.6729">Simpan Data Kontrak</text><rect fill="#F1F1F1" height="33.9688" rx="3.5" ry="3.5" style="stroke:#181818;stroke-width:0.5;" width="286.707" x="363.0728" y="654.5029"/><text fill="#000000" font-family="sans-serif" font-size="12" lengthAdjust="spacing" textLength="266.707" x="373.0728" y="675.6416">Menampilkan Pesan Kontrak Berhasil Dibuat</text><rect fill="#F1F1F1" height="33.9688" rx="3.5" ry="3.5" style="stroke:#181818;stroke-width:0.5;" width="228.7402" x="392.0562" y="708.4717"/><text fill="#000000" font-family="sans-serif" font-size="12" lengthAdjust="spacing" textLength="208.7402" x="402.0562" y="729.6104">Lanjut ke Tahap Negosiasi Kontrak</text><ellipse cx="506.4263" cy="773.4404" fill="none" rx="11" ry="11" style="stroke:#222222;stroke-width:1;"/><ellipse cx="506.4263" cy="773.4404" fill="#222222" rx="6" ry="6" style="stroke:#222222;stroke-width:1;"/><line style="stroke:#000000;stroke-width:1.5;" x1="357.0728" x2="357.0728" y1="61.6826" y2="784.4404"/><rect fill="#F1F1F1" height="47.9375" rx="3.5" ry="3.5" style="stroke:#181818;stroke-width:0.5;" width="175.6836" x="864.0952" y="181.6045"/><text fill="#000000" font-family="sans-serif" font-size="12" lengthAdjust="spacing" textLength="101.6426" x="874.0952" y="202.7432">Terima Notifikasi</text><text fill="#000000" font-family="sans-serif" font-size="12" lengthAdjust="spacing" textLength="155.6836" x="874.0952" y="216.7119">Pengajuan Sewa Disetujui</text><line style="stroke:#000000;stroke-width:1.5;" x1="858.0952" x2="858.0952" y1="61.6826" y2="784.4404"/><line style="stroke:#000000;stroke-width:1.5;" x1="1043.7788" x2="1043.7788" y1="61.6826" y2="784.4404"/><line style="stroke:#191919;stroke-width:1;" x1="247.7168" x2="247.7168" y1="107.6357" y2="127.6357"/><polygon fill="#191919" points="243.7168,117.6357,247.7168,127.6357,251.7168,117.6357,247.7168,121.6357" style="stroke:#191919;stroke-width:1;"/><line style="stroke:#191919;stroke-width:1;" x1="131.7842" x2="131.7842" y1="381.4795" y2="401.4795"/><polygon fill="#191919" points="127.7842,391.4795,131.7842,401.4795,135.7842,391.4795,131.7842,395.4795" style="stroke:#191919;stroke-width:1;"/><line style="stroke:#191919;stroke-width:1;" x1="131.7842" x2="131.7842" y1="435.4482" y2="455.4482"/><polygon fill="#191919" points="127.7842,445.4482,131.7842,455.4482,135.7842,445.4482,131.7842,449.4482" style="stroke:#191919;stroke-width:1;"/><line style="stroke:#191919;stroke-width:1;" x1="156.8208" x2="131.7842" y1="315.5107" y2="315.5107"/><line style="stroke:#191919;stroke-width:1;" x1="131.7842" x2="131.7842" y1="315.5107" y2="347.5107"/><polygon fill="#191919" points="127.7842,337.5107,131.7842,347.5107,135.7842,337.5107,131.7842,341.5107" style="stroke:#191919;stroke-width:1;"/><line style="stroke:#191919;stroke-width:1;" x1="131.7842" x2="131.7842" y1="489.417" y2="511.417"/><line style="stroke:#191919;stroke-width:1;" x1="131.7842" x2="235.7168" y1="511.417" y2="511.417"/><polygon fill="#191919" points="225.7168,507.417,235.7168,511.417,225.7168,515.417,229.7168,511.417" style="stroke:#191919;stroke-width:1;"/><line style="stroke:#191919;stroke-width:1;" x1="247.7168" x2="247.7168" y1="283.5107" y2="303.5107"/><polygon fill="#191919" points="243.7168,293.5107,247.7168,303.5107,251.7168,293.5107,247.7168,297.5107" style="stroke:#191919;stroke-width:1;"/><line style="stroke:#191919;stroke-width:1;" x1="506.4263" x2="506.4263" y1="577.3857" y2="600.5342"/><polygon fill="#191919" points="502.4263,590.5342,506.4263,600.5342,510.4263,590.5342,506.4263,594.5342" style="stroke:#191919;stroke-width:1;"/><line style="stroke:#191919;stroke-width:1;" x1="506.4263" x2="506.4263" y1="634.5029" y2="654.5029"/><polygon fill="#191919" points="502.4263,644.5029,506.4263,654.5029,510.4263,644.5029,506.4263,648.5029" style="stroke:#191919;stroke-width:1;"/><line style="stroke:#191919;stroke-width:1;" x1="506.4263" x2="506.4263" y1="688.4717" y2="708.4717"/><polygon fill="#191919" points="502.4263,698.4717,506.4263,708.4717,510.4263,698.4717,506.4263,702.4717" style="stroke:#191919;stroke-width:1;"/><line style="stroke:#191919;stroke-width:1;" x1="506.4263" x2="506.4263" y1="742.4404" y2="762.4404"/><polygon fill="#191919" points="502.4263,752.4404,506.4263,762.4404,510.4263,752.4404,506.4263,756.4404" style="stroke:#191919;stroke-width:1;"/><line style="stroke:#191919;stroke-width:1;" x1="247.7168" x2="247.7168" y1="161.6045" y2="166.6045"/><line style="stroke:#191919;stroke-width:1;" x1="247.7168" x2="951.937" y1="166.6045" y2="166.6045"/><line style="stroke:#191919;stroke-width:1;" x1="951.937" x2="951.937" y1="166.6045" y2="181.6045"/><polygon fill="#191919" points="947.937,171.6045,951.937,181.6045,955.937,171.6045,951.937,175.6045" style="stroke:#191919;stroke-width:1;"/><line style="stroke:#191919;stroke-width:1;" x1="951.937" x2="951.937" y1="229.542" y2="234.542"/><line style="stroke:#191919;stroke-width:1;" x1="951.937" x2="247.7168" y1="234.542" y2="234.542"/><line style="stroke:#191919;stroke-width:1;" x1="247.7168" x2="247.7168" y1="234.542" y2="249.542"/><polygon fill="#191919" points="243.7168,239.542,247.7168,249.542,251.7168,239.542,247.7168,243.542" style="stroke:#191919;stroke-width:1;"/><line style="stroke:#191919;stroke-width:1;" x1="338.6128" x2="622.3589" y1="315.5107" y2="315.5107"/><line style="stroke:#191919;stroke-width:1;" x1="622.3589" x2="622.3589" y1="315.5107" y2="347.5107"/><polygon fill="#191919" points="618.3589,337.5107,622.3589,347.5107,626.3589,337.5107,622.3589,341.5107" style="stroke:#191919;stroke-width:1;"/><line style="stroke:#191919;stroke-width:1;" x1="622.3589" x2="622.3589" y1="381.4795" y2="511.417"/><line style="stroke:#191919;stroke-width:1;" x1="622.3589" x2="259.7168" y1="511.417" y2="511.417"/><polygon fill="#191919" points="269.7168,507.417,259.7168,511.417,269.7168,515.417,265.7168,511.417" style="stroke:#191919;stroke-width:1;"/><line style="stroke:#191919;stroke-width:1;" x1="247.7168" x2="247.7168" y1="523.417" y2="528.417"/><line style="stroke:#191919;stroke-width:1;" x1="247.7168" x2="506.4263" y1="528.417" y2="528.417"/><line style="stroke:#191919;stroke-width:1;" x1="506.4263" x2="506.4263" y1="528.417" y2="543.417"/><polygon fill="#191919" points="502.4263,533.417,506.4263,543.417,510.4263,533.417,506.4263,537.417" style="stroke:#191919;stroke-width:1;"/><text fill="#000000" font-family="sans-serif" font-size="18" lengthAdjust="spacing" textLength="58.7725" x="156.6501" y="78.3906">Owner</text><text fill="#000000" font-family="sans-serif" font-size="18" lengthAdjust="spacing" textLength="61.4707" x="576.8486" y="78.3906">Sistem</text><text fill="#000000" font-family="sans-serif" font-size="18" lengthAdjust="spacing" textLength="62.9736" x="919.4502" y="78.3906">Tenant</text><g class="footer" data-source-line="5"><text fill="#888888" font-family="sans-serif" font-size="18" lengthAdjust="spacing" textLength="100.2744" x="480.1826" y="801.1484">version 1.0</text></g><?plantuml-src XP9DQzj048Rl-okcFWJ9q92K5efqA7MKG6cJ62GV2WKpiSRIMBihiJjgID6Fprf9fRfGgiCUvkDvtvcHRzXswD20i6YwQQta_8lWtNlbfzHDsmgvANVvKRsHcWo1GUVLs0YBwFDLzlRYGmotP1vw5FWQwXqs2xKVss7navpdriBb-SL23VUFbjoWlA0JbToIVIBf3pt3cco5XnujvFI8gHfoza9cK4D15gqCAYd8iK6uQuNttA3d7_Qq2pBsBxXqKah-CfOgtaEqPiqrhFw8mxsq1eNzfnZ2c1QYWajiOWNXIpQsx6ieo7GQXMRMcBmkMU0CldZ-LyN6LXNMazGJsWholWoXZDdpIzKqCMbF47t7-3GyaauivxGBbvgSfufioVjvTSccAuzcSa7f_Up9Xik0uwgM4RfSHjagNYx1aHNK7WGVD8sfryZMZuG4TYDY9zkAmdO3kpngmX6eafnD5owHeU3_jJHLgBTbk-jDq7YLd5dXpq3JiMu2S4q-lB-7Nf6hm-rrMDtnhgbAlg4zz08DGO4rTd17LUivrCmklBJTCm00?></g></svg>