<?plantuml 1.2026.2?><svg xmlns="http://www.w3.org/2000/svg" xmlns:xlink="http://www.w3.org/1999/xlink" contentStyleType="text/css" data-diagram-type="ACTIVITY" height="751px" preserveAspectRatio="none" style="width:842px;height:751px;background:#F9F9F9;" version="1.1" viewBox="0 0 842 751" width="842px" zoomAndPan="magnify"><title>(ACD-12) Cari Properti</title><defs/><g><rect fill="#F9F9F9" height="751" style="stroke:none;stroke-width:1;" width="842" x="0" y="0"/><g class="title" data-source-line="4"><text fill="#000000" font-family="sans-serif" font-size="24" font-weight="bold" lengthAdjust="spacing" textLength="302.8945" x="268.177" y="42.2773">(ACD-12) Cari Properti</text></g><rect fill="none" height="20.9531" style="stroke:none;stroke-width:1;" width="809.2485" x="15" y="61.6826"/><rect fill="#F1F1F1" height="33.9688" rx="3.5" ry="3.5" style="stroke:#181818;stroke-width:0.5;" width="248.0469" x="25.626" y="87.6357"/><text fill="#000000" font-family="sans-serif" font-size="12" lengthAdjust="spacing" textLength="228.0469" x="35.626" y="108.7744">Masuk ke halaman pencarian properti</text><rect fill="#F1F1F1" height="33.9688" rx="3.5" ry="3.5" style="stroke:#181818;stroke-width:0.5;" width="210.1016" x="44.5986" y="141.6045"/><text fill="#000000" font-family="sans-serif" font-size="12" lengthAdjust="spacing" textLength="190.1016" x="54.5986" y="162.7432">Masukkan kata kunci pencarian</text><rect fill="#F1F1F1" height="33.9688" rx="3.5" ry="3.5" style="stroke:#181818;stroke-width:0.5;" width="166.5957" x="66.3516" y="195.5732"/><text fill="#000000" font-family="sans-serif" font-size="12" lengthAdjust="spacing" textLength="146.5957" x="76.3516" y="216.7119">Tentukan lokasi properti</text><rect fill="#F1F1F1" height="33.9688" rx="3.5" ry="3.5" style="stroke:#181818;stroke-width:0.5;" width="205.6016" x="46.8486" y="249.542"/><text fill="#000000" font-family="sans-serif" font-size="12" lengthAdjust="spacing" textLength="185.6016" x="56.8486" y="270.6807">Tentukan range harga properti</text><rect fill="#F1F1F1" height="33.9688" rx="3.5" ry="3.5" style="stroke:#181818;stroke-width:0.5;" width="113.3633" x="92.9678" y="303.5107"/><text fill="#000000" font-family="sans-serif" font-size="12" lengthAdjust="spacing" textLength="93.3633" x="102.9678" y="324.6494">Klik tombol cari</text><rect fill="#F1F1F1" height="33.9688" rx="3.5" ry="3.5" style="stroke:#181818;stroke-width:0.5;" width="257.2988" x="21" y="479.3857"/><text fill="#000000" font-family="sans-serif" font-size="12" lengthAdjust="spacing" textLength="237.2988" x="31" y="500.5244">Melihat daftar properti yang ditemukan</text><rect fill="#F1F1F1" height="33.9688" rx="3.5" ry="3.5" style="stroke:#181818;stroke-width:0.5;" width="196.1855" x="51.5566" y="533.3545"/><text fill="#000000" font-family="sans-serif" font-size="12" lengthAdjust="spacing" textLength="176.1855" x="61.5566" y="554.4932">Pilih properti yang diinginkan</text><rect fill="#F1F1F1" height="33.9688" rx="3.5" ry="3.5" style="stroke:#181818;stroke-width:0.5;" width="153.2891" x="73.0049" y="641.292"/><text fill="#000000" font-family="sans-serif" font-size="12" lengthAdjust="spacing" textLength="133.2891" x="83.0049" y="662.4307">Melihat detail properti</text><ellipse cx="149.6494" cy="706.2607" fill="none" rx="11" ry="11" style="stroke:#222222;stroke-width:1;"/><ellipse cx="149.6494" cy="706.2607" fill="#222222" rx="6" ry="6" style="stroke:#222222;stroke-width:1;"/><line style="stroke:#000000;stroke-width:1.5;" x1="15" x2="15" y1="61.6826" y2="717.2607"/><path d="M655.9902,368.8818 L655.9902,377.4482 L635.9902,381.4482 L655.9902,385.4482 L655.9902,394.0146 A0,0 0 0 0 655.9902,394.0146 L817.3877,394.0146 A0,0 0 0 0 817.3877,394.0146 L817.3877,378.8818 L807.3877,368.8818 L655.9902,368.8818 A0,0 0 0 0 655.9902,368.8818" fill="#E5E5E5" style="stroke:#191919;stroke-width:1.5;"/><path d="M807.3877,368.8818 L807.3877,378.8818 L817.3877,378.8818 L807.3877,368.8818" fill="#E5E5E5" style="stroke:#191919;stroke-width:1.5;"/><text fill="#191919" font-family="sans-serif" font-size="13" font-weight="bold" lengthAdjust="spacing" textLength="32.5825" x="661.9902" y="385.9487">(DB)</text><text fill="#191919" font-family="sans-serif" font-size="13" lengthAdjust="spacing" textLength="103.6826" x="698.7051" y="385.9487">properties table</text><rect fill="#F1F1F1" height="47.9375" rx="3.5" ry="3.5" style="stroke:#181818;stroke-width:0.5;" width="268.3027" x="367.6875" y="357.4795"/><text fill="#000000" font-family="sans-serif" font-size="12" lengthAdjust="spacing" textLength="248.3027" x="377.6875" y="378.6182">Mencari properti berdasarkan kata kunci,</text><text fill="#000000" font-family="sans-serif" font-size="12" lengthAdjust="spacing" textLength="142.1543" x="377.6875" y="392.5869">lokasi, dan range harga</text><rect fill="#F1F1F1" height="33.9688" rx="3.5" ry="3.5" style="stroke:#181818;stroke-width:0.5;" width="427.0801" x="288.2988" y="425.417"/><text fill="#000000" font-family="sans-serif" font-size="12" lengthAdjust="spacing" textLength="407.0801" x="298.2988" y="446.5557">Menampilkan daftar properti yang sesuai dengan kriteria pencarian</text><rect fill="#F1F1F1" height="33.9688" rx="3.5" ry="3.5" style="stroke:#181818;stroke-width:0.5;" width="263.2813" x="370.1982" y="587.3232"/><text fill="#000000" font-family="sans-serif" font-size="12" lengthAdjust="spacing" textLength="243.2813" x="380.1982" y="608.4619">Menampilkan detail properti yang dipilih</text><line style="stroke:#000000;stroke-width:1.5;" x1="282.2988" x2="282.2988" y1="61.6826" y2="717.2607"/><line style="stroke:#000000;stroke-width:1.5;" x1="822.3877" x2="822.3877" y1="61.6826" y2="717.2607"/><line style="stroke:#191919;stroke-width:1;" x1="149.6494" x2="149.6494" y1="121.6045" y2="141.6045"/><polygon fill="#191919" points="145.6494,131.6045,149.6494,141.6045,153.6494,131.6045,149.6494,135.6045" style="stroke:#191919;stroke-width:1;"/><line style="stroke:#191919;stroke-width:1;" x1="149.6494" x2="149.6494" y1="175.5732" y2="195.5732"/><polygon fill="#191919" points="145.6494,185.5732,149.6494,195.5732,153.6494,185.5732,149.6494,189.5732" style="stroke:#191919;stroke-width:1;"/><line style="stroke:#191919;stroke-width:1;" x1="149.6494" x2="149.6494" y1="229.542" y2="249.542"/><polygon fill="#191919" points="145.6494,239.542,149.6494,249.542,153.6494,239.542,149.6494,243.542" style="stroke:#191919;stroke-width:1;"/><line style="stroke:#191919;stroke-width:1;" x1="149.6494" x2="149.6494" y1="283.5107" y2="303.5107"/><polygon fill="#191919" points="145.6494,293.5107,149.6494,303.5107,153.6494,293.5107,149.6494,297.5107" style="stroke:#191919;stroke-width:1;"/><line style="stroke:#191919;stroke-width:1;" x1="149.6494" x2="149.6494" y1="513.3545" y2="533.3545"/><polygon fill="#191919" points="145.6494,523.3545,149.6494,533.3545,153.6494,523.3545,149.6494,527.3545" style="stroke:#191919;stroke-width:1;"/><line style="stroke:#191919;stroke-width:1;" x1="149.6494" x2="149.6494" y1="675.2607" y2="695.2607"/><polygon fill="#191919" points="145.6494,685.2607,149.6494,695.2607,153.6494,685.2607,149.6494,689.2607" style="stroke:#191919;stroke-width:1;"/><line style="stroke:#191919;stroke-width:1;" x1="501.8389" x2="501.8389" y1="405.417" y2="425.417"/><polygon fill="#191919" points="497.8389,415.417,501.8389,425.417,505.8389,415.417,501.8389,419.417" style="stroke:#191919;stroke-width:1;"/><line style="stroke:#191919;stroke-width:1;" x1="149.6494" x2="149.6494" y1="337.4795" y2="342.4795"/><line style="stroke:#191919;stroke-width:1;" x1="149.6494" x2="501.8389" y1="342.4795" y2="342.4795"/><line style="stroke:#191919;stroke-width:1;" x1="501.8389" x2="501.8389" y1="342.4795" y2="357.4795"/><polygon fill="#191919" points="497.8389,347.4795,501.8389,357.4795,505.8389,347.4795,501.8389,351.4795" style="stroke:#191919;stroke-width:1;"/><line style="stroke:#191919;stroke-width:1;" x1="501.8389" x2="501.8389" y1="459.3857" y2="464.3857"/><line style="stroke:#191919;stroke-width:1;" x1="501.8389" x2="149.6494" y1="464.3857" y2="464.3857"/><line style="stroke:#191919;stroke-width:1;" x1="149.6494" x2="149.6494" y1="464.3857" y2="479.3857"/><polygon fill="#191919" points="145.6494,469.3857,149.6494,479.3857,153.6494,469.3857,149.6494,473.3857" style="stroke:#191919;stroke-width:1;"/><line style="stroke:#191919;stroke-width:1;" x1="149.6494" x2="149.6494" y1="567.3232" y2="572.3232"/><line style="stroke:#191919;stroke-width:1;" x1="149.6494" x2="501.8389" y1="572.3232" y2="572.3232"/><line style="stroke:#191919;stroke-width:1;" x1="501.8389" x2="501.8389" y1="572.3232" y2="587.3232"/><polygon fill="#191919" points="497.8389,577.3232,501.8389,587.3232,505.8389,577.3232,501.8389,581.3232" style="stroke:#191919;stroke-width:1;"/><line style="stroke:#191919;stroke-width:1;" x1="501.8389" x2="501.8389" y1="621.292" y2="626.292"/><line style="stroke:#191919;stroke-width:1;" x1="501.8389" x2="149.6494" y1="626.292" y2="626.292"/><line style="stroke:#191919;stroke-width:1;" x1="149.6494" x2="149.6494" y1="626.292" y2="641.292"/><polygon fill="#191919" points="145.6494,631.292,149.6494,641.292,153.6494,631.292,149.6494,635.292" style="stroke:#191919;stroke-width:1;"/><text fill="#000000" font-family="sans-serif" font-size="18" lengthAdjust="spacing" textLength="62.9736" x="117.1626" y="78.3906">Tenant</text><text fill="#000000" font-family="sans-serif" font-size="18" lengthAdjust="spacing" textLength="61.4707" x="521.6079" y="78.3906">Sistem</text><g class="footer" data-source-line="5"><text fill="#888888" font-family="sans-serif" font-size="18" lengthAdjust="spacing" textLength="100.2744" x="369.4871" y="733.9688">version 1.0</text></g><?plantuml-src RL0zRy8m4DtzAwwP8A9LGHsgPcf1B5Kb93fsEPeZETcn8_jIgHK_lZQWa0WyMNwVVa6pRT5Z0y9YQEsiRFcFOF6aGW-jdHFoFJP_LdTIKqFGe0_gA8HiyhfStSyNKrYYPzXurv8NpjJ-A8RiXtnWPs7-y9WfTVWaYrOEwkK3GwT14zHei44BBTdlQ95kPvFYpDBnJQCWwCv-yuKOyMWdNSADqnXuAEqXZxPACRx28VvkM8EuPkSC9Bz27ROSX9fKxXJHqs57liI0VbnbzcLFkJCenq65il7xuBcgHK4yUJvPlKtplBUa088xGufi2ObyJCMcPPD2IjmB-ak1t-WDWKA732NPAlNm71Tc70uos9SCroYtZSgeRD8uSOSDH-8LphPYUoICLhdq8q4sLx8scTsiCUONAeXh_m40?></g></svg>