<?plantuml 1.2026.2?><svg xmlns="http://www.w3.org/2000/svg" xmlns:xlink="http://www.w3.org/1999/xlink" contentStyleType="text/css" data-diagram-type="ACTIVITY" height="982px" preserveAspectRatio="none" style="width:1421px;height:982px;background:#F9F9F9;" version="1.1" viewBox="0 0 1421 982" width="1421px" zoomAndPan="magnify"><title>(ACD-13) Perpanjangan Kontrak</title><defs/><g><rect fill="#F9F9F9" height="982" style="stroke:none;stroke-width:1;" width="1421" x="0" y="0"/><g class="title" data-source-line="4"><text fill="#000000" font-family="sans-serif" font-size="24" font-weight="bold" lengthAdjust="spacing" textLength="433.8867" x="492.1582" y="42.2773">(ACD-13) Perpanjangan Kontrak</text></g><rect fill="none" height="20.9531" style="stroke:none;stroke-width:1;" width="1388.2031" x="15" y="61.6826"/><rect fill="#F1F1F1" height="47.9375" rx="3.5" ry="3.5" style="stroke:#181818;stroke-width:0.5;" width="213.3945" x="124.9448" y="195.5732"/><text fill="#000000" font-family="sans-serif" font-size="12" lengthAdjust="spacing" textLength="119.6543" x="134.9448" y="216.7119">Menerima Notifikasi</text><text fill="#000000" font-family="sans-serif" font-size="12" lengthAdjust="spacing" textLength="189.5801" x="138.7593" y="230.6807">untuk sewa yang akan berakhir</text><polygon fill="#F1F1F1" points="131.1409,263.5107,332.1433,263.5107,344.1433,275.5107,332.1433,287.5107,131.1409,287.5107,119.1409,275.5107,131.1409,263.5107" style="stroke:#181818;stroke-width:0.5;"/><text fill="#000000" font-family="sans-serif" font-size="11" lengthAdjust="spacing" textLength="201.0024" x="131.1409" y="279.3188">Tenant ingin memperpanjang sewa?</text><text fill="#000000" font-family="sans-serif" font-size="11" lengthAdjust="spacing" textLength="29.8687" x="89.2722" y="272.9165">Tidak</text><text fill="#000000" font-family="sans-serif" font-size="11" lengthAdjust="spacing" textLength="13.2505" x="344.1433" y="272.9165">ya</text><rect fill="#F1F1F1" height="33.9688" rx="3.5" ry="3.5" style="stroke:#181818;stroke-width:0.5;" width="158.7734" x="21" y="307.5107"/><text fill="#000000" font-family="sans-serif" font-size="12" lengthAdjust="spacing" textLength="138.7734" x="31" y="328.6494">Mengabaikan notifikasi</text><ellipse cx="100.3867" cy="386.4482" fill="none" rx="11" ry="11" style="stroke:#222222;stroke-width:1;"/><ellipse cx="100.3867" cy="386.4482" fill="#222222" rx="6" ry="6" style="stroke:#222222;stroke-width:1;"/><rect fill="#F1F1F1" height="47.9375" rx="3.5" ry="3.5" style="stroke:#181818;stroke-width:0.5;" width="173.4512" x="276.1719" y="307.5107"/><text fill="#000000" font-family="sans-serif" font-size="12" lengthAdjust="spacing" textLength="153.4512" x="286.1719" y="328.6494">Mengajukan permohonan</text><text fill="#000000" font-family="sans-serif" font-size="12" lengthAdjust="spacing" textLength="117.9961" x="286.1719" y="342.6182">perpanjangan sewa</text><line style="stroke:#000000;stroke-width:1.5;" x1="15" x2="15" y1="61.6826" y2="948.2407"/><ellipse cx="566.3203" cy="97.6357" fill="#222222" rx="10" ry="10" style="stroke:#222222;stroke-width:1;"/><rect fill="#F1F1F1" height="47.9375" rx="3.5" ry="3.5" style="stroke:#181818;stroke-width:0.5;" width="213.3945" x="459.623" y="127.6357"/><text fill="#000000" font-family="sans-serif" font-size="12" lengthAdjust="spacing" textLength="137.7773" x="469.623" y="148.7744">Mengirimkan Notifikasi</text><text fill="#000000" font-family="sans-serif" font-size="12" lengthAdjust="spacing" textLength="189.5801" x="473.4375" y="162.7432">untuk sewa yang akan berakhir</text><path d="M851.2349,389.417 L851.2349,405.5498 L831.2349,409.5498 L851.2349,413.5498 L851.2349,429.6826 A0,0 0 0 0 851.2349,429.6826 L1056.7485,429.6826 A0,0 0 0 0 1056.7485,429.6826 L1056.7485,399.417 L1046.7485,389.417 L851.2349,389.417 A0,0 0 0 0 851.2349,389.417" fill="#E5E5E5" style="stroke:#191919;stroke-width:1.5;"/><path d="M1046.7485,389.417 L1046.7485,399.417 L1056.7485,399.417 L1046.7485,389.417" fill="#E5E5E5" style="stroke:#191919;stroke-width:1.5;"/><text fill="#191919" font-family="sans-serif" font-size="13" font-weight="bold" lengthAdjust="spacing" textLength="32.5825" x="857.2349" y="406.4839">(DB)</text><text fill="#191919" font-family="sans-serif" font-size="13" lengthAdjust="spacing" textLength="82.0879" x="893.9497" y="406.4839">rentals table</text><text fill="#191919" font-family="sans-serif" font-size="13" lengthAdjust="spacing" textLength="184.5137" x="857.2349" y="421.6167">status: extension_requested</text><rect fill="#F1F1F1" height="33.9688" rx="3.5" ry="3.5" style="stroke:#181818;stroke-width:0.5;" width="267.3184" x="563.9165" y="392.5654"/><text fill="#000000" font-family="sans-serif" font-size="12" lengthAdjust="spacing" textLength="247.3184" x="573.9165" y="413.7041">Simpan permohonan perpanjangan sewa</text><path d="M870.6997,602.874 L870.6997,619.0068 L850.6997,623.0068 L870.6997,627.0068 L870.6997,643.1396 A0,0 0 0 0 870.6997,643.1396 L1063.7085,643.1396 A0,0 0 0 0 1063.7085,643.1396 L1063.7085,612.874 L1053.7085,602.874 L870.6997,602.874 A0,0 0 0 0 870.6997,602.874" fill="#E5E5E5" style="stroke:#191919;stroke-width:1.5;"/><path d="M1053.7085,602.874 L1053.7085,612.874 L1063.7085,612.874 L1053.7085,602.874" fill="#E5E5E5" style="stroke:#191919;stroke-width:1.5;"/><text fill="#191919" font-family="sans-serif" font-size="13" font-weight="bold" lengthAdjust="spacing" textLength="32.5825" x="876.6997" y="619.9409">(DB)</text><text fill="#191919" font-family="sans-serif" font-size="13" lengthAdjust="spacing" textLength="82.0879" x="913.4146" y="619.9409">rentals table</text><text fill="#191919" font-family="sans-serif" font-size="13" lengthAdjust="spacing" textLength="172.0088" x="876.6997" y="635.0737">status: extension_rejected</text><rect fill="#F1F1F1" height="33.9688" rx="3.5" ry="3.5" style="stroke:#181818;stroke-width:0.5;" width="306.248" x="544.4517" y="606.0225"/><text fill="#000000" font-family="sans-serif" font-size="12" lengthAdjust="spacing" textLength="286.248" x="554.4517" y="627.1611">Update status permohonan perpanjangan sewa</text><ellipse cx="697.5757" cy="674.1396" fill="none" rx="11" ry="11" style="stroke:#222222;stroke-width:1;"/><ellipse cx="697.5757" cy="674.1396" fill="#222222" rx="6" ry="6" style="stroke:#222222;stroke-width:1;"/><path d="M870.6997,742.0376 L870.6997,758.1704 L850.6997,762.1704 L870.6997,766.1704 L870.6997,782.3032 A0,0 0 0 0 870.6997,782.3032 L1070.1196,782.3032 A0,0 0 0 0 1070.1196,782.3032 L1070.1196,752.0376 L1060.1196,742.0376 L870.6997,742.0376 A0,0 0 0 0 870.6997,742.0376" fill="#E5E5E5" style="stroke:#191919;stroke-width:1.5;"/><path d="M1060.1196,742.0376 L1060.1196,752.0376 L1070.1196,752.0376 L1060.1196,742.0376" fill="#E5E5E5" style="stroke:#191919;stroke-width:1.5;"/><text fill="#191919" font-family="sans-serif" font-size="13" font-weight="bold" lengthAdjust="spacing" textLength="32.5825" x="876.6997" y="759.1045">(DB)</text><text fill="#191919" font-family="sans-serif" font-size="13" lengthAdjust="spacing" textLength="82.0879" x="913.4146" y="759.1045">rentals table</text><text fill="#191919" font-family="sans-serif" font-size="13" lengthAdjust="spacing" textLength="178.4199" x="876.6997" y="774.2373">status: extension_accepted</text><rect fill="#F1F1F1" height="33.9688" rx="3.5" ry="3.5" style="stroke:#181818;stroke-width:0.5;" width="306.248" x="544.4517" y="745.186"/><text fill="#000000" font-family="sans-serif" font-size="12" lengthAdjust="spacing" textLength="286.248" x="554.4517" y="766.3247">Update status permohonan perpanjangan sewa</text><rect fill="#F1F1F1" height="33.9688" rx="3.5" ry="3.5" style="stroke:#181818;stroke-width:0.5;" width="200.668" x="597.2417" y="802.3032"/><text fill="#000000" font-family="sans-serif" font-size="12" lengthAdjust="spacing" textLength="180.668" x="607.2417" y="823.4419">Kirim notifikasi kepada tenant</text><line style="stroke:#000000;stroke-width:1.5;" x1="453.623" x2="453.623" y1="61.6826" y2="948.2407"/><rect fill="#F1F1F1" height="33.9688" rx="3.5" ry="3.5" style="stroke:#181818;stroke-width:0.5;" width="287.2227" x="1081.1196" y="449.6826"/><text fill="#000000" font-family="sans-serif" font-size="12" lengthAdjust="spacing" textLength="267.2227" x="1091.1196" y="470.8213">Merespons permohonan perpanjangan sewa</text><rect fill="#F1F1F1" height="33.9688" rx="3.5" ry="3.5" style="stroke:#181818;stroke-width:0.5;" width="142.5488" x="1153.4565" y="552.0537"/><text fill="#000000" font-family="sans-serif" font-size="12" lengthAdjust="spacing" textLength="122.5488" x="1163.4565" y="573.1924">Isi alasan penolakan</text><polygon fill="#F1F1F1" points="1165.9255,503.6514,1283.5364,503.6514,1295.5364,515.6514,1283.5364,527.6514,1165.9255,527.6514,1153.9255,515.6514,1165.9255,503.6514" style="stroke:#181818;stroke-width:0.5;"/><text fill="#000000" font-family="sans-serif" font-size="11" lengthAdjust="spacing" textLength="29.8687" x="1228.731" y="537.8618">Tidak</text><text fill="#000000" font-family="sans-serif" font-size="11" lengthAdjust="spacing" textLength="117.6108" x="1165.9255" y="519.4595">Terima Permohonan?</text><rect fill="#F1F1F1" height="33.9688" rx="3.5" ry="3.5" style="stroke:#181818;stroke-width:0.5;" width="269.1406" x="1090.1606" y="856.272"/><text fill="#000000" font-family="sans-serif" font-size="12" lengthAdjust="spacing" textLength="249.1406" x="1100.1606" y="877.4106">Lanjut ke tahap pembuatan Kontrak Baru</text><ellipse cx="1224.731" cy="921.2407" fill="none" rx="11" ry="11" style="stroke:#222222;stroke-width:1;"/><ellipse cx="1224.731" cy="921.2407" fill="#222222" rx="6" ry="6" style="stroke:#222222;stroke-width:1;"/><line style="stroke:#000000;stroke-width:1.5;" x1="1075.1196" x2="1075.1196" y1="61.6826" y2="948.2407"/><line style="stroke:#000000;stroke-width:1.5;" x1="1401.3423" x2="1401.3423" y1="61.6826" y2="948.2407"/><line style="stroke:#191919;stroke-width:1;" x1="100.3867" x2="100.3867" y1="341.4795" y2="375.4482"/><polygon fill="#191919" points="96.3867,365.4482,100.3867,375.4482,104.3867,365.4482,100.3867,369.4482" style="stroke:#191919;stroke-width:1;"/><line style="stroke:#191919;stroke-width:1;" x1="119.1409" x2="100.3867" y1="275.5107" y2="275.5107"/><line style="stroke:#191919;stroke-width:1;" x1="100.3867" x2="100.3867" y1="275.5107" y2="307.5107"/><polygon fill="#191919" points="96.3867,297.5107,100.3867,307.5107,104.3867,297.5107,100.3867,301.5107" style="stroke:#191919;stroke-width:1;"/><line style="stroke:#191919;stroke-width:1;" x1="344.1433" x2="362.8975" y1="275.5107" y2="275.5107"/><line style="stroke:#191919;stroke-width:1;" x1="362.8975" x2="362.8975" y1="275.5107" y2="307.5107"/><polygon fill="#191919" points="358.8975,297.5107,362.8975,307.5107,366.8975,297.5107,362.8975,301.5107" style="stroke:#191919;stroke-width:1;"/><line style="stroke:#191919;stroke-width:1;" x1="231.6421" x2="231.6421" y1="243.5107" y2="263.5107"/><polygon fill="#191919" points="227.6421,253.5107,231.6421,263.5107,235.6421,253.5107,231.6421,257.5107" style="stroke:#191919;stroke-width:1;"/><line style="stroke:#191919;stroke-width:1;" x1="566.3203" x2="566.3203" y1="107.6357" y2="127.6357"/><polygon fill="#191919" points="562.3203,117.6357,566.3203,127.6357,570.3203,117.6357,566.3203,121.6357" style="stroke:#191919;stroke-width:1;"/><line style="stroke:#191919;stroke-width:1;" x1="697.5757" x2="697.5757" y1="639.9912" y2="663.1396"/><polygon fill="#191919" points="693.5757,653.1396,697.5757,663.1396,701.5757,653.1396,697.5757,657.1396" style="stroke:#191919;stroke-width:1;"/><line style="stroke:#191919;stroke-width:1;" x1="697.5757" x2="697.5757" y1="779.1548" y2="802.3032"/><polygon fill="#191919" points="693.5757,792.3032,697.5757,802.3032,701.5757,792.3032,697.5757,796.3032" style="stroke:#191919;stroke-width:1;"/><line style="stroke:#191919;stroke-width:1;" x1="1224.731" x2="1224.731" y1="527.6514" y2="552.0537"/><polygon fill="#191919" points="1220.731,542.0537,1224.731,552.0537,1228.731,542.0537,1224.731,546.0537" style="stroke:#191919;stroke-width:1;"/><line style="stroke:#191919;stroke-width:1;" x1="1295.5364" x2="1382.3423" y1="515.6514" y2="515.6514"/><polygon fill="#191919" points="1378.3423,604.0225,1382.3423,614.0225,1386.3423,604.0225,1382.3423,608.0225" style="stroke:#191919;stroke-width:1;"/><line style="stroke:#191919;stroke-width:1;" x1="1382.3423" x2="1382.3423" y1="515.6514" y2="707.1396"/><line style="stroke:#191919;stroke-width:1;" x1="1382.3423" x2="1224.731" y1="707.1396" y2="707.1396"/><line style="stroke:#191919;stroke-width:1;" x1="1224.731" x2="1224.731" y1="483.6514" y2="503.6514"/><polygon fill="#191919" points="1220.731,493.6514,1224.731,503.6514,1228.731,493.6514,1224.731,497.6514" style="stroke:#191919;stroke-width:1;"/><line style="stroke:#191919;stroke-width:1;" x1="1224.731" x2="1224.731" y1="890.2407" y2="910.2407"/><polygon fill="#191919" points="1220.731,900.2407,1224.731,910.2407,1228.731,900.2407,1224.731,904.2407" style="stroke:#191919;stroke-width:1;"/><line style="stroke:#191919;stroke-width:1;" x1="566.3203" x2="566.3203" y1="175.5732" y2="180.5732"/><line style="stroke:#191919;stroke-width:1;" x1="566.3203" x2="231.6421" y1="180.5732" y2="180.5732"/><line style="stroke:#191919;stroke-width:1;" x1="231.6421" x2="231.6421" y1="180.5732" y2="195.5732"/><polygon fill="#191919" points="227.6421,185.5732,231.6421,195.5732,235.6421,185.5732,231.6421,189.5732" style="stroke:#191919;stroke-width:1;"/><line style="stroke:#191919;stroke-width:1;" x1="362.8975" x2="362.8975" y1="355.4482" y2="373.4912"/><line style="stroke:#191919;stroke-width:1;" x1="362.8975" x2="697.5757" y1="373.4912" y2="373.4912"/><line style="stroke:#191919;stroke-width:1;" x1="697.5757" x2="697.5757" y1="373.4912" y2="392.5654"/><polygon fill="#191919" points="693.5757,382.5654,697.5757,392.5654,701.5757,382.5654,697.5757,386.5654" style="stroke:#191919;stroke-width:1;"/><line style="stroke:#191919;stroke-width:1;" x1="697.5757" x2="697.5757" y1="426.5342" y2="434.6826"/><line style="stroke:#191919;stroke-width:1;" x1="697.5757" x2="1224.731" y1="434.6826" y2="434.6826"/><line style="stroke:#191919;stroke-width:1;" x1="1224.731" x2="1224.731" y1="434.6826" y2="449.6826"/><polygon fill="#191919" points="1220.731,439.6826,1224.731,449.6826,1228.731,439.6826,1224.731,443.6826" style="stroke:#191919;stroke-width:1;"/><line style="stroke:#191919;stroke-width:1;" x1="1224.731" x2="1224.731" y1="586.0225" y2="591.0225"/><line style="stroke:#191919;stroke-width:1;" x1="1224.731" x2="697.5757" y1="591.0225" y2="591.0225"/><line style="stroke:#191919;stroke-width:1;" x1="697.5757" x2="697.5757" y1="591.0225" y2="606.0225"/><polygon fill="#191919" points="693.5757,596.0225,697.5757,606.0225,701.5757,596.0225,697.5757,600.0225" style="stroke:#191919;stroke-width:1;"/><line style="stroke:#191919;stroke-width:1;" x1="1224.731" x2="1224.731" y1="707.1396" y2="730.186"/><line style="stroke:#191919;stroke-width:1;" x1="1224.731" x2="697.5757" y1="730.186" y2="730.186"/><line style="stroke:#191919;stroke-width:1;" x1="697.5757" x2="697.5757" y1="730.186" y2="745.186"/><polygon fill="#191919" points="693.5757,735.186,697.5757,745.186,701.5757,735.186,697.5757,739.186" style="stroke:#191919;stroke-width:1;"/><text fill="#000000" font-family="sans-serif" font-size="11" lengthAdjust="spacing" textLength="13.46" x="1228.731" y="723.686">Ya</text><line style="stroke:#191919;stroke-width:1;" x1="697.5757" x2="697.5757" y1="836.272" y2="841.272"/><line style="stroke:#191919;stroke-width:1;" x1="697.5757" x2="1224.731" y1="841.272" y2="841.272"/><line style="stroke:#191919;stroke-width:1;" x1="1224.731" x2="1224.731" y1="841.272" y2="856.272"/><polygon fill="#191919" points="1220.731,846.272,1224.731,856.272,1228.731,846.272,1224.731,850.272" style="stroke:#191919;stroke-width:1;"/><text fill="#000000" font-family="sans-serif" font-size="18" lengthAdjust="spacing" textLength="62.9736" x="202.8247" y="78.3906">Tenant</text><text fill="#000000" font-family="sans-serif" font-size="18" lengthAdjust="spacing" textLength="61.4707" x="733.636" y="78.3906">Sistem</text><text fill="#000000" font-family="sans-serif" font-size="18" lengthAdjust="spacing" textLength="58.7725" x="1208.8447" y="78.3906">Owner</text><g class="footer" data-source-line="5"><text fill="#888888" font-family="sans-serif" font-size="18" lengthAdjust="spacing" textLength="100.2744" x="658.9644" y="964.9487">version 1.0</text></g><?plantuml-src nLHDRzD04BtlhnXoIY8L4U206Wb4gIgXyb4fS42gX2Rn9DdOExliZYb5_l6CrzHrL8B22PzipRmtxxtPTIej1upeGAnKTE5P5lOdmTFd9lMb2--5Ob-RlJ2FP4kEm65C9WDXD7xzvlnazcm2LnG3yWvvWmoN2efOZimwSy3eEyLaFSFiyPEHCSqdOcHfJBEmISWr9Wb6CQVlYJSsMbSgnmSlTcrBJFQQeMQfIqXqWt2h8m3RZYNfZAsDytl2be6K0Fy9RjSmxXZ0gW06HoxqVZBkrGJKF6kVBR2S6D0doyKbsfQD-tdpN4pYWw4g4OnlSTY_gzjsfNT-wtNcDOTXTEsmZg4F9sCNreKz71o0gH22Q3TRoP_jCvsEpyycqob4Oi4gWU2oehwiuKkTJe5-276xfg-HljMamulSGrnaraxLnnjDkBap52a5p-a8NLt8UJTNVVEVOitCRvC5h31bFlPLkx5vNzwB9lT_3WMgxyxA4MeE97L4MeSIsz7gBh07eVK7udV5hlFRoSil0pd_tGEkLXJ-wk5XxfVjTHqSVYWfO84W-JeDDZOuDXduJWtLekqgROj1FRfbZNB_yu0pZFLyFxuStIy0?></g></svg>