<?plantuml 1.2026.2?><svg xmlns="http://www.w3.org/2000/svg" xmlns:xlink="http://www.w3.org/1999/xlink" contentStyleType="text/css" data-diagram-type="ACTIVITY" height="669px" preserveAspectRatio="none" style="width:959px;height:669px;background:#F9F9F9;" version="1.1" viewBox="0 0 959 669" width="959px" zoomAndPan="magnify"><title>(ACD-08) Pembayaran Tagihan - Cash</title><defs/><g><rect fill="#F9F9F9" height="669" style="stroke:none;stroke-width:1;" width="959" x="0" y="0"/><g class="title" data-source-line="4"><text fill="#000000" font-family="sans-serif" font-size="24" font-weight="bold" lengthAdjust="spacing" textLength="507.5156" x="224.3337" y="42.2773">(ACD-08) Pembayaran Tagihan - Cash</text></g><rect fill="none" height="20.9531" style="stroke:none;stroke-width:1;" width="926.1831" x="15" y="61.6826"/><ellipse cx="146.8604" cy="97.6357" fill="#222222" rx="10" ry="10" style="stroke:#222222;stroke-width:1;"/><rect fill="#F1F1F1" height="33.9688" rx="3.5" ry="3.5" style="stroke:#181818;stroke-width:0.5;" width="162.541" x="65.5898" y="127.6357"/><text fill="#000000" font-family="sans-serif" font-size="12" lengthAdjust="spacing" textLength="142.541" x="75.5898" y="148.7744">Masuk ke Detail Invoice</text><rect fill="#F1F1F1" height="33.9688" rx="3.5" ry="3.5" style="stroke:#181818;stroke-width:0.5;" width="158.3281" x="67.6963" y="181.6045"/><text fill="#000000" font-family="sans-serif" font-size="12" lengthAdjust="spacing" textLength="138.3281" x="77.6963" y="202.7432">Pilih bayar secara cash</text><rect fill="#F1F1F1" height="33.9688" rx="3.5" ry="3.5" style="stroke:#181818;stroke-width:0.5;" width="225.6348" x="34.043" y="235.5732"/><text fill="#000000" font-family="sans-serif" font-size="12" lengthAdjust="spacing" textLength="205.6348" x="44.043" y="256.7119">Lakukan pembayaran secara cash</text><rect fill="#F1F1F1" height="33.9688" rx="3.5" ry="3.5" style="stroke:#181818;stroke-width:0.5;" width="251.7207" x="21" y="559.3857"/><text fill="#000000" font-family="sans-serif" font-size="12" lengthAdjust="spacing" textLength="231.7207" x="31" y="580.5244">Terima notifikasi pembayaran berhasil</text><ellipse cx="146.8604" cy="624.3545" fill="none" rx="11" ry="11" style="stroke:#222222;stroke-width:1;"/><ellipse cx="146.8604" cy="624.3545" fill="#222222" rx="6" ry="6" style="stroke:#222222;stroke-width:1;"/><line style="stroke:#000000;stroke-width:1.5;" x1="15" x2="15" y1="61.6826" y2="635.3545"/><path d="M505.1729,401.8975 L505.1729,410.4639 L485.1729,414.4639 L505.1729,418.4639 L505.1729,427.0303 A0,0 0 0 0 505.1729,427.0303 L697.731,427.0303 A0,0 0 0 0 697.731,427.0303 L697.731,411.8975 L687.731,401.8975 L505.1729,401.8975 A0,0 0 0 0 505.1729,401.8975" fill="#E5E5E5" style="stroke:#191919;stroke-width:1.5;"/><path d="M687.731,401.8975 L687.731,411.8975 L697.731,411.8975 L687.731,401.8975" fill="#E5E5E5" style="stroke:#191919;stroke-width:1.5;"/><text fill="#191919" font-family="sans-serif" font-size="13" font-weight="bold" lengthAdjust="spacing" textLength="32.5825" x="511.1729" y="418.9644">(DB)</text><text fill="#191919" font-family="sans-serif" font-size="13" lengthAdjust="spacing" textLength="134.8433" x="547.8877" y="418.9644">rental_invoices table</text><rect fill="#F1F1F1" height="33.9688" rx="3.5" ry="3.5" style="stroke:#181818;stroke-width:0.5;" width="150.8633" x="334.3096" y="397.4795"/><text fill="#000000" font-family="sans-serif" font-size="12" lengthAdjust="spacing" textLength="130.8633" x="344.3096" y="418.6182">Update status Invoice</text><path d="M532.1846,455.8662 L532.1846,464.4326 L512.1846,468.4326 L532.1846,472.4326 L532.1846,480.999 A0,0 0 0 0 532.1846,480.999 L707.166,480.999 A0,0 0 0 0 707.166,480.999 L707.166,465.8662 L697.166,455.8662 L532.1846,455.8662 A0,0 0 0 0 532.1846,455.8662" fill="#E5E5E5" style="stroke:#191919;stroke-width:1.5;"/><path d="M697.166,455.8662 L697.166,465.8662 L707.166,465.8662 L697.166,455.8662" fill="#E5E5E5" style="stroke:#191919;stroke-width:1.5;"/><text fill="#191919" font-family="sans-serif" font-size="13" font-weight="bold" lengthAdjust="spacing" textLength="32.5825" x="538.1846" y="472.9331">(DB)</text><text fill="#191919" font-family="sans-serif" font-size="13" lengthAdjust="spacing" textLength="117.2666" x="574.8994" y="472.9331">transactions table</text><rect fill="#F1F1F1" height="33.9688" rx="3.5" ry="3.5" style="stroke:#181818;stroke-width:0.5;" width="204.8867" x="307.2979" y="451.4482"/><text fill="#000000" font-family="sans-serif" font-size="12" lengthAdjust="spacing" textLength="184.8867" x="317.2979" y="472.5869">Buat/update data pembayaran</text><rect fill="#F1F1F1" height="33.9688" rx="3.5" ry="3.5" style="stroke:#181818;stroke-width:0.5;" width="254.041" x="282.7207" y="505.417"/><text fill="#000000" font-family="sans-serif" font-size="12" lengthAdjust="spacing" textLength="234.041" x="292.7207" y="526.5557">Tampilkan pesan pembayaran berhasil</text><line style="stroke:#000000;stroke-width:1.5;" x1="276.7207" x2="276.7207" y1="61.6826" y2="635.3545"/><rect fill="#F1F1F1" height="33.9688" rx="3.5" ry="3.5" style="stroke:#181818;stroke-width:0.5;" width="217.1563" x="718.166" y="289.542"/><text fill="#000000" font-family="sans-serif" font-size="12" lengthAdjust="spacing" textLength="197.1563" x="728.166" y="310.6807">Terima pembayaran secara cash</text><rect fill="#F1F1F1" height="33.9688" rx="3.5" ry="3.5" style="stroke:#181818;stroke-width:0.5;" width="154.0215" x="749.7334" y="343.5107"/><text fill="#000000" font-family="sans-serif" font-size="12" lengthAdjust="spacing" textLength="134.0215" x="759.7334" y="364.6494">verifikasi pembayaran</text><line style="stroke:#000000;stroke-width:1.5;" x1="712.166" x2="712.166" y1="61.6826" y2="635.3545"/><line style="stroke:#000000;stroke-width:1.5;" x1="939.3223" x2="939.3223" y1="61.6826" y2="635.3545"/><line style="stroke:#191919;stroke-width:1;" x1="146.8604" x2="146.8604" y1="107.6357" y2="127.6357"/><polygon fill="#191919" points="142.8604,117.6357,146.8604,127.6357,150.8604,117.6357,146.8604,121.6357" style="stroke:#191919;stroke-width:1;"/><line style="stroke:#191919;stroke-width:1;" x1="146.8604" x2="146.8604" y1="161.6045" y2="181.6045"/><polygon fill="#191919" points="142.8604,171.6045,146.8604,181.6045,150.8604,171.6045,146.8604,175.6045" style="stroke:#191919;stroke-width:1;"/><line style="stroke:#191919;stroke-width:1;" x1="146.8604" x2="146.8604" y1="215.5732" y2="235.5732"/><polygon fill="#191919" points="142.8604,225.5732,146.8604,235.5732,150.8604,225.5732,146.8604,229.5732" style="stroke:#191919;stroke-width:1;"/><line style="stroke:#191919;stroke-width:1;" x1="146.8604" x2="146.8604" y1="593.3545" y2="613.3545"/><polygon fill="#191919" points="142.8604,603.3545,146.8604,613.3545,150.8604,603.3545,146.8604,607.3545" style="stroke:#191919;stroke-width:1;"/><line style="stroke:#191919;stroke-width:1;" x1="409.7412" x2="409.7412" y1="431.4482" y2="451.4482"/><polygon fill="#191919" points="405.7412,441.4482,409.7412,451.4482,413.7412,441.4482,409.7412,445.4482" style="stroke:#191919;stroke-width:1;"/><line style="stroke:#191919;stroke-width:1;" x1="409.7412" x2="409.7412" y1="485.417" y2="505.417"/><polygon fill="#191919" points="405.7412,495.417,409.7412,505.417,413.7412,495.417,409.7412,499.417" style="stroke:#191919;stroke-width:1;"/><line style="stroke:#191919;stroke-width:1;" x1="826.7441" x2="826.7441" y1="323.5107" y2="343.5107"/><polygon fill="#191919" points="822.7441,333.5107,826.7441,343.5107,830.7441,333.5107,826.7441,337.5107" style="stroke:#191919;stroke-width:1;"/><line style="stroke:#191919;stroke-width:1;" x1="146.8604" x2="146.8604" y1="269.542" y2="274.542"/><line style="stroke:#191919;stroke-width:1;" x1="146.8604" x2="826.7441" y1="274.542" y2="274.542"/><line style="stroke:#191919;stroke-width:1;" x1="826.7441" x2="826.7441" y1="274.542" y2="289.542"/><polygon fill="#191919" points="822.7441,279.542,826.7441,289.542,830.7441,279.542,826.7441,283.542" style="stroke:#191919;stroke-width:1;"/><line style="stroke:#191919;stroke-width:1;" x1="826.7441" x2="826.7441" y1="377.4795" y2="382.4795"/><line style="stroke:#191919;stroke-width:1;" x1="826.7441" x2="409.7412" y1="382.4795" y2="382.4795"/><line style="stroke:#191919;stroke-width:1;" x1="409.7412" x2="409.7412" y1="382.4795" y2="397.4795"/><polygon fill="#191919" points="405.7412,387.4795,409.7412,397.4795,413.7412,387.4795,409.7412,391.4795" style="stroke:#191919;stroke-width:1;"/><line style="stroke:#191919;stroke-width:1;" x1="409.7412" x2="409.7412" y1="539.3857" y2="544.3857"/><line style="stroke:#191919;stroke-width:1;" x1="409.7412" x2="146.8604" y1="544.3857" y2="544.3857"/><line style="stroke:#191919;stroke-width:1;" x1="146.8604" x2="146.8604" y1="544.3857" y2="559.3857"/><polygon fill="#191919" points="142.8604,549.3857,146.8604,559.3857,150.8604,549.3857,146.8604,553.3857" style="stroke:#191919;stroke-width:1;"/><text fill="#000000" font-family="sans-serif" font-size="18" lengthAdjust="spacing" textLength="62.9736" x="114.3735" y="78.3906">Tenant</text><text fill="#000000" font-family="sans-serif" font-size="18" lengthAdjust="spacing" textLength="61.4707" x="463.708" y="78.3906">Sistem</text><text fill="#000000" font-family="sans-serif" font-size="18" lengthAdjust="spacing" textLength="58.7725" x="796.3579" y="78.3906">Owner</text><g class="footer" data-source-line="5"><text fill="#888888" font-family="sans-serif" font-size="18" lengthAdjust="spacing" textLength="100.2744" x="427.9543" y="652.0625">version 1.0</text></g><?plantuml-src TL1DQy904BtlhvZcf05RBJsKUAgAK6YfO7ekOnpDaEmcx4uiBVdndIeQHTp3xiARzp4l5Engz6X1M4gQLqwM_4lm-6J22PfNbP0_OQDdSoSvMGABFfWz4QBUotGs63xtOK5sXJzAT93YbdDz1p35a4TcinU2Q4S-SELWT3-CZ6bJSkYaDUsIWv3LpyUt8zzsI13qOf9t34q11S6C1Bc4LxUhEAEnIHPSSWvxNmYKgJjaQgd86nPDeHdgBjR5mD4hIScpnPjpYORc3HSO-6nct8LEFkir2e5cbIPqsPpk39wtkHZG4yUzsQGVn-392PPVV9WB8BWgoP1Rmp_399C6vQ4vQEg55wwtH4NHW9bekzUAATgQoqCPuRAI5VbSDol7NUV7GfHxlVSP8KXL_m40?></g></svg>