<?plantuml 1.2026.2?><svg xmlns="http://www.w3.org/2000/svg" xmlns:xlink="http://www.w3.org/1999/xlink" contentStyleType="text/css" data-diagram-type="ACTIVITY" height="761px" preserveAspectRatio="none" style="width:1009px;height:761px;background:#F9F9F9;" version="1.1" viewBox="0 0 1009 761" width="1009px" zoomAndPan="magnify"><title>Membuat  Kontrak</title><defs/><g><rect fill="#F9F9F9" height="761" style="stroke:none;stroke-width:1;" width="1009" x="0" y="0"/><g class="title" data-source-line="4"><text fill="#000000" font-family="sans-serif" font-size="24" font-weight="bold" lengthAdjust="spacing" textLength="251.4492" x="377.4761" y="42.2773">Membuat  Kontrak</text></g><rect fill="none" height="20.9531" style="stroke:none;stroke-width:1;" width="976.4014" x="15" y="61.6826"/><ellipse cx="247.7168" cy="97.6357" fill="#222222" rx="10" ry="10" style="stroke:#222222;stroke-width:1;"/><rect fill="#F1F1F1" height="33.9688" rx="3.5" ry="3.5" style="stroke:#181818;stroke-width:0.5;" width="189.3008" x="153.0664" y="127.6357"/><text fill="#000000" font-family="sans-serif" font-size="12" lengthAdjust="spacing" textLength="169.3008" x="163.0664" y="148.7744">Menyetujui Pengajuan Sewa</text><rect fill="#F1F1F1" height="33.9688" rx="3.5" ry="3.5" style="stroke:#181818;stroke-width:0.5;" width="127.2793" x="184.0771" y="249.542"/><text fill="#000000" font-family="sans-serif" font-size="12" lengthAdjust="spacing" textLength="107.2793" x="194.0771" y="270.6807">Membuat Kontrak</text><polygon fill="#F1F1F1" points="168.8208,303.5107,326.6128,303.5107,338.6128,315.5107,326.6128,327.5107,168.8208,327.5107,156.8208,315.5107,168.8208,303.5107" style="stroke:#181818;stroke-width:0.5;"/><text fill="#000000" font-family="sans-serif" font-size="11" lengthAdjust="spacing" textLength="157.792" x="168.8208" y="319.3188">Pilih Buat Kontrak Otomatis?</text><text fill="#000000" font-family="sans-serif" font-size="11" lengthAdjust="spacing" textLength="29.8687" x="126.9521" y="312.9165">Tidak</text><text fill="#000000" font-family="sans-serif" font-size="11" lengthAdjust="spacing" textLength="13.46" x="338.6128" y="312.9165">Ya</text><rect fill="#F1F1F1" height="33.9688" rx="3.5" ry="3.5" style="stroke:#181818;stroke-width:0.5;" width="170.3984" x="46.585" y="347.5107"/><text fill="#000000" font-family="sans-serif" font-size="12" lengthAdjust="spacing" textLength="150.3984" x="56.585" y="368.6494">Unduh Template Kontrak</text><rect fill="#F1F1F1" height="33.9688" rx="3.5" ry="3.5" style="stroke:#181818;stroke-width:0.5;" width="184.5313" x="39.5186" y="401.4795"/><text fill="#000000" font-family="sans-serif" font-size="12" lengthAdjust="spacing" textLength="164.5313" x="49.5186" y="422.6182">Edit &amp; Isi Template Kontrak</text><rect fill="#F1F1F1" height="33.9688" rx="3.5" ry="3.5" style="stroke:#181818;stroke-width:0.5;" width="221.5684" x="21" y="455.4482"/><text fill="#000000" font-family="sans-serif" font-size="12" lengthAdjust="spacing" textLength="201.5684" x="31" y="476.5869">Unggah Kontrak yang Sudah Diisi</text><polygon fill="#F1F1F1" points="247.7168,499.417,259.7168,511.417,247.7168,523.417,235.7168,511.417,247.7168,499.417" style="stroke:#181818;stroke-width:0.5;"/><line style="stroke:#000000;stroke-width:1.5;" x1="15" x2="15" y1="61.6826" y2="727.3232"/><rect fill="#F1F1F1" height="33.9688" rx="3.5" ry="3.5" style="stroke:#181818;stroke-width:0.5;" width="202.1621" x="521.2778" y="347.5107"/><text fill="#000000" font-family="sans-serif" font-size="12" lengthAdjust="spacing" textLength="182.1621" x="531.2778" y="368.6494">Buat Kontrak Secara Otomatis</text><path d="M600.5542,547.835 L600.5542,556.4014 L580.5542,560.4014 L600.5542,564.4014 L600.5542,572.9678 A0,0 0 0 0 600.5542,572.9678 L798.8569,572.9678 A0,0 0 0 0 798.8569,572.9678 L798.8569,557.835 L788.8569,547.835 L600.5542,547.835 A0,0 0 0 0 600.5542,547.835" fill="#E5E5E5" style="stroke:#191919;stroke-width:1.5;"/><path d="M788.8569,547.835 L788.8569,557.835 L798.8569,557.835 L788.8569,547.835" fill="#E5E5E5" style="stroke:#191919;stroke-width:1.5;"/><text fill="#191919" font-family="sans-serif" font-size="13" font-weight="bold" lengthAdjust="spacing" textLength="32.5825" x="606.5542" y="564.9019">(DB)</text><text fill="#191919" font-family="sans-serif" font-size="13" lengthAdjust="spacing" textLength="140.5879" x="643.269" y="564.9019">legal_document table</text><rect fill="#F1F1F1" height="33.9688" rx="3.5" ry="3.5" style="stroke:#181818;stroke-width:0.5;" width="148.2559" x="432.2983" y="543.417"/><text fill="#000000" font-family="sans-serif" font-size="12" lengthAdjust="spacing" textLength="128.2559" x="442.2983" y="564.5557">Simpan Data Kontrak</text><rect fill="#F1F1F1" height="33.9688" rx="3.5" ry="3.5" style="stroke:#181818;stroke-width:0.5;" width="286.707" x="363.0728" y="597.3857"/><text fill="#000000" font-family="sans-serif" font-size="12" lengthAdjust="spacing" textLength="266.707" x="373.0728" y="618.5244">Menampilkan Pesan Kontrak Berhasil Dibuat</text><rect fill="#F1F1F1" height="33.9688" rx="3.5" ry="3.5" style="stroke:#181818;stroke-width:0.5;" width="228.7402" x="392.0562" y="651.3545"/><text fill="#000000" font-family="sans-serif" font-size="12" lengthAdjust="spacing" textLength="208.7402" x="402.0562" y="672.4932">Lanjut ke Tahap Negosiasi Kontrak</text><ellipse cx="506.4263" cy="716.3232" fill="none" rx="11" ry="11" style="stroke:#222222;stroke-width:1;"/><ellipse cx="506.4263" cy="716.3232" fill="#222222" rx="6" ry="6" style="stroke:#222222;stroke-width:1;"/><line style="stroke:#000000;stroke-width:1.5;" x1="357.0728" x2="357.0728" y1="61.6826" y2="727.3232"/><rect fill="#F1F1F1" height="47.9375" rx="3.5" ry="3.5" style="stroke:#181818;stroke-width:0.5;" width="175.6836" x="809.8569" y="181.6045"/><text fill="#000000" font-family="sans-serif" font-size="12" lengthAdjust="spacing" textLength="101.6426" x="819.8569" y="202.7432">Terima Notifikasi</text><text fill="#000000" font-family="sans-serif" font-size="12" lengthAdjust="spacing" textLength="155.6836" x="819.8569" y="216.7119">Pengajuan Sewa Disetujui</text><line style="stroke:#000000;stroke-width:1.5;" x1="803.8569" x2="803.8569" y1="61.6826" y2="727.3232"/><line style="stroke:#000000;stroke-width:1.5;" x1="989.5405" x2="989.5405" y1="61.6826" y2="727.3232"/><line style="stroke:#191919;stroke-width:1;" x1="247.7168" x2="247.7168" y1="107.6357" y2="127.6357"/><polygon fill="#191919" points="243.7168,117.6357,247.7168,127.6357,251.7168,117.6357,247.7168,121.6357" style="stroke:#191919;stroke-width:1;"/><line style="stroke:#191919;stroke-width:1;" x1="131.7842" x2="131.7842" y1="381.4795" y2="401.4795"/><polygon fill="#191919" points="127.7842,391.4795,131.7842,401.4795,135.7842,391.4795,131.7842,395.4795" style="stroke:#191919;stroke-width:1;"/><line style="stroke:#191919;stroke-width:1;" x1="131.7842" x2="131.7842" y1="435.4482" y2="455.4482"/><polygon fill="#191919" points="127.7842,445.4482,131.7842,455.4482,135.7842,445.4482,131.7842,449.4482" style="stroke:#191919;stroke-width:1;"/><line style="stroke:#191919;stroke-width:1;" x1="156.8208" x2="131.7842" y1="315.5107" y2="315.5107"/><line style="stroke:#191919;stroke-width:1;" x1="131.7842" x2="131.7842" y1="315.5107" y2="347.5107"/><polygon fill="#191919" points="127.7842,337.5107,131.7842,347.5107,135.7842,337.5107,131.7842,341.5107" style="stroke:#191919;stroke-width:1;"/><line style="stroke:#191919;stroke-width:1;" x1="131.7842" x2="131.7842" y1="489.417" y2="511.417"/><line style="stroke:#191919;stroke-width:1;" x1="131.7842" x2="235.7168" y1="511.417" y2="511.417"/><polygon fill="#191919" points="225.7168,507.417,235.7168,511.417,225.7168,515.417,229.7168,511.417" style="stroke:#191919;stroke-width:1;"/><line style="stroke:#191919;stroke-width:1;" x1="247.7168" x2="247.7168" y1="283.5107" y2="303.5107"/><polygon fill="#191919" points="243.7168,293.5107,247.7168,303.5107,251.7168,293.5107,247.7168,297.5107" style="stroke:#191919;stroke-width:1;"/><line style="stroke:#191919;stroke-width:1;" x1="506.4263" x2="506.4263" y1="577.3857" y2="597.3857"/><polygon fill="#191919" points="502.4263,587.3857,506.4263,597.3857,510.4263,587.3857,506.4263,591.3857" style="stroke:#191919;stroke-width:1;"/><line style="stroke:#191919;stroke-width:1;" x1="506.4263" x2="506.4263" y1="631.3545" y2="651.3545"/><polygon fill="#191919" points="502.4263,641.3545,506.4263,651.3545,510.4263,641.3545,506.4263,645.3545" style="stroke:#191919;stroke-width:1;"/><line style="stroke:#191919;stroke-width:1;" x1="506.4263" x2="506.4263" y1="685.3232" y2="705.3232"/><polygon fill="#191919" points="502.4263,695.3232,506.4263,705.3232,510.4263,695.3232,506.4263,699.3232" style="stroke:#191919;stroke-width:1;"/><line style="stroke:#191919;stroke-width:1;" x1="247.7168" x2="247.7168" y1="161.6045" y2="166.6045"/><line style="stroke:#191919;stroke-width:1;" x1="247.7168" x2="897.6987" y1="166.6045" y2="166.6045"/><line style="stroke:#191919;stroke-width:1;" x1="897.6987" x2="897.6987" y1="166.6045" y2="181.6045"/><polygon fill="#191919" points="893.6987,171.6045,897.6987,181.6045,901.6987,171.6045,897.6987,175.6045" style="stroke:#191919;stroke-width:1;"/><line style="stroke:#191919;stroke-width:1;" x1="897.6987" x2="897.6987" y1="229.542" y2="234.542"/><line style="stroke:#191919;stroke-width:1;" x1="897.6987" x2="247.7168" y1="234.542" y2="234.542"/><line style="stroke:#191919;stroke-width:1;" x1="247.7168" x2="247.7168" y1="234.542" y2="249.542"/><polygon fill="#191919" points="243.7168,239.542,247.7168,249.542,251.7168,239.542,247.7168,243.542" style="stroke:#191919;stroke-width:1;"/><line style="stroke:#191919;stroke-width:1;" x1="338.6128" x2="622.3589" y1="315.5107" y2="315.5107"/><line style="stroke:#191919;stroke-width:1;" x1="622.3589" x2="622.3589" y1="315.5107" y2="347.5107"/><polygon fill="#191919" points="618.3589,337.5107,622.3589,347.5107,626.3589,337.5107,622.3589,341.5107" style="stroke:#191919;stroke-width:1;"/><line style="stroke:#191919;stroke-width:1;" x1="622.3589" x2="622.3589" y1="381.4795" y2="511.417"/><line style="stroke:#191919;stroke-width:1;" x1="622.3589" x2="259.7168" y1="511.417" y2="511.417"/><polygon fill="#191919" points="269.7168,507.417,259.7168,511.417,269.7168,515.417,265.7168,511.417" style="stroke:#191919;stroke-width:1;"/><line style="stroke:#191919;stroke-width:1;" x1="247.7168" x2="247.7168" y1="523.417" y2="528.417"/><line style="stroke:#191919;stroke-width:1;" x1="247.7168" x2="506.4263" y1="528.417" y2="528.417"/><line style="stroke:#191919;stroke-width:1;" x1="506.4263" x2="506.4263" y1="528.417" y2="543.417"/><polygon fill="#191919" points="502.4263,533.417,506.4263,543.417,510.4263,533.417,506.4263,537.417" style="stroke:#191919;stroke-width:1;"/><text fill="#000000" font-family="sans-serif" font-size="18" lengthAdjust="spacing" textLength="58.7725" x="156.6501" y="78.3906">Owner</text><text fill="#000000" font-family="sans-serif" font-size="18" lengthAdjust="spacing" textLength="61.4707" x="549.7295" y="78.3906">Sistem</text><text fill="#000000" font-family="sans-serif" font-size="18" lengthAdjust="spacing" textLength="62.9736" x="865.2119" y="78.3906">Tenant</text><g class="footer" data-source-line="5"><text fill="#888888" font-family="sans-serif" font-size="18" lengthAdjust="spacing" textLength="100.2744" x="453.0635" y="744.0313">version 1.0</text></g><?plantuml-src TL6nRjj03DtlAnWFXUqXQ8eEWJGKC9m0GPh4W9GXG862YMY9rXrFkACQ9D37vwpKSZtqXXl8znuV-MBBqc501yfgwTgB5lnEyEsxYLFhsdkbCFKkBisPDkG878PeHYBCxiWzzwW0jmaNi9sPxKY3sHyAaRt0nVdNcHaUNeN2OA9YK9FTaRoHzhkUOKDIuwv7WO9UCJT3mL793MOeIL1qC5b9WHt2lLVUSekHVyaf2zOSF-NoQL9sSFRNM6vu2_CDMsvWzKyT7jGxL8u_5f3M4vYNN66xC91UzYXLtq19hhEeTDGQcrSLAto1cyZ_GpnANMCpZNf3gQ7egrHQCqV-H4qRauq4yoTSd9P7fHFB1RsaX2RdkI6fU7iyNLQmwz9jrgXuT2Gf5mXSDpfABfVpzMgnN8Ab6ktloh_qZaH1yTdINX7sX34hT1tRDWbkAAR_O6D5eKbfsBJC_jAvoNwYx7g5bg341Zkufzf7JfYZYwY--m00?></g></svg>