<?plantuml 1.2026.2?><svg xmlns="http://www.w3.org/2000/svg" xmlns:xlink="http://www.w3.org/1999/xlink" contentStyleType="text/css" data-diagram-type="ACTIVITY" height="345px" preserveAspectRatio="none" style="width:546px;height:345px;background:#F9F9F9;" version="1.1" viewBox="0 0 546 345" width="546px" zoomAndPan="magnify"><title>(ACD-17) Logout</title><defs/><g><rect fill="#F9F9F9" height="345" style="stroke:none;stroke-width:1;" width="546" x="0" y="0"/><g class="title" data-source-line="4"><text fill="#000000" font-family="sans-serif" font-size="24" font-weight="bold" lengthAdjust="spacing" textLength="223.7695" x="160.0647" y="42.2773">(ACD-17) Logout</text></g><rect fill="none" height="20.9531" style="stroke:none;stroke-width:1;" width="513.8989" x="15" y="61.6826"/><ellipse cx="85.5449" cy="97.6357" fill="#222222" rx="10" ry="10" style="stroke:#222222;stroke-width:1;"/><rect fill="#F1F1F1" height="33.9688" rx="3.5" ry="3.5" style="stroke:#181818;stroke-width:0.5;" width="129.0898" x="21" y="127.6357"/><text fill="#000000" font-family="sans-serif" font-size="12" lengthAdjust="spacing" textLength="109.0898" x="31" y="148.7744">Klik tombol logout</text><line style="stroke:#000000;stroke-width:1.5;" x1="15" x2="15" y1="61.6826" y2="311.542"/><path d="M348.8213,186.0225 L348.8213,194.5889 L328.8213,198.5889 L348.8213,202.5889 L348.8213,211.1553 A0,0 0 0 0 348.8213,211.1553 L522.0381,211.1553 A0,0 0 0 0 522.0381,211.1553 L522.0381,196.0225 L512.0381,186.0225 L348.8213,186.0225 A0,0 0 0 0 348.8213,186.0225" fill="#E5E5E5" style="stroke:#191919;stroke-width:1.5;"/><path d="M512.0381,186.0225 L512.0381,196.0225 L522.0381,196.0225 L512.0381,186.0225" fill="#E5E5E5" style="stroke:#191919;stroke-width:1.5;"/><text fill="#191919" font-family="sans-serif" font-size="13" font-weight="bold" lengthAdjust="spacing" textLength="32.5825" x="354.8213" y="203.0894">(DB)</text><text fill="#191919" font-family="sans-serif" font-size="13" lengthAdjust="spacing" textLength="115.502" x="391.5361" y="203.0894">user_tokens table</text><rect fill="#F1F1F1" height="33.9688" rx="3.5" ry="3.5" style="stroke:#181818;stroke-width:0.5;" width="159.8691" x="168.9521" y="181.6045"/><text fill="#000000" font-family="sans-serif" font-size="12" lengthAdjust="spacing" textLength="139.8691" x="178.9521" y="202.7432">Hapus token pengguna</text><rect fill="#F1F1F1" height="33.9688" rx="3.5" ry="3.5" style="stroke:#181818;stroke-width:0.5;" width="177.5938" x="160.0898" y="235.5732"/><text fill="#000000" font-family="sans-serif" font-size="12" lengthAdjust="spacing" textLength="157.5938" x="170.0898" y="256.7119">Redirect ke halaman login</text><ellipse cx="248.8867" cy="300.542" fill="none" rx="11" ry="11" style="stroke:#222222;stroke-width:1;"/><ellipse cx="248.8867" cy="300.542" fill="#222222" rx="6" ry="6" style="stroke:#222222;stroke-width:1;"/><line style="stroke:#000000;stroke-width:1.5;" x1="154.0898" x2="154.0898" y1="61.6826" y2="311.542"/><line style="stroke:#000000;stroke-width:1.5;" x1="527.0381" x2="527.0381" y1="61.6826" y2="311.542"/><line style="stroke:#191919;stroke-width:1;" x1="85.5449" x2="85.5449" y1="107.6357" y2="127.6357"/><polygon fill="#191919" points="81.5449,117.6357,85.5449,127.6357,89.5449,117.6357,85.5449,121.6357" style="stroke:#191919;stroke-width:1;"/><line style="stroke:#191919;stroke-width:1;" x1="248.8867" x2="248.8867" y1="215.5732" y2="235.5732"/><polygon fill="#191919" points="244.8867,225.5732,248.8867,235.5732,252.8867,225.5732,248.8867,229.5732" style="stroke:#191919;stroke-width:1;"/><line style="stroke:#191919;stroke-width:1;" x1="248.8867" x2="248.8867" y1="269.542" y2="289.542"/><polygon fill="#191919" points="244.8867,279.542,248.8867,289.542,252.8867,279.542,248.8867,283.542" style="stroke:#191919;stroke-width:1;"/><line style="stroke:#191919;stroke-width:1;" x1="85.5449" x2="85.5449" y1="161.6045" y2="166.6045"/><line style="stroke:#191919;stroke-width:1;" x1="85.5449" x2="248.8867" y1="166.6045" y2="166.6045"/><line style="stroke:#191919;stroke-width:1;" x1="248.8867" x2="248.8867" y1="166.6045" y2="181.6045"/><polygon fill="#191919" points="244.8867,171.6045,248.8867,181.6045,252.8867,171.6045,248.8867,175.6045" style="stroke:#191919;stroke-width:1;"/><text fill="#000000" font-family="sans-serif" font-size="18" lengthAdjust="spacing" textLength="90.0352" x="39.5273" y="78.3906">Pengguna</text><text fill="#000000" font-family="sans-serif" font-size="18" lengthAdjust="spacing" textLength="61.4707" x="309.8286" y="78.3906">Sistem</text><g class="footer" data-source-line="5"><text fill="#888888" font-family="sans-serif" font-size="18" lengthAdjust="spacing" textLength="100.2744" x="221.8123" y="328.25">version 1.0</text></g><?plantuml-src FOv1QiD034NtEeNgLM98gKkXnLub3Q6GBafpWA8aYYqyep4pSXR5X-_4bFpj-q_wgHSTA9974tEy2se7-MLyVe5qHxiGZEETLM_mO1rxHaynmInYiLY_RrVLwn8_Gnj6A-0oMrXSEIO9YjNZKm4mVR6sxQWqGJAA1lNUIOyM_34uTBFRm7IGPEmdg3ze65F6FIiE_se3cazZbBOpm9ooN6mtoxB4CN7ycSlPeQDZO3tZhGtrDvybyicmP-p8aIUz_HDjyf8m_040?></g></svg>