<?plantuml 1.2026.2?><svg xmlns="http://www.w3.org/2000/svg" xmlns:xlink="http://www.w3.org/1999/xlink" contentStyleType="text/css" data-diagram-type="ACTIVITY" height="881px" preserveAspectRatio="none" style="width:1082px;height:881px;background:#F9F9F9;" version="1.1" viewBox="0 0 1082 881" width="1082px" zoomAndPan="magnify"><title>(ACD-14) Perbarui Profil</title><defs/><g><rect fill="#F9F9F9" height="881" style="stroke:none;stroke-width:1;" width="1082" x="0" y="0"/><g class="title" data-source-line="4"><text fill="#000000" font-family="sans-serif" font-size="24" font-weight="bold" lengthAdjust="spacing" textLength="327.1523" x="376.3984" y="42.2773">(ACD-14) Perbarui Profil</text></g><rect fill="none" height="20.9531" style="stroke:none;stroke-width:1;" width="1049.9492" x="15" y="61.6826"/><ellipse cx="150.9766" cy="97.6357" fill="#222222" rx="10" ry="10" style="stroke:#222222;stroke-width:1;"/><rect fill="#F1F1F1" height="33.9688" rx="3.5" ry="3.5" style="stroke:#181818;stroke-width:0.5;" width="167.3691" x="67.292" y="127.6357"/><text fill="#000000" font-family="sans-serif" font-size="12" lengthAdjust="spacing" textLength="147.3691" x="77.292" y="148.7744">Masuk ke halaman profil</text><rect fill="#F1F1F1" height="33.9688" rx="3.5" ry="3.5" style="stroke:#181818;stroke-width:0.5;" width="144.166" x="78.8936" y="181.6045"/><text fill="#000000" font-family="sans-serif" font-size="12" lengthAdjust="spacing" textLength="124.166" x="88.8936" y="202.7432">Lihat informasi profil</text><rect fill="#F1F1F1" height="33.9688" rx="3.5" ry="3.5" style="stroke:#181818;stroke-width:0.5;" width="176.5215" x="62.7158" y="235.5732"/><text fill="#000000" font-family="sans-serif" font-size="12" lengthAdjust="spacing" textLength="156.5215" x="72.7158" y="256.7119">Klik tombol perbarui profil</text><rect fill="#F1F1F1" height="33.9688" rx="3.5" ry="3.5" style="stroke:#181818;stroke-width:0.5;" width="138.1953" x="81.8789" y="337.9443"/><text fill="#000000" font-family="sans-serif" font-size="12" lengthAdjust="spacing" textLength="118.1953" x="91.8789" y="359.083">Pilih foto profil baru</text><polygon fill="#F1F1F1" points="96.5298,289.542,205.4233,289.542,217.4233,301.542,205.4233,313.542,96.5298,313.542,84.5298,301.542,96.5298,289.542" style="stroke:#181818;stroke-width:0.5;"/><text fill="#000000" font-family="sans-serif" font-size="11" lengthAdjust="spacing" textLength="13.46" x="154.9766" y="323.7524">Ya</text><text fill="#000000" font-family="sans-serif" font-size="11" lengthAdjust="spacing" textLength="108.8936" x="96.5298" y="305.3501">Perbarui foto profil?</text><polygon fill="#F1F1F1" points="150.9766,391.9131,162.9766,403.9131,150.9766,415.9131,138.9766,403.9131,150.9766,391.9131" style="stroke:#181818;stroke-width:0.5;"/><path d="M300.9531,425.9131 L300.9531,449.6123 L280.9531,453.6123 L300.9531,457.6123 L300.9531,481.3115 A0,0 0 0 0 300.9531,481.3115 L569.8418,481.3115 A0,0 0 0 0 569.8418,481.3115 L569.8418,435.9131 L559.8418,425.9131 L300.9531,425.9131 A0,0 0 0 0 300.9531,425.9131" fill="#E5E5E5" style="stroke:#191919;stroke-width:1.5;"/><path d="M559.8418,425.9131 L559.8418,435.9131 L569.8418,435.9131 L559.8418,425.9131" fill="#E5E5E5" style="stroke:#191919;stroke-width:1.5;"/><text fill="#191919" font-family="sans-serif" font-size="13" font-weight="bold" lengthAdjust="spacing" textLength="38.2637" x="306.9531" y="442.98">data:</text><text fill="#191919" font-family="sans-serif" font-size="13" lengthAdjust="spacing" textLength="214.1636" x="306.9531" y="458.1128">NIK, Nama, Email, Tanggal Lahir,</text><text fill="#191919" font-family="sans-serif" font-size="13" lengthAdjust="spacing" textLength="243.7563" x="306.9531" y="473.2456">No. Telp, Alamat, Kontak Darurat, dll.</text><rect fill="#F1F1F1" height="33.9688" rx="3.5" ry="3.5" style="stroke:#181818;stroke-width:0.5;" width="259.9531" x="21" y="436.6279"/><text fill="#000000" font-family="sans-serif" font-size="12" lengthAdjust="spacing" textLength="239.9531" x="31" y="457.7666">Isi informasi profil yang ingin diperbarui</text><rect fill="#F1F1F1" height="33.9688" rx="3.5" ry="3.5" style="stroke:#181818;stroke-width:0.5;" width="134.9961" x="83.4785" y="501.3115"/><text fill="#000000" font-family="sans-serif" font-size="12" lengthAdjust="spacing" textLength="114.9961" x="93.4785" y="522.4502">Klik tombol simpan</text><rect fill="#F1F1F1" height="33.9688" rx="3.5" ry="3.5" style="stroke:#181818;stroke-width:0.5;" width="220.8594" x="40.5469" y="771.1553"/><text fill="#000000" font-family="sans-serif" font-size="12" lengthAdjust="spacing" textLength="200.8594" x="50.5469" y="792.2939">Lihat detail profil yang diperbarui</text><ellipse cx="150.9766" cy="836.124" fill="none" rx="11" ry="11" style="stroke:#222222;stroke-width:1;"/><ellipse cx="150.9766" cy="836.124" fill="#222222" rx="6" ry="6" style="stroke:#222222;stroke-width:1;"/><line style="stroke:#000000;stroke-width:1.5;" x1="15" x2="15" y1="61.6826" y2="847.124"/><rect fill="#F1F1F1" height="33.9688" rx="3.5" ry="3.5" style="stroke:#181818;stroke-width:0.5;" width="231.2656" x="602.3896" y="555.2803"/><text fill="#000000" font-family="sans-serif" font-size="12" lengthAdjust="spacing" textLength="211.2656" x="612.3896" y="576.4189">Validasi data profil yang diperbarui</text><path d="M836.3438,613.667 L836.3438,622.2334 L816.3438,626.2334 L836.3438,630.2334 L836.3438,638.7998 A0,0 0 0 0 836.3438,638.7998 L1058.0884,638.7998 A0,0 0 0 0 1058.0884,638.7998 L1058.0884,623.667 L1048.0884,613.667 L836.3438,613.667 A0,0 0 0 0 836.3438,613.667" fill="#E5E5E5" style="stroke:#191919;stroke-width:1.5;"/><path d="M1048.0884,613.667 L1048.0884,623.667 L1058.0884,623.667 L1048.0884,613.667" fill="#E5E5E5" style="stroke:#191919;stroke-width:1.5;"/><text fill="#191919" font-family="sans-serif" font-size="13" font-weight="bold" lengthAdjust="spacing" textLength="32.5825" x="842.3438" y="630.7339">(DB)</text><text fill="#191919" font-family="sans-serif" font-size="13" lengthAdjust="spacing" textLength="164.0298" x="879.0586" y="630.7339">user_photo_profiles table</text><rect fill="#F1F1F1" height="33.9688" rx="3.5" ry="3.5" style="stroke:#181818;stroke-width:0.5;" width="196.6426" x="619.7012" y="609.249"/><text fill="#000000" font-family="sans-serif" font-size="12" lengthAdjust="spacing" textLength="176.6426" x="629.7012" y="630.3877">Perbarui foto profil pengguna</text><path d="M852.5713,667.6357 L852.5713,676.2021 L832.5713,680.2021 L852.5713,684.2021 L852.5713,692.7686 A0,0 0 0 0 852.5713,692.7686 L1030.3203,692.7686 A0,0 0 0 0 1030.3203,692.7686 L1030.3203,677.6357 L1020.3203,667.6357 L852.5713,667.6357 A0,0 0 0 0 852.5713,667.6357" fill="#E5E5E5" style="stroke:#191919;stroke-width:1.5;"/><path d="M1020.3203,667.6357 L1020.3203,677.6357 L1030.3203,677.6357 L1020.3203,667.6357" fill="#E5E5E5" style="stroke:#191919;stroke-width:1.5;"/><text fill="#191919" font-family="sans-serif" font-size="13" font-weight="bold" lengthAdjust="spacing" textLength="32.5825" x="858.5713" y="684.7026">(DB)</text><text fill="#191919" font-family="sans-serif" font-size="13" lengthAdjust="spacing" textLength="120.0342" x="895.2861" y="684.7026">user_profiles table</text><rect fill="#F1F1F1" height="33.9688" rx="3.5" ry="3.5" style="stroke:#181818;stroke-width:0.5;" width="229.0977" x="603.4736" y="663.2178"/><text fill="#000000" font-family="sans-serif" font-size="12" lengthAdjust="spacing" textLength="209.0977" x="613.4736" y="684.3564">Perbarui informasi profil pengguna</text><rect fill="#F1F1F1" height="33.9688" rx="3.5" ry="3.5" style="stroke:#181818;stroke-width:0.5;" width="274.3613" x="580.8418" y="717.1865"/><text fill="#000000" font-family="sans-serif" font-size="12" lengthAdjust="spacing" textLength="254.3613" x="590.8418" y="738.3252">Tampilkan pesan profil berhasil diperbarui</text><line style="stroke:#000000;stroke-width:1.5;" x1="574.8418" x2="574.8418" y1="61.6826" y2="847.124"/><line style="stroke:#000000;stroke-width:1.5;" x1="1063.0884" x2="1063.0884" y1="61.6826" y2="847.124"/><line style="stroke:#191919;stroke-width:1;" x1="150.9766" x2="150.9766" y1="107.6357" y2="127.6357"/><polygon fill="#191919" points="146.9766,117.6357,150.9766,127.6357,154.9766,117.6357,150.9766,121.6357" style="stroke:#191919;stroke-width:1;"/><line style="stroke:#191919;stroke-width:1;" x1="150.9766" x2="150.9766" y1="161.6045" y2="181.6045"/><polygon fill="#191919" points="146.9766,171.6045,150.9766,181.6045,154.9766,171.6045,150.9766,175.6045" style="stroke:#191919;stroke-width:1;"/><line style="stroke:#191919;stroke-width:1;" x1="150.9766" x2="150.9766" y1="215.5732" y2="235.5732"/><polygon fill="#191919" points="146.9766,225.5732,150.9766,235.5732,154.9766,225.5732,150.9766,229.5732" style="stroke:#191919;stroke-width:1;"/><line style="stroke:#191919;stroke-width:1;" x1="150.9766" x2="150.9766" y1="313.542" y2="337.9443"/><polygon fill="#191919" points="146.9766,327.9443,150.9766,337.9443,154.9766,327.9443,150.9766,331.9443" style="stroke:#191919;stroke-width:1;"/><line style="stroke:#191919;stroke-width:1;" x1="217.4233" x2="230.0742" y1="301.542" y2="301.542"/><polygon fill="#191919" points="226.0742,344.9287,230.0742,354.9287,234.0742,344.9287,230.0742,348.9287" style="stroke:#191919;stroke-width:1;"/><line style="stroke:#191919;stroke-width:1;" x1="230.0742" x2="230.0742" y1="301.542" y2="403.9131"/><line style="stroke:#191919;stroke-width:1;" x1="230.0742" x2="162.9766" y1="403.9131" y2="403.9131"/><polygon fill="#191919" points="172.9766,399.9131,162.9766,403.9131,172.9766,407.9131,168.9766,403.9131" style="stroke:#191919;stroke-width:1;"/><line style="stroke:#191919;stroke-width:1;" x1="150.9766" x2="150.9766" y1="371.9131" y2="391.9131"/><polygon fill="#191919" points="146.9766,381.9131,150.9766,391.9131,154.9766,381.9131,150.9766,385.9131" style="stroke:#191919;stroke-width:1;"/><line style="stroke:#191919;stroke-width:1;" x1="150.9766" x2="150.9766" y1="269.542" y2="289.542"/><polygon fill="#191919" points="146.9766,279.542,150.9766,289.542,154.9766,279.542,150.9766,283.542" style="stroke:#191919;stroke-width:1;"/><line style="stroke:#191919;stroke-width:1;" x1="150.9766" x2="150.9766" y1="415.9131" y2="436.6279"/><polygon fill="#191919" points="146.9766,426.6279,150.9766,436.6279,154.9766,426.6279,150.9766,430.6279" style="stroke:#191919;stroke-width:1;"/><line style="stroke:#191919;stroke-width:1;" x1="150.9766" x2="150.9766" y1="470.5967" y2="501.3115"/><polygon fill="#191919" points="146.9766,491.3115,150.9766,501.3115,154.9766,491.3115,150.9766,495.3115" style="stroke:#191919;stroke-width:1;"/><line style="stroke:#191919;stroke-width:1;" x1="150.9766" x2="150.9766" y1="805.124" y2="825.124"/><polygon fill="#191919" points="146.9766,815.124,150.9766,825.124,154.9766,815.124,150.9766,819.124" style="stroke:#191919;stroke-width:1;"/><line style="stroke:#191919;stroke-width:1;" x1="718.0225" x2="718.0225" y1="589.249" y2="609.249"/><polygon fill="#191919" points="714.0225,599.249,718.0225,609.249,722.0225,599.249,718.0225,603.249" style="stroke:#191919;stroke-width:1;"/><line style="stroke:#191919;stroke-width:1;" x1="718.0225" x2="718.0225" y1="643.2178" y2="663.2178"/><polygon fill="#191919" points="714.0225,653.2178,718.0225,663.2178,722.0225,653.2178,718.0225,657.2178" style="stroke:#191919;stroke-width:1;"/><line style="stroke:#191919;stroke-width:1;" x1="718.0225" x2="718.0225" y1="697.1865" y2="717.1865"/><polygon fill="#191919" points="714.0225,707.1865,718.0225,717.1865,722.0225,707.1865,718.0225,711.1865" style="stroke:#191919;stroke-width:1;"/><line style="stroke:#191919;stroke-width:1;" x1="150.9766" x2="150.9766" y1="535.2803" y2="540.2803"/><line style="stroke:#191919;stroke-width:1;" x1="150.9766" x2="718.0225" y1="540.2803" y2="540.2803"/><line style="stroke:#191919;stroke-width:1;" x1="718.0225" x2="718.0225" y1="540.2803" y2="555.2803"/><polygon fill="#191919" points="714.0225,545.2803,718.0225,555.2803,722.0225,545.2803,718.0225,549.2803" style="stroke:#191919;stroke-width:1;"/><line style="stroke:#191919;stroke-width:1;" x1="718.0225" x2="718.0225" y1="751.1553" y2="756.1553"/><line style="stroke:#191919;stroke-width:1;" x1="718.0225" x2="150.9766" y1="756.1553" y2="756.1553"/><line style="stroke:#191919;stroke-width:1;" x1="150.9766" x2="150.9766" y1="756.1553" y2="771.1553"/><polygon fill="#191919" points="146.9766,761.1553,150.9766,771.1553,154.9766,761.1553,150.9766,765.1553" style="stroke:#191919;stroke-width:1;"/><text fill="#000000" font-family="sans-serif" font-size="18" lengthAdjust="spacing" textLength="90.0352" x="249.9033" y="78.3906">Pengguna</text><text fill="#000000" font-family="sans-serif" font-size="18" lengthAdjust="spacing" textLength="61.4707" x="788.2297" y="78.3906">Sistem</text><g class="footer" data-source-line="5"><text fill="#888888" font-family="sans-serif" font-size="18" lengthAdjust="spacing" textLength="100.2744" x="489.8374" y="863.832">version 1.0</text></g><?plantuml-src ZL9DQzj04BtlhtZroHQggKiEHJwKj6uWE0s6c49FOOn6qg3z4BlhGej_V5TohDfD0j5jzVPzpDi9hTYEF1b4YPfld8qFyeVnyKg54RfnBh8ViSKdzIusR1Y6V5034PFfzTVL-yNL31lsE_9xmSQxIlH4LGCTar_iWpYBnVp3HAd3XcrTxoqTL8Zaeog-KzYtQ1aDQJ9aqGq2IrNSIKCHOYld3GNv1worj8ZEx9n6T_8zeL9XEeQfN7HFoESPKdoBwK-QAQIls8YMvlmAUj9IiIsbKiLjilpV7B_9rkblBHQbdBoNogPPuQLkuY2TPIL5Ah9iEDtVhdFSfzboV3CaEiSsgTIaSKUD-FnuoSsnPTtbkEvhY3dMgNbgiKeElZ-NMi_HXqFlTjb24DEHNQh3WuJ8vg2A7wIbx8FtIIxId-SkNcegTNfyenVccgw-pB8C-y3-iMiIv_78uO18Eyrd-KRfPoM-LVyrvIsPJdJRxmg7SMEmOzya5tqnuTd2FIrKoP7w4AzK4gBh_W80?></g></svg>