<?plantuml 1.2026.2?><svg xmlns="http://www.w3.org/2000/svg" xmlns:xlink="http://www.w3.org/1999/xlink" contentStyleType="text/css" data-diagram-type="ACTIVITY" height="1076px" preserveAspectRatio="none" style="width:1239px;height:1076px;background:#F9F9F9;" version="1.1" viewBox="0 0 1239 1076" width="1239px" zoomAndPan="magnify"><title>Registrasi</title><defs/><g><rect fill="#F9F9F9" height="1076" style="stroke:none;stroke-width:1;" width="1239" x="0" y="0"/><g class="title" data-source-line="4"><text fill="#000000" font-family="sans-serif" font-size="24" font-weight="bold" lengthAdjust="spacing" textLength="136.4648" x="550.2146" y="42.2773">Registrasi</text></g><rect fill="none" height="20.9531" style="stroke:none;stroke-width:1;" width="1206.894" x="15" y="61.6826"/><ellipse cx="280.999" cy="97.6357" fill="#222222" rx="10" ry="10" style="stroke:#222222;stroke-width:1;"/><path d="M396.3379,161.6357 L396.3379,185.335 L376.3379,189.335 L396.3379,193.335 L396.3379,217.0342 A0,0 0 0 0 396.3379,217.0342 L535.5947,217.0342 A0,0 0 0 0 535.5947,217.0342 L535.5947,171.6357 L525.5947,161.6357 L396.3379,161.6357 A0,0 0 0 0 396.3379,161.6357" fill="#E5E5E5" style="stroke:#191919;stroke-width:1.5;"/><path d="M525.5947,161.6357 L525.5947,171.6357 L535.5947,171.6357 L525.5947,161.6357" fill="#E5E5E5" style="stroke:#191919;stroke-width:1.5;"/><text fill="#191919" font-family="sans-serif" font-size="13" font-weight="bold" lengthAdjust="spacing" textLength="39.749" x="402.3379" y="178.7026">Data:</text><text fill="#191919" font-family="sans-serif" font-size="13" lengthAdjust="spacing" textLength="118.2568" x="402.3379" y="193.8354">role, email, nama,</text><text fill="#191919" font-family="sans-serif" font-size="13" lengthAdjust="spacing" textLength="112.2837" x="402.3379" y="208.9683">no. HP, password</text><rect fill="#F1F1F1" height="33.9688" rx="3.5" ry="3.5" style="stroke:#181818;stroke-width:0.5;" width="190.6777" x="185.6602" y="172.3506"/><text fill="#000000" font-family="sans-serif" font-size="12" lengthAdjust="spacing" textLength="170.6777" x="195.6602" y="193.4893">Isi Form Registrasi &amp; Submit</text><polygon fill="#F1F1F1" points="280.999,127.6357,292.999,139.6357,280.999,151.6357,268.999,139.6357,280.999,127.6357" style="stroke:#181818;stroke-width:0.5;"/><rect fill="#F1F1F1" height="33.9688" rx="3.5" ry="3.5" style="stroke:#181818;stroke-width:0.5;" width="112.9238" x="224.5371" y="645.2144"/><text fill="#000000" font-family="sans-serif" font-size="12" lengthAdjust="spacing" textLength="92.9238" x="234.5371" y="666.353">Input Kode OTP</text><rect fill="#F1F1F1" height="33.9688" rx="3.5" ry="3.5" style="stroke:#181818;stroke-width:0.5;" width="154.6602" x="21" y="909.0894"/><text fill="#000000" font-family="sans-serif" font-size="12" lengthAdjust="spacing" textLength="134.6602" x="31" y="930.228">Minta Kirim Ulang OTP</text><ellipse cx="98.3301" cy="988.0581" fill="#F1F1F1" rx="10" ry="10" style="stroke:#181818;stroke-width:0.5;"/><path d="M98.4395,984.23 L96.8301,988.5737 L100.0488,988.5737 L98.4395,984.23 Z M97.7676,983.0581 L99.1113,983.0581 L102.4395,991.8081 L101.2051,991.8081 L100.4082,989.5581 L96.4707,989.5581 L95.6738,991.8081 L94.4238,991.8081 L97.7676,983.0581 Z " fill="#000000"/><line style="stroke:#000000;stroke-width:1.5;" x1="15" x2="15" y1="61.6826" y2="1042.0581"/><rect fill="#F1F1F1" height="47.9375" rx="3.5" ry="3.5" style="stroke:#181818;stroke-width:0.5;" width="159.166" x="702.1045" y="252.0342"/><text fill="#000000" font-family="sans-serif" font-size="12" lengthAdjust="spacing" textLength="139.166" x="712.1045" y="273.1729">Validasi Format Data &amp;</text><text fill="#000000" font-family="sans-serif" font-size="12" lengthAdjust="spacing" textLength="92.127" x="712.1045" y="287.1416">Duplikasi Email</text><polygon fill="#F1F1F1" points="750.2075,319.9717,813.1675,319.9717,825.1675,331.9717,813.1675,343.9717,750.2075,343.9717,738.2075,331.9717,750.2075,319.9717" style="stroke:#181818;stroke-width:0.5;"/><text fill="#000000" font-family="sans-serif" font-size="11" lengthAdjust="spacing" textLength="62.96" x="750.2075" y="335.7798">Data Valid?</text><text fill="#000000" font-family="sans-serif" font-size="11" lengthAdjust="spacing" textLength="29.8687" x="825.1675" y="329.3774">Tidak</text><rect fill="#F1F1F1" height="33.9688" rx="3.5" ry="3.5" style="stroke:#181818;stroke-width:0.5;" width="155.75" x="1060.2832" y="213.8193"/><text fill="#000000" font-family="sans-serif" font-size="12" lengthAdjust="spacing" textLength="135.75" x="1070.2832" y="234.958">Tampilkan Pesan Error</text><rect fill="#F1F1F1" height="33.9688" rx="3.5" ry="3.5" style="stroke:#181818;stroke-width:0.5;" width="110.8496" x="726.2627" y="385.3706"/><text fill="#000000" font-family="sans-serif" font-size="12" lengthAdjust="spacing" textLength="90.8496" x="736.2627" y="406.5093">Hash Password</text><path d="M857.0215,450.7417 L857.0215,459.3081 L837.0215,463.3081 L857.0215,467.3081 L857.0215,475.8745 A0,0 0 0 0 857.0215,475.8745 L1068.7114,475.8745 A0,0 0 0 0 1068.7114,475.8745 L1068.7114,460.7417 L1058.7114,450.7417 L857.0215,450.7417 A0,0 0 0 0 857.0215,450.7417" fill="#E5E5E5" style="stroke:#191919;stroke-width:1.5;"/><path d="M1058.7114,450.7417 L1058.7114,460.7417 L1068.7114,460.7417 L1058.7114,450.7417" fill="#E5E5E5" style="stroke:#191919;stroke-width:1.5;"/><text fill="#191919" font-family="sans-serif" font-size="13" font-weight="bold" lengthAdjust="spacing" textLength="32.5825" x="863.0215" y="467.8086">(DB)</text><text fill="#191919" font-family="sans-serif" font-size="13" lengthAdjust="spacing" textLength="153.9751" x="899.7363" y="467.8086">users_registration table</text><rect fill="#F1F1F1" height="47.9375" rx="3.5" ry="3.5" style="stroke:#181818;stroke-width:0.5;" width="110.668" x="726.3535" y="439.3394"/><text fill="#000000" font-family="sans-serif" font-size="12" lengthAdjust="spacing" textLength="77.6836" x="736.3535" y="460.478">Simpan Data</text><text fill="#000000" font-family="sans-serif" font-size="12" lengthAdjust="spacing" textLength="90.668" x="736.3535" y="474.4468">Registrasi User</text><ellipse cx="781.6875" cy="517.2769" fill="#F1F1F1" rx="10" ry="10" style="stroke:#181818;stroke-width:0.5;"/><path d="M781.7969,513.4487 L780.1875,517.7925 L783.4063,517.7925 L781.7969,513.4487 Z M781.125,512.2769 L782.4688,512.2769 L785.7969,521.0269 L784.5625,521.0269 L783.7656,518.7769 L779.8281,518.7769 L779.0313,521.0269 L777.7813,521.0269 L781.125,512.2769 Z " fill="#000000"/><ellipse cx="781.6875" cy="547.2769" fill="#F1F1F1" rx="10" ry="10" style="stroke:#181818;stroke-width:0.5;"/><path d="M781.7969,543.4487 L780.1875,547.7925 L783.4063,547.7925 L781.7969,543.4487 Z M781.125,542.2769 L782.4688,542.2769 L785.7969,551.0269 L784.5625,551.0269 L783.7656,548.7769 L779.8281,548.7769 L779.0313,551.0269 L777.7813,551.0269 L781.125,542.2769 Z " fill="#000000"/><rect fill="#F1F1F1" height="47.9375" rx="3.5" ry="3.5" style="stroke:#181818;stroke-width:0.5;" width="102.7227" x="730.3262" y="577.2769"/><text fill="#000000" font-family="sans-serif" font-size="12" lengthAdjust="spacing" textLength="76.043" x="740.3262" y="598.4155">Buat &amp; Kirim</text><text fill="#000000" font-family="sans-serif" font-size="12" lengthAdjust="spacing" textLength="82.7227" x="740.3262" y="612.3843">OTP via Email</text><rect fill="#F1F1F1" height="33.9688" rx="3.5" ry="3.5" style="stroke:#181818;stroke-width:0.5;" width="137.1582" x="713.1084" y="699.1831"/><text fill="#000000" font-family="sans-serif" font-size="12" lengthAdjust="spacing" textLength="117.1582" x="723.1084" y="720.3218">Verifikasi Kode OTP</text><polygon fill="#F1F1F1" points="747.8899,753.1519,815.4851,753.1519,827.4851,765.1519,815.4851,777.1519,747.8899,777.1519,735.8899,765.1519,747.8899,753.1519" style="stroke:#181818;stroke-width:0.5;"/><text fill="#000000" font-family="sans-serif" font-size="11" lengthAdjust="spacing" textLength="67.5952" x="747.8899" y="768.96">OTP Sesuai?</text><text fill="#000000" font-family="sans-serif" font-size="11" lengthAdjust="spacing" textLength="29.8687" x="706.0212" y="762.5576">Tidak</text><text fill="#000000" font-family="sans-serif" font-size="11" lengthAdjust="spacing" textLength="13.46" x="827.4851" y="762.5576">Ya</text><rect fill="#F1F1F1" height="33.9688" rx="3.5" ry="3.5" style="stroke:#181818;stroke-width:0.5;" width="187.1152" x="546.5947" y="797.1519"/><text fill="#000000" font-family="sans-serif" font-size="12" lengthAdjust="spacing" textLength="167.1152" x="556.5947" y="818.2905">Tampilkan Pesan OTP Salah</text><polygon fill="#F1F1F1" points="611.7957,865.0894,668.509,865.0894,680.509,877.0894,668.509,889.0894,611.7957,889.0894,599.7957,877.0894,611.7957,865.0894" style="stroke:#181818;stroke-width:0.5;"/><text fill="#000000" font-family="sans-serif" font-size="11" lengthAdjust="spacing" textLength="56.7134" x="611.7957" y="880.8975">Salah &gt;3x</text><text fill="#000000" font-family="sans-serif" font-size="11" lengthAdjust="spacing" textLength="29.8687" x="569.927" y="874.4951">Tidak</text><text fill="#000000" font-family="sans-serif" font-size="11" lengthAdjust="spacing" textLength="13.46" x="680.509" y="874.4951">Ya</text><rect fill="#F1F1F1" height="33.9688" rx="3.5" ry="3.5" style="stroke:#181818;stroke-width:0.5;" width="118.2734" x="659.249" y="909.0894"/><text fill="#000000" font-family="sans-serif" font-size="12" lengthAdjust="spacing" textLength="98.2734" x="669.249" y="930.228">Registrasi Gagal</text><ellipse cx="718.3857" cy="989.0581" fill="none" rx="11" ry="11" style="stroke:#222222;stroke-width:1;"/><ellipse cx="718.3857" cy="989.0581" fill="#222222" rx="6" ry="6" style="stroke:#222222;stroke-width:1;"/><path d="M992.0645,808.5542 L992.0645,817.1206 L972.0645,821.1206 L992.0645,825.1206 L992.0645,833.687 A0,0 0 0 0 992.0645,833.687 L1121.9648,833.687 A0,0 0 0 0 1121.9648,833.687 L1121.9648,818.5542 L1111.9648,808.5542 L992.0645,808.5542 A0,0 0 0 0 992.0645,808.5542" fill="#E5E5E5" style="stroke:#191919;stroke-width:1.5;"/><path d="M1111.9648,808.5542 L1111.9648,818.5542 L1121.9648,818.5542 L1111.9648,808.5542" fill="#E5E5E5" style="stroke:#191919;stroke-width:1.5;"/><text fill="#191919" font-family="sans-serif" font-size="13" font-weight="bold" lengthAdjust="spacing" textLength="32.5825" x="998.0645" y="825.6211">(DB)</text><text fill="#191919" font-family="sans-serif" font-size="13" lengthAdjust="spacing" textLength="72.1855" x="1034.7793" y="825.6211">users table</text><rect fill="#F1F1F1" height="47.9375" rx="3.5" ry="3.5" style="stroke:#181818;stroke-width:0.5;" width="97.6836" x="874.3809" y="797.1519"/><text fill="#000000" font-family="sans-serif" font-size="12" lengthAdjust="spacing" textLength="77.6836" x="884.3809" y="818.2905">Simpan Data</text><text fill="#000000" font-family="sans-serif" font-size="12" lengthAdjust="spacing" textLength="27.3516" x="884.3809" y="832.2593">User</text><path d="M998.5566,890.4604 L998.5566,899.0269 L978.5566,903.0269 L998.5566,907.0269 L998.5566,915.5933 A0,0 0 0 0 998.5566,915.5933 L1210.2466,915.5933 A0,0 0 0 0 1210.2466,915.5933 L1210.2466,900.4604 L1200.2466,890.4604 L998.5566,890.4604 A0,0 0 0 0 998.5566,890.4604" fill="#E5E5E5" style="stroke:#191919;stroke-width:1.5;"/><path d="M1200.2466,890.4604 L1200.2466,900.4604 L1210.2466,900.4604 L1200.2466,890.4604" fill="#E5E5E5" style="stroke:#191919;stroke-width:1.5;"/><text fill="#191919" font-family="sans-serif" font-size="13" font-weight="bold" lengthAdjust="spacing" textLength="32.5825" x="1004.5566" y="907.5273">(DB)</text><text fill="#191919" font-family="sans-serif" font-size="13" lengthAdjust="spacing" textLength="153.9751" x="1041.2715" y="907.5273">users_registration table</text><rect fill="#F1F1F1" height="47.9375" rx="3.5" ry="3.5" style="stroke:#181818;stroke-width:0.5;" width="110.668" x="867.8887" y="879.0581"/><text fill="#000000" font-family="sans-serif" font-size="12" lengthAdjust="spacing" textLength="70.3184" x="877.8887" y="900.1968">Hapus Data</text><text fill="#000000" font-family="sans-serif" font-size="12" lengthAdjust="spacing" textLength="90.668" x="877.8887" y="914.1655">Registrasi User</text><rect fill="#F1F1F1" height="33.9688" rx="3.5" ry="3.5" style="stroke:#181818;stroke-width:0.5;" width="231.4004" x="807.5225" y="961.9956"/><text fill="#000000" font-family="sans-serif" font-size="12" lengthAdjust="spacing" textLength="211.4004" x="817.5225" y="983.1343">Tampilkan Pesan Registrasi Sukses</text><ellipse cx="781.6875" cy="1031.0581" fill="none" rx="11" ry="11" style="stroke:#222222;stroke-width:1;"/><ellipse cx="781.6875" cy="1031.0581" fill="#222222" rx="6" ry="6" style="stroke:#222222;stroke-width:1;"/><line style="stroke:#000000;stroke-width:1.5;" x1="540.5947" x2="540.5947" y1="61.6826" y2="1042.0581"/><line style="stroke:#000000;stroke-width:1.5;" x1="1220.0332" x2="1220.0332" y1="61.6826" y2="1042.0581"/><line style="stroke:#191919;stroke-width:1;" x1="280.999" x2="280.999" y1="151.6357" y2="172.3506"/><polygon fill="#191919" points="276.999,162.3506,280.999,172.3506,284.999,162.3506,280.999,166.3506" style="stroke:#191919;stroke-width:1;"/><line style="stroke:#191919;stroke-width:1;" x1="280.999" x2="280.999" y1="107.6357" y2="127.6357"/><polygon fill="#191919" points="276.999,117.6357,280.999,127.6357,284.999,117.6357,280.999,121.6357" style="stroke:#191919;stroke-width:1;"/><line style="stroke:#191919;stroke-width:1;" x1="98.3301" x2="98.3301" y1="943.0581" y2="978.0581"/><polygon fill="#191919" points="94.3301,968.0581,98.3301,978.0581,102.3301,968.0581,98.3301,972.0581" style="stroke:#191919;stroke-width:1;"/><line style="stroke:#191919;stroke-width:1;" x1="825.1675" x2="1138.1582" y1="331.9717" y2="331.9717"/><line style="stroke:#191919;stroke-width:1;" x1="1138.1582" x2="1138.1582" y1="247.7881" y2="331.9717"/><polygon fill="#191919" points="1134.1582,257.7881,1138.1582,247.7881,1142.1582,257.7881,1138.1582,253.7881" style="stroke:#191919;stroke-width:1;"/><line style="stroke:#191919;stroke-width:1;" x1="781.6875" x2="781.6875" y1="299.9717" y2="319.9717"/><polygon fill="#191919" points="777.6875,309.9717,781.6875,319.9717,785.6875,309.9717,781.6875,313.9717" style="stroke:#191919;stroke-width:1;"/><line style="stroke:#191919;stroke-width:1;" x1="781.6875" x2="781.6875" y1="343.9717" y2="385.3706"/><polygon fill="#191919" points="777.6875,375.3706,781.6875,385.3706,785.6875,375.3706,781.6875,379.3706" style="stroke:#191919;stroke-width:1;"/><text fill="#000000" font-family="sans-serif" font-size="11" lengthAdjust="spacing" textLength="13.46" x="785.6875" y="365.2764">Ya</text><line style="stroke:#191919;stroke-width:1;" x1="781.6875" x2="781.6875" y1="419.3394" y2="439.3394"/><polygon fill="#191919" points="777.6875,429.3394,781.6875,439.3394,785.6875,429.3394,781.6875,433.3394" style="stroke:#191919;stroke-width:1;"/><line style="stroke:#191919;stroke-width:1;" x1="781.6875" x2="781.6875" y1="487.2769" y2="507.2769"/><polygon fill="#191919" points="777.6875,497.2769,781.6875,507.2769,785.6875,497.2769,781.6875,501.2769" style="stroke:#191919;stroke-width:1;"/><line style="stroke:#191919;stroke-width:1;" x1="781.6875" x2="781.6875" y1="557.2769" y2="577.2769"/><polygon fill="#191919" points="777.6875,567.2769,781.6875,577.2769,785.6875,567.2769,781.6875,571.2769" style="stroke:#191919;stroke-width:1;"/><line style="stroke:#191919;stroke-width:1;" x1="718.3857" x2="718.3857" y1="943.0581" y2="978.0581"/><polygon fill="#191919" points="714.3857,968.0581,718.3857,978.0581,722.3857,968.0581,718.3857,972.0581" style="stroke:#191919;stroke-width:1;"/><line style="stroke:#191919;stroke-width:1;" x1="680.509" x2="718.3857" y1="877.0894" y2="877.0894"/><line style="stroke:#191919;stroke-width:1;" x1="718.3857" x2="718.3857" y1="877.0894" y2="909.0894"/><polygon fill="#191919" points="714.3857,899.0894,718.3857,909.0894,722.3857,899.0894,718.3857,903.0894" style="stroke:#191919;stroke-width:1;"/><line style="stroke:#191919;stroke-width:1;" x1="640.1523" x2="640.1523" y1="831.1206" y2="865.0894"/><polygon fill="#191919" points="636.1523,855.0894,640.1523,865.0894,644.1523,855.0894,640.1523,859.0894" style="stroke:#191919;stroke-width:1;"/><line style="stroke:#191919;stroke-width:1;" x1="923.2227" x2="923.2227" y1="845.0894" y2="879.0581"/><polygon fill="#191919" points="919.2227,869.0581,923.2227,879.0581,927.2227,869.0581,923.2227,873.0581" style="stroke:#191919;stroke-width:1;"/><line style="stroke:#191919;stroke-width:1;" x1="923.2227" x2="923.2227" y1="926.9956" y2="961.9956"/><polygon fill="#191919" points="919.2227,951.9956,923.2227,961.9956,927.2227,951.9956,923.2227,955.9956" style="stroke:#191919;stroke-width:1;"/><line style="stroke:#191919;stroke-width:1;" x1="735.8899" x2="640.1523" y1="765.1519" y2="765.1519"/><line style="stroke:#191919;stroke-width:1;" x1="640.1523" x2="640.1523" y1="765.1519" y2="797.1519"/><polygon fill="#191919" points="636.1523,787.1519,640.1523,797.1519,644.1523,787.1519,640.1523,791.1519" style="stroke:#191919;stroke-width:1;"/><line style="stroke:#191919;stroke-width:1;" x1="827.4851" x2="923.2227" y1="765.1519" y2="765.1519"/><line style="stroke:#191919;stroke-width:1;" x1="923.2227" x2="923.2227" y1="765.1519" y2="797.1519"/><polygon fill="#191919" points="919.2227,787.1519,923.2227,797.1519,927.2227,787.1519,923.2227,791.1519" style="stroke:#191919;stroke-width:1;"/><line style="stroke:#191919;stroke-width:1;" x1="923.2227" x2="923.2227" y1="995.9644" y2="1005.0581"/><line style="stroke:#191919;stroke-width:1;" x1="923.2227" x2="781.6875" y1="1005.0581" y2="1005.0581"/><line style="stroke:#191919;stroke-width:1;" x1="781.6875" x2="781.6875" y1="1005.0581" y2="1020.0581"/><polygon fill="#191919" points="777.6875,1010.0581,781.6875,1020.0581,785.6875,1010.0581,781.6875,1014.0581" style="stroke:#191919;stroke-width:1;"/><line style="stroke:#191919;stroke-width:1;" x1="781.6875" x2="781.6875" y1="733.1519" y2="753.1519"/><polygon fill="#191919" points="777.6875,743.1519,781.6875,753.1519,785.6875,743.1519,781.6875,747.1519" style="stroke:#191919;stroke-width:1;"/><line style="stroke:#191919;stroke-width:1;" x1="280.999" x2="280.999" y1="206.3193" y2="229.1768"/><line style="stroke:#191919;stroke-width:1;" x1="280.999" x2="781.6875" y1="229.1768" y2="229.1768"/><line style="stroke:#191919;stroke-width:1;" x1="781.6875" x2="781.6875" y1="229.1768" y2="252.0342"/><polygon fill="#191919" points="777.6875,242.0342,781.6875,252.0342,785.6875,242.0342,781.6875,246.0342" style="stroke:#191919;stroke-width:1;"/><line style="stroke:#191919;stroke-width:1;" x1="1138.1582" x2="1138.1582" y1="139.6357" y2="213.8193"/><line style="stroke:#191919;stroke-width:1;" x1="1138.1582" x2="292.999" y1="139.6357" y2="139.6357"/><polygon fill="#191919" points="302.999,135.6357,292.999,139.6357,302.999,143.6357,298.999,139.6357" style="stroke:#191919;stroke-width:1;"/><line style="stroke:#191919;stroke-width:1;" x1="781.6875" x2="781.6875" y1="625.2144" y2="630.2144"/><line style="stroke:#191919;stroke-width:1;" x1="781.6875" x2="280.999" y1="630.2144" y2="630.2144"/><line style="stroke:#191919;stroke-width:1;" x1="280.999" x2="280.999" y1="630.2144" y2="645.2144"/><polygon fill="#191919" points="276.999,635.2144,280.999,645.2144,284.999,635.2144,280.999,639.2144" style="stroke:#191919;stroke-width:1;"/><line style="stroke:#191919;stroke-width:1;" x1="280.999" x2="280.999" y1="679.1831" y2="684.1831"/><line style="stroke:#191919;stroke-width:1;" x1="280.999" x2="781.6875" y1="684.1831" y2="684.1831"/><line style="stroke:#191919;stroke-width:1;" x1="781.6875" x2="781.6875" y1="684.1831" y2="699.1831"/><polygon fill="#191919" points="777.6875,689.1831,781.6875,699.1831,785.6875,689.1831,781.6875,693.1831" style="stroke:#191919;stroke-width:1;"/><line style="stroke:#191919;stroke-width:1;" x1="599.7957" x2="98.3301" y1="877.0894" y2="877.0894"/><line style="stroke:#191919;stroke-width:1;" x1="98.3301" x2="98.3301" y1="877.0894" y2="909.0894"/><polygon fill="#191919" points="94.3301,899.0894,98.3301,909.0894,102.3301,899.0894,98.3301,903.0894" style="stroke:#191919;stroke-width:1;"/><text fill="#000000" font-family="sans-serif" font-size="18" lengthAdjust="spacing" textLength="97.7695" x="228.9126" y="78.3906">Calon User</text><text fill="#000000" font-family="sans-serif" font-size="18" lengthAdjust="spacing" textLength="61.4707" x="849.5786" y="78.3906">Sistem</text><g class="footer" data-source-line="5"><text fill="#888888" font-family="sans-serif" font-size="18" lengthAdjust="spacing" textLength="100.2744" x="568.3098" y="1058.7661">version 1.0</text></g><?plantuml-src ZLBlQzim4Fskl-AM3rbYih9k-p1iw5YNTXrbBCnfeJ0Obrg93qkoaUIcZFpna-GVSP8EfW_6fzEzktllcO9KXHebMBA2NvVAflI7mxiFpFIfwxAqNFUvyu_ibSsvv21H6nOAOVIJRyXOZOP6R1qAOFJ4jQ5ImVdPsn5ZkoyeN71dkDunOr5Rfdd5qGABlnboRRI4FGoC8QrNacp2m1tb847J9hSXz2UAvcWnZgB-HfU2pu1B9343XH9dVKgLPt2pc465ncnBdOK4Lra03i4kTPsvt8KWlaT16RPZkHbzAnY7tBok11K-T-KxDVEjyB7OeiuWNgAiI1IeOC6D-rvfNUgastMRawDh4k12ZqzJ80EJfUjMJDcRYmTCM7o39eT5EwgBKvALWmfLRC2H9pDXHzn4qMH-EOqYg5tM_DRjS-kbiBWIdFLxJpvFMSOjFkRXDxwitOXZk2LD4jYFvGAU2Bir3mHy3Sr2JZjLrHPkouo3At3FEXxZUwvftJ2rJzCQ9XuuvQP6SjixBwb-_y3zCOFXEGhC6wezGWZXultp2_L1pE6itMNydPGZiDdkJg3QD2DrUKz1zz-o4bmYZ5Fi0GVeGwi4v84cNt63OWzgR5brPgCrEmGxzDn0vL-gaVQVrXzAtAfwucXdewesBTw9Q_uB-YNtdFOv5cpGAwqBmqt2ckqz6Ny1?></g></svg>