<?plantuml 1.2026.2?><svg xmlns="http://www.w3.org/2000/svg" xmlns:xlink="http://www.w3.org/1999/xlink" contentStyleType="text/css" data-diagram-type="ACTIVITY" height="1155px" preserveAspectRatio="none" style="width:1427px;height:1155px;background:#F9F9F9;" version="1.1" viewBox="0 0 1427 1155" width="1427px" zoomAndPan="magnify"><title>(ACD-09) Sign Kontrak - Digital</title><defs/><g><rect fill="#F9F9F9" height="1155" style="stroke:none;stroke-width:1;" width="1427" x="0" y="0"/><g class="title" data-source-line="4"><text fill="#000000" font-family="sans-serif" font-size="24" font-weight="bold" lengthAdjust="spacing" textLength="421.6523" x="501.2366" y="42.2773">(ACD-09) Sign Kontrak - Digital</text></g><rect fill="none" height="20.9531" style="stroke:none;stroke-width:1;" width="1394.1255" x="15" y="61.6826"/><ellipse cx="196.7412" cy="97.6357" fill="#222222" rx="10" ry="10" style="stroke:#222222;stroke-width:1;"/><rect fill="#F1F1F1" height="33.9688" rx="3.5" ry="3.5" style="stroke:#181818;stroke-width:0.5;" width="166.3965" x="113.543" y="127.6357"/><text fill="#000000" font-family="sans-serif" font-size="12" lengthAdjust="spacing" textLength="146.3965" x="123.543" y="148.7744">Masuk ke Detail Kontrak</text><rect fill="#F1F1F1" height="33.9688" rx="3.5" ry="3.5" style="stroke:#181818;stroke-width:0.5;" width="323.5742" x="34.9541" y="181.6045"/><text fill="#000000" font-family="sans-serif" font-size="12" lengthAdjust="spacing" textLength="303.5742" x="44.9541" y="202.7432">Pilih untuk menandatangani kontrak secara digital</text><rect fill="#F1F1F1" height="33.9688" rx="3.5" ry="3.5" style="stroke:#181818;stroke-width:0.5;" width="351.4824" x="21" y="397.4795"/><text fill="#000000" font-family="sans-serif" font-size="12" lengthAdjust="spacing" textLength="331.4824" x="31" y="418.6182">Menyelesaikan proses tanda tangan digital melalui link</text><rect fill="#F1F1F1" height="33.9688" rx="3.5" ry="3.5" style="stroke:#181818;stroke-width:0.5;" width="256.4023" x="68.54" y="991.1357"/><text fill="#000000" font-family="sans-serif" font-size="12" lengthAdjust="spacing" textLength="236.4023" x="78.54" y="1012.2744">Terima notifikasi tanda tangan berhasil</text><rect fill="#F1F1F1" height="33.9688" rx="3.5" ry="3.5" style="stroke:#181818;stroke-width:0.5;" width="195.9512" x="98.7656" y="1045.1045"/><text fill="#000000" font-family="sans-serif" font-size="12" lengthAdjust="spacing" textLength="175.9512" x="108.7656" y="1066.2432">Lanjut ke Tahap Pembayaran</text><ellipse cx="196.7412" cy="1110.0732" fill="none" rx="11" ry="11" style="stroke:#222222;stroke-width:1;"/><ellipse cx="196.7412" cy="1110.0732" fill="#222222" rx="6" ry="6" style="stroke:#222222;stroke-width:1;"/><line style="stroke:#000000;stroke-width:1.5;" x1="15" x2="15" y1="61.6826" y2="1121.0732"/><rect fill="#F1F1F1" height="33.9688" rx="3.5" ry="3.5" style="stroke:#181818;stroke-width:0.5;" width="271.8418" x="406.0664" y="235.5732"/><text fill="#000000" font-family="sans-serif" font-size="12" lengthAdjust="spacing" textLength="251.8418" x="416.0664" y="256.7119">Melakukan request ke e-signature service</text><rect fill="#F1F1F1" height="33.9688" rx="3.5" ry="3.5" style="stroke:#181818;stroke-width:0.5;" width="319.0098" x="382.4824" y="343.5107"/><text fill="#000000" font-family="sans-serif" font-size="12" lengthAdjust="spacing" textLength="299.0098" x="392.4824" y="364.6494">Menyediakan link untuk menandatangani kontrak</text><rect fill="#F1F1F1" height="33.9688" rx="3.5" ry="3.5" style="stroke:#181818;stroke-width:0.5;" width="256.4023" x="413.7861" y="505.417"/><text fill="#000000" font-family="sans-serif" font-size="12" lengthAdjust="spacing" textLength="236.4023" x="423.7861" y="526.5557">Terima notifikasi tanda tangan berhasil</text><path d="M639.3467,563.8037 L639.3467,572.3701 L619.3467,576.3701 L639.3467,580.3701 L639.3467,588.9365 A0,0 0 0 0 639.3467,588.9365 L837.6494,588.9365 A0,0 0 0 0 837.6494,588.9365 L837.6494,573.8037 L827.6494,563.8037 L639.3467,563.8037 A0,0 0 0 0 639.3467,563.8037" fill="#E5E5E5" style="stroke:#191919;stroke-width:1.5;"/><path d="M827.6494,563.8037 L827.6494,573.8037 L837.6494,573.8037 L827.6494,563.8037" fill="#E5E5E5" style="stroke:#191919;stroke-width:1.5;"/><text fill="#191919" font-family="sans-serif" font-size="13" font-weight="bold" lengthAdjust="spacing" textLength="32.5825" x="645.3467" y="580.8706">(DB)</text><text fill="#191919" font-family="sans-serif" font-size="13" lengthAdjust="spacing" textLength="140.5879" x="682.0615" y="580.8706">legal_document table</text><rect fill="#F1F1F1" height="33.9688" rx="3.5" ry="3.5" style="stroke:#181818;stroke-width:0.5;" width="154.7188" x="464.6279" y="559.3857"/><text fill="#000000" font-family="sans-serif" font-size="12" lengthAdjust="spacing" textLength="134.7188" x="474.6279" y="580.5244">Update status Kontrak</text><rect fill="#F1F1F1" height="33.9688" rx="3.5" ry="3.5" style="stroke:#181818;stroke-width:0.5;" width="168.4473" x="457.7637" y="613.3545"/><text fill="#000000" font-family="sans-serif" font-size="12" lengthAdjust="spacing" textLength="148.4473" x="467.7637" y="634.4932">Kirim notifikasi ke owner</text><rect fill="#F1F1F1" height="33.9688" rx="3.5" ry="3.5" style="stroke:#181818;stroke-width:0.5;" width="256.4023" x="413.7861" y="829.2295"/><text fill="#000000" font-family="sans-serif" font-size="12" lengthAdjust="spacing" textLength="236.4023" x="423.7861" y="850.3682">Terima notifikasi tanda tangan berhasil</text><path d="M639.3467,887.6162 L639.3467,896.1826 L619.3467,900.1826 L639.3467,904.1826 L639.3467,912.749 A0,0 0 0 0 639.3467,912.749 L837.6494,912.749 A0,0 0 0 0 837.6494,912.749 L837.6494,897.6162 L827.6494,887.6162 L639.3467,887.6162 A0,0 0 0 0 639.3467,887.6162" fill="#E5E5E5" style="stroke:#191919;stroke-width:1.5;"/><path d="M827.6494,887.6162 L827.6494,897.6162 L837.6494,897.6162 L827.6494,887.6162" fill="#E5E5E5" style="stroke:#191919;stroke-width:1.5;"/><text fill="#191919" font-family="sans-serif" font-size="13" font-weight="bold" lengthAdjust="spacing" textLength="32.5825" x="645.3467" y="904.6831">(DB)</text><text fill="#191919" font-family="sans-serif" font-size="13" lengthAdjust="spacing" textLength="140.5879" x="682.0615" y="904.6831">legal_document table</text><rect fill="#F1F1F1" height="33.9688" rx="3.5" ry="3.5" style="stroke:#181818;stroke-width:0.5;" width="154.7188" x="464.6279" y="883.1982"/><text fill="#000000" font-family="sans-serif" font-size="12" lengthAdjust="spacing" textLength="134.7188" x="474.6279" y="904.3369">Update status Kontrak</text><rect fill="#F1F1F1" height="33.9688" rx="3.5" ry="3.5" style="stroke:#181818;stroke-width:0.5;" width="170.7266" x="456.624" y="937.167"/><text fill="#000000" font-family="sans-serif" font-size="12" lengthAdjust="spacing" textLength="150.7266" x="466.624" y="958.3057">Kirim notifikasi ke tenant</text><line style="stroke:#000000;stroke-width:1.5;" x1="376.4824" x2="376.4824" y1="61.6826" y2="1121.0732"/><rect fill="#F1F1F1" height="33.9688" rx="3.5" ry="3.5" style="stroke:#181818;stroke-width:0.5;" width="288.2129" x="848.6494" y="289.542"/><text fill="#000000" font-family="sans-serif" font-size="12" lengthAdjust="spacing" textLength="268.2129" x="858.6494" y="310.6807">Memproses permintaan tanda tangan digital</text><rect fill="#F1F1F1" height="33.9688" rx="3.5" ry="3.5" style="stroke:#181818;stroke-width:0.5;" width="214.8184" x="885.3467" y="451.4482"/><text fill="#000000" font-family="sans-serif" font-size="12" lengthAdjust="spacing" textLength="194.8184" x="895.3467" y="472.5869">Memproses tanda tangan digital</text><rect fill="#F1F1F1" height="33.9688" rx="3.5" ry="3.5" style="stroke:#181818;stroke-width:0.5;" width="214.8184" x="885.3467" y="775.2607"/><text fill="#000000" font-family="sans-serif" font-size="12" lengthAdjust="spacing" textLength="194.8184" x="895.3467" y="796.3994">Memproses tanda tangan digital</text><line style="stroke:#000000;stroke-width:1.5;" x1="842.6494" x2="842.6494" y1="61.6826" y2="1121.0732"/><rect fill="#F1F1F1" height="33.9688" rx="3.5" ry="3.5" style="stroke:#181818;stroke-width:0.5;" width="256.4023" x="1146.8623" y="667.3232"/><text fill="#000000" font-family="sans-serif" font-size="12" lengthAdjust="spacing" textLength="236.4023" x="1156.8623" y="688.4619">Terima notifikasi tanda tangan berhasil</text><rect fill="#F1F1F1" height="33.9688" rx="3.5" ry="3.5" style="stroke:#181818;stroke-width:0.5;" width="241.0977" x="1154.5146" y="721.292"/><text fill="#000000" font-family="sans-serif" font-size="12" lengthAdjust="spacing" textLength="221.0977" x="1164.5146" y="742.4307">Tanda tangani kontrak secara digital</text><line style="stroke:#000000;stroke-width:1.5;" x1="1140.8623" x2="1140.8623" y1="61.6826" y2="1121.0732"/><line style="stroke:#000000;stroke-width:1.5;" x1="1407.2646" x2="1407.2646" y1="61.6826" y2="1121.0732"/><line style="stroke:#191919;stroke-width:1;" x1="196.7412" x2="196.7412" y1="107.6357" y2="127.6357"/><polygon fill="#191919" points="192.7412,117.6357,196.7412,127.6357,200.7412,117.6357,196.7412,121.6357" style="stroke:#191919;stroke-width:1;"/><line style="stroke:#191919;stroke-width:1;" x1="196.7412" x2="196.7412" y1="161.6045" y2="181.6045"/><polygon fill="#191919" points="192.7412,171.6045,196.7412,181.6045,200.7412,171.6045,196.7412,175.6045" style="stroke:#191919;stroke-width:1;"/><line style="stroke:#191919;stroke-width:1;" x1="196.7412" x2="196.7412" y1="1025.1045" y2="1045.1045"/><polygon fill="#191919" points="192.7412,1035.1045,196.7412,1045.1045,200.7412,1035.1045,196.7412,1039.1045" style="stroke:#191919;stroke-width:1;"/><line style="stroke:#191919;stroke-width:1;" x1="196.7412" x2="196.7412" y1="1079.0732" y2="1099.0732"/><polygon fill="#191919" points="192.7412,1089.0732,196.7412,1099.0732,200.7412,1089.0732,196.7412,1093.0732" style="stroke:#191919;stroke-width:1;"/><line style="stroke:#191919;stroke-width:1;" x1="541.9873" x2="541.9873" y1="539.3857" y2="559.3857"/><polygon fill="#191919" points="537.9873,549.3857,541.9873,559.3857,545.9873,549.3857,541.9873,553.3857" style="stroke:#191919;stroke-width:1;"/><line style="stroke:#191919;stroke-width:1;" x1="541.9873" x2="541.9873" y1="593.3545" y2="613.3545"/><polygon fill="#191919" points="537.9873,603.3545,541.9873,613.3545,545.9873,603.3545,541.9873,607.3545" style="stroke:#191919;stroke-width:1;"/><line style="stroke:#191919;stroke-width:1;" x1="541.9873" x2="541.9873" y1="863.1982" y2="883.1982"/><polygon fill="#191919" points="537.9873,873.1982,541.9873,883.1982,545.9873,873.1982,541.9873,877.1982" style="stroke:#191919;stroke-width:1;"/><line style="stroke:#191919;stroke-width:1;" x1="541.9873" x2="541.9873" y1="917.167" y2="937.167"/><polygon fill="#191919" points="537.9873,927.167,541.9873,937.167,545.9873,927.167,541.9873,931.167" style="stroke:#191919;stroke-width:1;"/><line style="stroke:#191919;stroke-width:1;" x1="1275.0635" x2="1275.0635" y1="701.292" y2="721.292"/><polygon fill="#191919" points="1271.0635,711.292,1275.0635,721.292,1279.0635,711.292,1275.0635,715.292" style="stroke:#191919;stroke-width:1;"/><line style="stroke:#191919;stroke-width:1;" x1="196.7412" x2="196.7412" y1="215.5732" y2="220.5732"/><line style="stroke:#191919;stroke-width:1;" x1="196.7412" x2="541.9873" y1="220.5732" y2="220.5732"/><line style="stroke:#191919;stroke-width:1;" x1="541.9873" x2="541.9873" y1="220.5732" y2="235.5732"/><polygon fill="#191919" points="537.9873,225.5732,541.9873,235.5732,545.9873,225.5732,541.9873,229.5732" style="stroke:#191919;stroke-width:1;"/><line style="stroke:#191919;stroke-width:1;" x1="541.9873" x2="541.9873" y1="269.542" y2="274.542"/><line style="stroke:#191919;stroke-width:1;" x1="541.9873" x2="992.7559" y1="274.542" y2="274.542"/><line style="stroke:#191919;stroke-width:1;" x1="992.7559" x2="992.7559" y1="274.542" y2="289.542"/><polygon fill="#191919" points="988.7559,279.542,992.7559,289.542,996.7559,279.542,992.7559,283.542" style="stroke:#191919;stroke-width:1;"/><line style="stroke:#191919;stroke-width:1;" x1="992.7559" x2="992.7559" y1="323.5107" y2="328.5107"/><line style="stroke:#191919;stroke-width:1;" x1="992.7559" x2="541.9873" y1="328.5107" y2="328.5107"/><line style="stroke:#191919;stroke-width:1;" x1="541.9873" x2="541.9873" y1="328.5107" y2="343.5107"/><polygon fill="#191919" points="537.9873,333.5107,541.9873,343.5107,545.9873,333.5107,541.9873,337.5107" style="stroke:#191919;stroke-width:1;"/><line style="stroke:#191919;stroke-width:1;" x1="541.9873" x2="541.9873" y1="377.4795" y2="382.4795"/><line style="stroke:#191919;stroke-width:1;" x1="541.9873" x2="196.7412" y1="382.4795" y2="382.4795"/><line style="stroke:#191919;stroke-width:1;" x1="196.7412" x2="196.7412" y1="382.4795" y2="397.4795"/><polygon fill="#191919" points="192.7412,387.4795,196.7412,397.4795,200.7412,387.4795,196.7412,391.4795" style="stroke:#191919;stroke-width:1;"/><line style="stroke:#191919;stroke-width:1;" x1="196.7412" x2="196.7412" y1="431.4482" y2="436.4482"/><line style="stroke:#191919;stroke-width:1;" x1="196.7412" x2="992.7559" y1="436.4482" y2="436.4482"/><line style="stroke:#191919;stroke-width:1;" x1="992.7559" x2="992.7559" y1="436.4482" y2="451.4482"/><polygon fill="#191919" points="988.7559,441.4482,992.7559,451.4482,996.7559,441.4482,992.7559,445.4482" style="stroke:#191919;stroke-width:1;"/><line style="stroke:#191919;stroke-width:1;" x1="992.7559" x2="992.7559" y1="485.417" y2="490.417"/><line style="stroke:#191919;stroke-width:1;" x1="992.7559" x2="541.9873" y1="490.417" y2="490.417"/><line style="stroke:#191919;stroke-width:1;" x1="541.9873" x2="541.9873" y1="490.417" y2="505.417"/><polygon fill="#191919" points="537.9873,495.417,541.9873,505.417,545.9873,495.417,541.9873,499.417" style="stroke:#191919;stroke-width:1;"/><line style="stroke:#191919;stroke-width:1;" x1="541.9873" x2="541.9873" y1="647.3232" y2="652.3232"/><line style="stroke:#191919;stroke-width:1;" x1="541.9873" x2="1275.0635" y1="652.3232" y2="652.3232"/><line style="stroke:#191919;stroke-width:1;" x1="1275.0635" x2="1275.0635" y1="652.3232" y2="667.3232"/><polygon fill="#191919" points="1271.0635,657.3232,1275.0635,667.3232,1279.0635,657.3232,1275.0635,661.3232" style="stroke:#191919;stroke-width:1;"/><line style="stroke:#191919;stroke-width:1;" x1="1275.0635" x2="1275.0635" y1="755.2607" y2="760.2607"/><line style="stroke:#191919;stroke-width:1;" x1="1275.0635" x2="992.7559" y1="760.2607" y2="760.2607"/><line style="stroke:#191919;stroke-width:1;" x1="992.7559" x2="992.7559" y1="760.2607" y2="775.2607"/><polygon fill="#191919" points="988.7559,765.2607,992.7559,775.2607,996.7559,765.2607,992.7559,769.2607" style="stroke:#191919;stroke-width:1;"/><line style="stroke:#191919;stroke-width:1;" x1="992.7559" x2="992.7559" y1="809.2295" y2="814.2295"/><line style="stroke:#191919;stroke-width:1;" x1="992.7559" x2="541.9873" y1="814.2295" y2="814.2295"/><line style="stroke:#191919;stroke-width:1;" x1="541.9873" x2="541.9873" y1="814.2295" y2="829.2295"/><polygon fill="#191919" points="537.9873,819.2295,541.9873,829.2295,545.9873,819.2295,541.9873,823.2295" style="stroke:#191919;stroke-width:1;"/><line style="stroke:#191919;stroke-width:1;" x1="541.9873" x2="541.9873" y1="971.1357" y2="976.1357"/><line style="stroke:#191919;stroke-width:1;" x1="541.9873" x2="196.7412" y1="976.1357" y2="976.1357"/><line style="stroke:#191919;stroke-width:1;" x1="196.7412" x2="196.7412" y1="976.1357" y2="991.1357"/><polygon fill="#191919" points="192.7412,981.1357,196.7412,991.1357,200.7412,981.1357,196.7412,985.1357" style="stroke:#191919;stroke-width:1;"/><text fill="#000000" font-family="sans-serif" font-size="18" lengthAdjust="spacing" textLength="62.9736" x="164.2544" y="78.3906">Tenant</text><text fill="#000000" font-family="sans-serif" font-size="18" lengthAdjust="spacing" textLength="61.4707" x="578.8306" y="78.3906">Sistem</text><text fill="#000000" font-family="sans-serif" font-size="18" lengthAdjust="spacing" textLength="177.0469" x="903.2324" y="78.3906">e-Signature Service</text><text fill="#000000" font-family="sans-serif" font-size="18" lengthAdjust="spacing" textLength="58.7725" x="1244.6772" y="78.3906">Owner</text><g class="footer" data-source-line="5"><text fill="#888888" font-family="sans-serif" font-size="18" lengthAdjust="spacing" textLength="100.2744" x="661.9255" y="1137.7813">version 1.0</text></g><?plantuml-src lPD1Rzim38Nl-XLSJcs03EsmmsQVsWMzTCKA93iFJCpQd2NAa-WE7VBZHpjjaW9TbrDzCaIzzpvHL6vPEamOG5azNKNH1VyX-F3HvLtfAaQbjAkTVtBljA50431bDmfXSdBnPJux-tmA2wu5hcrpmXPcCEUQ5Vt4tOqkCBcdb3aAdBy_cpYtMPAWwCPj5foLWltGRB10xHF1Wj8zhybMl_qMIflz_goOr1KtcFiMMe8vAR9_2YvTSSkU6-X5hHu6KOMAKgCmj8zqcTPsGAYsYEMUeRWXZstVea2YNprb7I9ebdTWUGjM_WFN34ANOgOC7QN0ecXUEa30bkBbL7cWYd78zIpjg_JblXTReQUCF4WVWrzACo-FlkVH_WZu_n4lAN50aAXyPzcPdojMb1fRV2RvtjbHh85ggNb_NsP1aBXkr85zq-d9_F9qEWLFDVeVLLptrWOruvKdHr8DcUIAQpQ0mtoxfpYCIhaRcUCXY-N1-YjZycPTUuDcwJX3XyDqFDrNb9_z-3IMs607jnHM-62zajBUP-p-0W00?></g></svg>