<?plantuml 1.2026.2?><svg xmlns="http://www.w3.org/2000/svg" xmlns:xlink="http://www.w3.org/1999/xlink" contentStyleType="text/css" data-diagram-type="ACTIVITY" height="1238px" preserveAspectRatio="none" style="width:3363px;height:1238px;background:#F9F9F9;" version="1.1" viewBox="0 0 3363 1238" width="3363px" zoomAndPan="magnify"><title>Negosiasi Kontrak</title><defs/><g><rect fill="#F9F9F9" height="1238" style="stroke:none;stroke-width:1;" width="3363" x="0" y="0"/><g class="title" data-source-line="4"><text fill="#000000" font-family="sans-serif" font-size="24" font-weight="bold" lengthAdjust="spacing" textLength="247.2422" x="1556.725" y="42.2773">Negosiasi Kontrak</text></g><rect fill="none" height="20.9531" style="stroke:none;stroke-width:1;" width="3330.6923" x="15" y="61.6826"/><rect fill="#F1F1F1" height="47.9375" rx="3.5" ry="3.5" style="stroke:#181818;stroke-width:0.5;" width="161.5156" x="21" y="414.0732"/><text fill="#000000" font-family="sans-serif" font-size="12" lengthAdjust="spacing" textLength="141.5156" x="31" y="435.2119">Mendapatkan Notifikasi</text><text fill="#000000" font-family="sans-serif" font-size="12" lengthAdjust="spacing" textLength="92.8301" x="31" y="449.1807">Kontrak Ditolak</text><ellipse cx="101.7578" cy="508.0107" fill="none" rx="11" ry="11" style="stroke:#222222;stroke-width:1;"/><ellipse cx="101.7578" cy="508.0107" fill="#222222" rx="6" ry="6" style="stroke:#222222;stroke-width:1;"/><rect fill="#F1F1F1" height="47.9375" rx="3.5" ry="3.5" style="stroke:#181818;stroke-width:0.5;" width="161.5156" x="355.3687" y="702.3623"/><text fill="#000000" font-family="sans-serif" font-size="12" lengthAdjust="spacing" textLength="141.5156" x="365.3687" y="723.501">Mendapatkan Notifikasi</text><text fill="#000000" font-family="sans-serif" font-size="12" lengthAdjust="spacing" textLength="130.8574" x="365.3687" y="737.4697">Permintaan Negosiasi</text><rect fill="#F1F1F1" height="33.9688" rx="3.5" ry="3.5" style="stroke:#181818;stroke-width:0.5;" width="198.0254" x="337.1138" y="785.2998"/><text fill="#000000" font-family="sans-serif" font-size="12" lengthAdjust="spacing" textLength="178.0254" x="347.1138" y="806.4385">Review Permintaan Negosiasi</text><rect fill="#F1F1F1" height="33.9688" rx="3.5" ry="3.5" style="stroke:#181818;stroke-width:0.5;" width="237.5645" x="317.3442" y="854.2686"/><text fill="#000000" font-family="sans-serif" font-size="12" lengthAdjust="spacing" textLength="217.5645" x="327.3442" y="875.4072">Accept/Reject Permintaan Negosiasi</text><polygon fill="#F1F1F1" points="347.6619,908.2373,524.5911,908.2373,536.5911,920.2373,524.5911,932.2373,347.6619,932.2373,335.6619,920.2373,347.6619,908.2373" style="stroke:#181818;stroke-width:0.5;"/><text fill="#000000" font-family="sans-serif" font-size="11" lengthAdjust="spacing" textLength="176.9292" x="347.6619" y="924.0454">Permintaan Negosiasi Diterima?</text><text fill="#000000" font-family="sans-serif" font-size="11" lengthAdjust="spacing" textLength="13.46" x="322.2019" y="917.6431">Ya</text><text fill="#000000" font-family="sans-serif" font-size="11" lengthAdjust="spacing" textLength="29.8687" x="536.5911" y="917.6431">Tidak</text><rect fill="#F1F1F1" height="33.9688" rx="3.5" ry="3.5" style="stroke:#181818;stroke-width:0.5;" width="239.8145" x="192.5156" y="952.2373"/><text fill="#000000" font-family="sans-serif" font-size="12" lengthAdjust="spacing" textLength="219.8145" x="202.5156" y="973.376">Kembali Ke Tahap Membuat Kontrak</text><ellipse cx="312.4229" cy="1023.5029" fill="none" rx="11" ry="11" style="stroke:#222222;stroke-width:1;"/><ellipse cx="312.4229" cy="1023.5029" fill="#222222" rx="6" ry="6" style="stroke:#222222;stroke-width:1;"/><rect fill="#F1F1F1" height="47.9375" rx="3.5" ry="3.5" style="stroke:#181818;stroke-width:0.5;" width="161.5156" x="608.3083" y="527.042"/><text fill="#000000" font-family="sans-serif" font-size="12" lengthAdjust="spacing" textLength="141.5156" x="618.3083" y="548.1807">Mendapatkan Notifikasi</text><text fill="#000000" font-family="sans-serif" font-size="12" lengthAdjust="spacing" textLength="102.5449" x="618.3083" y="562.1494">Kontrak Diterima</text><ellipse cx="689.0662" cy="607.7842" fill="#F1F1F1" rx="10" ry="10" style="stroke:#181818;stroke-width:0.5;"/><path d="M692.3005,604.2061 L692.3005,605.4561 Q691.6912,604.8936 691.0193,604.6279 Q690.3474,604.3467 689.5818,604.3467 Q688.0818,604.3467 687.2849,605.2686 Q686.488,606.1904 686.488,607.9248 Q686.488,609.6436 687.2849,610.5654 Q688.0818,611.4873 689.5818,611.4873 Q690.3474,611.4873 691.0193,611.2061 Q691.6912,610.9248 692.3005,610.3779 L692.3005,611.6123 Q691.6755,612.0342 690.9724,612.2529 Q690.2849,612.4561 689.5193,612.4561 Q687.5193,612.4561 686.3787,611.2373 Q685.238,610.0186 685.238,607.9248 Q685.238,605.8154 686.3787,604.5967 Q687.5193,603.3779 689.5193,603.3779 Q690.3005,603.3779 690.988,603.5967 Q691.6912,603.7998 692.3005,604.2061 Z " fill="#000000"/><rect fill="#F1F1F1" height="33.9688" rx="3.5" ry="3.5" style="stroke:#181818;stroke-width:0.5;" width="225.2129" x="576.4597" y="763.8701"/><text fill="#000000" font-family="sans-serif" font-size="12" lengthAdjust="spacing" textLength="205.2129" x="586.4597" y="785.0088">Melakukan Tanda Tangan Kontrak</text><line style="stroke:#000000;stroke-width:1.5;" x1="15" x2="15" y1="61.6826" y2="1204.7061"/><path d="M1035.5867,347.5107 L1035.5867,363.6436 L1015.5867,367.6436 L1035.5867,371.6436 L1035.5867,387.7764 A0,0 0 0 0 1035.5867,387.7764 L1175.3894,387.7764 A0,0 0 0 0 1175.3894,387.7764 L1175.3894,357.5107 L1165.3894,347.5107 L1035.5867,347.5107 A0,0 0 0 0 1035.5867,347.5107" fill="#E5E5E5" style="stroke:#191919;stroke-width:1.5;"/><path d="M1165.3894,347.5107 L1165.3894,357.5107 L1175.3894,357.5107 L1165.3894,347.5107" fill="#E5E5E5" style="stroke:#191919;stroke-width:1.5;"/><text fill="#191919" font-family="sans-serif" font-size="13" font-weight="bold" lengthAdjust="spacing" textLength="32.5825" x="1041.5867" y="364.5776">(DB)</text><text fill="#191919" font-family="sans-serif" font-size="13" lengthAdjust="spacing" textLength="82.0879" x="1078.3015" y="364.5776">rentals table</text><text fill="#191919" font-family="sans-serif" font-size="13" lengthAdjust="spacing" textLength="110.4302" x="1041.5867" y="379.7104">status: cancelled</text><rect fill="#F1F1F1" height="33.9688" rx="3.5" ry="3.5" style="stroke:#181818;stroke-width:0.5;" width="203.9141" x="811.6726" y="350.6592"/><text fill="#000000" font-family="sans-serif" font-size="12" lengthAdjust="spacing" textLength="183.9141" x="821.6726" y="371.7979">Simpan Status Kontrak Ditolak</text><ellipse cx="1462.9117" cy="594.9795" fill="#F1F1F1" rx="10" ry="10" style="stroke:#181818;stroke-width:0.5;"/><path d="M1463.0211,591.1514 L1461.4117,595.4951 L1464.6305,595.4951 L1463.0211,591.1514 Z M1462.3492,589.9795 L1463.693,589.9795 L1467.0211,598.7295 L1465.7867,598.7295 L1464.9899,596.4795 L1461.0524,596.4795 L1460.2555,598.7295 L1459.0055,598.7295 L1462.3492,589.9795 Z " fill="#000000"/><path d="M1562.5826,634.6357 L1562.5826,650.7686 L1542.5826,654.7686 L1562.5826,658.7686 L1562.5826,674.9014 A0,0 0 0 0 1562.5826,674.9014 L1715.8488,674.9014 A0,0 0 0 0 1715.8488,674.9014 L1715.8488,644.6357 L1705.8488,634.6357 L1562.5826,634.6357 A0,0 0 0 0 1562.5826,634.6357" fill="#E5E5E5" style="stroke:#191919;stroke-width:1.5;"/><path d="M1705.8488,634.6357 L1705.8488,644.6357 L1715.8488,644.6357 L1705.8488,634.6357" fill="#E5E5E5" style="stroke:#191919;stroke-width:1.5;"/><text fill="#191919" font-family="sans-serif" font-size="13" font-weight="bold" lengthAdjust="spacing" textLength="32.5825" x="1568.5826" y="651.7026">(DB)</text><text fill="#191919" font-family="sans-serif" font-size="13" lengthAdjust="spacing" textLength="82.0879" x="1605.2975" y="651.7026">rentals table</text><text fill="#191919" font-family="sans-serif" font-size="13" lengthAdjust="spacing" textLength="132.2661" x="1568.5826" y="666.8354">status: renegotiated</text><rect fill="#F1F1F1" height="33.9688" rx="3.5" ry="3.5" style="stroke:#181818;stroke-width:0.5;" width="159.3418" x="1383.2408" y="637.7842"/><text fill="#000000" font-family="sans-serif" font-size="12" lengthAdjust="spacing" textLength="139.3418" x="1393.2408" y="658.9229">Simpan Data Negosiasi</text><path d="M1714.1154,952.2373 L1714.1154,968.3701 L1694.1154,972.3701 L1714.1154,976.3701 L1714.1154,992.5029 A0,0 0 0 0 1714.1154,992.5029 L1883.6886,992.5029 A0,0 0 0 0 1883.6886,992.5029 L1883.6886,962.2373 L1873.6886,952.2373 L1714.1154,952.2373 A0,0 0 0 0 1714.1154,952.2373" fill="#E5E5E5" style="stroke:#191919;stroke-width:1.5;"/><path d="M1873.6886,952.2373 L1873.6886,962.2373 L1883.6886,962.2373 L1873.6886,952.2373" fill="#E5E5E5" style="stroke:#191919;stroke-width:1.5;"/><text fill="#191919" font-family="sans-serif" font-size="13" font-weight="bold" lengthAdjust="spacing" textLength="32.5825" x="1720.1154" y="969.3042">(DB)</text><text fill="#191919" font-family="sans-serif" font-size="13" lengthAdjust="spacing" textLength="82.0879" x="1756.8302" y="969.3042">rentals table</text><text fill="#191919" font-family="sans-serif" font-size="13" lengthAdjust="spacing" textLength="148.5732" x="1720.1154" y="984.437">status: owner_rejected</text><rect fill="#F1F1F1" height="33.9688" rx="3.5" ry="3.5" style="stroke:#181818;stroke-width:0.5;" width="215" x="1479.1154" y="955.3857"/><text fill="#000000" font-family="sans-serif" font-size="12" lengthAdjust="spacing" textLength="195" x="1489.1154" y="976.5244">Simpan Status Negosiasi Ditolak</text><path d="M2127.3175,451.7764 L2127.3175,467.9092 L2107.3175,471.9092 L2127.3175,475.9092 L2127.3175,492.042 A0,0 0 0 0 2127.3175,492.042 L2312.5441,492.042 A0,0 0 0 0 2312.5441,492.042 L2312.5441,461.7764 L2302.5441,451.7764 L2127.3175,451.7764 A0,0 0 0 0 2127.3175,451.7764" fill="#E5E5E5" style="stroke:#191919;stroke-width:1.5;"/><path d="M2302.5441,451.7764 L2302.5441,461.7764 L2312.5441,461.7764 L2302.5441,451.7764" fill="#E5E5E5" style="stroke:#191919;stroke-width:1.5;"/><text fill="#191919" font-family="sans-serif" font-size="13" font-weight="bold" lengthAdjust="spacing" textLength="32.5825" x="2133.3175" y="468.8433">(DB)</text><text fill="#191919" font-family="sans-serif" font-size="13" lengthAdjust="spacing" textLength="82.0879" x="2170.0323" y="468.8433">rentals table</text><text fill="#191919" font-family="sans-serif" font-size="13" lengthAdjust="spacing" textLength="164.2266" x="2133.3175" y="483.9761">status: tenants_accepted</text><rect fill="#F1F1F1" height="33.9688" rx="3.5" ry="3.5" style="stroke:#181818;stroke-width:0.5;" width="213.6289" x="1893.6886" y="454.9248"/><text fill="#000000" font-family="sans-serif" font-size="12" lengthAdjust="spacing" textLength="193.6289" x="1903.6886" y="476.0635">Simpan Status Kontrak Diterima</text><rect fill="#F1F1F1" height="33.9688" rx="3.5" ry="3.5" style="stroke:#181818;stroke-width:0.5;" width="187.4375" x="1906.7843" y="832.8389"/><text fill="#000000" font-family="sans-serif" font-size="12" lengthAdjust="spacing" textLength="167.4375" x="1916.7843" y="853.9775">Simpan Data Tanda Tangan</text><rect fill="#F1F1F1" height="33.9688" rx="3.5" ry="3.5" style="stroke:#181818;stroke-width:0.5;" width="195.9512" x="1185.3894" y="1128.7373"/><text fill="#000000" font-family="sans-serif" font-size="12" lengthAdjust="spacing" textLength="175.9512" x="1195.3894" y="1149.876">Lanjut ke Tahap Pembayaran</text><ellipse cx="1283.365" cy="1193.7061" fill="none" rx="11" ry="11" style="stroke:#222222;stroke-width:1;"/><ellipse cx="1283.365" cy="1193.7061" fill="#222222" rx="6" ry="6" style="stroke:#222222;stroke-width:1;"/><line style="stroke:#000000;stroke-width:1.5;" x1="805.6726" x2="805.6726" y1="61.6826" y2="1204.7061"/><ellipse cx="2492.0227" cy="97.6357" fill="#222222" rx="10" ry="10" style="stroke:#222222;stroke-width:1;"/><rect fill="#F1F1F1" height="47.9375" rx="3.5" ry="3.5" style="stroke:#181818;stroke-width:0.5;" width="161.5156" x="2411.2649" y="127.6357"/><text fill="#000000" font-family="sans-serif" font-size="12" lengthAdjust="spacing" textLength="141.5156" x="2421.2649" y="148.7744">Mendapatkan Notifikasi</text><text fill="#000000" font-family="sans-serif" font-size="12" lengthAdjust="spacing" textLength="132.041" x="2421.2649" y="162.7432">Kontrak Sudah Dibuat</text><rect fill="#F1F1F1" height="33.9688" rx="3.5" ry="3.5" style="stroke:#181818;stroke-width:0.5;" width="130.8652" x="2426.5901" y="195.5732"/><text fill="#000000" font-family="sans-serif" font-size="12" lengthAdjust="spacing" textLength="110.8652" x="2436.5901" y="216.7119">Review Isi Kontrak</text><rect fill="#F1F1F1" height="33.9688" rx="3.5" ry="3.5" style="stroke:#181818;stroke-width:0.5;" width="154.3789" x="2414.8333" y="249.542"/><text fill="#000000" font-family="sans-serif" font-size="12" lengthAdjust="spacing" textLength="134.3789" x="2424.8333" y="270.6807">Terima/Reject Kontrak</text><polygon fill="#F1F1F1" points="2442.1038,303.5107,2541.9417,303.5107,2553.9417,315.5107,2541.9417,327.5107,2442.1038,327.5107,2430.1038,315.5107,2442.1038,303.5107" style="stroke:#181818;stroke-width:0.5;"/><text fill="#000000" font-family="sans-serif" font-size="11" lengthAdjust="spacing" textLength="99.8379" x="2442.1038" y="319.3188">Kontrak Diterima?</text><text fill="#000000" font-family="sans-serif" font-size="11" lengthAdjust="spacing" textLength="29.8687" x="2400.2351" y="312.9165">Tidak</text><text fill="#000000" font-family="sans-serif" font-size="11" lengthAdjust="spacing" textLength="13.46" x="2553.9417" y="312.9165">Ya</text><rect fill="#F1F1F1" height="33.9688" rx="3.5" ry="3.5" style="stroke:#181818;stroke-width:0.5;" width="302.7148" x="2801.9037" y="347.5107"/><text fill="#000000" font-family="sans-serif" font-size="12" lengthAdjust="spacing" textLength="282.7148" x="2811.9037" y="368.6494">Negosiasi/Lanjut Proses Tanda Tangan Kontrak</text><polygon fill="#F1F1F1" points="2923.8302,407.7764,2982.692,407.7764,2994.692,419.7764,2982.692,431.7764,2923.8302,431.7764,2911.8302,419.7764,2923.8302,407.7764" style="stroke:#181818;stroke-width:0.5;"/><text fill="#000000" font-family="sans-serif" font-size="11" lengthAdjust="spacing" textLength="58.8618" x="2923.8302" y="423.5845">Negosiasi?</text><text fill="#000000" font-family="sans-serif" font-size="11" lengthAdjust="spacing" textLength="13.46" x="2898.3702" y="417.1821">Ya</text><text fill="#000000" font-family="sans-serif" font-size="11" lengthAdjust="spacing" textLength="29.8687" x="2994.692" y="417.1821">Tidak</text><path d="M2322.5441,451.7764 L2322.5441,507.1748 A0,0 0 0 0 2322.5441,507.1748 L2570.4601,507.1748 A0,0 0 0 0 2570.4601,507.1748 L2570.4601,483.4756 L2590.4601,479.4756 L2570.4601,475.4756 L2570.4601,461.7764 L2560.4601,451.7764 L2322.5441,451.7764 A0,0 0 0 0 2322.5441,451.7764" fill="#E5E5E5" style="stroke:#191919;stroke-width:1.5;"/><path d="M2560.4601,451.7764 L2560.4601,461.7764 L2570.4601,461.7764 L2560.4601,451.7764" fill="#E5E5E5" style="stroke:#191919;stroke-width:1.5;"/><text fill="#191919" font-family="sans-serif" font-size="13" font-weight="bold" lengthAdjust="spacing" textLength="34.5503" x="2328.5441" y="468.8433">Data</text><text fill="#191919" font-family="sans-serif" font-size="13" lengthAdjust="spacing" textLength="4.3799" x="2363.0944" y="468.8433">:</text><text fill="#191919" font-family="sans-serif" font-size="13" lengthAdjust="spacing" textLength="226.916" x="2328.5441" y="483.9761">Bagian Kontrak yang Ingin Diubah,</text><text fill="#191919" font-family="sans-serif" font-size="13" lengthAdjust="spacing" textLength="117.6665" x="2328.5441" y="499.1089">Alasan Perubahan</text><rect fill="#F1F1F1" height="33.9688" rx="3.5" ry="3.5" style="stroke:#181818;stroke-width:0.5;" width="162.2188" x="2590.4601" y="462.4912"/><text fill="#000000" font-family="sans-serif" font-size="12" lengthAdjust="spacing" textLength="142.2188" x="2600.4601" y="483.6299">Mengisi Form Negosiasi</text><ellipse cx="2671.5695" cy="552.1748" fill="#F1F1F1" rx="10" ry="10" style="stroke:#181818;stroke-width:0.5;"/><path d="M2671.6788,548.3467 L2670.0695,552.6904 L2673.2882,552.6904 L2671.6788,548.3467 Z M2671.007,547.1748 L2672.3507,547.1748 L2675.6788,555.9248 L2674.4445,555.9248 L2673.6476,553.6748 L2669.7101,553.6748 L2668.9132,555.9248 L2667.6632,555.9248 L2671.007,547.1748 Z " fill="#000000"/><rect fill="#F1F1F1" height="47.9375" rx="3.5" ry="3.5" style="stroke:#181818;stroke-width:0.5;" width="196.9297" x="2696.8082" y="1018.7998"/><text fill="#000000" font-family="sans-serif" font-size="12" lengthAdjust="spacing" textLength="141.5156" x="2706.8082" y="1039.9385">Mendapatkan Notifikasi</text><text fill="#000000" font-family="sans-serif" font-size="12" lengthAdjust="spacing" textLength="176.9297" x="2706.8082" y="1053.9072">Permintaan Negosiasi Ditolak</text><ellipse cx="2795.2731" cy="1097.7373" fill="none" rx="11" ry="11" style="stroke:#222222;stroke-width:1;"/><ellipse cx="2795.2731" cy="1097.7373" fill="#222222" rx="6" ry="6" style="stroke:#222222;stroke-width:1;"/><ellipse cx="3227.225" cy="657.4404" fill="#F1F1F1" rx="10" ry="10" style="stroke:#181818;stroke-width:0.5;"/><path d="M3230.4594,653.8623 L3230.4594,655.1123 Q3229.85,654.5498 3229.1781,654.2842 Q3228.5062,654.0029 3227.7406,654.0029 Q3226.2406,654.0029 3225.4437,654.9248 Q3224.6469,655.8467 3224.6469,657.5811 Q3224.6469,659.2998 3225.4437,660.2217 Q3226.2406,661.1436 3227.7406,661.1436 Q3228.5062,661.1436 3229.1781,660.8623 Q3229.85,660.5811 3230.4594,660.0342 L3230.4594,661.2686 Q3229.8344,661.6904 3229.1312,661.9092 Q3228.4437,662.1123 3227.6781,662.1123 Q3225.6781,662.1123 3224.5375,660.8936 Q3223.3969,659.6748 3223.3969,657.5811 Q3223.3969,655.4717 3224.5375,654.2529 Q3225.6781,653.0342 3227.6781,653.0342 Q3228.4594,653.0342 3229.1469,653.2529 Q3229.85,653.4561 3230.4594,653.8623 Z " fill="#000000"/><rect fill="#F1F1F1" height="33.9688" rx="3.5" ry="3.5" style="stroke:#181818;stroke-width:0.5;" width="225.2129" x="3114.6185" y="694.9014"/><text fill="#000000" font-family="sans-serif" font-size="12" lengthAdjust="spacing" textLength="205.2129" x="3124.6185" y="716.04">Melakukan Tanda Tangan Kontrak</text><line style="stroke:#000000;stroke-width:1.5;" x1="2317.5441" x2="2317.5441" y1="61.6826" y2="1204.7061"/><line style="stroke:#000000;stroke-width:1.5;" x1="3343.8314" x2="3343.8314" y1="61.6826" y2="1204.7061"/><line style="stroke:#191919;stroke-width:1;" x1="101.7578" x2="101.7578" y1="462.0107" y2="497.0107"/><polygon fill="#191919" points="97.7578,487.0107,101.7578,497.0107,105.7578,487.0107,101.7578,491.0107" style="stroke:#191919;stroke-width:1;"/><line style="stroke:#191919;stroke-width:1;" x1="436.1265" x2="436.1265" y1="750.2998" y2="785.2998"/><polygon fill="#191919" points="432.1265,775.2998,436.1265,785.2998,440.1265,775.2998,436.1265,779.2998" style="stroke:#191919;stroke-width:1;"/><line style="stroke:#191919;stroke-width:1;" x1="436.1265" x2="436.1265" y1="819.2686" y2="854.2686"/><polygon fill="#191919" points="432.1265,844.2686,436.1265,854.2686,440.1265,844.2686,436.1265,848.2686" style="stroke:#191919;stroke-width:1;"/><line style="stroke:#191919;stroke-width:1;" x1="312.4229" x2="312.4229" y1="986.2061" y2="1012.5029"/><polygon fill="#191919" points="308.4229,1002.5029,312.4229,1012.5029,316.4229,1002.5029,312.4229,1006.5029" style="stroke:#191919;stroke-width:1;"/><line style="stroke:#191919;stroke-width:1;" x1="335.6619" x2="312.4229" y1="920.2373" y2="920.2373"/><line style="stroke:#191919;stroke-width:1;" x1="312.4229" x2="312.4229" y1="920.2373" y2="952.2373"/><polygon fill="#191919" points="308.4229,942.2373,312.4229,952.2373,316.4229,942.2373,312.4229,946.2373" style="stroke:#191919;stroke-width:1;"/><line style="stroke:#191919;stroke-width:1;" x1="436.1265" x2="436.1265" y1="888.2373" y2="908.2373"/><polygon fill="#191919" points="432.1265,898.2373,436.1265,908.2373,440.1265,898.2373,436.1265,902.2373" style="stroke:#191919;stroke-width:1;"/><line style="stroke:#191919;stroke-width:1;" x1="689.0662" x2="689.0662" y1="574.9795" y2="597.7842"/><polygon fill="#191919" points="685.0662,587.7842,689.0662,597.7842,693.0662,587.7842,689.0662,591.7842" style="stroke:#191919;stroke-width:1;"/><line style="stroke:#191919;stroke-width:1;" x1="1462.9117" x2="1462.9117" y1="604.9795" y2="637.7842"/><polygon fill="#191919" points="1458.9117,627.7842,1462.9117,637.7842,1466.9117,627.7842,1462.9117,631.7842" style="stroke:#191919;stroke-width:1;"/><line style="stroke:#191919;stroke-width:1;" x1="1283.365" x2="1283.365" y1="1162.7061" y2="1182.7061"/><polygon fill="#191919" points="1279.365,1172.7061,1283.365,1182.7061,1287.365,1172.7061,1283.365,1176.7061" style="stroke:#191919;stroke-width:1;"/><line style="stroke:#191919;stroke-width:1;" x1="2492.0227" x2="2492.0227" y1="107.6357" y2="127.6357"/><polygon fill="#191919" points="2488.0227,117.6357,2492.0227,127.6357,2496.0227,117.6357,2492.0227,121.6357" style="stroke:#191919;stroke-width:1;"/><line style="stroke:#191919;stroke-width:1;" x1="2492.0227" x2="2492.0227" y1="175.5732" y2="195.5732"/><polygon fill="#191919" points="2488.0227,185.5732,2492.0227,195.5732,2496.0227,185.5732,2492.0227,189.5732" style="stroke:#191919;stroke-width:1;"/><line style="stroke:#191919;stroke-width:1;" x1="2492.0227" x2="2492.0227" y1="229.542" y2="249.542"/><polygon fill="#191919" points="2488.0227,239.542,2492.0227,249.542,2496.0227,239.542,2492.0227,243.542" style="stroke:#191919;stroke-width:1;"/><line style="stroke:#191919;stroke-width:1;" x1="2671.5695" x2="2671.5695" y1="496.46" y2="542.1748"/><polygon fill="#191919" points="2667.5695,532.1748,2671.5695,542.1748,2675.5695,532.1748,2671.5695,536.1748" style="stroke:#191919;stroke-width:1;"/><line style="stroke:#191919;stroke-width:1;" x1="2795.2731" x2="2795.2731" y1="1066.7373" y2="1086.7373"/><polygon fill="#191919" points="2791.2731,1076.7373,2795.2731,1086.7373,2799.2731,1076.7373,2795.2731,1080.7373" style="stroke:#191919;stroke-width:1;"/><line style="stroke:#191919;stroke-width:1;" x1="3227.225" x2="3227.225" y1="667.4404" y2="694.9014"/><polygon fill="#191919" points="3223.225,684.9014,3227.225,694.9014,3231.225,684.9014,3227.225,688.9014" style="stroke:#191919;stroke-width:1;"/><line style="stroke:#191919;stroke-width:1;" x1="2911.8302" x2="2671.5695" y1="419.7764" y2="419.7764"/><line style="stroke:#191919;stroke-width:1;" x1="2671.5695" x2="2671.5695" y1="419.7764" y2="462.4912"/><polygon fill="#191919" points="2667.5695,452.4912,2671.5695,462.4912,2675.5695,452.4912,2671.5695,456.4912" style="stroke:#191919;stroke-width:1;"/><line style="stroke:#191919;stroke-width:1;" x1="2953.2611" x2="2953.2611" y1="381.4795" y2="407.7764"/><polygon fill="#191919" points="2949.2611,397.7764,2953.2611,407.7764,2957.2611,397.7764,2953.2611,401.7764" style="stroke:#191919;stroke-width:1;"/><line style="stroke:#191919;stroke-width:1;" x1="2553.9417" x2="2953.2611" y1="315.5107" y2="315.5107"/><line style="stroke:#191919;stroke-width:1;" x1="2953.2611" x2="2953.2611" y1="315.5107" y2="347.5107"/><polygon fill="#191919" points="2949.2611,337.5107,2953.2611,347.5107,2957.2611,337.5107,2953.2611,341.5107" style="stroke:#191919;stroke-width:1;"/><line style="stroke:#191919;stroke-width:1;" x1="2000.5031" x2="2000.5031" y1="866.8076" y2="1113.7373"/><line style="stroke:#191919;stroke-width:1;" x1="2000.5031" x2="1283.365" y1="1113.7373" y2="1113.7373"/><line style="stroke:#191919;stroke-width:1;" x1="1283.365" x2="1283.365" y1="1113.7373" y2="1128.7373"/><polygon fill="#191919" points="1279.365,1118.7373,1283.365,1128.7373,1287.365,1118.7373,1283.365,1122.7373" style="stroke:#191919;stroke-width:1;"/><line style="stroke:#191919;stroke-width:1;" x1="2492.0227" x2="2492.0227" y1="283.5107" y2="303.5107"/><polygon fill="#191919" points="2488.0227,293.5107,2492.0227,303.5107,2496.0227,293.5107,2492.0227,297.5107" style="stroke:#191919;stroke-width:1;"/><line style="stroke:#191919;stroke-width:1;" x1="913.6296" x2="913.6296" y1="384.6279" y2="394.999"/><line style="stroke:#191919;stroke-width:1;" x1="913.6296" x2="101.7578" y1="394.999" y2="394.999"/><line style="stroke:#191919;stroke-width:1;" x1="101.7578" x2="101.7578" y1="394.999" y2="414.0732"/><polygon fill="#191919" points="97.7578,404.0732,101.7578,414.0732,105.7578,404.0732,101.7578,408.0732" style="stroke:#191919;stroke-width:1;"/><line style="stroke:#191919;stroke-width:1;" x1="1462.9117" x2="1462.9117" y1="671.7529" y2="683.2881"/><line style="stroke:#191919;stroke-width:1;" x1="1462.9117" x2="436.1265" y1="683.2881" y2="683.2881"/><line style="stroke:#191919;stroke-width:1;" x1="436.1265" x2="436.1265" y1="683.2881" y2="702.3623"/><polygon fill="#191919" points="432.1265,692.3623,436.1265,702.3623,440.1265,692.3623,436.1265,696.3623" style="stroke:#191919;stroke-width:1;"/><line style="stroke:#191919;stroke-width:1;" x1="1586.6154" x2="1586.6154" y1="989.3545" y2="999.7256"/><line style="stroke:#191919;stroke-width:1;" x1="1586.6154" x2="2795.2731" y1="999.7256" y2="999.7256"/><line style="stroke:#191919;stroke-width:1;" x1="2795.2731" x2="2795.2731" y1="999.7256" y2="1018.7998"/><polygon fill="#191919" points="2791.2731,1008.7998,2795.2731,1018.7998,2799.2731,1008.7998,2795.2731,1012.7998" style="stroke:#191919;stroke-width:1;"/><line style="stroke:#191919;stroke-width:1;" x1="536.5911" x2="1586.6154" y1="920.2373" y2="920.2373"/><line style="stroke:#191919;stroke-width:1;" x1="1586.6154" x2="1586.6154" y1="920.2373" y2="955.3857"/><polygon fill="#191919" points="1582.6154,945.3857,1586.6154,955.3857,1590.6154,945.3857,1586.6154,949.3857" style="stroke:#191919;stroke-width:1;"/><line style="stroke:#191919;stroke-width:1;" x1="2000.5031" x2="2000.5031" y1="488.8936" y2="507.9678"/><line style="stroke:#191919;stroke-width:1;" x1="2000.5031" x2="689.0662" y1="507.9678" y2="507.9678"/><line style="stroke:#191919;stroke-width:1;" x1="689.0662" x2="689.0662" y1="507.9678" y2="527.042"/><polygon fill="#191919" points="685.0662,517.042,689.0662,527.042,693.0662,517.042,689.0662,521.042" style="stroke:#191919;stroke-width:1;"/><line style="stroke:#191919;stroke-width:1;" x1="3227.225" x2="3227.225" y1="728.8701" y2="746.3701"/><line style="stroke:#191919;stroke-width:1;" x1="3227.225" x2="689.0662" y1="746.3701" y2="746.3701"/><line style="stroke:#191919;stroke-width:1;" x1="689.0662" x2="689.0662" y1="746.3701" y2="763.8701"/><polygon fill="#191919" points="685.0662,753.8701,689.0662,763.8701,693.0662,753.8701,689.0662,757.8701" style="stroke:#191919;stroke-width:1;"/><line style="stroke:#191919;stroke-width:1;" x1="689.0662" x2="689.0662" y1="797.8389" y2="815.3389"/><line style="stroke:#191919;stroke-width:1;" x1="689.0662" x2="2000.5031" y1="815.3389" y2="815.3389"/><line style="stroke:#191919;stroke-width:1;" x1="2000.5031" x2="2000.5031" y1="815.3389" y2="832.8389"/><polygon fill="#191919" points="1996.5031,822.8389,2000.5031,832.8389,2004.5031,822.8389,2000.5031,826.8389" style="stroke:#191919;stroke-width:1;"/><line style="stroke:#191919;stroke-width:1;" x1="2994.692" x2="3006.692" y1="419.7764" y2="419.7764"/><line style="stroke:#191919;stroke-width:1;" x1="3006.692" x2="3006.692" y1="419.7764" y2="437.7764"/><line style="stroke:#191919;stroke-width:1;" x1="3006.692" x2="2000.5031" y1="437.7764" y2="437.7764"/><line style="stroke:#191919;stroke-width:1;" x1="2000.5031" x2="2000.5031" y1="437.7764" y2="454.9248"/><polygon fill="#191919" points="1996.5031,444.9248,2000.5031,454.9248,2004.5031,444.9248,2000.5031,448.9248" style="stroke:#191919;stroke-width:1;"/><line style="stroke:#191919;stroke-width:1;" x1="2430.1038" x2="913.6296" y1="315.5107" y2="315.5107"/><line style="stroke:#191919;stroke-width:1;" x1="913.6296" x2="913.6296" y1="315.5107" y2="350.6592"/><polygon fill="#191919" points="909.6296,340.6592,913.6296,350.6592,917.6296,340.6592,913.6296,344.6592" style="stroke:#191919;stroke-width:1;"/><text fill="#000000" font-family="sans-serif" font-size="18" lengthAdjust="spacing" textLength="58.7725" x="380.9501" y="78.3906">Owner</text><text fill="#000000" font-family="sans-serif" font-size="18" lengthAdjust="spacing" textLength="61.4707" x="1530.873" y="78.3906">Sistem</text><text fill="#000000" font-family="sans-serif" font-size="18" lengthAdjust="spacing" textLength="62.9736" x="2799.2009" y="78.3906">Tenant</text><g class="footer" data-source-line="5"><text fill="#888888" font-family="sans-serif" font-size="18" lengthAdjust="spacing" textLength="100.2744" x="1630.2089" y="1221.4141">version 1.0</text></g><?plantuml-src hLN1RXen4BtxAwQS05LDK_LGmQ4YHKXHcXG5BfKgHGCCuB3hHVQGA1KVtx5XlRk13QZA7bQiFJD-yzuRurRQhD5Y2gmveK5cUAJ_4dpvgbpS6cGPaurxbz_K1rvIIf2YTIeaGkEE5fdJw3JSIA35LKFDGnuqdiWwdHcu_FIveRQ_dWtPhTgEj6DAvSUO31hUAiTeMNLkoSnmZRn20tSPwxbUITK_PbyMHfiPBg6l9nlahkhSqvEcPxWk3fR5CLcTuiKzFTAKYtKzXsPUfgyv17rlWJHZe3dMCror5CWJiVcFpaYdQy4oOkIDWr9-blYYFiP8es3rOidXqp_jThD_rMgtmP9XJ1mmJXAAsovKwy0KpPIIX6PXHreFjNOezam54ATOgS1ndAqL9OwW-HltBUKiXsfHh8kVQ1ut34EREN8mHZd5lnToJAJDftZgObRaBA-UGrneaM6GsHHYR3S6198IcXSSxNZg8sExtQciNk525n3WHH31jPGtqkXcWikFbUXUWawYXsJz7fguMU7JFyrU0NX6ZDDb_Ao8_ZesDu77MjjRrG1dcA1i18cGigoHzruuYh_iYJTz8LoaMixqouTmywav4TMRJcdD-HYz7UmDSYpYSD3AfWd7t50wmKJcbyHwIrp3hIp8T5STM10cveu41PENHhTMpIEZNC5OJCy9JS_KjQnjvaLxi876ahf75JuOrl-I-dX7LUhCJCzLBOa71DRVWq7Uzvm53ksx1mp-UvTvg8VR_55_9RpMeHmhHmd16tzG_RLPW_7Cn3e9mYrKpksgGj7TkxE_s5VvJ0tzaBt8_xa4Un_y0m00?></g></svg>