<?plantuml 1.2026.2?><svg xmlns="http://www.w3.org/2000/svg" xmlns:xlink="http://www.w3.org/1999/xlink" contentStyleType="text/css" data-diagram-type="ACTIVITY" height="1192px" preserveAspectRatio="none" style="width:1144px;height:1192px;background:#F9F9F9;" version="1.1" viewBox="0 0 1144 1192" width="1144px" zoomAndPan="magnify"><title>Registrasi</title><defs/><g><rect fill="#F9F9F9" height="1192" style="stroke:none;stroke-width:1;" width="1144" x="0" y="0"/><g class="title" data-source-line="4"><text fill="#000000" font-family="sans-serif" font-size="24" font-weight="bold" lengthAdjust="spacing" textLength="136.4648" x="502.7415" y="42.2773">Registrasi</text></g><rect fill="none" height="20.9531" style="stroke:none;stroke-width:1;" width="1111.9478" x="15" y="61.6826"/><ellipse cx="212.959" cy="97.6357" fill="#222222" rx="10" ry="10" style="stroke:#222222;stroke-width:1;"/><path d="M328.2979,161.6357 L328.2979,185.335 L308.2979,189.335 L328.2979,193.335 L328.2979,217.0342 A0,0 0 0 0 328.2979,217.0342 L467.5547,217.0342 A0,0 0 0 0 467.5547,217.0342 L467.5547,171.6357 L457.5547,161.6357 L328.2979,161.6357 A0,0 0 0 0 328.2979,161.6357" fill="#E5E5E5" style="stroke:#191919;stroke-width:1.5;"/><path d="M457.5547,161.6357 L457.5547,171.6357 L467.5547,171.6357 L457.5547,161.6357" fill="#E5E5E5" style="stroke:#191919;stroke-width:1.5;"/><text fill="#191919" font-family="sans-serif" font-size="13" font-weight="bold" lengthAdjust="spacing" textLength="39.749" x="334.2979" y="178.7026">Data:</text><text fill="#191919" font-family="sans-serif" font-size="13" lengthAdjust="spacing" textLength="118.2568" x="334.2979" y="193.8354">role, email, nama,</text><text fill="#191919" font-family="sans-serif" font-size="13" lengthAdjust="spacing" textLength="112.2837" x="334.2979" y="208.9683">no. HP, password</text><rect fill="#F1F1F1" height="33.9688" rx="3.5" ry="3.5" style="stroke:#181818;stroke-width:0.5;" width="190.6777" x="117.6201" y="172.3506"/><text fill="#000000" font-family="sans-serif" font-size="12" lengthAdjust="spacing" textLength="170.6777" x="127.6201" y="193.4893">Isi Form Registrasi &amp; Submit</text><polygon fill="#F1F1F1" points="212.959,127.6357,224.959,139.6357,212.959,151.6357,200.959,139.6357,212.959,127.6357" style="stroke:#181818;stroke-width:0.5;"/><rect fill="#F1F1F1" height="33.9688" rx="3.5" ry="3.5" style="stroke:#181818;stroke-width:0.5;" width="112.9238" x="156.4971" y="645.2144"/><text fill="#000000" font-family="sans-serif" font-size="12" lengthAdjust="spacing" textLength="92.9238" x="166.4971" y="666.353">Input Kode OTP</text><rect fill="#F1F1F1" height="33.9688" rx="3.5" ry="3.5" style="stroke:#181818;stroke-width:0.5;" width="154.6602" x="21" y="1044.4604"/><text fill="#000000" font-family="sans-serif" font-size="12" lengthAdjust="spacing" textLength="134.6602" x="31" y="1065.5991">Minta Kirim Ulang OTP</text><ellipse cx="98.3301" cy="1108.4292" fill="#F1F1F1" rx="10" ry="10" style="stroke:#181818;stroke-width:0.5;"/><path d="M98.4395,1104.6011 L96.8301,1108.9448 L100.0488,1108.9448 L98.4395,1104.6011 Z M97.7676,1103.4292 L99.1113,1103.4292 L102.4395,1112.1792 L101.2051,1112.1792 L100.4082,1109.9292 L96.4707,1109.9292 L95.6738,1112.1792 L94.4238,1112.1792 L97.7676,1103.4292 Z " fill="#000000"/><line style="stroke:#000000;stroke-width:1.5;" x1="15" x2="15" y1="61.6826" y2="1158.4292"/><rect fill="#F1F1F1" height="47.9375" rx="3.5" ry="3.5" style="stroke:#181818;stroke-width:0.5;" width="159.166" x="607.1582" y="252.0342"/><text fill="#000000" font-family="sans-serif" font-size="12" lengthAdjust="spacing" textLength="139.166" x="617.1582" y="273.1729">Validasi Format Data &amp;</text><text fill="#000000" font-family="sans-serif" font-size="12" lengthAdjust="spacing" textLength="92.127" x="617.1582" y="287.1416">Duplikasi Email</text><polygon fill="#F1F1F1" points="655.2612,319.9717,718.2212,319.9717,730.2212,331.9717,718.2212,343.9717,655.2612,343.9717,643.2612,331.9717,655.2612,319.9717" style="stroke:#181818;stroke-width:0.5;"/><text fill="#000000" font-family="sans-serif" font-size="11" lengthAdjust="spacing" textLength="62.96" x="655.2612" y="335.7798">Data Valid?</text><text fill="#000000" font-family="sans-serif" font-size="11" lengthAdjust="spacing" textLength="29.8687" x="730.2212" y="329.3774">Tidak</text><rect fill="#F1F1F1" height="33.9688" rx="3.5" ry="3.5" style="stroke:#181818;stroke-width:0.5;" width="155.75" x="965.3369" y="213.8193"/><text fill="#000000" font-family="sans-serif" font-size="12" lengthAdjust="spacing" textLength="135.75" x="975.3369" y="234.958">Tampilkan Pesan Error</text><rect fill="#F1F1F1" height="33.9688" rx="3.5" ry="3.5" style="stroke:#181818;stroke-width:0.5;" width="110.8496" x="631.3164" y="385.3706"/><text fill="#000000" font-family="sans-serif" font-size="12" lengthAdjust="spacing" textLength="90.8496" x="641.3164" y="406.5093">Hash Password</text><path d="M762.0752,450.7417 L762.0752,459.3081 L742.0752,463.3081 L762.0752,467.3081 L762.0752,475.8745 A0,0 0 0 0 762.0752,475.8745 L973.7651,475.8745 A0,0 0 0 0 973.7651,475.8745 L973.7651,460.7417 L963.7651,450.7417 L762.0752,450.7417 A0,0 0 0 0 762.0752,450.7417" fill="#E5E5E5" style="stroke:#191919;stroke-width:1.5;"/><path d="M963.7651,450.7417 L963.7651,460.7417 L973.7651,460.7417 L963.7651,450.7417" fill="#E5E5E5" style="stroke:#191919;stroke-width:1.5;"/><text fill="#191919" font-family="sans-serif" font-size="13" font-weight="bold" lengthAdjust="spacing" textLength="32.5825" x="768.0752" y="467.8086">(DB)</text><text fill="#191919" font-family="sans-serif" font-size="13" lengthAdjust="spacing" textLength="153.9751" x="804.79" y="467.8086">users_registration table</text><rect fill="#F1F1F1" height="47.9375" rx="3.5" ry="3.5" style="stroke:#181818;stroke-width:0.5;" width="110.668" x="631.4072" y="439.3394"/><text fill="#000000" font-family="sans-serif" font-size="12" lengthAdjust="spacing" textLength="77.6836" x="641.4072" y="460.478">Simpan Data</text><text fill="#000000" font-family="sans-serif" font-size="12" lengthAdjust="spacing" textLength="90.668" x="641.4072" y="474.4468">Registrasi User</text><ellipse cx="686.7412" cy="517.2769" fill="#F1F1F1" rx="10" ry="10" style="stroke:#181818;stroke-width:0.5;"/><path d="M686.8506,513.4487 L685.2412,517.7925 L688.46,517.7925 L686.8506,513.4487 Z M686.1787,512.2769 L687.5225,512.2769 L690.8506,521.0269 L689.6162,521.0269 L688.8193,518.7769 L684.8818,518.7769 L684.085,521.0269 L682.835,521.0269 L686.1787,512.2769 Z " fill="#000000"/><ellipse cx="686.7412" cy="547.2769" fill="#F1F1F1" rx="10" ry="10" style="stroke:#181818;stroke-width:0.5;"/><path d="M686.8506,543.4487 L685.2412,547.7925 L688.46,547.7925 L686.8506,543.4487 Z M686.1787,542.2769 L687.5225,542.2769 L690.8506,551.0269 L689.6162,551.0269 L688.8193,548.7769 L684.8818,548.7769 L684.085,551.0269 L682.835,551.0269 L686.1787,542.2769 Z " fill="#000000"/><rect fill="#F1F1F1" height="47.9375" rx="3.5" ry="3.5" style="stroke:#181818;stroke-width:0.5;" width="102.7227" x="635.3799" y="577.2769"/><text fill="#000000" font-family="sans-serif" font-size="12" lengthAdjust="spacing" textLength="76.043" x="645.3799" y="598.4155">Buat &amp; Kirim</text><text fill="#000000" font-family="sans-serif" font-size="12" lengthAdjust="spacing" textLength="82.7227" x="645.3799" y="612.3843">OTP via Email</text><rect fill="#F1F1F1" height="33.9688" rx="3.5" ry="3.5" style="stroke:#181818;stroke-width:0.5;" width="137.1582" x="618.1621" y="699.1831"/><text fill="#000000" font-family="sans-serif" font-size="12" lengthAdjust="spacing" textLength="117.1582" x="628.1621" y="720.3218">Verifikasi Kode OTP</text><polygon fill="#F1F1F1" points="652.9436,753.1519,720.5388,753.1519,732.5388,765.1519,720.5388,777.1519,652.9436,777.1519,640.9436,765.1519,652.9436,753.1519" style="stroke:#181818;stroke-width:0.5;"/><text fill="#000000" font-family="sans-serif" font-size="11" lengthAdjust="spacing" textLength="67.5952" x="652.9436" y="768.96">OTP Sesuai?</text><text fill="#000000" font-family="sans-serif" font-size="11" lengthAdjust="spacing" textLength="29.8687" x="611.075" y="762.5576">Tidak</text><text fill="#000000" font-family="sans-serif" font-size="11" lengthAdjust="spacing" textLength="13.46" x="732.5388" y="762.5576">Ya</text><rect fill="#F1F1F1" height="33.9688" rx="3.5" ry="3.5" style="stroke:#181818;stroke-width:0.5;" width="187.1152" x="478.5547" y="797.1519"/><text fill="#000000" font-family="sans-serif" font-size="12" lengthAdjust="spacing" textLength="167.1152" x="488.5547" y="818.2905">Tampilkan Pesan OTP Salah</text><rect fill="#F1F1F1" height="33.9688" rx="3.5" ry="3.5" style="stroke:#181818;stroke-width:0.5;" width="118.2734" x="512.9756" y="913.4917"/><text fill="#000000" font-family="sans-serif" font-size="12" lengthAdjust="spacing" textLength="98.2734" x="522.9756" y="934.6304">Registrasi Gagal</text><ellipse cx="572.1123" cy="992.4604" fill="none" rx="10" ry="10" style="stroke:#222222;stroke-width:1.5;"/><line style="stroke:#222222;stroke-width:2.5;" x1="565.9251" x2="578.2995" y1="986.2733" y2="998.6476"/><line style="stroke:#222222;stroke-width:2.5;" x1="578.2995" x2="565.9251" y1="986.2733" y2="998.6476"/><polygon fill="#F1F1F1" points="543.7556,865.0894,600.469,865.0894,612.469,877.0894,600.469,889.0894,543.7556,889.0894,531.7556,877.0894,543.7556,865.0894" style="stroke:#181818;stroke-width:0.5;"/><text fill="#000000" font-family="sans-serif" font-size="11" lengthAdjust="spacing" textLength="13.46" x="576.1123" y="899.2998">Ya</text><text fill="#000000" font-family="sans-serif" font-size="11" lengthAdjust="spacing" textLength="56.7134" x="543.7556" y="880.8975">Salah &gt;3x</text><text fill="#000000" font-family="sans-serif" font-size="11" lengthAdjust="spacing" textLength="29.8687" x="612.469" y="874.4951">Tidak</text><path d="M870.2119,808.5542 L870.2119,817.1206 L850.2119,821.1206 L870.2119,825.1206 L870.2119,833.687 A0,0 0 0 0 870.2119,833.687 L1000.1123,833.687 A0,0 0 0 0 1000.1123,833.687 L1000.1123,818.5542 L990.1123,808.5542 L870.2119,808.5542 A0,0 0 0 0 870.2119,808.5542" fill="#E5E5E5" style="stroke:#191919;stroke-width:1.5;"/><path d="M990.1123,808.5542 L990.1123,818.5542 L1000.1123,818.5542 L990.1123,808.5542" fill="#E5E5E5" style="stroke:#191919;stroke-width:1.5;"/><text fill="#191919" font-family="sans-serif" font-size="13" font-weight="bold" lengthAdjust="spacing" textLength="32.5825" x="876.2119" y="825.6211">(DB)</text><text fill="#191919" font-family="sans-serif" font-size="13" lengthAdjust="spacing" textLength="72.1855" x="912.9268" y="825.6211">users table</text><rect fill="#F1F1F1" height="47.9375" rx="3.5" ry="3.5" style="stroke:#181818;stroke-width:0.5;" width="97.6836" x="752.5283" y="797.1519"/><text fill="#000000" font-family="sans-serif" font-size="12" lengthAdjust="spacing" textLength="77.6836" x="762.5283" y="818.2905">Simpan Data</text><text fill="#000000" font-family="sans-serif" font-size="12" lengthAdjust="spacing" textLength="27.3516" x="762.5283" y="832.2593">User</text><path d="M876.7041,890.4604 L876.7041,899.0269 L856.7041,903.0269 L876.7041,907.0269 L876.7041,915.5933 A0,0 0 0 0 876.7041,915.5933 L1088.394,915.5933 A0,0 0 0 0 1088.394,915.5933 L1088.394,900.4604 L1078.394,890.4604 L876.7041,890.4604 A0,0 0 0 0 876.7041,890.4604" fill="#E5E5E5" style="stroke:#191919;stroke-width:1.5;"/><path d="M1078.394,890.4604 L1078.394,900.4604 L1088.394,900.4604 L1078.394,890.4604" fill="#E5E5E5" style="stroke:#191919;stroke-width:1.5;"/><text fill="#191919" font-family="sans-serif" font-size="13" font-weight="bold" lengthAdjust="spacing" textLength="32.5825" x="882.7041" y="907.5273">(DB)</text><text fill="#191919" font-family="sans-serif" font-size="13" lengthAdjust="spacing" textLength="153.9751" x="919.4189" y="907.5273">users_registration table</text><rect fill="#F1F1F1" height="47.9375" rx="3.5" ry="3.5" style="stroke:#181818;stroke-width:0.5;" width="110.668" x="746.0361" y="879.0581"/><text fill="#000000" font-family="sans-serif" font-size="12" lengthAdjust="spacing" textLength="70.3184" x="756.0361" y="900.1968">Hapus Data</text><text fill="#000000" font-family="sans-serif" font-size="12" lengthAdjust="spacing" textLength="90.668" x="756.0361" y="914.1655">Registrasi User</text><rect fill="#F1F1F1" height="33.9688" rx="3.5" ry="3.5" style="stroke:#181818;stroke-width:0.5;" width="231.4004" x="685.6699" y="961.9956"/><text fill="#000000" font-family="sans-serif" font-size="12" lengthAdjust="spacing" textLength="211.4004" x="695.6699" y="983.1343">Tampilkan Pesan Registrasi Sukses</text><ellipse cx="686.7412" cy="1148.4292" fill="none" rx="10" ry="10" style="stroke:#222222;stroke-width:1.5;"/><line style="stroke:#222222;stroke-width:2.5;" x1="680.554" x2="692.9284" y1="1142.242" y2="1154.6164"/><line style="stroke:#222222;stroke-width:2.5;" x1="692.9284" x2="680.554" y1="1142.242" y2="1154.6164"/><line style="stroke:#000000;stroke-width:1.5;" x1="472.5547" x2="472.5547" y1="61.6826" y2="1158.4292"/><line style="stroke:#000000;stroke-width:1.5;" x1="1125.0869" x2="1125.0869" y1="61.6826" y2="1158.4292"/><line style="stroke:#191919;stroke-width:1;" x1="212.959" x2="212.959" y1="151.6357" y2="172.3506"/><polygon fill="#191919" points="208.959,162.3506,212.959,172.3506,216.959,162.3506,212.959,166.3506" style="stroke:#191919;stroke-width:1;"/><line style="stroke:#191919;stroke-width:1;" x1="212.959" x2="212.959" y1="107.6357" y2="127.6357"/><polygon fill="#191919" points="208.959,117.6357,212.959,127.6357,216.959,117.6357,212.959,121.6357" style="stroke:#191919;stroke-width:1;"/><line style="stroke:#191919;stroke-width:1;" x1="98.3301" x2="98.3301" y1="1078.4292" y2="1098.4292"/><polygon fill="#191919" points="94.3301,1088.4292,98.3301,1098.4292,102.3301,1088.4292,98.3301,1092.4292" style="stroke:#191919;stroke-width:1;"/><line style="stroke:#191919;stroke-width:1;" x1="730.2212" x2="1043.2119" y1="331.9717" y2="331.9717"/><line style="stroke:#191919;stroke-width:1;" x1="1043.2119" x2="1043.2119" y1="247.7881" y2="331.9717"/><polygon fill="#191919" points="1039.2119,257.7881,1043.2119,247.7881,1047.2119,257.7881,1043.2119,253.7881" style="stroke:#191919;stroke-width:1;"/><line style="stroke:#191919;stroke-width:1;" x1="686.7412" x2="686.7412" y1="299.9717" y2="319.9717"/><polygon fill="#191919" points="682.7412,309.9717,686.7412,319.9717,690.7412,309.9717,686.7412,313.9717" style="stroke:#191919;stroke-width:1;"/><line style="stroke:#191919;stroke-width:1;" x1="686.7412" x2="686.7412" y1="343.9717" y2="385.3706"/><polygon fill="#191919" points="682.7412,375.3706,686.7412,385.3706,690.7412,375.3706,686.7412,379.3706" style="stroke:#191919;stroke-width:1;"/><text fill="#000000" font-family="sans-serif" font-size="11" lengthAdjust="spacing" textLength="13.46" x="690.7412" y="365.2764">Ya</text><line style="stroke:#191919;stroke-width:1;" x1="686.7412" x2="686.7412" y1="419.3394" y2="439.3394"/><polygon fill="#191919" points="682.7412,429.3394,686.7412,439.3394,690.7412,429.3394,686.7412,433.3394" style="stroke:#191919;stroke-width:1;"/><line style="stroke:#191919;stroke-width:1;" x1="686.7412" x2="686.7412" y1="487.2769" y2="507.2769"/><polygon fill="#191919" points="682.7412,497.2769,686.7412,507.2769,690.7412,497.2769,686.7412,501.2769" style="stroke:#191919;stroke-width:1;"/><line style="stroke:#191919;stroke-width:1;" x1="686.7412" x2="686.7412" y1="557.2769" y2="577.2769"/><polygon fill="#191919" points="682.7412,567.2769,686.7412,577.2769,690.7412,567.2769,686.7412,571.2769" style="stroke:#191919;stroke-width:1;"/><line style="stroke:#191919;stroke-width:1;" x1="572.1123" x2="572.1123" y1="947.4604" y2="982.4604"/><polygon fill="#191919" points="568.1123,972.4604,572.1123,982.4604,576.1123,972.4604,572.1123,976.4604" style="stroke:#191919;stroke-width:1;"/><line style="stroke:#191919;stroke-width:1;" x1="572.1123" x2="572.1123" y1="889.0894" y2="913.4917"/><polygon fill="#191919" points="568.1123,903.4917,572.1123,913.4917,576.1123,903.4917,572.1123,907.4917" style="stroke:#191919;stroke-width:1;"/><line style="stroke:#191919;stroke-width:1;" x1="612.469" x2="641.249" y1="877.0894" y2="877.0894"/><polygon fill="#191919" points="637.249,953.7261,641.249,963.7261,645.249,953.7261,641.249,957.7261" style="stroke:#191919;stroke-width:1;"/><line style="stroke:#191919;stroke-width:1;" x1="641.249" x2="641.249" y1="877.0894" y2="1029.4604"/><line style="stroke:#191919;stroke-width:1;" x1="641.249" x2="98.3301" y1="1029.4604" y2="1029.4604"/><line style="stroke:#191919;stroke-width:1;" x1="98.3301" x2="98.3301" y1="1029.4604" y2="1044.4604"/><polygon fill="#191919" points="94.3301,1034.4604,98.3301,1044.4604,102.3301,1034.4604,98.3301,1038.4604" style="stroke:#191919;stroke-width:1;"/><line style="stroke:#191919;stroke-width:1;" x1="572.1123" x2="572.1123" y1="831.1206" y2="865.0894"/><polygon fill="#191919" points="568.1123,855.0894,572.1123,865.0894,576.1123,855.0894,572.1123,859.0894" style="stroke:#191919;stroke-width:1;"/><line style="stroke:#191919;stroke-width:1;" x1="801.3701" x2="801.3701" y1="845.0894" y2="879.0581"/><polygon fill="#191919" points="797.3701,869.0581,801.3701,879.0581,805.3701,869.0581,801.3701,873.0581" style="stroke:#191919;stroke-width:1;"/><line style="stroke:#191919;stroke-width:1;" x1="801.3701" x2="801.3701" y1="926.9956" y2="961.9956"/><polygon fill="#191919" points="797.3701,951.9956,801.3701,961.9956,805.3701,951.9956,801.3701,955.9956" style="stroke:#191919;stroke-width:1;"/><line style="stroke:#191919;stroke-width:1;" x1="640.9436" x2="572.1123" y1="765.1519" y2="765.1519"/><line style="stroke:#191919;stroke-width:1;" x1="572.1123" x2="572.1123" y1="765.1519" y2="797.1519"/><polygon fill="#191919" points="568.1123,787.1519,572.1123,797.1519,576.1123,787.1519,572.1123,791.1519" style="stroke:#191919;stroke-width:1;"/><line style="stroke:#191919;stroke-width:1;" x1="732.5388" x2="801.3701" y1="765.1519" y2="765.1519"/><line style="stroke:#191919;stroke-width:1;" x1="801.3701" x2="801.3701" y1="765.1519" y2="797.1519"/><polygon fill="#191919" points="797.3701,787.1519,801.3701,797.1519,805.3701,787.1519,801.3701,791.1519" style="stroke:#191919;stroke-width:1;"/><line style="stroke:#191919;stroke-width:1;" x1="801.3701" x2="801.3701" y1="995.9644" y2="1123.4292"/><line style="stroke:#191919;stroke-width:1;" x1="801.3701" x2="686.7412" y1="1123.4292" y2="1123.4292"/><line style="stroke:#191919;stroke-width:1;" x1="686.7412" x2="686.7412" y1="1123.4292" y2="1138.4292"/><polygon fill="#191919" points="682.7412,1128.4292,686.7412,1138.4292,690.7412,1128.4292,686.7412,1132.4292" style="stroke:#191919;stroke-width:1;"/><line style="stroke:#191919;stroke-width:1;" x1="686.7412" x2="686.7412" y1="733.1519" y2="753.1519"/><polygon fill="#191919" points="682.7412,743.1519,686.7412,753.1519,690.7412,743.1519,686.7412,747.1519" style="stroke:#191919;stroke-width:1;"/><line style="stroke:#191919;stroke-width:1;" x1="212.959" x2="212.959" y1="206.3193" y2="229.1768"/><line style="stroke:#191919;stroke-width:1;" x1="212.959" x2="686.7412" y1="229.1768" y2="229.1768"/><line style="stroke:#191919;stroke-width:1;" x1="686.7412" x2="686.7412" y1="229.1768" y2="252.0342"/><polygon fill="#191919" points="682.7412,242.0342,686.7412,252.0342,690.7412,242.0342,686.7412,246.0342" style="stroke:#191919;stroke-width:1;"/><line style="stroke:#191919;stroke-width:1;" x1="1043.2119" x2="1043.2119" y1="139.6357" y2="213.8193"/><line style="stroke:#191919;stroke-width:1;" x1="1043.2119" x2="224.959" y1="139.6357" y2="139.6357"/><polygon fill="#191919" points="234.959,135.6357,224.959,139.6357,234.959,143.6357,230.959,139.6357" style="stroke:#191919;stroke-width:1;"/><line style="stroke:#191919;stroke-width:1;" x1="686.7412" x2="686.7412" y1="625.2144" y2="630.2144"/><line style="stroke:#191919;stroke-width:1;" x1="686.7412" x2="212.959" y1="630.2144" y2="630.2144"/><line style="stroke:#191919;stroke-width:1;" x1="212.959" x2="212.959" y1="630.2144" y2="645.2144"/><polygon fill="#191919" points="208.959,635.2144,212.959,645.2144,216.959,635.2144,212.959,639.2144" style="stroke:#191919;stroke-width:1;"/><line style="stroke:#191919;stroke-width:1;" x1="212.959" x2="212.959" y1="679.1831" y2="684.1831"/><line style="stroke:#191919;stroke-width:1;" x1="212.959" x2="686.7412" y1="684.1831" y2="684.1831"/><line style="stroke:#191919;stroke-width:1;" x1="686.7412" x2="686.7412" y1="684.1831" y2="699.1831"/><polygon fill="#191919" points="682.7412,689.1831,686.7412,699.1831,690.7412,689.1831,686.7412,693.1831" style="stroke:#191919;stroke-width:1;"/><text fill="#000000" font-family="sans-serif" font-size="18" lengthAdjust="spacing" textLength="97.7695" x="194.8926" y="78.3906">Calon User</text><text fill="#000000" font-family="sans-serif" font-size="18" lengthAdjust="spacing" textLength="61.4707" x="768.0854" y="78.3906">Sistem</text><g class="footer" data-source-line="5"><text fill="#888888" font-family="sans-serif" font-size="18" lengthAdjust="spacing" textLength="100.2744" x="520.8367" y="1175.1372">version 1.0</text></g><?plantuml-src ZL9TRzD047o_Nx7a8IHMg2ZmW6ofY9AMeWeHuRHI9IIqgJVnodTdw-xS8fGVp_dyKJS12JyutipjtCxCse9rXGOLE7QIBaljKlvDyEQTi0DqMPQEp82TlXSlN4wAGA6n8ZJ2v3ljs3g3bYTY6nfWya36SgdXzEJrH8Zz9vI-kB5azi8wD4uOgWWTYFYBPN-DKV140rD8wurYbmZmZ_QKO7YNkr0sJnGjqM4SHSC_ffIq05B8SW4Q5Iu6I9SdSBLQG8NMFfOc2m3fB127Of_wcqdjGx71--8HJGRn6bN5ia0DAxB-VM5CQPBZZlWM9MVO2V6gck5W6h1bNKak6koYcItfXJ_cxBsRXPEX_SCSsC9ixOcAkNXrTeU9YA_Gvh3gvlProghoWuGkCJAiSJOH1qP5qMnvFeyYg3rgVvhkk6joSRYH90OJPX_d8YE7ztduZCzhF-8Khjcm0l5jlO87nbx1ipHVGYl81wchsi5rcH7u1d-ijoY-9SFRreGdcBSmQuXJiZMoL-yNIm_wWws7_eVZA35lCsWOGWbdRt_r_NSu7uAFHmvznXtAP82yydODfANXqdunUDjcFDOP-BwoziQthjn8rBjMIeCrjZM_dOijRp_CysqPXVX3jydzSyt72NQX7MsltvAgjXtVqLBy5_NVbkFudiCyHdUbTM799g9rpx__0000?></g></svg>