<?plantuml 1.2026.2?><svg xmlns="http://www.w3.org/2000/svg" xmlns:xlink="http://www.w3.org/1999/xlink" contentStyleType="text/css" data-diagram-type="ACTIVITY" height="935px" preserveAspectRatio="none" style="width:1330px;height:935px;background:#F9F9F9;" version="1.1" viewBox="0 0 1330 935" width="1330px" zoomAndPan="magnify"><title>(ACD-19) Akhiri Sewa Sebelum Kontrak Berakhir</title><defs/><g><rect fill="#F9F9F9" height="935" style="stroke:none;stroke-width:1;" width="1330" x="0" y="0"/><g class="title" data-source-line="4"><text fill="#000000" font-family="sans-serif" font-size="24" font-weight="bold" lengthAdjust="spacing" textLength="655.7109" x="335.7571" y="42.2773">(ACD-19) Akhiri Sewa Sebelum Kontrak Berakhir</text></g><rect fill="none" height="20.9531" style="stroke:none;stroke-width:1;" width="1297.2251" x="15" y="61.6826"/><ellipse cx="213.6748" cy="97.6357" fill="#222222" rx="10" ry="10" style="stroke:#222222;stroke-width:1;"/><rect fill="#F1F1F1" height="33.9688" rx="3.5" ry="3.5" style="stroke:#181818;stroke-width:0.5;" width="204.9277" x="111.2109" y="127.6357"/><text fill="#000000" font-family="sans-serif" font-size="12" lengthAdjust="spacing" textLength="184.9277" x="121.2109" y="148.7744">Masuk ke halaman detail sewa</text><rect fill="#F1F1F1" height="33.9688" rx="3.5" ry="3.5" style="stroke:#181818;stroke-width:0.5;" width="224.0293" x="101.6602" y="181.6045"/><text fill="#000000" font-family="sans-serif" font-size="12" lengthAdjust="spacing" textLength="204.0293" x="111.6602" y="202.7432">Klik tombol akhiri sewa lebih awal</text><rect fill="#F1F1F1" height="33.9688" rx="3.5" ry="3.5" style="stroke:#181818;stroke-width:0.5;" width="212.8906" x="107.2295" y="235.5732"/><text fill="#000000" font-family="sans-serif" font-size="12" lengthAdjust="spacing" textLength="192.8906" x="117.2295" y="256.7119">Isi alasan akhiri sewa lebih awal</text><rect fill="#F1F1F1" height="33.9688" rx="3.5" ry="3.5" style="stroke:#181818;stroke-width:0.5;" width="207.1133" x="110.1182" y="289.542"/><text fill="#000000" font-family="sans-serif" font-size="12" lengthAdjust="spacing" textLength="187.1133" x="120.1182" y="310.6807">Isi tanggal rencana akhiri sewa</text><rect fill="#F1F1F1" height="33.9688" rx="3.5" ry="3.5" style="stroke:#181818;stroke-width:0.5;" width="220.6367" x="103.3564" y="343.5107"/><text fill="#000000" font-family="sans-serif" font-size="12" lengthAdjust="spacing" textLength="200.6367" x="113.3564" y="364.6494">Konfirmasi akhiri sewa lebih awal</text><rect fill="#F1F1F1" height="33.9688" rx="3.5" ry="3.5" style="stroke:#181818;stroke-width:0.5;" width="385.3496" x="21" y="825.9058"/><text fill="#000000" font-family="sans-serif" font-size="12" lengthAdjust="spacing" textLength="365.3496" x="31" y="847.0444">Terima notifikasi permintaan akhiri sewa lebih awal disetujui</text><ellipse cx="213.6748" cy="890.8745" fill="none" rx="11" ry="11" style="stroke:#222222;stroke-width:1;"/><ellipse cx="213.6748" cy="890.8745" fill="#222222" rx="6" ry="6" style="stroke:#222222;stroke-width:1;"/><line style="stroke:#000000;stroke-width:1.5;" x1="15" x2="15" y1="61.6826" y2="901.8745"/><path d="M575.1133,394.3311 L575.1133,410.4639 L555.1133,414.4639 L575.1133,418.4639 L575.1133,434.5967 A0,0 0 0 0 575.1133,434.5967 L873.6836,434.5967 A0,0 0 0 0 873.6836,434.5967 L873.6836,404.3311 L863.6836,394.3311 L575.1133,394.3311 A0,0 0 0 0 575.1133,394.3311" fill="#E5E5E5" style="stroke:#191919;stroke-width:1.5;"/><path d="M863.6836,394.3311 L863.6836,404.3311 L873.6836,404.3311 L863.6836,394.3311" fill="#E5E5E5" style="stroke:#191919;stroke-width:1.5;"/><text fill="#191919" font-family="sans-serif" font-size="13" font-weight="bold" lengthAdjust="spacing" textLength="32.5825" x="581.1133" y="411.3979">(DB)</text><text fill="#191919" font-family="sans-serif" font-size="13" lengthAdjust="spacing" textLength="82.0879" x="617.8281" y="411.3979">rentals table</text><text fill="#191919" font-family="sans-serif" font-size="13" lengthAdjust="spacing" textLength="277.5703" x="581.1133" y="426.5308">status: "active_request_early_termination"</text><rect fill="#F1F1F1" height="33.9688" rx="3.5" ry="3.5" style="stroke:#181818;stroke-width:0.5;" width="138.7637" x="416.3496" y="397.4795"/><text fill="#000000" font-family="sans-serif" font-size="12" lengthAdjust="spacing" textLength="118.7637" x="426.3496" y="418.6182">Update status sewa</text><path d="M575.1133,610.9365 L575.1133,627.0693 L555.1133,631.0693 L575.1133,635.0693 L575.1133,651.2021 A0,0 0 0 0 575.1133,651.2021 L933.6309,651.2021 A0,0 0 0 0 933.6309,651.2021 L933.6309,620.9365 L923.6309,610.9365 L575.1133,610.9365 A0,0 0 0 0 575.1133,610.9365" fill="#E5E5E5" style="stroke:#191919;stroke-width:1.5;"/><path d="M923.6309,610.9365 L923.6309,620.9365 L933.6309,620.9365 L923.6309,610.9365" fill="#E5E5E5" style="stroke:#191919;stroke-width:1.5;"/><text fill="#191919" font-family="sans-serif" font-size="13" font-weight="bold" lengthAdjust="spacing" textLength="32.5825" x="581.1133" y="628.0034">(DB)</text><text fill="#191919" font-family="sans-serif" font-size="13" lengthAdjust="spacing" textLength="82.0879" x="617.8281" y="628.0034">rentals table</text><text fill="#191919" font-family="sans-serif" font-size="13" lengthAdjust="spacing" textLength="337.5176" x="581.1133" y="643.1362">status: "active_request_early_termination_rejected"</text><rect fill="#F1F1F1" height="33.9688" rx="3.5" ry="3.5" style="stroke:#181818;stroke-width:0.5;" width="138.7637" x="416.3496" y="614.085"/><text fill="#000000" font-family="sans-serif" font-size="12" lengthAdjust="spacing" textLength="118.7637" x="426.3496" y="635.2236">Update status sewa</text><ellipse cx="485.7314" cy="687.5693" fill="none" rx="11" ry="11" style="stroke:#222222;stroke-width:1;"/><ellipse cx="485.7314" cy="687.5693" fill="#222222" rx="6" ry="6" style="stroke:#222222;stroke-width:1;"/><path d="M571.0703,750.5073 L571.0703,774.2065 L551.0703,778.2065 L571.0703,782.2065 L571.0703,805.9058 A0,0 0 0 0 571.0703,805.9058 L935.999,805.9058 A0,0 0 0 0 935.999,805.9058 L935.999,760.5073 L925.999,750.5073 L571.0703,750.5073 A0,0 0 0 0 571.0703,750.5073" fill="#E5E5E5" style="stroke:#191919;stroke-width:1.5;"/><path d="M925.999,750.5073 L925.999,760.5073 L935.999,760.5073 L925.999,750.5073" fill="#E5E5E5" style="stroke:#191919;stroke-width:1.5;"/><text fill="#191919" font-family="sans-serif" font-size="13" font-weight="bold" lengthAdjust="spacing" textLength="32.5825" x="577.0703" y="767.5742">(DB)</text><text fill="#191919" font-family="sans-serif" font-size="13" lengthAdjust="spacing" textLength="82.0879" x="613.7852" y="767.5742">rentals table</text><text fill="#191919" font-family="sans-serif" font-size="13" lengthAdjust="spacing" textLength="343.9287" x="577.0703" y="782.707">status: "active_request_early_termination_accepted"</text><text fill="#191919" font-family="sans-serif" font-size="13" lengthAdjust="spacing" textLength="240.6396" x="577.0703" y="797.8398">end_date: &lt;tanggal_berakhir_sewa&gt;</text><rect fill="#F1F1F1" height="33.9688" rx="3.5" ry="3.5" style="stroke:#181818;stroke-width:0.5;" width="130.6777" x="420.3926" y="761.2222"/><text fill="#000000" font-family="sans-serif" font-size="12" lengthAdjust="spacing" textLength="110.6777" x="430.3926" y="782.3608">Simpan data sewa</text><line style="stroke:#000000;stroke-width:1.5;" x1="410.3496" x2="410.3496" y1="61.6826" y2="901.8745"/><rect fill="#F1F1F1" height="33.9688" rx="3.5" ry="3.5" style="stroke:#181818;stroke-width:0.5;" width="330.3652" x="946.999" y="454.5967"/><text fill="#000000" font-family="sans-serif" font-size="12" lengthAdjust="spacing" textLength="310.3652" x="956.999" y="475.7354">Terima notifikasi permintaan akhiri sewa lebih awal</text><rect fill="#F1F1F1" height="33.9688" rx="3.5" ry="3.5" style="stroke:#181818;stroke-width:0.5;" width="274.6309" x="974.8662" y="508.5654"/><text fill="#000000" font-family="sans-serif" font-size="12" lengthAdjust="spacing" textLength="254.6309" x="984.8662" y="529.7041">Respon permintaan akhiri sewa lebih awal</text><polygon fill="#F1F1F1" points="1072.6504,562.5342,1151.7129,562.5342,1163.7129,574.5342,1151.7129,586.5342,1072.6504,586.5342,1060.6504,574.5342,1072.6504,562.5342" style="stroke:#181818;stroke-width:0.5;"/><text fill="#000000" font-family="sans-serif" font-size="11" lengthAdjust="spacing" textLength="29.8687" x="1116.1816" y="596.7446">Tidak</text><text fill="#000000" font-family="sans-serif" font-size="11" lengthAdjust="spacing" textLength="79.0625" x="1072.6504" y="578.3423">Owner setuju?</text><line style="stroke:#000000;stroke-width:1.5;" x1="940.999" x2="940.999" y1="61.6826" y2="901.8745"/><line style="stroke:#000000;stroke-width:1.5;" x1="1310.3643" x2="1310.3643" y1="61.6826" y2="901.8745"/><line style="stroke:#191919;stroke-width:1;" x1="213.6748" x2="213.6748" y1="107.6357" y2="127.6357"/><polygon fill="#191919" points="209.6748,117.6357,213.6748,127.6357,217.6748,117.6357,213.6748,121.6357" style="stroke:#191919;stroke-width:1;"/><line style="stroke:#191919;stroke-width:1;" x1="213.6748" x2="213.6748" y1="161.6045" y2="181.6045"/><polygon fill="#191919" points="209.6748,171.6045,213.6748,181.6045,217.6748,171.6045,213.6748,175.6045" style="stroke:#191919;stroke-width:1;"/><line style="stroke:#191919;stroke-width:1;" x1="213.6748" x2="213.6748" y1="215.5732" y2="235.5732"/><polygon fill="#191919" points="209.6748,225.5732,213.6748,235.5732,217.6748,225.5732,213.6748,229.5732" style="stroke:#191919;stroke-width:1;"/><line style="stroke:#191919;stroke-width:1;" x1="213.6748" x2="213.6748" y1="269.542" y2="289.542"/><polygon fill="#191919" points="209.6748,279.542,213.6748,289.542,217.6748,279.542,213.6748,283.542" style="stroke:#191919;stroke-width:1;"/><line style="stroke:#191919;stroke-width:1;" x1="213.6748" x2="213.6748" y1="323.5107" y2="343.5107"/><polygon fill="#191919" points="209.6748,333.5107,213.6748,343.5107,217.6748,333.5107,213.6748,337.5107" style="stroke:#191919;stroke-width:1;"/><line style="stroke:#191919;stroke-width:1;" x1="213.6748" x2="213.6748" y1="859.8745" y2="879.8745"/><polygon fill="#191919" points="209.6748,869.8745,213.6748,879.8745,217.6748,869.8745,213.6748,873.8745" style="stroke:#191919;stroke-width:1;"/><line style="stroke:#191919;stroke-width:1;" x1="485.7314" x2="485.7314" y1="648.0537" y2="676.5693"/><polygon fill="#191919" points="481.7314,666.5693,485.7314,676.5693,489.7314,666.5693,485.7314,670.5693" style="stroke:#191919;stroke-width:1;"/><line style="stroke:#191919;stroke-width:1;" x1="1112.1816" x2="1112.1816" y1="488.5654" y2="508.5654"/><polygon fill="#191919" points="1108.1816,498.5654,1112.1816,508.5654,1116.1816,498.5654,1112.1816,502.5654" style="stroke:#191919;stroke-width:1;"/><line style="stroke:#191919;stroke-width:1;" x1="1163.7129" x2="1291.3643" y1="574.5342" y2="574.5342"/><polygon fill="#191919" points="1287.3643,646.5693,1291.3643,656.5693,1295.3643,646.5693,1291.3643,650.5693" style="stroke:#191919;stroke-width:1;"/><line style="stroke:#191919;stroke-width:1;" x1="1291.3643" x2="1291.3643" y1="574.5342" y2="720.5693"/><line style="stroke:#191919;stroke-width:1;" x1="1291.3643" x2="1112.1816" y1="720.5693" y2="720.5693"/><line style="stroke:#191919;stroke-width:1;" x1="1112.1816" x2="1112.1816" y1="542.5342" y2="562.5342"/><polygon fill="#191919" points="1108.1816,552.5342,1112.1816,562.5342,1116.1816,552.5342,1112.1816,556.5342" style="stroke:#191919;stroke-width:1;"/><line style="stroke:#191919;stroke-width:1;" x1="213.6748" x2="213.6748" y1="377.4795" y2="382.4795"/><line style="stroke:#191919;stroke-width:1;" x1="213.6748" x2="485.7314" y1="382.4795" y2="382.4795"/><line style="stroke:#191919;stroke-width:1;" x1="485.7314" x2="485.7314" y1="382.4795" y2="397.4795"/><polygon fill="#191919" points="481.7314,387.4795,485.7314,397.4795,489.7314,387.4795,485.7314,391.4795" style="stroke:#191919;stroke-width:1;"/><line style="stroke:#191919;stroke-width:1;" x1="485.7314" x2="485.7314" y1="431.4482" y2="439.5967"/><line style="stroke:#191919;stroke-width:1;" x1="485.7314" x2="1112.1816" y1="439.5967" y2="439.5967"/><line style="stroke:#191919;stroke-width:1;" x1="1112.1816" x2="1112.1816" y1="439.5967" y2="454.5967"/><polygon fill="#191919" points="1108.1816,444.5967,1112.1816,454.5967,1116.1816,444.5967,1112.1816,448.5967" style="stroke:#191919;stroke-width:1;"/><line style="stroke:#191919;stroke-width:1;" x1="1112.1816" x2="1112.1816" y1="586.5342" y2="600.3096"/><line style="stroke:#191919;stroke-width:1;" x1="1112.1816" x2="485.7314" y1="600.3096" y2="600.3096"/><line style="stroke:#191919;stroke-width:1;" x1="485.7314" x2="485.7314" y1="600.3096" y2="614.085"/><polygon fill="#191919" points="481.7314,604.085,485.7314,614.085,489.7314,604.085,485.7314,608.085" style="stroke:#191919;stroke-width:1;"/><line style="stroke:#191919;stroke-width:1;" x1="1112.1816" x2="1112.1816" y1="720.5693" y2="745.5073"/><line style="stroke:#191919;stroke-width:1;" x1="1112.1816" x2="485.7314" y1="745.5073" y2="745.5073"/><line style="stroke:#191919;stroke-width:1;" x1="485.7314" x2="485.7314" y1="745.5073" y2="761.2222"/><polygon fill="#191919" points="481.7314,751.2222,485.7314,761.2222,489.7314,751.2222,485.7314,755.2222" style="stroke:#191919;stroke-width:1;"/><text fill="#000000" font-family="sans-serif" font-size="11" lengthAdjust="spacing" textLength="13.46" x="1116.1816" y="739.0073">Ya</text><line style="stroke:#191919;stroke-width:1;" x1="485.7314" x2="485.7314" y1="795.1909" y2="810.9058"/><line style="stroke:#191919;stroke-width:1;" x1="485.7314" x2="213.6748" y1="810.9058" y2="810.9058"/><line style="stroke:#191919;stroke-width:1;" x1="213.6748" x2="213.6748" y1="810.9058" y2="825.9058"/><polygon fill="#191919" points="209.6748,815.9058,213.6748,825.9058,217.6748,815.9058,213.6748,819.9058" style="stroke:#191919;stroke-width:1;"/><text fill="#000000" font-family="sans-serif" font-size="18" lengthAdjust="spacing" textLength="62.9736" x="181.188" y="78.3906">Tenant</text><text fill="#000000" font-family="sans-serif" font-size="18" lengthAdjust="spacing" textLength="61.4707" x="644.939" y="78.3906">Sistem</text><text fill="#000000" font-family="sans-serif" font-size="18" lengthAdjust="spacing" textLength="58.7725" x="1096.2954" y="78.3906">Owner</text><g class="footer" data-source-line="5"><text fill="#888888" font-family="sans-serif" font-size="18" lengthAdjust="spacing" textLength="100.2744" x="613.4753" y="918.5825">version 1.0</text></g><?plantuml-src lLDDRzGm4BtxLmmvxQvKn28EaAAYbgeIgX0IknmuHPDaifd6Te8zwGgqFnux6ra5sl9nm0VBoPity-Pvx3ks0peq82oQhdeh6_v6yFo5yWcwwdiXbx3rI_L4MZ841frN4n6onVdRovFrgoMSToqxXWtjCMmbwT70TU0wxE22mXxWJ3LJJiXkoNdkBQoVFikKEcp9efM3EcpO2vbm-B2tv0vt82_eHENlqOyTT0GjQZHeeIP1rk13tLELNslkG7fJzXhmg2WYeAda5d2FEWIzymo1xGFxqHX1kzkX1aUsGejtWsEftZRi3CPa3sH9xUIVXXg583GXevyps605EDwreY2irMfnUR5ShM8vGUr3-LBJ11rfEMHO2TzIuUZBI5uAGgU_5i5GmnOb-9afiZN4nCd1V4kE3SQVt70NvGuJGV2n_Z-I7yBz_44eDx2OQWL8nflnpHB2c5XORBd6RZara8o87_UQ4O6V3FcDANzbJ41kg1AgiucRN3ecwOVe6pVgvEpphEL7nHisGvmr5FnFUh6gQ4XwPyr5z2s7r_DW5kNyhegewUpNpjBZcPhuXq60ce-NogV9gky0?></g></svg>