<?plantuml 1.2026.2?><svg xmlns="http://www.w3.org/2000/svg" xmlns:xlink="http://www.w3.org/1999/xlink" contentStyleType="text/css" data-diagram-type="ACTIVITY" height="469px" preserveAspectRatio="none" style="width:584px;height:469px;background:#F9F9F9;" version="1.1" viewBox="0 0 584 469" width="584px" zoomAndPan="magnify"><title>Login</title><defs/><g><rect fill="#F9F9F9" height="469" style="stroke:none;stroke-width:1;" width="584" x="0" y="0"/><g class="title" data-source-line="4"><text fill="#000000" font-family="sans-serif" font-size="24" font-weight="bold" lengthAdjust="spacing" textLength="74.2734" x="253.6023" y="42.2773">Login</text></g><rect fill="none" height="20.9531" style="stroke:none;stroke-width:1;" width="551.478" x="15" y="61.6826"/><ellipse cx="102.8799" cy="97.6357" fill="#222222" rx="10" ry="10" style="stroke:#222222;stroke-width:1;"/><rect fill="#F1F1F1" height="33.9688" rx="3.5" ry="3.5" style="stroke:#181818;stroke-width:0.5;" width="163.7598" x="21" y="171.6357"/><text fill="#000000" font-family="sans-serif" font-size="12" lengthAdjust="spacing" textLength="143.7598" x="31" y="192.7744">Isi Form Login &amp; Submit</text><polygon fill="#F1F1F1" points="102.8799,127.6357,114.8799,139.6357,102.8799,151.6357,90.8799,139.6357,102.8799,127.6357" style="stroke:#181818;stroke-width:0.5;"/><line style="stroke:#000000;stroke-width:1.5;" x1="15" x2="15" y1="61.6826" y2="435.9409"/><rect fill="#F1F1F1" height="33.9688" rx="3.5" ry="3.5" style="stroke:#181818;stroke-width:0.5;" width="135.6523" x="229.1748" y="240.6045"/><text fill="#000000" font-family="sans-serif" font-size="12" lengthAdjust="spacing" textLength="115.6523" x="239.1748" y="261.7432">Validasi Data Login</text><polygon fill="#F1F1F1" points="265.521,294.5732,328.481,294.5732,340.481,306.5732,328.481,318.5732,265.521,318.5732,253.521,306.5732,265.521,294.5732" style="stroke:#181818;stroke-width:0.5;"/><text fill="#000000" font-family="sans-serif" font-size="11" lengthAdjust="spacing" textLength="62.96" x="265.521" y="310.3813">Data Valid?</text><text fill="#000000" font-family="sans-serif" font-size="11" lengthAdjust="spacing" textLength="29.8687" x="340.481" y="303.979">Tidak</text><rect fill="#F1F1F1" height="33.9688" rx="3.5" ry="3.5" style="stroke:#181818;stroke-width:0.5;" width="157.7363" x="402.8809" y="206.1201"/><text fill="#000000" font-family="sans-serif" font-size="12" lengthAdjust="spacing" textLength="137.7363" x="412.8809" y="227.2588">Tampilkan Login Gagal</text><rect fill="#F1F1F1" height="33.9688" rx="3.5" ry="3.5" style="stroke:#181818;stroke-width:0.5;" width="204.4824" x="194.7598" y="359.9722"/><text fill="#000000" font-family="sans-serif" font-size="12" lengthAdjust="spacing" textLength="184.4824" x="204.7598" y="381.1108">Tampilkan Pesan Login Sukses</text><ellipse cx="297.001" cy="424.9409" fill="none" rx="11" ry="11" style="stroke:#222222;stroke-width:1;"/><ellipse cx="297.001" cy="424.9409" fill="#222222" rx="6" ry="6" style="stroke:#222222;stroke-width:1;"/><line style="stroke:#000000;stroke-width:1.5;" x1="188.7598" x2="188.7598" y1="61.6826" y2="435.9409"/><line style="stroke:#000000;stroke-width:1.5;" x1="564.6172" x2="564.6172" y1="61.6826" y2="435.9409"/><line style="stroke:#191919;stroke-width:1;" x1="102.8799" x2="102.8799" y1="151.6357" y2="171.6357"/><polygon fill="#191919" points="98.8799,161.6357,102.8799,171.6357,106.8799,161.6357,102.8799,165.6357" style="stroke:#191919;stroke-width:1;"/><line style="stroke:#191919;stroke-width:1;" x1="102.8799" x2="102.8799" y1="107.6357" y2="127.6357"/><polygon fill="#191919" points="98.8799,117.6357,102.8799,127.6357,106.8799,117.6357,102.8799,121.6357" style="stroke:#191919;stroke-width:1;"/><line style="stroke:#191919;stroke-width:1;" x1="340.481" x2="481.749" y1="306.5732" y2="306.5732"/><line style="stroke:#191919;stroke-width:1;" x1="481.749" x2="481.749" y1="240.0889" y2="306.5732"/><polygon fill="#191919" points="477.749,250.0889,481.749,240.0889,485.749,250.0889,481.749,246.0889" style="stroke:#191919;stroke-width:1;"/><line style="stroke:#191919;stroke-width:1;" x1="297.001" x2="297.001" y1="274.5732" y2="294.5732"/><polygon fill="#191919" points="293.001,284.5732,297.001,294.5732,301.001,284.5732,297.001,288.5732" style="stroke:#191919;stroke-width:1;"/><line style="stroke:#191919;stroke-width:1;" x1="297.001" x2="297.001" y1="318.5732" y2="359.9722"/><polygon fill="#191919" points="293.001,349.9722,297.001,359.9722,301.001,349.9722,297.001,353.9722" style="stroke:#191919;stroke-width:1;"/><text fill="#000000" font-family="sans-serif" font-size="11" lengthAdjust="spacing" textLength="13.46" x="301.001" y="339.8779">Ya</text><line style="stroke:#191919;stroke-width:1;" x1="297.001" x2="297.001" y1="393.9409" y2="413.9409"/><polygon fill="#191919" points="293.001,403.9409,297.001,413.9409,301.001,403.9409,297.001,407.9409" style="stroke:#191919;stroke-width:1;"/><line style="stroke:#191919;stroke-width:1;" x1="102.8799" x2="102.8799" y1="205.6045" y2="223.1045"/><line style="stroke:#191919;stroke-width:1;" x1="102.8799" x2="297.001" y1="223.1045" y2="223.1045"/><line style="stroke:#191919;stroke-width:1;" x1="297.001" x2="297.001" y1="223.1045" y2="240.6045"/><polygon fill="#191919" points="293.001,230.6045,297.001,240.6045,301.001,230.6045,297.001,234.6045" style="stroke:#191919;stroke-width:1;"/><line style="stroke:#191919;stroke-width:1;" x1="481.749" x2="481.749" y1="139.6357" y2="206.1201"/><line style="stroke:#191919;stroke-width:1;" x1="481.749" x2="114.8799" y1="139.6357" y2="139.6357"/><polygon fill="#191919" points="124.8799,135.6357,114.8799,139.6357,124.8799,143.6357,120.8799,139.6357" style="stroke:#191919;stroke-width:1;"/><text fill="#000000" font-family="sans-serif" font-size="18" lengthAdjust="spacing" textLength="41.0273" x="81.3662" y="78.3906">User</text><text fill="#000000" font-family="sans-serif" font-size="18" lengthAdjust="spacing" textLength="61.4707" x="345.9531" y="78.3906">Sistem</text><g class="footer" data-source-line="5"><text fill="#888888" font-family="sans-serif" font-size="18" lengthAdjust="spacing" textLength="100.2744" x="240.6018" y="452.6489">version 1.0</text></g><?plantuml-src JOx1IWD144Jl_HNj7YGvA4Poa1tGYqG43y8cWiTEqYRDxCmiqnq3iX_lC8R5SxrwLUeb3fGfe8drl4hHElbXl5-2Jj4g9UCyPOi7kB8Z1yP0MQ4MiNbB1uaDV5KMcs_EAYdYulQk0HWtoda4DSe6cGScW_PLfQXpm5h5Q-nEso3cOEn4ZSC8xGVrigV2FPFH7-TWIpj_fhp7TarXaDvJl2XUw42zkmpW-IZbsAnMg-XfZg8uMnUbdyFDuoSv-ETuPvrCtSahgokFq_0B?></g></svg>