<?plantuml 1.2026.2?><svg xmlns="http://www.w3.org/2000/svg" xmlns:xlink="http://www.w3.org/1999/xlink" contentStyleType="text/css" data-diagram-type="ACTIVITY" height="566px" preserveAspectRatio="none" style="width:816px;height:566px;background:#F9F9F9;" version="1.1" viewBox="0 0 816 566" width="816px" zoomAndPan="magnify"><title>(ACD-18) Verifikasi Rtpintar</title><defs/><g><rect fill="#F9F9F9" height="566" style="stroke:none;stroke-width:1;" width="816" x="0" y="0"/><g class="title" data-source-line="4"><text fill="#000000" font-family="sans-serif" font-size="24" font-weight="bold" lengthAdjust="spacing" textLength="378.3164" x="217.5171" y="42.2773">(ACD-18) Verifikasi Rtpintar</text></g><rect fill="none" height="20.9531" style="stroke:none;stroke-width:1;" width="783.3506" x="15" y="61.6826"/><ellipse cx="123.2588" cy="97.6357" fill="#222222" rx="10" ry="10" style="stroke:#222222;stroke-width:1;"/><rect fill="#F1F1F1" height="47.9375" rx="3.5" ry="3.5" style="stroke:#181818;stroke-width:0.5;" width="204.5176" x="21" y="127.6357"/><text fill="#000000" font-family="sans-serif" font-size="12" lengthAdjust="spacing" textLength="184.5176" x="31" y="148.7744">Berhasil register akun Rtpintar</text><text fill="#000000" font-family="sans-serif" font-size="12" lengthAdjust="spacing" textLength="138.4629" x="31" y="162.7432">atau Update Nomor HP</text><line style="stroke:#000000;stroke-width:1.5;" x1="15" x2="15" y1="61.6826" y2="532.1475"/><rect fill="#F1F1F1" height="33.9688" rx="3.5" ry="3.5" style="stroke:#181818;stroke-width:0.5;" width="221.2109" x="235.5176" y="195.5732"/><text fill="#000000" font-family="sans-serif" font-size="12" lengthAdjust="spacing" textLength="201.2109" x="245.5176" y="216.7119">Kirim nomor HP untuk diverifikasi</text><rect fill="#F1F1F1" height="33.9688" rx="3.5" ry="3.5" style="stroke:#181818;stroke-width:0.5;" width="214.5313" x="238.8574" y="303.5107"/><text fill="#000000" font-family="sans-serif" font-size="12" lengthAdjust="spacing" textLength="194.5313" x="248.8574" y="324.6494">Terima hasil verifikasi nomor HP</text><path d="M434.8604,405.8818 L434.8604,422.0146 L414.8604,426.0146 L434.8604,430.0146 L434.8604,446.1475 A0,0 0 0 0 434.8604,446.1475 L619.3823,446.1475 A0,0 0 0 0 619.3823,446.1475 L619.3823,415.8818 L609.3823,405.8818 L434.8604,405.8818 A0,0 0 0 0 434.8604,405.8818" fill="#E5E5E5" style="stroke:#191919;stroke-width:1.5;"/><path d="M609.3823,405.8818 L609.3823,415.8818 L619.3823,415.8818 L609.3823,405.8818" fill="#E5E5E5" style="stroke:#191919;stroke-width:1.5;"/><text fill="#191919" font-family="sans-serif" font-size="13" font-weight="bold" lengthAdjust="spacing" textLength="32.5825" x="440.8604" y="422.9487">(DB)</text><text fill="#191919" font-family="sans-serif" font-size="13" lengthAdjust="spacing" textLength="126.8071" x="477.5752" y="422.9487">users_profiles table</text><text fill="#191919" font-family="sans-serif" font-size="13" lengthAdjust="spacing" textLength="84.1445" x="440.8604" y="438.0815">rtpintar: true</text><rect fill="#F1F1F1" height="33.9688" rx="3.5" ry="3.5" style="stroke:#181818;stroke-width:0.5;" width="137.4746" x="277.3857" y="409.0303"/><text fill="#000000" font-family="sans-serif" font-size="12" lengthAdjust="spacing" textLength="117.4746" x="287.3857" y="430.1689">Update status akun</text><polygon fill="#F1F1F1" points="300.1116,357.4795,392.1345,357.4795,404.1345,369.4795,392.1345,381.4795,300.1116,381.4795,288.1116,369.4795,300.1116,357.4795" style="stroke:#181818;stroke-width:0.5;"/><text fill="#000000" font-family="sans-serif" font-size="11" lengthAdjust="spacing" textLength="13.46" x="350.123" y="391.6899">Ya</text><text fill="#000000" font-family="sans-serif" font-size="11" lengthAdjust="spacing" textLength="92.0229" x="300.1116" y="373.2876">Nomor HP Valid?</text><polygon fill="#F1F1F1" points="346.123,466.1475,358.123,478.1475,346.123,490.1475,334.123,478.1475,346.123,466.1475" style="stroke:#181818;stroke-width:0.5;"/><ellipse cx="346.123" cy="521.1475" fill="none" rx="11" ry="11" style="stroke:#222222;stroke-width:1;"/><ellipse cx="346.123" cy="521.1475" fill="#222222" rx="6" ry="6" style="stroke:#222222;stroke-width:1;"/><line style="stroke:#000000;stroke-width:1.5;" x1="229.5176" x2="229.5176" y1="61.6826" y2="532.1475"/><rect fill="#F1F1F1" height="33.9688" rx="3.5" ry="3.5" style="stroke:#181818;stroke-width:0.5;" width="138.1074" x="654.3823" y="249.542"/><text fill="#000000" font-family="sans-serif" font-size="12" lengthAdjust="spacing" textLength="118.1074" x="664.3823" y="270.6807">Verifikasi nomor HP</text><line style="stroke:#000000;stroke-width:1.5;" x1="648.3823" x2="648.3823" y1="61.6826" y2="532.1475"/><line style="stroke:#000000;stroke-width:1.5;" x1="796.4897" x2="796.4897" y1="61.6826" y2="532.1475"/><line style="stroke:#191919;stroke-width:1;" x1="123.2588" x2="123.2588" y1="107.6357" y2="127.6357"/><polygon fill="#191919" points="119.2588,117.6357,123.2588,127.6357,127.2588,117.6357,123.2588,121.6357" style="stroke:#191919;stroke-width:1;"/><line style="stroke:#191919;stroke-width:1;" x1="346.123" x2="346.123" y1="381.4795" y2="409.0303"/><polygon fill="#191919" points="342.123,399.0303,346.123,409.0303,350.123,399.0303,346.123,403.0303" style="stroke:#191919;stroke-width:1;"/><line style="stroke:#191919;stroke-width:1;" x1="404.1345" x2="629.3823" y1="369.4795" y2="369.4795"/><polygon fill="#191919" points="625.3823,416.0146,629.3823,426.0146,633.3823,416.0146,629.3823,420.0146" style="stroke:#191919;stroke-width:1;"/><line style="stroke:#191919;stroke-width:1;" x1="629.3823" x2="629.3823" y1="369.4795" y2="478.1475"/><line style="stroke:#191919;stroke-width:1;" x1="629.3823" x2="358.123" y1="478.1475" y2="478.1475"/><polygon fill="#191919" points="368.123,474.1475,358.123,478.1475,368.123,482.1475,364.123,478.1475" style="stroke:#191919;stroke-width:1;"/><line style="stroke:#191919;stroke-width:1;" x1="346.123" x2="346.123" y1="442.999" y2="466.1475"/><polygon fill="#191919" points="342.123,456.1475,346.123,466.1475,350.123,456.1475,346.123,460.1475" style="stroke:#191919;stroke-width:1;"/><line style="stroke:#191919;stroke-width:1;" x1="346.123" x2="346.123" y1="337.4795" y2="357.4795"/><polygon fill="#191919" points="342.123,347.4795,346.123,357.4795,350.123,347.4795,346.123,351.4795" style="stroke:#191919;stroke-width:1;"/><line style="stroke:#191919;stroke-width:1;" x1="346.123" x2="346.123" y1="490.1475" y2="510.1475"/><polygon fill="#191919" points="342.123,500.1475,346.123,510.1475,350.123,500.1475,346.123,504.1475" style="stroke:#191919;stroke-width:1;"/><line style="stroke:#191919;stroke-width:1;" x1="123.2588" x2="123.2588" y1="175.5732" y2="180.5732"/><line style="stroke:#191919;stroke-width:1;" x1="123.2588" x2="346.123" y1="180.5732" y2="180.5732"/><line style="stroke:#191919;stroke-width:1;" x1="346.123" x2="346.123" y1="180.5732" y2="195.5732"/><polygon fill="#191919" points="342.123,185.5732,346.123,195.5732,350.123,185.5732,346.123,189.5732" style="stroke:#191919;stroke-width:1;"/><line style="stroke:#191919;stroke-width:1;" x1="346.123" x2="346.123" y1="229.542" y2="234.542"/><line style="stroke:#191919;stroke-width:1;" x1="346.123" x2="723.436" y1="234.542" y2="234.542"/><line style="stroke:#191919;stroke-width:1;" x1="723.436" x2="723.436" y1="234.542" y2="249.542"/><polygon fill="#191919" points="719.436,239.542,723.436,249.542,727.436,239.542,723.436,243.542" style="stroke:#191919;stroke-width:1;"/><line style="stroke:#191919;stroke-width:1;" x1="723.436" x2="723.436" y1="283.5107" y2="288.5107"/><line style="stroke:#191919;stroke-width:1;" x1="723.436" x2="346.123" y1="288.5107" y2="288.5107"/><line style="stroke:#191919;stroke-width:1;" x1="346.123" x2="346.123" y1="288.5107" y2="303.5107"/><polygon fill="#191919" points="342.123,293.5107,346.123,303.5107,350.123,293.5107,346.123,297.5107" style="stroke:#191919;stroke-width:1;"/><text fill="#000000" font-family="sans-serif" font-size="18" lengthAdjust="spacing" textLength="58.7725" x="92.8726" y="78.3906">Owner</text><text fill="#000000" font-family="sans-serif" font-size="18" lengthAdjust="spacing" textLength="61.4707" x="408.2146" y="78.3906">Sistem</text><text fill="#000000" font-family="sans-serif" font-size="18" lengthAdjust="spacing" textLength="72.8877" x="685.9922" y="78.3906">Rtpintar</text><g class="footer" data-source-line="5"><text fill="#888888" font-family="sans-serif" font-size="18" lengthAdjust="spacing" textLength="100.2744" x="356.5381" y="548.8555">version 1.0</text></g><?plantuml-src RP11IyD048Nl-ol6d9A0OiL3IGzYBKKGLAmM145MCcc6P7V3x6m5oOztcxQXX-vfTzytZpVFDsGxpTg0aBIuT5PMz8TmSwlyA2sT4-HHcqpLXTHe48nchuP1IDBxXyNbP9h16fagQhGdU9EEh6XEL3LOGB95zkGiJAwk4wNwbr-Bt2iV6L757BcEOoqmRiZlUDq4ExfyMIqwm4TNQa5uTiOnFBxELB_QmQPNnHCn6R071OALq419sp5HX8zk4Jz9Qi-ulKVPQDX7sfvZgOBqc0FMkgNoBeDOZONqKsSAuYaESUEA4lomq6mGR2m4c3Qr3C_ToVDqCS_o78AFDNrtx2fgqOFednP7YWyB520Szjzeoy5FnGjLiKxN_GC0?></g></svg>