<?plantuml 1.2026.2?><svg xmlns="http://www.w3.org/2000/svg" xmlns:xlink="http://www.w3.org/1999/xlink" contentStyleType="text/css" data-diagram-type="ACTIVITY" height="1091px" preserveAspectRatio="none" style="width:2391px;height:1091px;background:#F9F9F9;" version="1.1" viewBox="0 0 2391 1091" width="2391px" zoomAndPan="magnify"><title>(ACD-06) Negosiasi Kontrak</title><defs/><g><rect fill="#F9F9F9" height="1091" style="stroke:none;stroke-width:1;" width="2391" x="0" y="0"/><g class="title" data-source-line="4"><text fill="#000000" font-family="sans-serif" font-size="24" font-weight="bold" lengthAdjust="spacing" textLength="377.0039" x="1005.4986" y="42.2773">(ACD-06) Negosiasi Kontrak</text></g><rect fill="none" height="20.9531" style="stroke:none;stroke-width:1;" width="2358.0011" x="15" y="61.6826"/><rect fill="#F1F1F1" height="33.9688" rx="3.5" ry="3.5" style="stroke:#181818;stroke-width:0.5;" width="198.0254" x="41.8945" y="793.2607"/><text fill="#000000" font-family="sans-serif" font-size="12" lengthAdjust="spacing" textLength="178.0254" x="51.8945" y="814.3994">Review Permintaan Negosiasi</text><rect fill="#F1F1F1" height="33.9688" rx="3.5" ry="3.5" style="stroke:#181818;stroke-width:0.5;" width="205.4609" x="38.1768" y="847.2295"/><text fill="#000000" font-family="sans-serif" font-size="12" lengthAdjust="spacing" textLength="185.4609" x="48.1768" y="868.3682">Respons Permintaan Negosiasi</text><rect fill="#F1F1F1" height="33.9688" rx="3.5" ry="3.5" style="stroke:#181818;stroke-width:0.5;" width="239.8145" x="21" y="949.6006"/><text fill="#000000" font-family="sans-serif" font-size="12" lengthAdjust="spacing" textLength="219.8145" x="31" y="970.7393">Kembali Ke Tahap Membuat Kontrak</text><polygon fill="#F1F1F1" points="52.4426,901.1982,229.3718,901.1982,241.3718,913.1982,229.3718,925.1982,52.4426,925.1982,40.4426,913.1982,52.4426,901.1982" style="stroke:#181818;stroke-width:0.5;"/><text fill="#000000" font-family="sans-serif" font-size="11" lengthAdjust="spacing" textLength="13.46" x="144.9072" y="935.4087">Ya</text><text fill="#000000" font-family="sans-serif" font-size="11" lengthAdjust="spacing" textLength="176.9292" x="52.4426" y="917.0063">Permintaan Negosiasi Diterima?</text><text fill="#000000" font-family="sans-serif" font-size="11" lengthAdjust="spacing" textLength="29.8687" x="241.3718" y="910.604">Tidak</text><ellipse cx="140.9072" cy="1014.5693" fill="none" rx="11" ry="11" style="stroke:#222222;stroke-width:1;"/><ellipse cx="140.9072" cy="1014.5693" fill="#222222" rx="6" ry="6" style="stroke:#222222;stroke-width:1;"/><rect fill="#F1F1F1" height="47.9375" rx="3.5" ry="3.5" style="stroke:#181818;stroke-width:0.5;" width="161.5156" x="281.2405" y="404.6279"/><text fill="#000000" font-family="sans-serif" font-size="12" lengthAdjust="spacing" textLength="141.5156" x="291.2405" y="425.7666">Mendapatkan Notifikasi</text><text fill="#000000" font-family="sans-serif" font-size="12" lengthAdjust="spacing" textLength="102.5449" x="291.2405" y="439.7354">Kontrak Diterima</text><rect fill="#F1F1F1" height="33.9688" rx="3.5" ry="3.5" style="stroke:#181818;stroke-width:0.5;" width="153.7227" x="285.137" y="487.5654"/><text fill="#000000" font-family="sans-serif" font-size="12" lengthAdjust="spacing" textLength="133.7227" x="295.137" y="508.7041">Lanjut ke TTD Kontrak</text><ellipse cx="361.9983" cy="567.5342" fill="none" rx="11" ry="11" style="stroke:#222222;stroke-width:1;"/><ellipse cx="361.9983" cy="567.5342" fill="#222222" rx="6" ry="6" style="stroke:#222222;stroke-width:1;"/><line style="stroke:#000000;stroke-width:1.5;" x1="15" x2="15" y1="61.6826" y2="1057.5693"/><path d="M969.6558,344.3623 L969.6558,360.4951 L949.6558,364.4951 L969.6558,368.4951 L969.6558,384.6279 A0,0 0 0 0 969.6558,384.6279 L1109.4585,384.6279 A0,0 0 0 0 1109.4585,384.6279 L1109.4585,354.3623 L1099.4585,344.3623 L969.6558,344.3623 A0,0 0 0 0 969.6558,344.3623" fill="#E5E5E5" style="stroke:#191919;stroke-width:1.5;"/><path d="M1099.4585,344.3623 L1099.4585,354.3623 L1109.4585,354.3623 L1099.4585,344.3623" fill="#E5E5E5" style="stroke:#191919;stroke-width:1.5;"/><text fill="#191919" font-family="sans-serif" font-size="13" font-weight="bold" lengthAdjust="spacing" textLength="32.5825" x="975.6558" y="361.4292">(DB)</text><text fill="#191919" font-family="sans-serif" font-size="13" lengthAdjust="spacing" textLength="82.0879" x="1012.3706" y="361.4292">rentals table</text><text fill="#191919" font-family="sans-serif" font-size="13" lengthAdjust="spacing" textLength="101.9053" x="975.6558" y="376.562">status: rejected</text><rect fill="#F1F1F1" height="33.9688" rx="3.5" ry="3.5" style="stroke:#181818;stroke-width:0.5;" width="156.084" x="793.5718" y="347.5107"/><text fill="#000000" font-family="sans-serif" font-size="12" lengthAdjust="spacing" textLength="136.084" x="803.5718" y="368.6494">Update Status Kontrak</text><ellipse cx="871.6138" cy="414.6279" fill="#F1F1F1" rx="10" ry="10" style="stroke:#181818;stroke-width:0.5;"/><path d="M871.7231,410.7998 L870.1138,415.1436 L873.3325,415.1436 L871.7231,410.7998 Z M871.0513,409.6279 L872.395,409.6279 L875.7231,418.3779 L874.4888,418.3779 L873.6919,416.1279 L869.7544,416.1279 L868.9575,418.3779 L867.7075,418.3779 L871.0513,409.6279 Z " fill="#000000"/><rect fill="#F1F1F1" height="33.9688" rx="3.5" ry="3.5" style="stroke:#181818;stroke-width:0.5;" width="210.6934" x="452.7561" y="627.5967"/><text fill="#000000" font-family="sans-serif" font-size="12" lengthAdjust="spacing" textLength="190.6934" x="462.7561" y="648.7354">Membatalkan Permintaan Sewa</text><path d="M644.0569,696.5654 L644.0569,712.6982 L624.0569,716.6982 L644.0569,720.6982 L644.0569,736.8311 A0,0 0 0 0 644.0569,736.8311 L816.0994,736.8311 A0,0 0 0 0 816.0994,736.8311 L816.0994,706.5654 L806.0994,696.5654 L644.0569,696.5654 A0,0 0 0 0 644.0569,696.5654" fill="#E5E5E5" style="stroke:#191919;stroke-width:1.5;"/><path d="M806.0994,696.5654 L806.0994,706.5654 L816.0994,706.5654 L806.0994,696.5654" fill="#E5E5E5" style="stroke:#191919;stroke-width:1.5;"/><text fill="#191919" font-family="sans-serif" font-size="13" font-weight="bold" lengthAdjust="spacing" textLength="32.5825" x="650.0569" y="713.6323">(DB)</text><text fill="#191919" font-family="sans-serif" font-size="13" lengthAdjust="spacing" textLength="82.0879" x="686.7717" y="713.6323">rentals table</text><text fill="#191919" font-family="sans-serif" font-size="13" lengthAdjust="spacing" textLength="151.0425" x="650.0569" y="728.7651">status: tenant_rejected</text><rect fill="#F1F1F1" height="33.9688" rx="3.5" ry="3.5" style="stroke:#181818;stroke-width:0.5;" width="131.9082" x="492.1487" y="699.7139"/><text fill="#000000" font-family="sans-serif" font-size="12" lengthAdjust="spacing" textLength="111.9082" x="502.1487" y="720.8525">Update Data Sewa</text><ellipse cx="558.1028" cy="782.8311" fill="none" rx="11" ry="11" style="stroke:#222222;stroke-width:1;"/><ellipse cx="558.1028" cy="782.8311" fill="#222222" rx="6" ry="6" style="stroke:#222222;stroke-width:1;"/><path d="M1271.0789,717.9951 L1271.0789,734.1279 L1251.0789,738.1279 L1271.0789,742.1279 L1271.0789,758.2607 A0,0 0 0 0 1271.0789,758.2607 L1424.345,758.2607 A0,0 0 0 0 1424.345,758.2607 L1424.345,727.9951 L1414.345,717.9951 L1271.0789,717.9951 A0,0 0 0 0 1271.0789,717.9951" fill="#E5E5E5" style="stroke:#191919;stroke-width:1.5;"/><path d="M1414.345,717.9951 L1414.345,727.9951 L1424.345,727.9951 L1414.345,717.9951" fill="#E5E5E5" style="stroke:#191919;stroke-width:1.5;"/><text fill="#191919" font-family="sans-serif" font-size="13" font-weight="bold" lengthAdjust="spacing" textLength="32.5825" x="1277.0789" y="735.062">(DB)</text><text fill="#191919" font-family="sans-serif" font-size="13" lengthAdjust="spacing" textLength="82.0879" x="1313.7937" y="735.062">rentals table</text><text fill="#191919" font-family="sans-serif" font-size="13" lengthAdjust="spacing" textLength="132.2661" x="1277.0789" y="750.1948">status: renegotiated</text><rect fill="#F1F1F1" height="33.9688" rx="3.5" ry="3.5" style="stroke:#181818;stroke-width:0.5;" width="131.9082" x="1119.1707" y="721.1436"/><text fill="#000000" font-family="sans-serif" font-size="12" lengthAdjust="spacing" textLength="111.9082" x="1129.1707" y="742.2822">Update Data Sewa</text><path d="M1667.9739,344.3623 L1667.9739,360.4951 L1647.9739,364.4951 L1667.9739,368.4951 L1667.9739,384.6279 A0,0 0 0 0 1667.9739,384.6279 L1853.2004,384.6279 A0,0 0 0 0 1853.2004,384.6279 L1853.2004,354.3623 L1843.2004,344.3623 L1667.9739,344.3623 A0,0 0 0 0 1667.9739,344.3623" fill="#E5E5E5" style="stroke:#191919;stroke-width:1.5;"/><path d="M1843.2004,344.3623 L1843.2004,354.3623 L1853.2004,354.3623 L1843.2004,344.3623" fill="#E5E5E5" style="stroke:#191919;stroke-width:1.5;"/><text fill="#191919" font-family="sans-serif" font-size="13" font-weight="bold" lengthAdjust="spacing" textLength="32.5825" x="1673.9739" y="361.4292">(DB)</text><text fill="#191919" font-family="sans-serif" font-size="13" lengthAdjust="spacing" textLength="82.0879" x="1710.6887" y="361.4292">rentals table</text><text fill="#191919" font-family="sans-serif" font-size="13" lengthAdjust="spacing" textLength="164.2266" x="1673.9739" y="376.562">status: tenants_accepted</text><rect fill="#F1F1F1" height="33.9688" rx="3.5" ry="3.5" style="stroke:#181818;stroke-width:0.5;" width="213.6289" x="1434.345" y="347.5107"/><text fill="#000000" font-family="sans-serif" font-size="12" lengthAdjust="spacing" textLength="193.6289" x="1444.345" y="368.6494">Simpan Status Kontrak Diterima</text><line style="stroke:#000000;stroke-width:1.5;" x1="446.7561" x2="446.7561" y1="61.6826" y2="1057.5693"/><ellipse cx="2286.3824" cy="97.6357" fill="#222222" rx="10" ry="10" style="stroke:#222222;stroke-width:1;"/><rect fill="#F1F1F1" height="47.9375" rx="3.5" ry="3.5" style="stroke:#181818;stroke-width:0.5;" width="161.5156" x="2205.6246" y="127.6357"/><text fill="#000000" font-family="sans-serif" font-size="12" lengthAdjust="spacing" textLength="141.5156" x="2215.6246" y="148.7744">Mendapatkan Notifikasi</text><text fill="#000000" font-family="sans-serif" font-size="12" lengthAdjust="spacing" textLength="132.041" x="2215.6246" y="162.7432">Kontrak Sudah Dibuat</text><rect fill="#F1F1F1" height="33.9688" rx="3.5" ry="3.5" style="stroke:#181818;stroke-width:0.5;" width="130.8652" x="2220.9498" y="195.5732"/><text fill="#000000" font-family="sans-serif" font-size="12" lengthAdjust="spacing" textLength="110.8652" x="2230.9498" y="216.7119">Review Isi Kontrak</text><rect fill="#F1F1F1" height="33.9688" rx="3.5" ry="3.5" style="stroke:#181818;stroke-width:0.5;" width="154.3789" x="2209.193" y="249.542"/><text fill="#000000" font-family="sans-serif" font-size="12" lengthAdjust="spacing" textLength="134.3789" x="2219.193" y="270.6807">Terima/Reject Kontrak</text><polygon fill="#F1F1F1" points="2236.4635,303.5107,2336.3014,303.5107,2348.3014,315.5107,2336.3014,327.5107,2236.4635,327.5107,2224.4635,315.5107,2236.4635,303.5107" style="stroke:#181818;stroke-width:0.5;"/><text fill="#000000" font-family="sans-serif" font-size="11" lengthAdjust="spacing" textLength="99.8379" x="2236.4635" y="319.3188">Kontrak Diterima?</text><text fill="#000000" font-family="sans-serif" font-size="11" lengthAdjust="spacing" textLength="29.8687" x="2194.5948" y="312.9165">Tidak</text><text fill="#000000" font-family="sans-serif" font-size="11" lengthAdjust="spacing" textLength="13.46" x="2348.3014" y="312.9165">Ya</text><ellipse cx="1941.6096" cy="469.6279" fill="#F1F1F1" rx="10" ry="10" style="stroke:#181818;stroke-width:0.5;"/><path d="M1941.719,465.7998 L1940.1096,470.1436 L1943.3284,470.1436 L1941.719,465.7998 Z M1941.0471,464.6279 L1942.3909,464.6279 L1945.719,473.3779 L1944.4846,473.3779 L1943.6877,471.1279 L1939.7502,471.1279 L1938.9534,473.3779 L1937.7034,473.3779 L1941.0471,464.6279 Z " fill="#000000"/><rect fill="#F1F1F1" height="33.9688" rx="3.5" ry="3.5" style="stroke:#181818;stroke-width:0.5;" width="154.8184" x="1864.2004" y="514.6279"/><text fill="#000000" font-family="sans-serif" font-size="12" lengthAdjust="spacing" textLength="134.8184" x="1874.2004" y="535.7666">Mengajukan Negosiasi</text><polygon fill="#F1F1F1" points="1912.1787,583.5967,1971.0405,583.5967,1983.0405,595.5967,1971.0405,607.5967,1912.1787,607.5967,1900.1787,595.5967,1912.1787,583.5967" style="stroke:#181818;stroke-width:0.5;"/><text fill="#000000" font-family="sans-serif" font-size="11" lengthAdjust="spacing" textLength="58.8618" x="1912.1787" y="599.4048">Negosiasi?</text><text fill="#000000" font-family="sans-serif" font-size="11" lengthAdjust="spacing" textLength="29.8687" x="1870.3101" y="593.0024">Tidak</text><text fill="#000000" font-family="sans-serif" font-size="11" lengthAdjust="spacing" textLength="13.46" x="1983.0405" y="593.0024">Ya</text><path d="M1906.0952,627.5967 L1906.0952,682.9951 A0,0 0 0 0 1906.0952,682.9951 L2154.0112,682.9951 A0,0 0 0 0 2154.0112,682.9951 L2154.0112,659.2959 L2174.0112,655.2959 L2154.0112,651.2959 L2154.0112,637.5967 L2144.0112,627.5967 L1906.0952,627.5967 A0,0 0 0 0 1906.0952,627.5967" fill="#E5E5E5" style="stroke:#191919;stroke-width:1.5;"/><path d="M2144.0112,627.5967 L2144.0112,637.5967 L2154.0112,637.5967 L2144.0112,627.5967" fill="#E5E5E5" style="stroke:#191919;stroke-width:1.5;"/><text fill="#191919" font-family="sans-serif" font-size="13" font-weight="bold" lengthAdjust="spacing" textLength="34.5503" x="1912.0952" y="644.6636">Data</text><text fill="#191919" font-family="sans-serif" font-size="13" lengthAdjust="spacing" textLength="4.3799" x="1946.6455" y="644.6636">:</text><text fill="#191919" font-family="sans-serif" font-size="13" lengthAdjust="spacing" textLength="226.916" x="1912.0952" y="659.7964">Bagian Kontrak yang Ingin Diubah,</text><text fill="#191919" font-family="sans-serif" font-size="13" lengthAdjust="spacing" textLength="117.6665" x="1912.0952" y="674.9292">Alasan Perubahan</text><rect fill="#F1F1F1" height="33.9688" rx="3.5" ry="3.5" style="stroke:#181818;stroke-width:0.5;" width="162.2188" x="2174.0112" y="638.3115"/><text fill="#000000" font-family="sans-serif" font-size="12" lengthAdjust="spacing" textLength="142.2188" x="2184.0112" y="659.4502">Mengisi Form Negosiasi</text><line style="stroke:#000000;stroke-width:1.5;" x1="1858.2004" x2="1858.2004" y1="61.6826" y2="1057.5693"/><line style="stroke:#000000;stroke-width:1.5;" x1="2371.1403" x2="2371.1403" y1="61.6826" y2="1057.5693"/><line style="stroke:#191919;stroke-width:1;" x1="140.9072" x2="140.9072" y1="827.2295" y2="847.2295"/><polygon fill="#191919" points="136.9072,837.2295,140.9072,847.2295,144.9072,837.2295,140.9072,841.2295" style="stroke:#191919;stroke-width:1;"/><line style="stroke:#191919;stroke-width:1;" x1="140.9072" x2="140.9072" y1="925.1982" y2="949.6006"/><polygon fill="#191919" points="136.9072,939.6006,140.9072,949.6006,144.9072,939.6006,140.9072,943.6006" style="stroke:#191919;stroke-width:1;"/><line style="stroke:#191919;stroke-width:1;" x1="140.9072" x2="140.9072" y1="983.5693" y2="1003.5693"/><polygon fill="#191919" points="136.9072,993.5693,140.9072,1003.5693,144.9072,993.5693,140.9072,997.5693" style="stroke:#191919;stroke-width:1;"/><line style="stroke:#191919;stroke-width:1;" x1="140.9072" x2="140.9072" y1="881.1982" y2="901.1982"/><polygon fill="#191919" points="136.9072,891.1982,140.9072,901.1982,144.9072,891.1982,140.9072,895.1982" style="stroke:#191919;stroke-width:1;"/><line style="stroke:#191919;stroke-width:1;" x1="361.9983" x2="361.9983" y1="452.5654" y2="487.5654"/><polygon fill="#191919" points="357.9983,477.5654,361.9983,487.5654,365.9983,477.5654,361.9983,481.5654" style="stroke:#191919;stroke-width:1;"/><line style="stroke:#191919;stroke-width:1;" x1="361.9983" x2="361.9983" y1="521.5342" y2="556.5342"/><polygon fill="#191919" points="357.9983,546.5342,361.9983,556.5342,365.9983,546.5342,361.9983,550.5342" style="stroke:#191919;stroke-width:1;"/><line style="stroke:#191919;stroke-width:1;" x1="871.6138" x2="871.6138" y1="381.4795" y2="404.6279"/><polygon fill="#191919" points="867.6138,394.6279,871.6138,404.6279,875.6138,394.6279,871.6138,398.6279" style="stroke:#191919;stroke-width:1;"/><line style="stroke:#191919;stroke-width:1;" x1="558.1028" x2="558.1028" y1="661.5654" y2="699.7139"/><polygon fill="#191919" points="554.1028,689.7139,558.1028,699.7139,562.1028,689.7139,558.1028,693.7139" style="stroke:#191919;stroke-width:1;"/><line style="stroke:#191919;stroke-width:1;" x1="558.1028" x2="558.1028" y1="733.6826" y2="771.8311"/><polygon fill="#191919" points="554.1028,761.8311,558.1028,771.8311,562.1028,761.8311,558.1028,765.8311" style="stroke:#191919;stroke-width:1;"/><line style="stroke:#191919;stroke-width:1;" x1="2286.3824" x2="2286.3824" y1="107.6357" y2="127.6357"/><polygon fill="#191919" points="2282.3824,117.6357,2286.3824,127.6357,2290.3824,117.6357,2286.3824,121.6357" style="stroke:#191919;stroke-width:1;"/><line style="stroke:#191919;stroke-width:1;" x1="2286.3824" x2="2286.3824" y1="175.5732" y2="195.5732"/><polygon fill="#191919" points="2282.3824,185.5732,2286.3824,195.5732,2290.3824,185.5732,2286.3824,189.5732" style="stroke:#191919;stroke-width:1;"/><line style="stroke:#191919;stroke-width:1;" x1="2286.3824" x2="2286.3824" y1="229.542" y2="249.542"/><polygon fill="#191919" points="2282.3824,239.542,2286.3824,249.542,2290.3824,239.542,2286.3824,243.542" style="stroke:#191919;stroke-width:1;"/><line style="stroke:#191919;stroke-width:1;" x1="1941.6096" x2="1941.6096" y1="479.6279" y2="514.6279"/><polygon fill="#191919" points="1937.6096,504.6279,1941.6096,514.6279,1945.6096,504.6279,1941.6096,508.6279" style="stroke:#191919;stroke-width:1;"/><line style="stroke:#191919;stroke-width:1;" x1="1983.0405" x2="2255.1206" y1="595.5967" y2="595.5967"/><line style="stroke:#191919;stroke-width:1;" x1="2255.1206" x2="2255.1206" y1="595.5967" y2="638.3115"/><polygon fill="#191919" points="2251.1206,628.3115,2255.1206,638.3115,2259.1206,628.3115,2255.1206,632.3115" style="stroke:#191919;stroke-width:1;"/><line style="stroke:#191919;stroke-width:1;" x1="1941.6096" x2="1941.6096" y1="548.5967" y2="583.5967"/><polygon fill="#191919" points="1937.6096,573.5967,1941.6096,583.5967,1945.6096,573.5967,1941.6096,577.5967" style="stroke:#191919;stroke-width:1;"/><line style="stroke:#191919;stroke-width:1;" x1="2286.3824" x2="2286.3824" y1="283.5107" y2="303.5107"/><polygon fill="#191919" points="2282.3824,293.5107,2286.3824,303.5107,2290.3824,293.5107,2286.3824,297.5107" style="stroke:#191919;stroke-width:1;"/><line style="stroke:#191919;stroke-width:1;" x1="2255.1206" x2="2255.1206" y1="672.2803" y2="696.7119"/><line style="stroke:#191919;stroke-width:1;" x1="2255.1206" x2="1185.1248" y1="696.7119" y2="696.7119"/><line style="stroke:#191919;stroke-width:1;" x1="1185.1248" x2="1185.1248" y1="696.7119" y2="721.1436"/><polygon fill="#191919" points="1181.1248,711.1436,1185.1248,721.1436,1189.1248,711.1436,1185.1248,715.1436" style="stroke:#191919;stroke-width:1;"/><line style="stroke:#191919;stroke-width:1;" x1="1185.1248" x2="1185.1248" y1="755.1123" y2="774.1865"/><line style="stroke:#191919;stroke-width:1;" x1="1185.1248" x2="140.9072" y1="774.1865" y2="774.1865"/><line style="stroke:#191919;stroke-width:1;" x1="140.9072" x2="140.9072" y1="774.1865" y2="793.2607"/><polygon fill="#191919" points="136.9072,783.2607,140.9072,793.2607,144.9072,783.2607,140.9072,787.2607" style="stroke:#191919;stroke-width:1;"/><line style="stroke:#191919;stroke-width:1;" x1="1900.1787" x2="558.1028" y1="595.5967" y2="595.5967"/><line style="stroke:#191919;stroke-width:1;" x1="558.1028" x2="558.1028" y1="595.5967" y2="627.5967"/><polygon fill="#191919" points="554.1028,617.5967,558.1028,627.5967,562.1028,617.5967,558.1028,621.5967" style="stroke:#191919;stroke-width:1;"/><line style="stroke:#191919;stroke-width:1;" x1="1541.1594" x2="1541.1594" y1="381.4795" y2="389.6279"/><line style="stroke:#191919;stroke-width:1;" x1="1541.1594" x2="361.9983" y1="389.6279" y2="389.6279"/><line style="stroke:#191919;stroke-width:1;" x1="361.9983" x2="361.9983" y1="389.6279" y2="404.6279"/><polygon fill="#191919" points="357.9983,394.6279,361.9983,404.6279,365.9983,394.6279,361.9983,398.6279" style="stroke:#191919;stroke-width:1;"/><line style="stroke:#191919;stroke-width:1;" x1="2224.4635" x2="871.6138" y1="315.5107" y2="315.5107"/><line style="stroke:#191919;stroke-width:1;" x1="871.6138" x2="871.6138" y1="315.5107" y2="347.5107"/><polygon fill="#191919" points="867.6138,337.5107,871.6138,347.5107,875.6138,337.5107,871.6138,341.5107" style="stroke:#191919;stroke-width:1;"/><line style="stroke:#191919;stroke-width:1;" x1="2348.3014" x2="2360.3014" y1="315.5107" y2="315.5107"/><line style="stroke:#191919;stroke-width:1;" x1="2360.3014" x2="2360.3014" y1="315.5107" y2="332.5107"/><line style="stroke:#191919;stroke-width:1;" x1="2360.3014" x2="1541.1594" y1="332.5107" y2="332.5107"/><line style="stroke:#191919;stroke-width:1;" x1="1541.1594" x2="1541.1594" y1="332.5107" y2="347.5107"/><polygon fill="#191919" points="1537.1594,337.5107,1541.1594,347.5107,1545.1594,337.5107,1541.1594,341.5107" style="stroke:#191919;stroke-width:1;"/><text fill="#000000" font-family="sans-serif" font-size="18" lengthAdjust="spacing" textLength="58.7725" x="201.4918" y="78.3906">Owner</text><text fill="#000000" font-family="sans-serif" font-size="18" lengthAdjust="spacing" textLength="61.4707" x="1121.7429" y="78.3906">Sistem</text><text fill="#000000" font-family="sans-serif" font-size="18" lengthAdjust="spacing" textLength="62.9736" x="2083.1835" y="78.3906">Tenant</text><g class="footer" data-source-line="5"><text fill="#888888" font-family="sans-serif" font-size="18" lengthAdjust="spacing" textLength="100.2744" x="1143.8633" y="1074.2773">version 1.0</text></g><?plantuml-src jPHDRzim38Rl_XLSJewnZtOOXi4z3EcC04MtRgYpmu011HCpYM9RDYIvnORy-59o_9Muwu1XEbaYHV5zJ5AdGfQeC0SZJ4RpGffO_2Pu-yxJhMbU58PKQpl_uBqmMye9SbJQSnTXuiy-HQ_Eta_XXZQ55gW5NFCDXUd4Mxi0CBadfKKXuVprsSJRVtsGfFRUFXRQKCuV2v8epTxJ1fNnmYya4opHf2ZXfZ1YBLAE-bCUma9S9RY5I2mhD1TUU4ltWXxWgdkO3nUaH8vlRcb7AzETYpNuJPX86EVqSGgiIeA_40ccKmzujRdPJVYzJD0Gn0PDfRjWrYPP82YnsHgtjIi8_EXo6WIWI1hCD1XSPjIQjOiIijMcHeapi68NoctyMPr4GWPNspgV1b7VRa5jS5SvJWtyEYshipqQ4tWYyX0mNoBdR2D-8vKB5i2VCJtWHUTrm16nvv5fXCPV4EbJCKxdtG3E2Q3wGb7Mw39DuF_0dgu-h1QKuFgO5oe_HjNcdT7wE6qhCGZ2mUabRWGpQQhe5yeDN75uoGLLBN7xSk0zor3NCAqDvTE2Jl_6_-JC7ep12FmZvAPLsvGElTQhZH6QxANBGkfdt6oDZdcSDcR_vxe7hcsTPjpl10kcMe8jN9u6mzxigkEey4TnzpkhMRqEFF0HwoVXT1Nft8PrEHmeiSXBsrU3WTBg_jV9KlUGliFLYihH2TDF_TbnEqmh_8noLnb86VqY6W9t19pwHm00?></g></svg>