<?plantuml 1.2026.2?><svg xmlns="http://www.w3.org/2000/svg" xmlns:xlink="http://www.w3.org/1999/xlink" contentStyleType="text/css" data-diagram-type="ACTIVITY" height="669px" preserveAspectRatio="none" style="width:675px;height:669px;background:#F9F9F9;" version="1.1" viewBox="0 0 675 669" width="675px" zoomAndPan="magnify"><title>(ACD-15) Reset Password</title><defs/><g><rect fill="#F9F9F9" height="669" style="stroke:none;stroke-width:1;" width="675" x="0" y="0"/><g class="title" data-source-line="4"><text fill="#000000" font-family="sans-serif" font-size="24" font-weight="bold" lengthAdjust="spacing" textLength="344.9414" x="163.7339" y="42.2773">(ACD-15) Reset Password</text></g><rect fill="none" height="20.9531" style="stroke:none;stroke-width:1;" width="642.4092" x="15" y="61.6826"/><ellipse cx="135.1182" cy="97.6357" fill="#222222" rx="10" ry="10" style="stroke:#222222;stroke-width:1;"/><rect fill="#F1F1F1" height="33.9688" rx="3.5" ry="3.5" style="stroke:#181818;stroke-width:0.5;" width="228.2363" x="21" y="127.6357"/><text fill="#000000" font-family="sans-serif" font-size="12" lengthAdjust="spacing" textLength="208.2363" x="31" y="148.7744">Masuk ke halaman reset password</text><rect fill="#F1F1F1" height="33.9688" rx="3.5" ry="3.5" style="stroke:#181818;stroke-width:0.5;" width="127.666" x="71.2852" y="181.6045"/><text fill="#000000" font-family="sans-serif" font-size="12" lengthAdjust="spacing" textLength="107.666" x="81.2852" y="202.7432">Isi password lama</text><rect fill="#F1F1F1" height="33.9688" rx="3.5" ry="3.5" style="stroke:#181818;stroke-width:0.5;" width="125.4453" x="72.3955" y="235.5732"/><text fill="#000000" font-family="sans-serif" font-size="12" lengthAdjust="spacing" textLength="105.4453" x="82.3955" y="256.7119">Isi password baru</text><rect fill="#F1F1F1" height="33.9688" rx="3.5" ry="3.5" style="stroke:#181818;stroke-width:0.5;" width="176.2578" x="46.9893" y="289.542"/><text fill="#000000" font-family="sans-serif" font-size="12" lengthAdjust="spacing" textLength="156.2578" x="56.9893" y="310.6807">Konfirmasi password baru</text><rect fill="#F1F1F1" height="33.9688" rx="3.5" ry="3.5" style="stroke:#181818;stroke-width:0.5;" width="134.9961" x="67.6201" y="343.5107"/><text fill="#000000" font-family="sans-serif" font-size="12" lengthAdjust="spacing" textLength="114.9961" x="77.6201" y="364.6494">Klik tombol simpan</text><rect fill="#F1F1F1" height="33.9688" rx="3.5" ry="3.5" style="stroke:#181818;stroke-width:0.5;" width="179.1465" x="45.5449" y="559.3857"/><text fill="#000000" font-family="sans-serif" font-size="12" lengthAdjust="spacing" textLength="159.1465" x="55.5449" y="580.5244">Redirect ke halaman profil</text><ellipse cx="135.1182" cy="624.3545" fill="none" rx="11" ry="11" style="stroke:#222222;stroke-width:1;"/><ellipse cx="135.1182" cy="624.3545" fill="#222222" rx="6" ry="6" style="stroke:#222222;stroke-width:1;"/><line style="stroke:#000000;stroke-width:1.5;" x1="15" x2="15" y1="61.6826" y2="635.3545"/><rect fill="#F1F1F1" height="33.9688" rx="3.5" ry="3.5" style="stroke:#181818;stroke-width:0.5;" width="207.6465" x="305.792" y="397.4795"/><text fill="#000000" font-family="sans-serif" font-size="12" lengthAdjust="spacing" textLength="187.6465" x="315.792" y="418.6182">Validasi data yang dimasukkan</text><path d="M527.4209,455.8662 L527.4209,464.4326 L507.4209,468.4326 L527.4209,472.4326 L527.4209,480.999 A0,0 0 0 0 527.4209,480.999 L650.5483,480.999 A0,0 0 0 0 650.5483,480.999 L650.5483,465.8662 L640.5483,455.8662 L527.4209,455.8662 A0,0 0 0 0 527.4209,455.8662" fill="#E5E5E5" style="stroke:#191919;stroke-width:1.5;"/><path d="M640.5483,455.8662 L640.5483,465.8662 L650.5483,465.8662 L640.5483,455.8662" fill="#E5E5E5" style="stroke:#191919;stroke-width:1.5;"/><text fill="#191919" font-family="sans-serif" font-size="13" font-weight="bold" lengthAdjust="spacing" textLength="32.5825" x="533.4209" y="472.9331">(DB)</text><text fill="#191919" font-family="sans-serif" font-size="13" lengthAdjust="spacing" textLength="65.4126" x="570.1357" y="472.9331">user table</text><rect fill="#F1F1F1" height="33.9688" rx="3.5" ry="3.5" style="stroke:#181818;stroke-width:0.5;" width="195.6113" x="311.8096" y="451.4482"/><text fill="#000000" font-family="sans-serif" font-size="12" lengthAdjust="spacing" textLength="175.6113" x="321.8096" y="472.5869">Perbarui password pengguna</text><rect fill="#F1F1F1" height="33.9688" rx="3.5" ry="3.5" style="stroke:#181818;stroke-width:0.5;" width="300.7578" x="259.2363" y="505.417"/><text fill="#000000" font-family="sans-serif" font-size="12" lengthAdjust="spacing" textLength="280.7578" x="269.2363" y="526.5557">Tampilkan pesan password berhasil diperbarui</text><line style="stroke:#000000;stroke-width:1.5;" x1="253.2363" x2="253.2363" y1="61.6826" y2="635.3545"/><line style="stroke:#000000;stroke-width:1.5;" x1="655.5483" x2="655.5483" y1="61.6826" y2="635.3545"/><line style="stroke:#191919;stroke-width:1;" x1="135.1182" x2="135.1182" y1="107.6357" y2="127.6357"/><polygon fill="#191919" points="131.1182,117.6357,135.1182,127.6357,139.1182,117.6357,135.1182,121.6357" style="stroke:#191919;stroke-width:1;"/><line style="stroke:#191919;stroke-width:1;" x1="135.1182" x2="135.1182" y1="161.6045" y2="181.6045"/><polygon fill="#191919" points="131.1182,171.6045,135.1182,181.6045,139.1182,171.6045,135.1182,175.6045" style="stroke:#191919;stroke-width:1;"/><line style="stroke:#191919;stroke-width:1;" x1="135.1182" x2="135.1182" y1="215.5732" y2="235.5732"/><polygon fill="#191919" points="131.1182,225.5732,135.1182,235.5732,139.1182,225.5732,135.1182,229.5732" style="stroke:#191919;stroke-width:1;"/><line style="stroke:#191919;stroke-width:1;" x1="135.1182" x2="135.1182" y1="269.542" y2="289.542"/><polygon fill="#191919" points="131.1182,279.542,135.1182,289.542,139.1182,279.542,135.1182,283.542" style="stroke:#191919;stroke-width:1;"/><line style="stroke:#191919;stroke-width:1;" x1="135.1182" x2="135.1182" y1="323.5107" y2="343.5107"/><polygon fill="#191919" points="131.1182,333.5107,135.1182,343.5107,139.1182,333.5107,135.1182,337.5107" style="stroke:#191919;stroke-width:1;"/><line style="stroke:#191919;stroke-width:1;" x1="135.1182" x2="135.1182" y1="593.3545" y2="613.3545"/><polygon fill="#191919" points="131.1182,603.3545,135.1182,613.3545,139.1182,603.3545,135.1182,607.3545" style="stroke:#191919;stroke-width:1;"/><line style="stroke:#191919;stroke-width:1;" x1="409.6152" x2="409.6152" y1="431.4482" y2="451.4482"/><polygon fill="#191919" points="405.6152,441.4482,409.6152,451.4482,413.6152,441.4482,409.6152,445.4482" style="stroke:#191919;stroke-width:1;"/><line style="stroke:#191919;stroke-width:1;" x1="409.6152" x2="409.6152" y1="485.417" y2="505.417"/><polygon fill="#191919" points="405.6152,495.417,409.6152,505.417,413.6152,495.417,409.6152,499.417" style="stroke:#191919;stroke-width:1;"/><line style="stroke:#191919;stroke-width:1;" x1="135.1182" x2="135.1182" y1="377.4795" y2="382.4795"/><line style="stroke:#191919;stroke-width:1;" x1="135.1182" x2="409.6152" y1="382.4795" y2="382.4795"/><line style="stroke:#191919;stroke-width:1;" x1="409.6152" x2="409.6152" y1="382.4795" y2="397.4795"/><polygon fill="#191919" points="405.6152,387.4795,409.6152,397.4795,413.6152,387.4795,409.6152,391.4795" style="stroke:#191919;stroke-width:1;"/><line style="stroke:#191919;stroke-width:1;" x1="409.6152" x2="409.6152" y1="539.3857" y2="544.3857"/><line style="stroke:#191919;stroke-width:1;" x1="409.6152" x2="135.1182" y1="544.3857" y2="544.3857"/><line style="stroke:#191919;stroke-width:1;" x1="135.1182" x2="135.1182" y1="544.3857" y2="559.3857"/><polygon fill="#191919" points="131.1182,549.3857,135.1182,559.3857,139.1182,549.3857,135.1182,553.3857" style="stroke:#191919;stroke-width:1;"/><text fill="#000000" font-family="sans-serif" font-size="18" lengthAdjust="spacing" textLength="90.0352" x="89.1006" y="78.3906">Pengguna</text><text fill="#000000" font-family="sans-serif" font-size="18" lengthAdjust="spacing" textLength="61.4707" x="423.657" y="78.3906">Sistem</text><g class="footer" data-source-line="5"><text fill="#888888" font-family="sans-serif" font-size="18" lengthAdjust="spacing" textLength="100.2744" x="286.0674" y="652.0625">version 1.0</text></g><?plantuml-src RP3VIyD03CVVyrV4Fcq5nOc2j4_g68W8OnFVKvkreVUBkwkYz8_tRemon7i8NBx99_ac368SUT8O9IhUM1FtyiDuSmjXbZRMHlQpjhg7YzYpPjJa0nmRiLWyFAqlLtTBt77WY5iAuSlwje33iHkBJ_P1hC7LrNK1C6tPTDreQ88GoKUeNYcC0mwCFIdIPD0VGUu4gg5w3Z9_CTVypJNanvHxiUOWNjD_af81ezMDLHX4Ep8rJ7i9aVK4rJifQNDRIv7mcqo7hUYyrv0Bgotxp3d3kfEB6anoYLwwFWAcLvQBzUEoB74CoNoaHZ6mQJ6NGVL6sebAq0G8ESvhik_J0YhDTQTXzVcjgXstulaZdX_AUNiGLQT3MlSB?></g></svg>