<?plantuml 1.2026.2?><svg xmlns="http://www.w3.org/2000/svg" xmlns:xlink="http://www.w3.org/1999/xlink" contentStyleType="text/css" data-diagram-type="DESCRIPTION" height="847px" preserveAspectRatio="none" style="width:811px;height:847px;background:#F9F9F9;" version="1.1" viewBox="0 0 811 847" width="811px" zoomAndPan="magnify"><title>Use Case Diagram</title><defs/><g><rect fill="#F9F9F9" height="847" style="stroke:none;stroke-width:1;" width="811" x="0" y="0"/><g class="title" data-source-line="4"><text fill="#000000" font-family="sans-serif" font-size="14" font-weight="bold" lengthAdjust="spacing" textLength="143.3223" x="326.9398" y="22.9951">Use Case Diagram</text></g><!--cluster Sistem--><g class="cluster" data-qualified-name="Sistem" data-source-line="21" id="ent0004"><rect fill="none" height="779" rx="3.5" ry="3.5" style="stroke:#393939;stroke-width:1;" width="547.51" x="163.98" y="44.2969"/><text fill="#000000" font-family="sans-serif" font-size="14" font-weight="bold" lengthAdjust="spacing" textLength="53.9902" x="410.7399" y="59.292">Sistem</text></g><!--entity register--><g class="entity" data-qualified-name="Sistem.register" data-source-line="22" id="ent0005"><ellipse cx="278.6628" cy="491.3005" fill="#F1F1F1" rx="44.2028" ry="14.5236" style="stroke:#181818;stroke-width:0.5;"/><text fill="#000000" font-family="sans-serif" font-size="14" lengthAdjust="spacing" textLength="58.2695" x="249.528" y="495.9489">Register</text></g><!--entity login--><g class="entity" data-qualified-name="Sistem.login" data-source-line="23" id="ent0006"><ellipse cx="278.6604" cy="555.3005" fill="#F1F1F1" rx="29.8804" ry="14.5236" style="stroke:#181818;stroke-width:0.5;"/><text fill="#000000" font-family="sans-serif" font-size="14" lengthAdjust="spacing" textLength="38.0146" x="259.6531" y="559.9489">Login</text></g><!--entity resetPassword--><g class="entity" data-qualified-name="Sistem.resetPassword" data-source-line="24" id="ent0007"><ellipse cx="278.66" cy="629.2993" fill="#F1F1F1" rx="46.27" ry="24.2824" style="stroke:#181818;stroke-width:0.5;"/><text fill="#000000" font-family="sans-serif" font-size="14" lengthAdjust="spacing" textLength="39.7373" x="258.7914" y="623.1901">Reset</text><text fill="#000000" font-family="sans-serif" font-size="14" lengthAdjust="spacing" textLength="66.2676" x="245.5262" y="639.4869">Password</text></g><!--entity cariLihatProperti--><g class="entity" data-qualified-name="Sistem.cariLihatProperti" data-source-line="25" id="ent0008"><ellipse cx="278.6612" cy="255.2945" fill="#F1F1F1" rx="84.0512" ry="23.8476" style="stroke:#181818;stroke-width:0.5;"/><text fill="#000000" font-family="sans-serif" font-size="14" lengthAdjust="spacing" textLength="126.7178" x="215.3023" y="255.09">Mencari &amp; Melihat</text><text fill="#000000" font-family="sans-serif" font-size="14" lengthAdjust="spacing" textLength="55.3984" x="250.962" y="271.3869">Properti</text></g><!--entity manageProperti--><g class="entity" data-qualified-name="Sistem.manageProperti" data-source-line="26" id="ent0009"><ellipse cx="278.6557" cy="789.296" fill="#F1F1F1" rx="78.4457" ry="18.0891" style="stroke:#181818;stroke-width:0.5;"/><text fill="#000000" font-family="sans-serif" font-size="14" lengthAdjust="spacing" textLength="126.998" x="215.1567" y="793.9445">Mengatur Properti</text></g><!--entity sewaProperti--><g class="entity" data-qualified-name="Sistem.sewaProperti" data-source-line="27" id="ent0010"><ellipse cx="278.6597" cy="97.3008" fill="#F1F1F1" rx="78.1697" ry="18.0339" style="stroke:#181818;stroke-width:0.5;"/><text fill="#000000" font-family="sans-serif" font-size="14" lengthAdjust="spacing" textLength="126.3418" x="215.4888" y="101.9493">Menyewa Properti</text></g><!--entity perpanjangKontrak--><g class="entity" data-qualified-name="Sistem.perpanjangKontrak" data-source-line="28" id="ent0011"><ellipse cx="278.6645" cy="336.2938" fill="#F1F1F1" rx="98.6845" ry="22.1369" style="stroke:#181818;stroke-width:0.5;"/><text fill="#000000" font-family="sans-serif" font-size="14" lengthAdjust="spacing" textLength="173.1543" x="192.0874" y="340.9422">Memperpanjang Kontrak</text></g><!--entity bayar--><g class="entity" data-qualified-name="Sistem.bayar" data-source-line="29" id="ent0012"><ellipse cx="598.9164" cy="175.2969" fill="#F1F1F1" rx="63.3664" ry="25.3001" style="stroke:#181818;stroke-width:0.5;"/><text fill="#000000" font-family="sans-serif" font-size="14" lengthAdjust="spacing" textLength="75.7012" x="561.0658" y="170.7219">Melakukan</text><text fill="#000000" font-family="sans-serif" font-size="14" lengthAdjust="spacing" textLength="88.2314" x="554.8006" y="187.0188">Pembayaran</text></g><!--entity mengajukanSewa--><g class="entity" data-qualified-name="Sistem.mengajukanSewa" data-source-line="30" id="ent0013"><ellipse cx="598.9167" cy="97.2942" fill="#F1F1F1" rx="78.5867" ry="18.1173" style="stroke:#181818;stroke-width:0.5;"/><text fill="#000000" font-family="sans-serif" font-size="14" lengthAdjust="spacing" textLength="127.333" x="535.2502" y="101.9427">Mengajukan Sewa</text></g><!--entity kelolaPengajuanSewa--><g class="entity" data-qualified-name="Sistem.kelolaPengajuanSewa" data-source-line="31" id="ent0014"><ellipse cx="278.6592" cy="712.2919" fill="#F1F1F1" rx="97.4892" ry="23.525" style="stroke:#181818;stroke-width:0.5;"/><text fill="#000000" font-family="sans-serif" font-size="14" lengthAdjust="spacing" textLength="150.0488" x="203.6348" y="712.6113">Mengelola Pengajuan</text><text fill="#000000" font-family="sans-serif" font-size="14" lengthAdjust="spacing" textLength="37.5293" x="259.8945" y="728.9081">Sewa</text></g><!--entity negoisasiKontrak--><g class="entity" data-qualified-name="Sistem.negoisasiKontrak" data-source-line="32" id="ent0015"><ellipse cx="598.9183" cy="350.3005" fill="#F1F1F1" rx="96.5683" ry="21.7137" style="stroke:#181818;stroke-width:0.5;"/><text fill="#000000" font-family="sans-serif" font-size="14" lengthAdjust="spacing" textLength="168.4648" x="514.6859" y="354.949">Negosiasi Kontrak Sewa</text></g><!--entity chat--><g class="entity" data-qualified-name="Sistem.chat" data-source-line="33" id="ent0016"><ellipse cx="278.6643" cy="165.3005" fill="#F1F1F1" rx="26.1343" ry="14.5236" style="stroke:#181818;stroke-width:0.5;"/><text fill="#000000" font-family="sans-serif" font-size="14" lengthAdjust="spacing" textLength="32.7168" x="262.3059" y="169.9489">Chat</text></g><!--entity akhiriKontrak--><g class="entity" data-qualified-name="Sistem.akhiriKontrak" data-source-line="34" id="ent0017"><ellipse cx="278.6567" cy="417.2995" fill="#F1F1F1" rx="91.6167" ry="24.1527" style="stroke:#181818;stroke-width:0.5;"/><text fill="#000000" font-family="sans-serif" font-size="14" lengthAdjust="spacing" textLength="136.5479" x="210.3828" y="416.6113">Mengakhiri Kontrak</text><text fill="#000000" font-family="sans-serif" font-size="14" lengthAdjust="spacing" textLength="76.0088" x="240.6523" y="432.9082">Lebih Awal</text></g><!--entity signDokumenKontrak--><g class="entity" data-qualified-name="Sistem.signDokumenKontrak" data-source-line="35" id="ent0018"><ellipse cx="598.9182" cy="256.3005" fill="#F1F1F1" rx="93.4182" ry="21.0836" style="stroke:#181818;stroke-width:0.5;"/><text fill="#000000" font-family="sans-serif" font-size="14" lengthAdjust="spacing" textLength="161.4375" x="518.1994" y="260.9489">Sign Dokumen Kontrak</text></g><!--entity Tenant--><g class="entity" data-qualified-name="Tenant" data-source-line="13" id="ent0002"><ellipse cx="30.4897" cy="383.6469" fill="#191919" rx="8" ry="8" style="stroke:#191919;stroke-width:0.5;"/><path d="M30.4897,391.6469 L30.4897,418.6469 M17.4897,399.6469 L43.4897,399.6469 M30.4897,418.6469 L17.4897,433.6469 M30.4897,418.6469 L43.4897,433.6469" fill="none" style="stroke:#191919;stroke-width:0.5;"/><text fill="#191919" font-family="sans-serif" font-size="14" lengthAdjust="spacing" textLength="48.9795" x="6" y="448.142">Tenant</text></g><!--entity Owner--><g class="entity" data-qualified-name="Owner" data-source-line="15" id="ent0003"><ellipse cx="781.346" cy="537.6469" fill="#191919" rx="8" ry="8" style="stroke:#191919;stroke-width:0.5;"/><path d="M781.346,545.6469 L781.346,572.6469 M768.346,553.6469 L794.346,553.6469 M781.346,572.6469 L768.346,587.6469 M781.346,572.6469 L794.346,587.6469" fill="none" style="stroke:#191919;stroke-width:0.5;"/><text fill="#191919" font-family="sans-serif" font-size="14" lengthAdjust="spacing" textLength="45.7119" x="758.49" y="602.142">Owner</text></g><!--link Tenant to cariLihatProperti--><g class="link" data-entity-1="ent0002" data-entity-2="ent0008" data-link-type="dependency" data-source-line="40" id="lnk19"><path d="M55.44,384.5169 C78.69,358.2369 116.22,319.9669 155.98,296.2969 C173.89,285.6369 189.24,279.1397 208.76,272.8397" fill="none" id="Tenant-to-cariLihatProperti" style="stroke:#191919;stroke-width:1;"/><polygon fill="#191919" points="214.47,270.9969,204.6765,269.9545,209.7117,272.5326,207.1336,277.5678,214.47,270.9969" style="stroke:#191919;stroke-width:1;"/></g><!--reverse link cariLihatProperti to chat--><g class="link" data-entity-1="ent0008" data-entity-2="ent0016" data-link-type="dependency" data-source-line="41" id="lnk20"><path d="M278.66,225.1769 C278.66,208.9369 278.66,194.0269 278.66,180.1669" fill="none" id="cariLihatProperti-backto-chat" style="stroke:#191919;stroke-width:1;stroke-dasharray:7,7;"/><polygon fill="#191919" points="278.66,231.1769,282.66,222.1769,278.66,226.1769,274.66,222.1769,278.66,231.1769" style="stroke:#191919;stroke-width:1;"/><text fill="#000000" font-family="sans-serif" font-size="13" lengthAdjust="spacing" textLength="67.958" x="233.66" y="210.2038">&#171;extends&#187;</text></g><!--link Tenant to sewaProperti--><g class="link" data-entity-1="ent0002" data-entity-2="ent0010" data-link-type="dependency" data-source-line="43" id="lnk21"><path d="M37.93,375.1169 C50.1,314.8869 82.19,198.0169 155.98,133.2969 C171.13,120.0069 185.2146,113.2073 204.4946,107.9073" fill="none" id="Tenant-to-sewaProperti" style="stroke:#191919;stroke-width:1;"/><polygon fill="#191919" points="210.28,106.3169,200.5417,104.8455,205.4588,107.6422,202.6622,112.5594,210.28,106.3169" style="stroke:#191919;stroke-width:1;"/></g><!--link sewaProperti to bayar--><g class="link" data-entity-1="ent0010" data-entity-2="ent0012" data-link-type="dependency" data-source-line="45" id="lnk22"><path d="M333.65,110.5269 C392.35,124.9169 479.7724,146.3388 538.3724,160.6988" fill="none" id="sewaProperti-to-bayar" style="stroke:#191919;stroke-width:1;stroke-dasharray:7,7;"/><polygon fill="#191919" points="544.2,162.1269,536.4107,156.0997,539.3437,160.9368,534.5066,163.8698,544.2,162.1269" style="stroke:#191919;stroke-width:1;"/><text fill="#000000" font-family="sans-serif" font-size="13" lengthAdjust="spacing" textLength="63.0068" x="408.35" y="125.3738">&#171;include&#187;</text></g><!--link sewaProperti to mengajukanSewa--><g class="link" data-entity-1="ent0010" data-entity-2="ent0013" data-link-type="dependency" data-source-line="46" id="lnk23"><path d="M357.11,97.2969 C406.51,97.2969 464.32,97.2969 513.85,97.2969" fill="none" id="sewaProperti-to-mengajukanSewa" style="stroke:#191919;stroke-width:1;stroke-dasharray:7,7;"/><polygon fill="#191919" points="519.85,97.2969,510.85,93.2969,514.85,97.2969,510.85,101.2969,519.85,97.2969" style="stroke:#191919;stroke-width:1;"/><text fill="#000000" font-family="sans-serif" font-size="13" lengthAdjust="spacing" textLength="63.0068" x="408.35" y="93.3638">&#171;include&#187;</text></g><!--link sewaProperti to negoisasiKontrak--><g class="link" data-entity-1="ent0010" data-entity-2="ent0015" data-link-type="dependency" data-source-line="47" id="lnk24"><path d="M332.57,110.7569 C347.92,116.1969 364.09,123.5669 377.35,133.2969 C395.67,146.7569 485.22,280.3369 502.35,295.2969 C518.21,309.1469 532.7804,318.4337 550.3004,327.7337" fill="none" id="sewaProperti-to-negoisasiKontrak" style="stroke:#191919;stroke-width:1;stroke-dasharray:7,7;"/><polygon fill="#191919" points="555.6,330.5469,549.526,322.794,551.1836,328.2026,545.7751,329.8602,555.6,330.5469" style="stroke:#191919;stroke-width:1;"/><text fill="#000000" font-family="sans-serif" font-size="13" lengthAdjust="spacing" textLength="63.0068" x="408.35" y="167.4638">&#171;include&#187;</text></g><!--reverse link negoisasiKontrak to signDokumenKontrak--><g class="link" data-entity-1="ent0015" data-entity-2="ent0018" data-link-type="dependency" data-source-line="48" id="lnk25"><path d="M598.92,322.4969 C598.92,307.1969 598.92,292.8569 598.92,277.6569" fill="none" id="negoisasiKontrak-backto-signDokumenKontrak" style="stroke:#191919;stroke-width:1;stroke-dasharray:7,7;"/><polygon fill="#191919" points="598.92,328.4969,602.92,319.4969,598.92,323.4969,594.92,319.4969,598.92,328.4969" style="stroke:#191919;stroke-width:1;"/><text fill="#000000" font-family="sans-serif" font-size="13" lengthAdjust="spacing" textLength="67.958" x="553.92" y="307.5438">&#171;extends&#187;</text></g><!--link Tenant to perpanjangKontrak--><g class="link" data-entity-1="ent0002" data-entity-2="ent0011" data-link-type="dependency" data-source-line="49" id="lnk26"><path d="M55.34,401.0669 C64.47,396.6769 75.06,391.9169 84.98,388.2969 C124.85,373.7269 164.8544,362.6328 201.8144,353.5228" fill="none" id="Tenant-to-perpanjangKontrak" style="stroke:#191919;stroke-width:1;"/><polygon fill="#191919" points="207.64,352.0869,197.9443,350.357,202.7853,353.2835,199.8588,358.1245,207.64,352.0869" style="stroke:#191919;stroke-width:1;"/></g><!--link Tenant to akhiriKontrak--><g class="link" data-entity-1="ent0002" data-entity-2="ent0017" data-link-type="dependency" data-source-line="51" id="lnk27"><path d="M55.09,413.6769 C85.36,414.1769 133.6008,414.9593 180.9508,415.7293" fill="none" id="Tenant-to-akhiriKontrak" style="stroke:#191919;stroke-width:1;"/><polygon fill="#191919" points="186.95,415.8269,178.0162,411.6811,181.9507,415.7456,177.8862,419.68,186.95,415.8269" style="stroke:#191919;stroke-width:1;"/></g><!--reverse link manageProperti to Owner--><g class="link" data-entity-1="ent0009" data-entity-2="ent0003" data-link-type="dependency" data-source-line="53" id="lnk29"><path d="M363.5465,789.653 C458.5665,786.423 613.62,768.0469 719.49,685.2969 C744.91,665.4269 760.73,631.9969 769.84,605.7869" fill="none" id="manageProperti-backto-Owner" style="stroke:#191919;stroke-width:1;"/><polygon fill="#191919" points="357.55,789.8569,366.6807,793.5488,362.5471,789.687,366.4089,785.5534,357.55,789.8569" style="stroke:#191919;stroke-width:1;"/></g><!--reverse link negoisasiKontrak to Owner--><g class="link" data-entity-1="ent0015" data-entity-2="ent0003" data-link-type="dependency" data-source-line="54" id="lnk31"><path d="M677.0897,366.8789 C697.8297,374.1789 713.29,383.0869 728.49,399.2969 C761.78,434.8169 773.72,491.2969 777.98,528.8169" fill="none" id="negoisasiKontrak-backto-Owner" style="stroke:#191919;stroke-width:1;"/><polygon fill="#191919" points="671.43,364.8869,678.5914,371.6481,676.1464,366.5469,681.2475,364.1019,671.43,364.8869" style="stroke:#191919;stroke-width:1;"/></g><!--reverse link kelolaPengajuanSewa to Owner--><g class="link" data-entity-1="ent0014" data-entity-2="ent0003" data-link-type="dependency" data-source-line="55" id="lnk33"><path d="M373.0911,701.3184 C464.2111,688.4584 603.62,662.2469 719.49,610.2969 C733.3,604.1069 747.19,594.5869 758.22,586.0869" fill="none" id="kelolaPengajuanSewa-backto-Owner" style="stroke:#191919;stroke-width:1;"/><polygon fill="#191919" points="367.15,702.1569,376.6207,704.8599,372.1009,701.4581,375.5027,696.9384,367.15,702.1569" style="stroke:#191919;stroke-width:1;"/></g><!--link Tenant to register--><g class="link" data-entity-1="ent0002" data-entity-2="ent0005" data-link-type="dependency" data-source-line="57" id="lnk34"><path d="M55.12,422.8069 C79.99,432.6269 120.38,448.0669 155.98,459.2969 C184.62,468.3369 211.773,475.4664 236.173,481.4564" fill="none" id="Tenant-to-register" style="stroke:#191919;stroke-width:1;"/><polygon fill="#191919" points="242,482.8869,234.2132,476.8565,237.1442,481.6948,232.3059,484.6258,242,482.8869" style="stroke:#191919;stroke-width:1;"/></g><!--reverse link register to Owner--><g class="link" data-entity-1="ent0005" data-entity-2="ent0003" data-link-type="dependency" data-source-line="58" id="lnk36"><path d="M328.9149,492.9537 C408.3249,496.2237 576.35,506.3469 719.49,537.2969 C733.07,540.2369 747.06,546.8369 758.2,553.1069" fill="none" id="register-backto-Owner" style="stroke:#191919;stroke-width:1;"/><polygon fill="#191919" points="322.92,492.7069,331.7478,497.0738,327.9158,492.9126,332.077,489.0806,322.92,492.7069" style="stroke:#191919;stroke-width:1;"/></g><!--link Tenant to login--><g class="link" data-entity-1="ent0002" data-entity-2="ent0006" data-link-type="dependency" data-source-line="59" id="lnk37"><path d="M55.47,440.8369 C78.74,465.8969 116.29,502.1069 155.98,523.2969 C185.65,539.1369 217.7371,546.5483 243.3171,550.6883" fill="none" id="Tenant-to-login" style="stroke:#191919;stroke-width:1;"/><polygon fill="#191919" points="249.24,551.6469,240.9947,546.2604,244.3042,550.848,239.7165,554.1576,249.24,551.6469" style="stroke:#191919;stroke-width:1;"/></g><!--reverse link login to Owner--><g class="link" data-entity-1="ent0006" data-entity-2="ent0003" data-link-type="dependency" data-source-line="60" id="lnk39"><path d="M314.7483,556.1407 C405.6383,558.3207 677.1,564.8269 757.99,566.7569" fill="none" id="login-backto-Owner" style="stroke:#191919;stroke-width:1;"/><polygon fill="#191919" points="308.75,555.9969,317.6515,560.2115,313.7486,556.1168,317.8433,552.2138,308.75,555.9969" style="stroke:#191919;stroke-width:1;"/></g><!--link Tenant to resetPassword--><g class="link" data-entity-1="ent0002" data-entity-2="ent0007" data-link-type="dependency" data-source-line="61" id="lnk40"><path d="M50.01,451.8969 C70.71,491.1869 107.75,551.3069 155.98,587.2969 C179.09,604.5369 203.9798,613.6089 228.7698,619.8189" fill="none" id="Tenant-to-resetPassword" style="stroke:#191919;stroke-width:1;"/><polygon fill="#191919" points="234.59,621.2769,226.8317,615.2098,229.7399,620.0619,224.8878,622.97,234.59,621.2769" style="stroke:#191919;stroke-width:1;"/></g><!--reverse link resetPassword to Owner--><g class="link" data-entity-1="ent0007" data-entity-2="ent0003" data-link-type="dependency" data-source-line="62" id="lnk42"><path d="M330.238,623.3081 C410.938,613.7081 580.55,593.3469 728.49,574.2969 C738.22,573.0469 748.97,571.6069 758.14,570.3569" fill="none" id="resetPassword-backto-Owner" style="stroke:#191919;stroke-width:1;"/><polygon fill="#191919" points="324.28,624.0169,333.6895,626.9257,329.245,623.4262,332.7445,618.9817,324.28,624.0169" style="stroke:#191919;stroke-width:1;"/></g><!--reverse link chat to Owner--><g class="link" data-entity-1="ent0016" data-entity-2="ent0003" data-link-type="dependency" data-source-line="64" id="lnk44"><path d="M307.6374,174.4033 C328.9574,182.0533 355.37,193.9169 377.35,214.2969 C396.35,231.9169 392.82,242.8369 407.35,264.2969 C446.47,322.0769 448.42,345.0169 502.35,389.2969 C585.34,457.4469 634.75,429.3169 719.49,495.2969 C734.08,506.6569 747.64,522.0169 758.25,535.6369" fill="none" id="chat-backto-Owner" style="stroke:#191919;stroke-width:1;"/><polygon fill="#191919" points="301.99,172.3769,309.1102,179.1815,306.6962,174.0655,311.8121,171.6515,301.99,172.3769" style="stroke:#191919;stroke-width:1;"/></g><g class="footer" data-source-line="5"><text fill="#888888" font-family="sans-serif" font-size="10" lengthAdjust="spacing" textLength="55.708" x="370.747" y="837.5791">version 1.1</text></g><?plantuml-src dLLVRzem47_tfxYzB9jKaFfQKIH4zrJQJgDxwyj1heaXiP7jZA5jttqNXuGaJbG97f3z-tFs-SvET3_uWoTo6AD36ER59vTIJf2ZiIAZTmTEWv59wY2MXhPEQYMST1d1JqkmHFvxa9WOpCMxreuC_29ZMGMtqriHNRaB4Js_l7wxWqSqf10iEITL0fdVpGsWmHHs64lOa2asc8e8_6PdapaK1vvLMowdiJugCRQHUrXidJOZsxWNwDbNteDo7BMQSkBcpBmS5OyZ3y7ixoG4QkzrwuyU8CVVbcS_uYihXIhXAgsbTPJ37m7yAywkBpyeAN7p5T22EK-wafLEfF9yLexwVYx9c_gErXwrYSzX6AkHhlo9r1QDXCzS-4ocM5gDFf1nqbjBSbNYDHhO4tI5WOufHuK9ZJfETCIkmJ8o9iyPFQ3QyQ71erREuDvxBl0PxHipt1TxL9mGvHiySMTMX-R70sdiIZMiUIjL4WrMGg6UCfrn6fMgNAPnxZtLCA7zcH9j9LfP9tHPLJ4bBLE3IIsv45LPU32GmZwLfWdwfbQqaIaiZfXvKqKF1bxBHC63tXUSTUUKBHDdl3R-kxRrGnyijLBLqyKTkCAJBbpW5jL5XSc4tuom7mC4PbD_Fd07indzTgHYEv-B9ioyssvHPmhJwHoSY-l2b36ascP5J1mZKFfU-aZKxQIFrFqEwEa3chCDYzJB_P9wU6kY41jDxHAdsql2FwumAGvCzMv_cmgwkqqENPlMYirRsFOqu4LNlObjKOMq8xMVmswuDXF1nUClN5lgWKPoRMkByU_88kEgSaNTs7MAwY_8fFcuNHdgFm00?></g></svg>