<?plantuml 1.2026.2?><svg xmlns="http://www.w3.org/2000/svg" xmlns:xlink="http://www.w3.org/1999/xlink" contentStyleType="text/css" data-diagram-type="DESCRIPTION" height="746px" preserveAspectRatio="none" style="width:776px;height:746px;background:#F9F9F9;" version="1.1" viewBox="0 0 776 746" width="776px" zoomAndPan="magnify"><title>Use Case Diagram</title><defs/><g><rect fill="#F9F9F9" height="746" style="stroke:none;stroke-width:1;" width="776" x="0" y="0"/><g class="title" data-source-line="4"><text fill="#000000" font-family="sans-serif" font-size="14" font-weight="bold" lengthAdjust="spacing" textLength="143.3223" x="309.6748" y="22.9951">Use Case Diagram</text></g><!--cluster Sistem--><g class="cluster" data-qualified-name="Sistem" data-source-line="21" id="ent0006"><rect fill="none" height="678" rx="3.5" ry="3.5" style="stroke:#393939;stroke-width:1;" width="576.89" x="100.07" y="44.2969"/><text fill="#000000" font-family="sans-serif" font-size="14" font-weight="bold" lengthAdjust="spacing" textLength="53.9902" x="361.5199" y="59.292">Sistem</text></g><!--entity register--><g class="entity" data-qualified-name="Sistem.register" data-source-line="22" id="ent0007"><ellipse cx="227.4128" cy="94.3005" fill="#F1F1F1" rx="44.2028" ry="14.5236" style="stroke:#181818;stroke-width:0.5;"/><text fill="#000000" font-family="sans-serif" font-size="14" lengthAdjust="spacing" textLength="58.2695" x="198.278" y="98.9489">Register</text></g><!--entity login--><g class="entity" data-qualified-name="Sistem.login" data-source-line="23" id="ent0008"><ellipse cx="227.4104" cy="158.3005" fill="#F1F1F1" rx="29.8804" ry="14.5236" style="stroke:#181818;stroke-width:0.5;"/><text fill="#000000" font-family="sans-serif" font-size="14" lengthAdjust="spacing" textLength="38.0146" x="208.4031" y="162.9489">Login</text></g><!--entity resetPassword--><g class="entity" data-qualified-name="Sistem.resetPassword" data-source-line="24" id="ent0009"><ellipse cx="227.41" cy="232.2993" fill="#F1F1F1" rx="46.27" ry="24.2824" style="stroke:#181818;stroke-width:0.5;"/><text fill="#000000" font-family="sans-serif" font-size="14" lengthAdjust="spacing" textLength="39.7373" x="207.5414" y="226.1901">Reset</text><text fill="#000000" font-family="sans-serif" font-size="14" lengthAdjust="spacing" textLength="66.2676" x="194.2762" y="242.4869">Password</text></g><!--entity cariLihatProperti--><g class="entity" data-qualified-name="Sistem.cariLihatProperti" data-source-line="25" id="ent0010"><ellipse cx="227.4112" cy="379.2945" fill="#F1F1F1" rx="84.0512" ry="23.8476" style="stroke:#181818;stroke-width:0.5;"/><text fill="#000000" font-family="sans-serif" font-size="14" lengthAdjust="spacing" textLength="126.7178" x="164.0523" y="379.09">Mencari &amp; Melihat</text><text fill="#000000" font-family="sans-serif" font-size="14" lengthAdjust="spacing" textLength="55.3984" x="199.712" y="395.3869">Properti</text></g><!--entity sewaProperti--><g class="entity" data-qualified-name="Sistem.sewaProperti" data-source-line="26" id="ent0011"><ellipse cx="227.4097" cy="456.3008" fill="#F1F1F1" rx="78.1697" ry="18.0339" style="stroke:#181818;stroke-width:0.5;"/><text fill="#000000" font-family="sans-serif" font-size="14" lengthAdjust="spacing" textLength="126.3418" x="164.2388" y="460.9493">Menyewa Properti</text></g><!--entity manageProperti--><g class="entity" data-qualified-name="Sistem.manageProperti" data-source-line="27" id="ent0012"><ellipse cx="227.4057" cy="688.296" fill="#F1F1F1" rx="78.4457" ry="18.0891" style="stroke:#181818;stroke-width:0.5;"/><text fill="#000000" font-family="sans-serif" font-size="14" lengthAdjust="spacing" textLength="126.998" x="163.9067" y="692.9445">Mengatur Properti</text></g><!--entity perpanjangSewa--><g class="entity" data-qualified-name="Sistem.perpanjangSewa" data-source-line="28" id="ent0013"><ellipse cx="227.4084" cy="530.2986" fill="#F1F1F1" rx="91.0584" ry="20.6117" style="stroke:#181818;stroke-width:0.5;"/><text fill="#000000" font-family="sans-serif" font-size="14" lengthAdjust="spacing" textLength="156.1328" x="149.342" y="534.947">Memperpanjang Sewa</text></g><!--entity bayar--><g class="entity" data-qualified-name="Sistem.bayar" data-source-line="30" id="ent0014"><ellipse cx="562.3564" cy="534.2969" fill="#F1F1F1" rx="63.3664" ry="25.3001" style="stroke:#181818;stroke-width:0.5;"/><text fill="#000000" font-family="sans-serif" font-size="14" lengthAdjust="spacing" textLength="75.7012" x="524.5058" y="529.7219">Melakukan</text><text fill="#000000" font-family="sans-serif" font-size="14" lengthAdjust="spacing" textLength="88.2314" x="518.2406" y="546.0188">Pembayaran</text></g><!--entity mengajukanSewa--><g class="entity" data-qualified-name="Sistem.mengajukanSewa" data-source-line="31" id="ent0015"><ellipse cx="562.3567" cy="456.2942" fill="#F1F1F1" rx="78.5867" ry="18.1173" style="stroke:#181818;stroke-width:0.5;"/><text fill="#000000" font-family="sans-serif" font-size="14" lengthAdjust="spacing" textLength="127.333" x="498.6902" y="460.9427">Mengajukan Sewa</text></g><!--entity memprosesPengajuanSewa--><g class="entity" data-qualified-name="Sistem.memprosesPengajuanSewa" data-source-line="32" id="ent0016"><ellipse cx="227.4116" cy="610.2952" fill="#F1F1F1" rx="111.3416" ry="24.6683" style="stroke:#181818;stroke-width:0.5;"/><text fill="#000000" font-family="sans-serif" font-size="14" lengthAdjust="spacing" textLength="200.7783" x="127.0225" y="614.9436">Memproses Pengajuan Sewa</text></g><!--entity mengelolaKontrak--><g class="entity" data-qualified-name="Sistem.mengelolaKontrak" data-source-line="33" id="ent0017"><ellipse cx="562.361" cy="381.2971" fill="#F1F1F1" rx="98.601" ry="22.1202" style="stroke:#181818;stroke-width:0.5;"/><text fill="#000000" font-family="sans-serif" font-size="14" lengthAdjust="spacing" textLength="172.9697" x="475.8762" y="385.9455">Mengelola Kontrak Sewa</text></g><!--entity chat--><g class="entity" data-qualified-name="Sistem.chat" data-source-line="34" id="ent0018"><ellipse cx="227.4143" cy="306.3005" fill="#F1F1F1" rx="26.1343" ry="14.5236" style="stroke:#181818;stroke-width:0.5;"/><text fill="#000000" font-family="sans-serif" font-size="14" lengthAdjust="spacing" textLength="32.7168" x="211.0559" y="310.9489">Chat</text></g><!--entity Renter--><g class="entity" data-qualified-name="Renter" data-source-line="13" id="ent0002"><ellipse cx="29.5361" cy="396.6469" fill="#191919" rx="8" ry="8" style="stroke:#191919;stroke-width:0.5;"/><path d="M29.5361,404.6469 L29.5361,431.6469 M16.5361,412.6469 L42.5361,412.6469 M29.5361,431.6469 L16.5361,446.6469 M29.5361,431.6469 L42.5361,446.6469" fill="none" style="stroke:#191919;stroke-width:0.5;"/><text fill="#191919" font-family="sans-serif" font-size="14" lengthAdjust="spacing" textLength="47.0723" x="6" y="461.142">Renter</text></g><!--entity User--><g class="entity" data-qualified-name="User" data-source-line="14" id="ent0003"><ellipse cx="29.5351" cy="202.6469" fill="#191919" rx="8" ry="8" style="stroke:#191919;stroke-width:0.5;"/><path d="M29.5351,210.6469 L29.5351,237.6469 M16.5351,218.6469 L42.5351,218.6469 M29.5351,237.6469 L16.5351,252.6469 M29.5351,237.6469 L42.5351,252.6469" fill="none" style="stroke:#191919;stroke-width:0.5;"/><text fill="#191919" font-family="sans-serif" font-size="14" lengthAdjust="spacing" textLength="31.9102" x="13.58" y="267.142">User</text></g><!--entity Owner--><g class="entity" data-qualified-name="Owner" data-source-line="15" id="ent0004"><ellipse cx="746.816" cy="582.6469" fill="#191919" rx="8" ry="8" style="stroke:#191919;stroke-width:0.5;"/><path d="M746.816,590.6469 L746.816,617.6469 M733.816,598.6469 L759.816,598.6469 M746.816,617.6469 L733.816,632.6469 M746.816,617.6469 L759.816,632.6469" fill="none" style="stroke:#191919;stroke-width:0.5;"/><text fill="#191919" font-family="sans-serif" font-size="14" lengthAdjust="spacing" textLength="45.7119" x="723.96" y="647.142">Owner</text></g><!--reverse link User to Renter--><g class="link" data-entity-1="ent0003" data-entity-2="ent0002" data-link-type="extension" data-source-line="17" id="lnk5"><path d="M29.54,288.8269 C29.54,327.7669 29.54,348.7069 29.54,387.6469" fill="none" id="User-backto-Renter" style="stroke:#191919;stroke-width:1;"/><polygon fill="none" points="29.54,270.8269,23.54,288.8269,35.54,288.8269,29.54,270.8269" style="stroke:#191919;stroke-width:1;"/></g><!--link Renter to cariLihatProperti--><g class="link" data-entity-1="ent0002" data-entity-2="ent0010" data-link-type="dependency" data-source-line="39" id="lnk19"><path d="M53.39,420.8169 C79.93,414.4469 119.0256,405.067 156.4456,396.087" fill="none" id="Renter-to-cariLihatProperti" style="stroke:#191919;stroke-width:1;"/><polygon fill="#191919" points="162.28,394.6869,152.5951,392.8975,157.418,395.8536,154.4619,400.6766,162.28,394.6869" style="stroke:#191919;stroke-width:1;"/></g><!--link Renter to sewaProperti--><g class="link" data-entity-1="ent0002" data-entity-2="ent0011" data-link-type="dependency" data-source-line="41" id="lnk20"><path d="M53.39,429.7969 C79.73,433.8269 118.2493,439.7278 155.4993,445.4378" fill="none" id="Renter-to-sewaProperti" style="stroke:#191919;stroke-width:1;"/><polygon fill="#191919" points="161.43,446.3469,153.14,441.0294,156.4877,445.5893,151.9278,448.937,161.43,446.3469" style="stroke:#191919;stroke-width:1;"/></g><!--link sewaProperti to bayar--><g class="link" data-entity-1="ent0011" data-entity-2="ent0014" data-link-type="dependency" data-source-line="43" id="lnk21"><path d="M283.39,469.1769 C345.36,483.6969 439.6283,505.7779 501.2883,520.2279" fill="none" id="sewaProperti-to-bayar" style="stroke:#191919;stroke-width:1;stroke-dasharray:7,7;"/><polygon fill="#191919" points="507.13,521.5969,499.2801,515.6489,502.2619,520.456,497.4547,523.4379,507.13,521.5969" style="stroke:#191919;stroke-width:1;"/><text fill="#000000" font-family="sans-serif" font-size="13" lengthAdjust="spacing" textLength="63.0068" x="369.76" y="486.6938">&#171;include&#187;</text></g><!--link sewaProperti to mengajukanSewa--><g class="link" data-entity-1="ent0011" data-entity-2="ent0015" data-link-type="dependency" data-source-line="44" id="lnk22"><path d="M306.05,456.2969 C359.38,456.2969 423.89,456.2969 477.3,456.2969" fill="none" id="sewaProperti-to-mengajukanSewa" style="stroke:#191919;stroke-width:1;stroke-dasharray:7,7;"/><polygon fill="#191919" points="483.3,456.2969,474.3,452.2969,478.3,456.2969,474.3,460.2969,483.3,456.2969" style="stroke:#191919;stroke-width:1;"/><text fill="#000000" font-family="sans-serif" font-size="13" lengthAdjust="spacing" textLength="63.0068" x="369.76" y="452.3638">&#171;include&#187;</text></g><!--link sewaProperti to mengelolaKontrak--><g class="link" data-entity-1="ent0011" data-entity-2="ent0017" data-link-type="dependency" data-source-line="45" id="lnk23"><path d="M284.52,443.6569 C341.5,430.8169 424.0465,412.2247 485.5665,398.3747" fill="none" id="sewaProperti-to-mengelolaKontrak" style="stroke:#191919;stroke-width:1;stroke-dasharray:7,7;"/><polygon fill="#191919" points="491.42,397.0569,481.7612,395.1312,486.5421,398.155,483.5183,402.9359,491.42,397.0569" style="stroke:#191919;stroke-width:1;"/><text fill="#000000" font-family="sans-serif" font-size="13" lengthAdjust="spacing" textLength="63.0068" x="369.76" y="408.1438">&#171;include&#187;</text></g><!--link Renter to perpanjangSewa--><g class="link" data-entity-1="ent0002" data-entity-2="ent0013" data-link-type="dependency" data-source-line="46" id="lnk24"><path d="M53.4,457.4469 C63.93,469.8669 77.36,483.3169 92.07,492.2969 C110.9,503.7869 127.5275,510.3526 148.5975,516.0426" fill="none" id="Renter-to-perpanjangSewa" style="stroke:#191919;stroke-width:1;"/><polygon fill="#191919" points="154.39,517.6069,146.7441,511.3988,149.5629,516.3033,144.6584,519.1221,154.39,517.6069" style="stroke:#191919;stroke-width:1;"/></g><!--link perpanjangSewa to bayar--><g class="link" data-entity-1="ent0013" data-entity-2="ent0014" data-link-type="dependency" data-source-line="47" id="lnk25"><path d="M293.4,544.8969 C317,549.5269 343.96,554.0169 368.76,556.2969 C397.52,558.9369 404.97,558.7569 433.76,556.2969 C457.5,554.2669 477.5506,551.2409 499.8206,547.1109" fill="none" id="perpanjangSewa-to-bayar" style="stroke:#191919;stroke-width:1;stroke-dasharray:7,7;"/><polygon fill="#191919" points="505.72,546.0169,496.1415,543.725,500.8038,546.9286,497.6003,551.5909,505.72,546.0169" style="stroke:#191919;stroke-width:1;"/><text fill="#000000" font-family="sans-serif" font-size="13" lengthAdjust="spacing" textLength="63.0068" x="369.76" y="552.3638">&#171;include&#187;</text></g><!--reverse link manageProperti to Owner--><g class="link" data-entity-1="ent0012" data-entity-2="ent0004" data-link-type="dependency" data-source-line="49" id="lnk27"><path d="M300.6788,677.9221 C390.9988,664.9221 551.79,641.6469 693.96,620.2969 C703.69,618.8369 714.44,617.1869 723.61,615.7569" fill="none" id="manageProperti-backto-Owner" style="stroke:#191919;stroke-width:1;"/><polygon fill="#191919" points="294.74,678.7769,304.2181,681.4539,299.689,678.0646,303.0783,673.5355,294.74,678.7769" style="stroke:#191919;stroke-width:1;"/></g><!--reverse link mengelolaKontrak to Owner--><g class="link" data-entity-1="ent0017" data-entity-2="ent0004" data-link-type="dependency" data-source-line="50" id="lnk29"><path d="M647.7977,396.6102 C663.5577,402.3502 673.22,408.5169 684.96,420.2969 C726.18,461.6569 739.52,530.7669 743.81,573.8169" fill="none" id="mengelolaKontrak-backto-Owner" style="stroke:#191919;stroke-width:1;"/><polygon fill="#191919" points="642.16,394.5569,649.2477,401.3953,646.8581,396.268,651.9855,393.8784,642.16,394.5569" style="stroke:#191919;stroke-width:1;"/></g><!--reverse link memprosesPengajuanSewa to Owner--><g class="link" data-entity-1="ent0016" data-entity-2="ent0004" data-link-type="dependency" data-source-line="51" id="lnk31"><path d="M345.09,610.7499 C470.07,611.2299 658.51,611.9569 723.68,612.2069" fill="none" id="memprosesPengajuanSewa-backto-Owner" style="stroke:#191919;stroke-width:1;"/><polygon fill="#191919" points="339.09,610.7269,348.0746,614.7614,344.09,610.7461,348.1053,606.7615,339.09,610.7269" style="stroke:#191919;stroke-width:1;"/></g><!--link User to register--><g class="link" data-entity-1="ent0003" data-entity-2="ent0007" data-link-type="dependency" data-source-line="53" id="lnk32"><path d="M43.88,193.8369 C53.76,170.9269 69.45,143.1169 92.07,126.2969 C118.34,106.7669 148.8241,99.6056 177.1241,96.5756" fill="none" id="User-to-register" style="stroke:#191919;stroke-width:1;"/><polygon fill="#191919" points="183.09,95.9369,173.7153,92.9177,178.1184,96.4692,174.567,100.8723,183.09,95.9369" style="stroke:#191919;stroke-width:1;"/></g><!--link User to login--><g class="link" data-entity-1="ent0003" data-entity-2="ent0008" data-link-type="dependency" data-source-line="54" id="lnk33"><path d="M45.78,219.5369 C57.7,210.1769 75.04,197.8269 92.07,190.2969 C126.94,174.8769 164.3905,167.1842 192.2505,162.8742" fill="none" id="User-to-login" style="stroke:#191919;stroke-width:1;"/><polygon fill="#191919" points="198.18,161.9569,188.6743,159.3798,193.2388,162.7213,189.8973,167.2858,198.18,161.9569" style="stroke:#191919;stroke-width:1;"/></g><!--link User to resetPassword--><g class="link" data-entity-1="ent0003" data-entity-2="ent0009" data-link-type="dependency" data-source-line="55" id="lnk34"><path d="M45.91,232.2969 C74.59,232.2969 131.27,232.2969 174.66,232.2969" fill="none" id="User-to-resetPassword" style="stroke:#191919;stroke-width:1;"/><polygon fill="#191919" points="180.66,232.2969,171.66,228.2969,175.66,232.2969,171.66,236.2969,180.66,232.2969" style="stroke:#191919;stroke-width:1;"/></g><!--link User to chat--><g class="link" data-entity-1="ent0003" data-entity-2="ent0018" data-link-type="dependency" data-source-line="56" id="lnk35"><path d="M45.78,245.0569 C57.7,254.4169 75.04,266.7669 92.07,274.2969 C128.36,290.3469 167.9459,298.1302 195.5859,302.2602" fill="none" id="User-to-chat" style="stroke:#191919;stroke-width:1;"/><polygon fill="#191919" points="201.52,303.1469,193.2099,297.8608,196.5749,302.408,192.0277,305.7729,201.52,303.1469" style="stroke:#191919;stroke-width:1;"/></g><g class="footer" data-source-line="5"><text fill="#888888" font-family="sans-serif" font-size="10" lengthAdjust="spacing" textLength="55.708" x="353.482" y="736.5791">version 1.0</text></g><?plantuml-src dLJ1Rjim3BthAxZBl05Di5sB942HxjHqBThijWiJiuuIMmeaUK6mxTz7oOvZEJPMn0T3V7nFVX9f9jFU1nx9OOeEeJylFhWD5GG56YjoUdFWD1YPRHoaqj3QIQs4aoud-649viYlUucPmKAyQUt8m2yobbdmTVn595Uw4Cdtf-MtMtX0Gmh1adDIPP07DpU01ZUmnLJ2Yaovmer889YTZ6PGxZcgBFimrGSbXenCuMxjj1cmCHKOiY-a-61rmCS-BPyEYjT9W63oPrG3JLZhhlpsuENn_cj_xmCwNoLK6LVeLLf71VmMm4zPgpwzKEPnyndGWgc3cBBGcLGXd_jLLy_b-AcUqTg3Dccz3MCd9AO_abgZaV2HYvxB3NgfqNioJWQfJouyVa8lv4Sw84GQoyWWFKDNcfXVeCACXXG5etjKMxuqUEMTW-ICUIX8ahDekRo7dLREu2wmdKiVgh2xUOwxSeUA3qt52e_SkTN5XdMFzwrddsqK3TROY9mRRSd2SyMAXNMooVLje3BATOvGcu-_6rAznvfpkQhYyKBylRPJBtKmrqfLKuORPe57NReBjQZ-AnZntttPFUrir2T95C9uF6kL3MvXCf5gdPSfpMRYWXdAzJzINAptiDjNtE6tZj7fnJWSj2V2D89HkUSjEdz0bEgMEaxsjb4ruxotPe0qI3KoMeJsQ6ZWq3bSaw4P-RvE4CDJyYwNcUApkQ7kIqxpSLGFxdy0?></g></svg>